M48
; DRILL file {KiCad (6.0.2-0)} date Saturday, June 03, 2023 at 09:44:52 PM
; FORMAT={-:-/ absolute / metric / decimal}
; #@! TF.CreationDate,2023-06-03T21:44:52-06:00
; #@! TF.GenerationSoftware,Kicad,Pcbnew,(6.0.2-0)
; #@! TF.FileFunction,MixedPlating,1,2
FMAT,2
METRIC
; #@! TA.AperFunction,Plated,PTH,ViaDrill
T1C0.300
; #@! TA.AperFunction,Plated,PTH,ViaDrill
T2C0.800
; #@! TA.AperFunction,Plated,PTH,ComponentDrill
T3C1.000
; #@! TA.AperFunction,NonPlated,NPTH,ComponentDrill
T4C0.900
%
G90
G05
T1
X111.5Y-79.5
X111.5Y-80.5
X111.5Y-81.5
X111.5Y-82.5
X112.5Y-53.25
X112.5Y-56.0
X112.5Y-79.5
X112.5Y-80.5
X112.5Y-81.5
X112.5Y-82.5
X113.5Y-79.5
X113.5Y-80.5
X113.5Y-81.5
X113.5Y-82.5
X114.5Y-57.5
X114.5Y-79.5
X114.5Y-80.5
X114.5Y-81.5
X114.5Y-82.5
X115.0Y-52.0
X121.3Y-52.7
X122.5Y-52.75
X124.4Y-54.2
X125.5Y-54.2
X125.5Y-55.1
X132.6Y-61.0
X132.7Y-65.9
X132.7Y-66.65
X133.2Y-60.5
X134.0Y-62.65
X135.8Y-58.5
X166.8Y-65.0
X166.8Y-65.8
X169.6Y-64.9
X169.6Y-65.9
T2
X141.4Y-80.9
X141.4Y-82.0
X142.6Y-80.9
X142.6Y-82.0
X158.9Y-64.7
X158.9Y-65.8
X160.0Y-64.7
X160.0Y-65.8
X165.9Y-64.9
X165.9Y-66.0
X168.6Y-64.9
X168.6Y-66.0
X181.4Y-80.9
X181.4Y-82.0
X182.6Y-80.9
X182.6Y-82.0
T3
X118.135Y-65.8
X120.675Y-65.8
T4
X124.75Y-50.195
X127.75Y-50.195
T0
M30
