%TF.GenerationSoftware,KiCad,Pcbnew,(6.0.2-0)*%
%TF.CreationDate,2023-06-03T21:44:49-06:00*%
%TF.ProjectId,catlin_card,6361746c-696e-45f6-9361-72642e6b6963,rev?*%
%TF.SameCoordinates,Original*%
%TF.FileFunction,Soldermask,Top*%
%TF.FilePolarity,Negative*%
%FSLAX46Y46*%
G04 Gerber Fmt 4.6, Leading zero omitted, Abs format (unit mm)*
G04 Created by KiCad (PCBNEW (6.0.2-0)) date 2023-06-03 21:44:49*
%MOMM*%
%LPD*%
G01*
G04 APERTURE LIST*
G04 Aperture macros list*
%AMRoundRect*
0 Rectangle with rounded corners*
0 $1 Rounding radius*
0 $2 $3 $4 $5 $6 $7 $8 $9 X,Y pos of 4 corners*
0 Add a 4 corners polygon primitive as box body*
4,1,4,$2,$3,$4,$5,$6,$7,$8,$9,$2,$3,0*
0 Add four circle primitives for the rounded corners*
1,1,$1+$1,$2,$3*
1,1,$1+$1,$4,$5*
1,1,$1+$1,$6,$7*
1,1,$1+$1,$8,$9*
0 Add four rect primitives between the rounded corners*
20,1,$1+$1,$2,$3,$4,$5,0*
20,1,$1+$1,$4,$5,$6,$7,0*
20,1,$1+$1,$6,$7,$8,$9,0*
20,1,$1+$1,$8,$9,$2,$3,0*%
G04 Aperture macros list end*
%ADD10RoundRect,0.250000X0.337500X0.475000X-0.337500X0.475000X-0.337500X-0.475000X0.337500X-0.475000X0*%
%ADD11R,1.800000X3.500000*%
%ADD12RoundRect,0.450000X-0.450000X1.300000X-0.450000X-1.300000X0.450000X-1.300000X0.450000X1.300000X0*%
%ADD13RoundRect,1.000000X-2.250000X-1.000000X2.250000X-1.000000X2.250000X1.000000X-2.250000X1.000000X0*%
%ADD14RoundRect,0.250000X0.312500X0.625000X-0.312500X0.625000X-0.312500X-0.625000X0.312500X-0.625000X0*%
%ADD15R,1.000000X1.000000*%
%ADD16RoundRect,0.250000X-0.312500X-0.625000X0.312500X-0.625000X0.312500X0.625000X-0.312500X0.625000X0*%
%ADD17R,1.300000X1.300000*%
%ADD18R,2.000000X1.300000*%
%ADD19RoundRect,0.250000X-1.450000X0.400000X-1.450000X-0.400000X1.450000X-0.400000X1.450000X0.400000X0*%
%ADD20RoundRect,0.847460X-1.652540X-1.652540X1.652540X-1.652540X1.652540X1.652540X-1.652540X1.652540X0*%
%ADD21RoundRect,0.250000X-0.337500X-0.475000X0.337500X-0.475000X0.337500X0.475000X-0.337500X0.475000X0*%
%ADD22C,0.900000*%
%ADD23R,1.000000X0.800000*%
%ADD24RoundRect,0.200000X0.300000X0.200000X-0.300000X0.200000X-0.300000X-0.200000X0.300000X-0.200000X0*%
%ADD25R,0.700000X1.500000*%
%ADD26R,2.000000X2.000000*%
%ADD27RoundRect,0.250000X-0.450000X0.350000X-0.450000X-0.350000X0.450000X-0.350000X0.450000X0.350000X0*%
%ADD28RoundRect,0.250000X-0.350000X-0.450000X0.350000X-0.450000X0.350000X0.450000X-0.350000X0.450000X0*%
%ADD29R,0.900000X1.200000*%
%ADD30RoundRect,1.375000X-1.375000X1.625000X-1.375000X-1.625000X1.375000X-1.625000X1.375000X1.625000X0*%
%ADD31C,20.000000*%
%ADD32RoundRect,0.150000X0.150000X-0.512500X0.150000X0.512500X-0.150000X0.512500X-0.150000X-0.512500X0*%
%ADD33RoundRect,0.250000X0.250000X-0.425000X0.250000X0.425000X-0.250000X0.425000X-0.250000X-0.425000X0*%
%ADD34RoundRect,0.425000X-0.425000X0.425000X-0.425000X-0.425000X0.425000X-0.425000X0.425000X0.425000X0*%
%ADD35O,1.700000X1.700000*%
%ADD36RoundRect,0.325000X-0.675000X-0.325000X0.675000X-0.325000X0.675000X0.325000X-0.675000X0.325000X0*%
G04 APERTURE END LIST*
D10*
%TO.C,C2*%
X135637500Y-66000000D03*
X133562500Y-66000000D03*
%TD*%
D11*
%TO.C,D4*%
X134000000Y-50400000D03*
D12*
X134000000Y-55400000D03*
%TD*%
D13*
%TO.C,TP2*%
X140750000Y-82000000D03*
%TD*%
D14*
%TO.C,R5*%
X104662500Y-60000000D03*
X101737500Y-60000000D03*
%TD*%
%TO.C,R3*%
X110062500Y-60000000D03*
X107137500Y-60000000D03*
%TD*%
D15*
%TO.C,TP3*%
X135600000Y-68700000D03*
%TD*%
D16*
%TO.C,R1*%
X117337500Y-59900000D03*
X120262500Y-59900000D03*
%TD*%
D17*
%TO.C,RV3*%
X105150000Y-52250000D03*
D18*
X104000000Y-57750000D03*
D17*
X102850000Y-52250000D03*
%TD*%
D13*
%TO.C,TP5*%
X183250000Y-82000000D03*
%TD*%
D19*
%TO.C,TH1*%
X124700000Y-65675000D03*
X124700000Y-70125000D03*
%TD*%
D20*
%TO.C,SC1*%
X157800000Y-65500000D03*
X167500000Y-65500000D03*
%TD*%
D21*
%TO.C,C3*%
X132962500Y-58500000D03*
X135037500Y-58500000D03*
%TD*%
D22*
%TO.C,SW1*%
X124750000Y-50195000D03*
D23*
X122600000Y-49095000D03*
X129900000Y-49095000D03*
D22*
X127750000Y-50195000D03*
D23*
X122600000Y-51305000D03*
D24*
X129900000Y-51305000D03*
D25*
X128500000Y-51955000D03*
X125500000Y-51955000D03*
X124000000Y-51955000D03*
%TD*%
D26*
%TO.C,TP1*%
X123000000Y-57750000D03*
%TD*%
D14*
%TO.C,R6*%
X104662500Y-62500000D03*
X101737500Y-62500000D03*
%TD*%
D10*
%TO.C,C1*%
X124287500Y-55000000D03*
X122212500Y-55000000D03*
%TD*%
D27*
%TO.C,R7*%
X131200000Y-60900000D03*
X131200000Y-62900000D03*
%TD*%
D28*
%TO.C,R8*%
X129600000Y-66000000D03*
X131600000Y-66000000D03*
%TD*%
D29*
%TO.C,D5*%
X108550000Y-97800000D03*
X105250000Y-97800000D03*
%TD*%
D30*
%TO.C,BT1*%
X113000000Y-96300000D03*
X113000000Y-65700000D03*
D31*
X113000000Y-81000000D03*
%TD*%
D26*
%TO.C,TP4*%
X124300000Y-63100000D03*
%TD*%
D17*
%TO.C,RV2*%
X112150000Y-52250000D03*
D18*
X111000000Y-57750000D03*
D17*
X109850000Y-52250000D03*
%TD*%
D32*
%TO.C,U1*%
X133050000Y-63237500D03*
X134000000Y-63237500D03*
X134950000Y-63237500D03*
D33*
X134950000Y-60962500D03*
X133050000Y-60962500D03*
%TD*%
D16*
%TO.C,R4*%
X112137500Y-60000000D03*
X115062500Y-60000000D03*
%TD*%
D34*
%TO.C,J1*%
X120675000Y-65800000D03*
D35*
X118135000Y-65800000D03*
%TD*%
D16*
%TO.C,R2*%
X117337500Y-62300000D03*
X120262500Y-62300000D03*
%TD*%
D17*
%TO.C,RV1*%
X119150000Y-52250000D03*
D36*
X118000000Y-57750000D03*
D17*
X116850000Y-52250000D03*
%TD*%
M02*
