%TF.GenerationSoftware,KiCad,Pcbnew,(6.0.2-0)*%
%TF.CreationDate,2023-06-03T21:44:48-06:00*%
%TF.ProjectId,catlin_card,6361746c-696e-45f6-9361-72642e6b6963,rev?*%
%TF.SameCoordinates,Original*%
%TF.FileFunction,Legend,Top*%
%TF.FilePolarity,Positive*%
%FSLAX46Y46*%
G04 Gerber Fmt 4.6, Leading zero omitted, Abs format (unit mm)*
G04 Created by KiCad (PCBNEW (6.0.2-0)) date 2023-06-03 21:44:48*
%MOMM*%
%LPD*%
G01*
G04 APERTURE LIST*
%ADD10C,0.150000*%
%ADD11C,0.200000*%
%ADD12C,0.120000*%
G04 APERTURE END LIST*
D10*
X107200000Y-95500000D02*
X107200000Y-96600000D01*
X106580000Y-96420000D02*
X107170000Y-96040000D01*
X107200000Y-96050000D02*
X107600000Y-96050000D01*
X106580000Y-96050000D02*
X106100000Y-96050000D01*
X107170000Y-96040000D02*
X106600000Y-95650000D01*
X106580000Y-95660000D02*
X106580000Y-96420000D01*
X136825000Y-48250000D02*
X188775000Y-48250000D01*
X188775000Y-48250000D02*
X188775000Y-99750000D01*
X188775000Y-99750000D02*
X136825000Y-99750000D01*
X136825000Y-99750000D02*
X136825000Y-48250000D01*
X166890476Y-61500000D02*
X166814285Y-61452380D01*
X166700000Y-61452380D01*
X166585714Y-61500000D01*
X166509523Y-61595238D01*
X166471428Y-61690476D01*
X166433333Y-61880952D01*
X166433333Y-62023809D01*
X166471428Y-62214285D01*
X166509523Y-62309523D01*
X166585714Y-62404761D01*
X166700000Y-62452380D01*
X166776190Y-62452380D01*
X166890476Y-62404761D01*
X166928571Y-62357142D01*
X166928571Y-62023809D01*
X166776190Y-62023809D01*
X167271428Y-62452380D02*
X167271428Y-61452380D01*
X167728571Y-62452380D01*
X167728571Y-61452380D01*
X168109523Y-62452380D02*
X168109523Y-61452380D01*
X168300000Y-61452380D01*
X168414285Y-61500000D01*
X168490476Y-61595238D01*
X168528571Y-61690476D01*
X168566666Y-61880952D01*
X168566666Y-62023809D01*
X168528571Y-62214285D01*
X168490476Y-62309523D01*
X168414285Y-62404761D01*
X168300000Y-62452380D01*
X168109523Y-62452380D01*
X142614285Y-50385714D02*
X142757142Y-50442857D01*
X142995238Y-50442857D01*
X143090476Y-50385714D01*
X143138095Y-50328571D01*
X143185714Y-50214285D01*
X143185714Y-50100000D01*
X143138095Y-49985714D01*
X143090476Y-49928571D01*
X142995238Y-49871428D01*
X142804761Y-49814285D01*
X142709523Y-49757142D01*
X142661904Y-49700000D01*
X142614285Y-49585714D01*
X142614285Y-49471428D01*
X142661904Y-49357142D01*
X142709523Y-49300000D01*
X142804761Y-49242857D01*
X143042857Y-49242857D01*
X143185714Y-49300000D01*
X143757142Y-50442857D02*
X143661904Y-50385714D01*
X143614285Y-50328571D01*
X143566666Y-50214285D01*
X143566666Y-49871428D01*
X143614285Y-49757142D01*
X143661904Y-49700000D01*
X143757142Y-49642857D01*
X143900000Y-49642857D01*
X143995238Y-49700000D01*
X144042857Y-49757142D01*
X144090476Y-49871428D01*
X144090476Y-50214285D01*
X144042857Y-50328571D01*
X143995238Y-50385714D01*
X143900000Y-50442857D01*
X143757142Y-50442857D01*
X144661904Y-50442857D02*
X144566666Y-50385714D01*
X144519047Y-50271428D01*
X144519047Y-49242857D01*
X145471428Y-50442857D02*
X145471428Y-49814285D01*
X145423809Y-49700000D01*
X145328571Y-49642857D01*
X145138095Y-49642857D01*
X145042857Y-49700000D01*
X145471428Y-50385714D02*
X145376190Y-50442857D01*
X145138095Y-50442857D01*
X145042857Y-50385714D01*
X144995238Y-50271428D01*
X144995238Y-50157142D01*
X145042857Y-50042857D01*
X145138095Y-49985714D01*
X145376190Y-49985714D01*
X145471428Y-49928571D01*
X145947619Y-50442857D02*
X145947619Y-49642857D01*
X145947619Y-49871428D02*
X145995238Y-49757142D01*
X146042857Y-49700000D01*
X146138095Y-49642857D01*
X146233333Y-49642857D01*
X146566666Y-49985714D02*
X147328571Y-49985714D01*
X148376190Y-50328571D02*
X148328571Y-50385714D01*
X148185714Y-50442857D01*
X148090476Y-50442857D01*
X147947619Y-50385714D01*
X147852380Y-50271428D01*
X147804761Y-50157142D01*
X147757142Y-49928571D01*
X147757142Y-49757142D01*
X147804761Y-49528571D01*
X147852380Y-49414285D01*
X147947619Y-49300000D01*
X148090476Y-49242857D01*
X148185714Y-49242857D01*
X148328571Y-49300000D01*
X148376190Y-49357142D01*
X148804761Y-50442857D02*
X148804761Y-49242857D01*
X149233333Y-50442857D02*
X149233333Y-49814285D01*
X149185714Y-49700000D01*
X149090476Y-49642857D01*
X148947619Y-49642857D01*
X148852380Y-49700000D01*
X148804761Y-49757142D01*
X150138095Y-50442857D02*
X150138095Y-49814285D01*
X150090476Y-49700000D01*
X149995238Y-49642857D01*
X149804761Y-49642857D01*
X149709523Y-49700000D01*
X150138095Y-50385714D02*
X150042857Y-50442857D01*
X149804761Y-50442857D01*
X149709523Y-50385714D01*
X149661904Y-50271428D01*
X149661904Y-50157142D01*
X149709523Y-50042857D01*
X149804761Y-49985714D01*
X150042857Y-49985714D01*
X150138095Y-49928571D01*
X150614285Y-50442857D02*
X150614285Y-49642857D01*
X150614285Y-49871428D02*
X150661904Y-49757142D01*
X150709523Y-49700000D01*
X150804761Y-49642857D01*
X150900000Y-49642857D01*
X151661904Y-49642857D02*
X151661904Y-50614285D01*
X151614285Y-50728571D01*
X151566666Y-50785714D01*
X151471428Y-50842857D01*
X151328571Y-50842857D01*
X151233333Y-50785714D01*
X151661904Y-50385714D02*
X151566666Y-50442857D01*
X151376190Y-50442857D01*
X151280952Y-50385714D01*
X151233333Y-50328571D01*
X151185714Y-50214285D01*
X151185714Y-49871428D01*
X151233333Y-49757142D01*
X151280952Y-49700000D01*
X151376190Y-49642857D01*
X151566666Y-49642857D01*
X151661904Y-49700000D01*
X152138095Y-50442857D02*
X152138095Y-49642857D01*
X152138095Y-49242857D02*
X152090476Y-49300000D01*
X152138095Y-49357142D01*
X152185714Y-49300000D01*
X152138095Y-49242857D01*
X152138095Y-49357142D01*
X152614285Y-49642857D02*
X152614285Y-50442857D01*
X152614285Y-49757142D02*
X152661904Y-49700000D01*
X152757142Y-49642857D01*
X152900000Y-49642857D01*
X152995238Y-49700000D01*
X153042857Y-49814285D01*
X153042857Y-50442857D01*
X153947619Y-49642857D02*
X153947619Y-50614285D01*
X153900000Y-50728571D01*
X153852380Y-50785714D01*
X153757142Y-50842857D01*
X153614285Y-50842857D01*
X153519047Y-50785714D01*
X153947619Y-50385714D02*
X153852380Y-50442857D01*
X153661904Y-50442857D01*
X153566666Y-50385714D01*
X153519047Y-50328571D01*
X153471428Y-50214285D01*
X153471428Y-49871428D01*
X153519047Y-49757142D01*
X153566666Y-49700000D01*
X153661904Y-49642857D01*
X153852380Y-49642857D01*
X153947619Y-49700000D01*
X155519047Y-49814285D02*
X155661904Y-49871428D01*
X155709523Y-49928571D01*
X155757142Y-50042857D01*
X155757142Y-50214285D01*
X155709523Y-50328571D01*
X155661904Y-50385714D01*
X155566666Y-50442857D01*
X155185714Y-50442857D01*
X155185714Y-49242857D01*
X155519047Y-49242857D01*
X155614285Y-49300000D01*
X155661904Y-49357142D01*
X155709523Y-49471428D01*
X155709523Y-49585714D01*
X155661904Y-49700000D01*
X155614285Y-49757142D01*
X155519047Y-49814285D01*
X155185714Y-49814285D01*
X156185714Y-50442857D02*
X156185714Y-49642857D01*
X156185714Y-49871428D02*
X156233333Y-49757142D01*
X156280952Y-49700000D01*
X156376190Y-49642857D01*
X156471428Y-49642857D01*
X156804761Y-50442857D02*
X156804761Y-49642857D01*
X156804761Y-49242857D02*
X156757142Y-49300000D01*
X156804761Y-49357142D01*
X156852380Y-49300000D01*
X156804761Y-49242857D01*
X156804761Y-49357142D01*
X157709523Y-49642857D02*
X157709523Y-50614285D01*
X157661904Y-50728571D01*
X157614285Y-50785714D01*
X157519047Y-50842857D01*
X157376190Y-50842857D01*
X157280952Y-50785714D01*
X157709523Y-50385714D02*
X157614285Y-50442857D01*
X157423809Y-50442857D01*
X157328571Y-50385714D01*
X157280952Y-50328571D01*
X157233333Y-50214285D01*
X157233333Y-49871428D01*
X157280952Y-49757142D01*
X157328571Y-49700000D01*
X157423809Y-49642857D01*
X157614285Y-49642857D01*
X157709523Y-49700000D01*
X158185714Y-50442857D02*
X158185714Y-49242857D01*
X158614285Y-50442857D02*
X158614285Y-49814285D01*
X158566666Y-49700000D01*
X158471428Y-49642857D01*
X158328571Y-49642857D01*
X158233333Y-49700000D01*
X158185714Y-49757142D01*
X158947619Y-49642857D02*
X159328571Y-49642857D01*
X159090476Y-49242857D02*
X159090476Y-50271428D01*
X159138095Y-50385714D01*
X159233333Y-50442857D01*
X159328571Y-50442857D01*
X159661904Y-49642857D02*
X159661904Y-50442857D01*
X159661904Y-49757142D02*
X159709523Y-49700000D01*
X159804761Y-49642857D01*
X159947619Y-49642857D01*
X160042857Y-49700000D01*
X160090476Y-49814285D01*
X160090476Y-50442857D01*
X160947619Y-50385714D02*
X160852380Y-50442857D01*
X160661904Y-50442857D01*
X160566666Y-50385714D01*
X160519047Y-50271428D01*
X160519047Y-49814285D01*
X160566666Y-49700000D01*
X160661904Y-49642857D01*
X160852380Y-49642857D01*
X160947619Y-49700000D01*
X160995238Y-49814285D01*
X160995238Y-49928571D01*
X160519047Y-50042857D01*
X161376190Y-50385714D02*
X161471428Y-50442857D01*
X161661904Y-50442857D01*
X161757142Y-50385714D01*
X161804761Y-50271428D01*
X161804761Y-50214285D01*
X161757142Y-50100000D01*
X161661904Y-50042857D01*
X161519047Y-50042857D01*
X161423809Y-49985714D01*
X161376190Y-49871428D01*
X161376190Y-49814285D01*
X161423809Y-49700000D01*
X161519047Y-49642857D01*
X161661904Y-49642857D01*
X161757142Y-49700000D01*
X162185714Y-50385714D02*
X162280952Y-50442857D01*
X162471428Y-50442857D01*
X162566666Y-50385714D01*
X162614285Y-50271428D01*
X162614285Y-50214285D01*
X162566666Y-50100000D01*
X162471428Y-50042857D01*
X162328571Y-50042857D01*
X162233333Y-49985714D01*
X162185714Y-49871428D01*
X162185714Y-49814285D01*
X162233333Y-49700000D01*
X162328571Y-49642857D01*
X162471428Y-49642857D01*
X162566666Y-49700000D01*
X163042857Y-49985714D02*
X163804761Y-49985714D01*
X164233333Y-50100000D02*
X164709523Y-50100000D01*
X164138095Y-50442857D02*
X164471428Y-49242857D01*
X164804761Y-50442857D01*
X165566666Y-50442857D02*
X165566666Y-49242857D01*
X165566666Y-50385714D02*
X165471428Y-50442857D01*
X165280952Y-50442857D01*
X165185714Y-50385714D01*
X165138095Y-50328571D01*
X165090476Y-50214285D01*
X165090476Y-49871428D01*
X165138095Y-49757142D01*
X165185714Y-49700000D01*
X165280952Y-49642857D01*
X165471428Y-49642857D01*
X165566666Y-49700000D01*
X166042857Y-49642857D02*
X166042857Y-50671428D01*
X165995238Y-50785714D01*
X165900000Y-50842857D01*
X165852380Y-50842857D01*
X166042857Y-49242857D02*
X165995238Y-49300000D01*
X166042857Y-49357142D01*
X166090476Y-49300000D01*
X166042857Y-49242857D01*
X166042857Y-49357142D01*
X166947619Y-49642857D02*
X166947619Y-50442857D01*
X166519047Y-49642857D02*
X166519047Y-50271428D01*
X166566666Y-50385714D01*
X166661904Y-50442857D01*
X166804761Y-50442857D01*
X166900000Y-50385714D01*
X166947619Y-50328571D01*
X167376190Y-50385714D02*
X167471428Y-50442857D01*
X167661904Y-50442857D01*
X167757142Y-50385714D01*
X167804761Y-50271428D01*
X167804761Y-50214285D01*
X167757142Y-50100000D01*
X167661904Y-50042857D01*
X167519047Y-50042857D01*
X167423809Y-49985714D01*
X167376190Y-49871428D01*
X167376190Y-49814285D01*
X167423809Y-49700000D01*
X167519047Y-49642857D01*
X167661904Y-49642857D01*
X167757142Y-49700000D01*
X168090476Y-49642857D02*
X168471428Y-49642857D01*
X168233333Y-49242857D02*
X168233333Y-50271428D01*
X168280952Y-50385714D01*
X168376190Y-50442857D01*
X168471428Y-50442857D01*
X169233333Y-50442857D02*
X169233333Y-49814285D01*
X169185714Y-49700000D01*
X169090476Y-49642857D01*
X168900000Y-49642857D01*
X168804761Y-49700000D01*
X169233333Y-50385714D02*
X169138095Y-50442857D01*
X168900000Y-50442857D01*
X168804761Y-50385714D01*
X168757142Y-50271428D01*
X168757142Y-50157142D01*
X168804761Y-50042857D01*
X168900000Y-49985714D01*
X169138095Y-49985714D01*
X169233333Y-49928571D01*
X169709523Y-50442857D02*
X169709523Y-49242857D01*
X169709523Y-49700000D02*
X169804761Y-49642857D01*
X169995238Y-49642857D01*
X170090476Y-49700000D01*
X170138095Y-49757142D01*
X170185714Y-49871428D01*
X170185714Y-50214285D01*
X170138095Y-50328571D01*
X170090476Y-50385714D01*
X169995238Y-50442857D01*
X169804761Y-50442857D01*
X169709523Y-50385714D01*
X170757142Y-50442857D02*
X170661904Y-50385714D01*
X170614285Y-50271428D01*
X170614285Y-49242857D01*
X171519047Y-50385714D02*
X171423809Y-50442857D01*
X171233333Y-50442857D01*
X171138095Y-50385714D01*
X171090476Y-50271428D01*
X171090476Y-49814285D01*
X171138095Y-49700000D01*
X171233333Y-49642857D01*
X171423809Y-49642857D01*
X171519047Y-49700000D01*
X171566666Y-49814285D01*
X171566666Y-49928571D01*
X171090476Y-50042857D01*
X173233333Y-50442857D02*
X172757142Y-50442857D01*
X172757142Y-49242857D01*
X173566666Y-49814285D02*
X173900000Y-49814285D01*
X174042857Y-50442857D02*
X173566666Y-50442857D01*
X173566666Y-49242857D01*
X174042857Y-49242857D01*
X174471428Y-50442857D02*
X174471428Y-49242857D01*
X174709523Y-49242857D01*
X174852380Y-49300000D01*
X174947619Y-49414285D01*
X174995238Y-49528571D01*
X175042857Y-49757142D01*
X175042857Y-49928571D01*
X174995238Y-50157142D01*
X174947619Y-50271428D01*
X174852380Y-50385714D01*
X174709523Y-50442857D01*
X174471428Y-50442857D01*
X176566666Y-49814285D02*
X176233333Y-49814285D01*
X176233333Y-50442857D02*
X176233333Y-49242857D01*
X176709523Y-49242857D01*
X177233333Y-50442857D02*
X177138095Y-50385714D01*
X177090476Y-50271428D01*
X177090476Y-49242857D01*
X178042857Y-50442857D02*
X178042857Y-49814285D01*
X177995238Y-49700000D01*
X177900000Y-49642857D01*
X177709523Y-49642857D01*
X177614285Y-49700000D01*
X178042857Y-50385714D02*
X177947619Y-50442857D01*
X177709523Y-50442857D01*
X177614285Y-50385714D01*
X177566666Y-50271428D01*
X177566666Y-50157142D01*
X177614285Y-50042857D01*
X177709523Y-49985714D01*
X177947619Y-49985714D01*
X178042857Y-49928571D01*
X178471428Y-50385714D02*
X178566666Y-50442857D01*
X178757142Y-50442857D01*
X178852380Y-50385714D01*
X178900000Y-50271428D01*
X178900000Y-50214285D01*
X178852380Y-50100000D01*
X178757142Y-50042857D01*
X178614285Y-50042857D01*
X178519047Y-49985714D01*
X178471428Y-49871428D01*
X178471428Y-49814285D01*
X178519047Y-49700000D01*
X178614285Y-49642857D01*
X178757142Y-49642857D01*
X178852380Y-49700000D01*
X179328571Y-50442857D02*
X179328571Y-49242857D01*
X179757142Y-50442857D02*
X179757142Y-49814285D01*
X179709523Y-49700000D01*
X179614285Y-49642857D01*
X179471428Y-49642857D01*
X179376190Y-49700000D01*
X179328571Y-49757142D01*
X180376190Y-50442857D02*
X180280952Y-50385714D01*
X180233333Y-50271428D01*
X180233333Y-49242857D01*
X180757142Y-50442857D02*
X180757142Y-49642857D01*
X180757142Y-49242857D02*
X180709523Y-49300000D01*
X180757142Y-49357142D01*
X180804761Y-49300000D01*
X180757142Y-49242857D01*
X180757142Y-49357142D01*
X181661904Y-49642857D02*
X181661904Y-50614285D01*
X181614285Y-50728571D01*
X181566666Y-50785714D01*
X181471428Y-50842857D01*
X181328571Y-50842857D01*
X181233333Y-50785714D01*
X181661904Y-50385714D02*
X181566666Y-50442857D01*
X181376190Y-50442857D01*
X181280952Y-50385714D01*
X181233333Y-50328571D01*
X181185714Y-50214285D01*
X181185714Y-49871428D01*
X181233333Y-49757142D01*
X181280952Y-49700000D01*
X181376190Y-49642857D01*
X181566666Y-49642857D01*
X181661904Y-49700000D01*
X182138095Y-50442857D02*
X182138095Y-49242857D01*
X182566666Y-50442857D02*
X182566666Y-49814285D01*
X182519047Y-49700000D01*
X182423809Y-49642857D01*
X182280952Y-49642857D01*
X182185714Y-49700000D01*
X182138095Y-49757142D01*
X182900000Y-49642857D02*
X183280952Y-49642857D01*
X183042857Y-49242857D02*
X183042857Y-50271428D01*
X183090476Y-50385714D01*
X183185714Y-50442857D01*
X183280952Y-50442857D01*
X128658142Y-95016666D02*
X128058142Y-95016666D01*
X127758142Y-95016666D02*
X127801000Y-95050000D01*
X127843857Y-95016666D01*
X127801000Y-94983333D01*
X127758142Y-95016666D01*
X127843857Y-95016666D01*
X128058142Y-94683333D02*
X128658142Y-94683333D01*
X128143857Y-94683333D02*
X128101000Y-94650000D01*
X128058142Y-94583333D01*
X128058142Y-94483333D01*
X128101000Y-94416666D01*
X128186714Y-94383333D01*
X128658142Y-94383333D01*
X128615285Y-94083333D02*
X128658142Y-94016666D01*
X128658142Y-93883333D01*
X128615285Y-93816666D01*
X128529571Y-93783333D01*
X128486714Y-93783333D01*
X128401000Y-93816666D01*
X128358142Y-93883333D01*
X128358142Y-93983333D01*
X128315285Y-94050000D01*
X128229571Y-94083333D01*
X128186714Y-94083333D01*
X128101000Y-94050000D01*
X128058142Y-93983333D01*
X128058142Y-93883333D01*
X128101000Y-93816666D01*
X128615285Y-93216666D02*
X128658142Y-93283333D01*
X128658142Y-93416666D01*
X128615285Y-93483333D01*
X128529571Y-93516666D01*
X128186714Y-93516666D01*
X128101000Y-93483333D01*
X128058142Y-93416666D01*
X128058142Y-93283333D01*
X128101000Y-93216666D01*
X128186714Y-93183333D01*
X128272428Y-93183333D01*
X128358142Y-93516666D01*
X128658142Y-92883333D02*
X128058142Y-92883333D01*
X128229571Y-92883333D02*
X128143857Y-92850000D01*
X128101000Y-92816666D01*
X128058142Y-92750000D01*
X128058142Y-92683333D01*
X128058142Y-92550000D02*
X128058142Y-92283333D01*
X127758142Y-92450000D02*
X128529571Y-92450000D01*
X128615285Y-92416666D01*
X128658142Y-92350000D01*
X128658142Y-92283333D01*
X128658142Y-91516666D02*
X127758142Y-91516666D01*
X128101000Y-91516666D02*
X128058142Y-91450000D01*
X128058142Y-91316666D01*
X128101000Y-91250000D01*
X128143857Y-91216666D01*
X128229571Y-91183333D01*
X128486714Y-91183333D01*
X128572428Y-91216666D01*
X128615285Y-91250000D01*
X128658142Y-91316666D01*
X128658142Y-91450000D01*
X128615285Y-91516666D01*
X128658142Y-90583333D02*
X128186714Y-90583333D01*
X128101000Y-90616666D01*
X128058142Y-90683333D01*
X128058142Y-90816666D01*
X128101000Y-90883333D01*
X128615285Y-90583333D02*
X128658142Y-90650000D01*
X128658142Y-90816666D01*
X128615285Y-90883333D01*
X128529571Y-90916666D01*
X128443857Y-90916666D01*
X128358142Y-90883333D01*
X128315285Y-90816666D01*
X128315285Y-90650000D01*
X128272428Y-90583333D01*
X128058142Y-90350000D02*
X128058142Y-90083333D01*
X127758142Y-90250000D02*
X128529571Y-90250000D01*
X128615285Y-90216666D01*
X128658142Y-90150000D01*
X128658142Y-90083333D01*
X128058142Y-89950000D02*
X128058142Y-89683333D01*
X127758142Y-89850000D02*
X128529571Y-89850000D01*
X128615285Y-89816666D01*
X128658142Y-89750000D01*
X128658142Y-89683333D01*
X128615285Y-89183333D02*
X128658142Y-89250000D01*
X128658142Y-89383333D01*
X128615285Y-89450000D01*
X128529571Y-89483333D01*
X128186714Y-89483333D01*
X128101000Y-89450000D01*
X128058142Y-89383333D01*
X128058142Y-89250000D01*
X128101000Y-89183333D01*
X128186714Y-89150000D01*
X128272428Y-89150000D01*
X128358142Y-89483333D01*
X128658142Y-88850000D02*
X128058142Y-88850000D01*
X128229571Y-88850000D02*
X128143857Y-88816666D01*
X128101000Y-88783333D01*
X128058142Y-88716666D01*
X128058142Y-88650000D01*
X128058142Y-88483333D02*
X128658142Y-88316666D01*
X128058142Y-88150000D02*
X128658142Y-88316666D01*
X128872428Y-88383333D01*
X128915285Y-88416666D01*
X128958142Y-88483333D01*
X128058142Y-87416666D02*
X128658142Y-87283333D01*
X128229571Y-87150000D01*
X128658142Y-87016666D01*
X128058142Y-86883333D01*
X128658142Y-86616666D02*
X128058142Y-86616666D01*
X127758142Y-86616666D02*
X127801000Y-86650000D01*
X127843857Y-86616666D01*
X127801000Y-86583333D01*
X127758142Y-86616666D01*
X127843857Y-86616666D01*
X128058142Y-86383333D02*
X128058142Y-86116666D01*
X127758142Y-86283333D02*
X128529571Y-86283333D01*
X128615285Y-86250000D01*
X128658142Y-86183333D01*
X128658142Y-86116666D01*
X128658142Y-85883333D02*
X127758142Y-85883333D01*
X128658142Y-85583333D02*
X128186714Y-85583333D01*
X128101000Y-85616666D01*
X128058142Y-85683333D01*
X128058142Y-85783333D01*
X128101000Y-85850000D01*
X128143857Y-85883333D01*
X128058142Y-84716666D02*
X128958142Y-84716666D01*
X128101000Y-84716666D02*
X128058142Y-84650000D01*
X128058142Y-84516666D01*
X128101000Y-84450000D01*
X128143857Y-84416666D01*
X128229571Y-84383333D01*
X128486714Y-84383333D01*
X128572428Y-84416666D01*
X128615285Y-84450000D01*
X128658142Y-84516666D01*
X128658142Y-84650000D01*
X128615285Y-84716666D01*
X128658142Y-83983333D02*
X128615285Y-84050000D01*
X128572428Y-84083333D01*
X128486714Y-84116666D01*
X128229571Y-84116666D01*
X128143857Y-84083333D01*
X128101000Y-84050000D01*
X128058142Y-83983333D01*
X128058142Y-83883333D01*
X128101000Y-83816666D01*
X128143857Y-83783333D01*
X128229571Y-83750000D01*
X128486714Y-83750000D01*
X128572428Y-83783333D01*
X128615285Y-83816666D01*
X128658142Y-83883333D01*
X128658142Y-83983333D01*
X128615285Y-83483333D02*
X128658142Y-83416666D01*
X128658142Y-83283333D01*
X128615285Y-83216666D01*
X128529571Y-83183333D01*
X128486714Y-83183333D01*
X128401000Y-83216666D01*
X128358142Y-83283333D01*
X128358142Y-83383333D01*
X128315285Y-83450000D01*
X128229571Y-83483333D01*
X128186714Y-83483333D01*
X128101000Y-83450000D01*
X128058142Y-83383333D01*
X128058142Y-83283333D01*
X128101000Y-83216666D01*
X128658142Y-82883333D02*
X128058142Y-82883333D01*
X127758142Y-82883333D02*
X127801000Y-82916666D01*
X127843857Y-82883333D01*
X127801000Y-82850000D01*
X127758142Y-82883333D01*
X127843857Y-82883333D01*
X128058142Y-82650000D02*
X128058142Y-82383333D01*
X127758142Y-82550000D02*
X128529571Y-82550000D01*
X128615285Y-82516666D01*
X128658142Y-82450000D01*
X128658142Y-82383333D01*
X128658142Y-82150000D02*
X128058142Y-82150000D01*
X127758142Y-82150000D02*
X127801000Y-82183333D01*
X127843857Y-82150000D01*
X127801000Y-82116666D01*
X127758142Y-82150000D01*
X127843857Y-82150000D01*
X128058142Y-81883333D02*
X128658142Y-81716666D01*
X128058142Y-81550000D01*
X128615285Y-81016666D02*
X128658142Y-81083333D01*
X128658142Y-81216666D01*
X128615285Y-81283333D01*
X128529571Y-81316666D01*
X128186714Y-81316666D01*
X128101000Y-81283333D01*
X128058142Y-81216666D01*
X128058142Y-81083333D01*
X128101000Y-81016666D01*
X128186714Y-80983333D01*
X128272428Y-80983333D01*
X128358142Y-81316666D01*
X128058142Y-80250000D02*
X128058142Y-79983333D01*
X127758142Y-80150000D02*
X128529571Y-80150000D01*
X128615285Y-80116666D01*
X128658142Y-80050000D01*
X128658142Y-79983333D01*
X128615285Y-79483333D02*
X128658142Y-79550000D01*
X128658142Y-79683333D01*
X128615285Y-79750000D01*
X128529571Y-79783333D01*
X128186714Y-79783333D01*
X128101000Y-79750000D01*
X128058142Y-79683333D01*
X128058142Y-79550000D01*
X128101000Y-79483333D01*
X128186714Y-79450000D01*
X128272428Y-79450000D01*
X128358142Y-79783333D01*
X128658142Y-79150000D02*
X128058142Y-79150000D01*
X128229571Y-79150000D02*
X128143857Y-79116666D01*
X128101000Y-79083333D01*
X128058142Y-79016666D01*
X128058142Y-78950000D01*
X128658142Y-78716666D02*
X128058142Y-78716666D01*
X128143857Y-78716666D02*
X128101000Y-78683333D01*
X128058142Y-78616666D01*
X128058142Y-78516666D01*
X128101000Y-78449999D01*
X128186714Y-78416666D01*
X128658142Y-78416666D01*
X128186714Y-78416666D02*
X128101000Y-78383333D01*
X128058142Y-78316666D01*
X128058142Y-78216666D01*
X128101000Y-78150000D01*
X128186714Y-78116666D01*
X128658142Y-78116666D01*
X128658142Y-77783333D02*
X128058142Y-77783333D01*
X127758142Y-77783333D02*
X127801000Y-77816666D01*
X127843857Y-77783333D01*
X127801000Y-77750000D01*
X127758142Y-77783333D01*
X127843857Y-77783333D01*
X128058142Y-77450000D02*
X128658142Y-77450000D01*
X128143857Y-77450000D02*
X128101000Y-77416666D01*
X128058142Y-77350000D01*
X128058142Y-77250000D01*
X128101000Y-77183333D01*
X128186714Y-77150000D01*
X128658142Y-77150000D01*
X128658142Y-76516666D02*
X128186714Y-76516666D01*
X128101000Y-76550000D01*
X128058142Y-76616666D01*
X128058142Y-76750000D01*
X128101000Y-76816666D01*
X128615285Y-76516666D02*
X128658142Y-76583333D01*
X128658142Y-76750000D01*
X128615285Y-76816666D01*
X128529571Y-76850000D01*
X128443857Y-76850000D01*
X128358142Y-76816666D01*
X128315285Y-76750000D01*
X128315285Y-76583333D01*
X128272428Y-76516666D01*
X128658142Y-76083333D02*
X128615285Y-76150000D01*
X128529571Y-76183333D01*
X127758142Y-76183333D01*
X128058142Y-75383333D02*
X128058142Y-75116666D01*
X128658142Y-75283333D02*
X127886714Y-75283333D01*
X127801000Y-75250000D01*
X127758142Y-75183333D01*
X127758142Y-75116666D01*
X128658142Y-74583333D02*
X128186714Y-74583333D01*
X128101000Y-74616666D01*
X128058142Y-74683333D01*
X128058142Y-74816666D01*
X128101000Y-74883333D01*
X128615285Y-74583333D02*
X128658142Y-74650000D01*
X128658142Y-74816666D01*
X128615285Y-74883333D01*
X128529571Y-74916666D01*
X128443857Y-74916666D01*
X128358142Y-74883333D01*
X128315285Y-74816666D01*
X128315285Y-74650000D01*
X128272428Y-74583333D01*
X128615285Y-73950000D02*
X128658142Y-74016666D01*
X128658142Y-74150000D01*
X128615285Y-74216666D01*
X128572428Y-74250000D01*
X128486714Y-74283333D01*
X128229571Y-74283333D01*
X128143857Y-74250000D01*
X128101000Y-74216666D01*
X128058142Y-74150000D01*
X128058142Y-74016666D01*
X128101000Y-73950000D01*
X128658142Y-73650000D02*
X128058142Y-73650000D01*
X127758142Y-73650000D02*
X127801000Y-73683333D01*
X127843857Y-73650000D01*
X127801000Y-73616666D01*
X127758142Y-73650000D01*
X127843857Y-73650000D01*
X128058142Y-73316666D02*
X128658142Y-73316666D01*
X128143857Y-73316666D02*
X128101000Y-73283333D01*
X128058142Y-73216666D01*
X128058142Y-73116666D01*
X128101000Y-73050000D01*
X128186714Y-73016666D01*
X128658142Y-73016666D01*
X128058142Y-72383333D02*
X128786714Y-72383333D01*
X128872428Y-72416666D01*
X128915285Y-72450000D01*
X128958142Y-72516666D01*
X128958142Y-72616666D01*
X128915285Y-72683333D01*
X128615285Y-72383333D02*
X128658142Y-72450000D01*
X128658142Y-72583333D01*
X128615285Y-72650000D01*
X128572428Y-72683333D01*
X128486714Y-72716666D01*
X128229571Y-72716666D01*
X128143857Y-72683333D01*
X128101000Y-72650000D01*
X128058142Y-72583333D01*
X128058142Y-72450000D01*
X128101000Y-72383333D01*
X128058142Y-71216666D02*
X128658142Y-71216666D01*
X128058142Y-71516666D02*
X128529571Y-71516666D01*
X128615285Y-71483333D01*
X128658142Y-71416666D01*
X128658142Y-71316666D01*
X128615285Y-71250000D01*
X128572428Y-71216666D01*
X128058142Y-70883333D02*
X128958142Y-70883333D01*
X128101000Y-70883333D02*
X128058142Y-70816666D01*
X128058142Y-70683333D01*
X128101000Y-70616666D01*
X128143857Y-70583333D01*
X128229571Y-70550000D01*
X128486714Y-70550000D01*
X128572428Y-70583333D01*
X128615285Y-70616666D01*
X128658142Y-70683333D01*
X128658142Y-70816666D01*
X128615285Y-70883333D01*
X130107142Y-97300000D02*
X129635714Y-97300000D01*
X129550000Y-97333333D01*
X129507142Y-97400000D01*
X129507142Y-97533333D01*
X129550000Y-97600000D01*
X130064285Y-97300000D02*
X130107142Y-97366666D01*
X130107142Y-97533333D01*
X130064285Y-97600000D01*
X129978571Y-97633333D01*
X129892857Y-97633333D01*
X129807142Y-97600000D01*
X129764285Y-97533333D01*
X129764285Y-97366666D01*
X129721428Y-97300000D01*
X129507142Y-97033333D02*
X130107142Y-96866666D01*
X129507142Y-96700000D01*
X130107142Y-96333333D02*
X130064285Y-96400000D01*
X130021428Y-96433333D01*
X129935714Y-96466666D01*
X129678571Y-96466666D01*
X129592857Y-96433333D01*
X129550000Y-96400000D01*
X129507142Y-96333333D01*
X129507142Y-96233333D01*
X129550000Y-96166666D01*
X129592857Y-96133333D01*
X129678571Y-96100000D01*
X129935714Y-96100000D01*
X130021428Y-96133333D01*
X130064285Y-96166666D01*
X130107142Y-96233333D01*
X130107142Y-96333333D01*
X130107142Y-95800000D02*
X129507142Y-95800000D01*
X129207142Y-95800000D02*
X129250000Y-95833333D01*
X129292857Y-95800000D01*
X129250000Y-95766666D01*
X129207142Y-95800000D01*
X129292857Y-95800000D01*
X130107142Y-95166666D02*
X129207142Y-95166666D01*
X130064285Y-95166666D02*
X130107142Y-95233333D01*
X130107142Y-95366666D01*
X130064285Y-95433333D01*
X130021428Y-95466666D01*
X129935714Y-95500000D01*
X129678571Y-95500000D01*
X129592857Y-95466666D01*
X129550000Y-95433333D01*
X129507142Y-95366666D01*
X129507142Y-95233333D01*
X129550000Y-95166666D01*
X130064285Y-94333333D02*
X130107142Y-94266666D01*
X130107142Y-94133333D01*
X130064285Y-94066666D01*
X129978571Y-94033333D01*
X129935714Y-94033333D01*
X129850000Y-94066666D01*
X129807142Y-94133333D01*
X129807142Y-94233333D01*
X129764285Y-94300000D01*
X129678571Y-94333333D01*
X129635714Y-94333333D01*
X129550000Y-94300000D01*
X129507142Y-94233333D01*
X129507142Y-94133333D01*
X129550000Y-94066666D01*
X130107142Y-93633333D02*
X130064285Y-93700000D01*
X130021428Y-93733333D01*
X129935714Y-93766666D01*
X129678571Y-93766666D01*
X129592857Y-93733333D01*
X129550000Y-93700000D01*
X129507142Y-93633333D01*
X129507142Y-93533333D01*
X129550000Y-93466666D01*
X129592857Y-93433333D01*
X129678571Y-93400000D01*
X129935714Y-93400000D01*
X130021428Y-93433333D01*
X130064285Y-93466666D01*
X130107142Y-93533333D01*
X130107142Y-93633333D01*
X130107142Y-93000000D02*
X130064285Y-93066666D01*
X129978571Y-93100000D01*
X129207142Y-93100000D01*
X130107142Y-92433333D02*
X129635714Y-92433333D01*
X129550000Y-92466666D01*
X129507142Y-92533333D01*
X129507142Y-92666666D01*
X129550000Y-92733333D01*
X130064285Y-92433333D02*
X130107142Y-92500000D01*
X130107142Y-92666666D01*
X130064285Y-92733333D01*
X129978571Y-92766666D01*
X129892857Y-92766666D01*
X129807142Y-92733333D01*
X129764285Y-92666666D01*
X129764285Y-92500000D01*
X129721428Y-92433333D01*
X130107142Y-92100000D02*
X129507142Y-92100000D01*
X129678571Y-92100000D02*
X129592857Y-92066666D01*
X129550000Y-92033333D01*
X129507142Y-91966666D01*
X129507142Y-91900000D01*
X130064285Y-90833333D02*
X130107142Y-90900000D01*
X130107142Y-91033333D01*
X130064285Y-91100000D01*
X130021428Y-91133333D01*
X129935714Y-91166666D01*
X129678571Y-91166666D01*
X129592857Y-91133333D01*
X129550000Y-91100000D01*
X129507142Y-91033333D01*
X129507142Y-90900000D01*
X129550000Y-90833333D01*
X130107142Y-90533333D02*
X129207142Y-90533333D01*
X130107142Y-90233333D02*
X129635714Y-90233333D01*
X129550000Y-90266666D01*
X129507142Y-90333333D01*
X129507142Y-90433333D01*
X129550000Y-90500000D01*
X129592857Y-90533333D01*
X130107142Y-89600000D02*
X129635714Y-89600000D01*
X129550000Y-89633333D01*
X129507142Y-89700000D01*
X129507142Y-89833333D01*
X129550000Y-89900000D01*
X130064285Y-89600000D02*
X130107142Y-89666666D01*
X130107142Y-89833333D01*
X130064285Y-89900000D01*
X129978571Y-89933333D01*
X129892857Y-89933333D01*
X129807142Y-89900000D01*
X129764285Y-89833333D01*
X129764285Y-89666666D01*
X129721428Y-89600000D01*
X130107142Y-89266666D02*
X129507142Y-89266666D01*
X129678571Y-89266666D02*
X129592857Y-89233333D01*
X129550000Y-89200000D01*
X129507142Y-89133333D01*
X129507142Y-89066666D01*
X129507142Y-88533333D02*
X130235714Y-88533333D01*
X130321428Y-88566666D01*
X130364285Y-88600000D01*
X130407142Y-88666666D01*
X130407142Y-88766666D01*
X130364285Y-88833333D01*
X130064285Y-88533333D02*
X130107142Y-88600000D01*
X130107142Y-88733333D01*
X130064285Y-88800000D01*
X130021428Y-88833333D01*
X129935714Y-88866666D01*
X129678571Y-88866666D01*
X129592857Y-88833333D01*
X129550000Y-88800000D01*
X129507142Y-88733333D01*
X129507142Y-88600000D01*
X129550000Y-88533333D01*
X130107142Y-88200000D02*
X129507142Y-88200000D01*
X129207142Y-88200000D02*
X129250000Y-88233333D01*
X129292857Y-88200000D01*
X129250000Y-88166666D01*
X129207142Y-88200000D01*
X129292857Y-88200000D01*
X129507142Y-87866666D02*
X130107142Y-87866666D01*
X129592857Y-87866666D02*
X129550000Y-87833333D01*
X129507142Y-87766666D01*
X129507142Y-87666666D01*
X129550000Y-87600000D01*
X129635714Y-87566666D01*
X130107142Y-87566666D01*
X129507142Y-86933333D02*
X130235714Y-86933333D01*
X130321428Y-86966666D01*
X130364285Y-87000000D01*
X130407142Y-87066666D01*
X130407142Y-87166666D01*
X130364285Y-87233333D01*
X130064285Y-86933333D02*
X130107142Y-87000000D01*
X130107142Y-87133333D01*
X130064285Y-87200000D01*
X130021428Y-87233333D01*
X129935714Y-87266666D01*
X129678571Y-87266666D01*
X129592857Y-87233333D01*
X129550000Y-87200000D01*
X129507142Y-87133333D01*
X129507142Y-87000000D01*
X129550000Y-86933333D01*
X130107142Y-86066666D02*
X129507142Y-86066666D01*
X129207142Y-86066666D02*
X129250000Y-86100000D01*
X129292857Y-86066666D01*
X129250000Y-86033333D01*
X129207142Y-86066666D01*
X129292857Y-86066666D01*
X129507142Y-85733333D02*
X130107142Y-85733333D01*
X129592857Y-85733333D02*
X129550000Y-85700000D01*
X129507142Y-85633333D01*
X129507142Y-85533333D01*
X129550000Y-85466666D01*
X129635714Y-85433333D01*
X130107142Y-85433333D01*
X129507142Y-84633333D02*
X130107142Y-84466666D01*
X129507142Y-84300000D01*
X130064285Y-83766666D02*
X130107142Y-83833333D01*
X130107142Y-83966666D01*
X130064285Y-84033333D01*
X129978571Y-84066666D01*
X129635714Y-84066666D01*
X129550000Y-84033333D01*
X129507142Y-83966666D01*
X129507142Y-83833333D01*
X129550000Y-83766666D01*
X129635714Y-83733333D01*
X129721428Y-83733333D01*
X129807142Y-84066666D01*
X130107142Y-83433333D02*
X129507142Y-83433333D01*
X129678571Y-83433333D02*
X129592857Y-83400000D01*
X129550000Y-83366666D01*
X129507142Y-83300000D01*
X129507142Y-83233333D01*
X129507142Y-83066666D02*
X130107142Y-82900000D01*
X129507142Y-82733333D02*
X130107142Y-82900000D01*
X130321428Y-82966666D01*
X130364285Y-83000000D01*
X130407142Y-83066666D01*
X130107142Y-81933333D02*
X129207142Y-81933333D01*
X130107142Y-81633333D02*
X129635714Y-81633333D01*
X129550000Y-81666666D01*
X129507142Y-81733333D01*
X129507142Y-81833333D01*
X129550000Y-81900000D01*
X129592857Y-81933333D01*
X130107142Y-81200000D02*
X130064285Y-81266666D01*
X130021428Y-81300000D01*
X129935714Y-81333333D01*
X129678571Y-81333333D01*
X129592857Y-81300000D01*
X129550000Y-81266666D01*
X129507142Y-81200000D01*
X129507142Y-81100000D01*
X129550000Y-81033333D01*
X129592857Y-81000000D01*
X129678571Y-80966666D01*
X129935714Y-80966666D01*
X130021428Y-81000000D01*
X130064285Y-81033333D01*
X130107142Y-81100000D01*
X130107142Y-81200000D01*
X129507142Y-80766666D02*
X129507142Y-80500000D01*
X129207142Y-80666666D02*
X129978571Y-80666666D01*
X130064285Y-80633333D01*
X130107142Y-80566666D01*
X130107142Y-80500000D01*
X130107142Y-79433333D02*
X129635714Y-79433333D01*
X129550000Y-79466666D01*
X129507142Y-79533333D01*
X129507142Y-79666666D01*
X129550000Y-79733333D01*
X130064285Y-79433333D02*
X130107142Y-79500000D01*
X130107142Y-79666666D01*
X130064285Y-79733333D01*
X129978571Y-79766666D01*
X129892857Y-79766666D01*
X129807142Y-79733333D01*
X129764285Y-79666666D01*
X129764285Y-79500000D01*
X129721428Y-79433333D01*
X129507142Y-79100000D02*
X130107142Y-79100000D01*
X129592857Y-79100000D02*
X129550000Y-79066666D01*
X129507142Y-79000000D01*
X129507142Y-78900000D01*
X129550000Y-78833333D01*
X129635714Y-78800000D01*
X130107142Y-78800000D01*
X130107142Y-78166666D02*
X129207142Y-78166666D01*
X130064285Y-78166666D02*
X130107142Y-78233333D01*
X130107142Y-78366666D01*
X130064285Y-78433333D01*
X130021428Y-78466666D01*
X129935714Y-78500000D01*
X129678571Y-78500000D01*
X129592857Y-78466666D01*
X129550000Y-78433333D01*
X129507142Y-78366666D01*
X129507142Y-78233333D01*
X129550000Y-78166666D01*
X130064285Y-77000000D02*
X130107142Y-77066666D01*
X130107142Y-77200000D01*
X130064285Y-77266666D01*
X130021428Y-77300000D01*
X129935714Y-77333333D01*
X129678571Y-77333333D01*
X129592857Y-77300000D01*
X129550000Y-77266666D01*
X129507142Y-77200000D01*
X129507142Y-77066666D01*
X129550000Y-77000000D01*
X130107142Y-76600000D02*
X130064285Y-76666666D01*
X130021428Y-76700000D01*
X129935714Y-76733333D01*
X129678571Y-76733333D01*
X129592857Y-76700000D01*
X129550000Y-76666666D01*
X129507142Y-76600000D01*
X129507142Y-76500000D01*
X129550000Y-76433333D01*
X129592857Y-76400000D01*
X129678571Y-76366666D01*
X129935714Y-76366666D01*
X130021428Y-76400000D01*
X130064285Y-76433333D01*
X130107142Y-76500000D01*
X130107142Y-76600000D01*
X130107142Y-75966666D02*
X130064285Y-76033333D01*
X129978571Y-76066666D01*
X129207142Y-76066666D01*
X130107142Y-75400000D02*
X129207142Y-75400000D01*
X130064285Y-75400000D02*
X130107142Y-75466666D01*
X130107142Y-75600000D01*
X130064285Y-75666666D01*
X130021428Y-75700000D01*
X129935714Y-75733333D01*
X129678571Y-75733333D01*
X129592857Y-75700000D01*
X129550000Y-75666666D01*
X129507142Y-75600000D01*
X129507142Y-75466666D01*
X129550000Y-75400000D01*
X129507142Y-74633333D02*
X129507142Y-74366666D01*
X129207142Y-74533333D02*
X129978571Y-74533333D01*
X130064285Y-74500000D01*
X130107142Y-74433333D01*
X130107142Y-74366666D01*
X130064285Y-73866666D02*
X130107142Y-73933333D01*
X130107142Y-74066666D01*
X130064285Y-74133333D01*
X129978571Y-74166666D01*
X129635714Y-74166666D01*
X129550000Y-74133333D01*
X129507142Y-74066666D01*
X129507142Y-73933333D01*
X129550000Y-73866666D01*
X129635714Y-73833333D01*
X129721428Y-73833333D01*
X129807142Y-74166666D01*
X130107142Y-73533333D02*
X129507142Y-73533333D01*
X129592857Y-73533333D02*
X129550000Y-73500000D01*
X129507142Y-73433333D01*
X129507142Y-73333333D01*
X129550000Y-73266666D01*
X129635714Y-73233333D01*
X130107142Y-73233333D01*
X129635714Y-73233333D02*
X129550000Y-73200000D01*
X129507142Y-73133333D01*
X129507142Y-73033333D01*
X129550000Y-72966666D01*
X129635714Y-72933333D01*
X130107142Y-72933333D01*
X129507142Y-72600000D02*
X130407142Y-72600000D01*
X129550000Y-72600000D02*
X129507142Y-72533333D01*
X129507142Y-72400000D01*
X129550000Y-72333333D01*
X129592857Y-72300000D01*
X129678571Y-72266666D01*
X129935714Y-72266666D01*
X130021428Y-72300000D01*
X130064285Y-72333333D01*
X130107142Y-72400000D01*
X130107142Y-72533333D01*
X130064285Y-72600000D01*
X130064285Y-71700000D02*
X130107142Y-71766666D01*
X130107142Y-71900000D01*
X130064285Y-71966666D01*
X129978571Y-72000000D01*
X129635714Y-72000000D01*
X129550000Y-71966666D01*
X129507142Y-71900000D01*
X129507142Y-71766666D01*
X129550000Y-71700000D01*
X129635714Y-71666666D01*
X129721428Y-71666666D01*
X129807142Y-72000000D01*
X130107142Y-71366666D02*
X129507142Y-71366666D01*
X129678571Y-71366666D02*
X129592857Y-71333333D01*
X129550000Y-71300000D01*
X129507142Y-71233333D01*
X129507142Y-71166666D01*
X130107142Y-70633333D02*
X129635714Y-70633333D01*
X129550000Y-70666666D01*
X129507142Y-70733333D01*
X129507142Y-70866666D01*
X129550000Y-70933333D01*
X130064285Y-70633333D02*
X130107142Y-70700000D01*
X130107142Y-70866666D01*
X130064285Y-70933333D01*
X129978571Y-70966666D01*
X129892857Y-70966666D01*
X129807142Y-70933333D01*
X129764285Y-70866666D01*
X129764285Y-70700000D01*
X129721428Y-70633333D01*
X129507142Y-70400000D02*
X129507142Y-70133333D01*
X129207142Y-70300000D02*
X129978571Y-70300000D01*
X130064285Y-70266666D01*
X130107142Y-70200000D01*
X130107142Y-70133333D01*
X129507142Y-69600000D02*
X130107142Y-69600000D01*
X129507142Y-69900000D02*
X129978571Y-69900000D01*
X130064285Y-69866666D01*
X130107142Y-69800000D01*
X130107142Y-69700000D01*
X130064285Y-69633333D01*
X130021428Y-69600000D01*
X130107142Y-69266666D02*
X129507142Y-69266666D01*
X129678571Y-69266666D02*
X129592857Y-69233333D01*
X129550000Y-69200000D01*
X129507142Y-69133333D01*
X129507142Y-69066666D01*
X130064285Y-68566666D02*
X130107142Y-68633333D01*
X130107142Y-68766666D01*
X130064285Y-68833333D01*
X129978571Y-68866666D01*
X129635714Y-68866666D01*
X129550000Y-68833333D01*
X129507142Y-68766666D01*
X129507142Y-68633333D01*
X129550000Y-68566666D01*
X129635714Y-68533333D01*
X129721428Y-68533333D01*
X129807142Y-68866666D01*
X130064285Y-68266666D02*
X130107142Y-68200000D01*
X130107142Y-68066666D01*
X130064285Y-68000000D01*
X129978571Y-67966666D01*
X129935714Y-67966666D01*
X129850000Y-68000000D01*
X129807142Y-68066666D01*
X129807142Y-68166666D01*
X129764285Y-68233333D01*
X129678571Y-68266666D01*
X129635714Y-68266666D01*
X129550000Y-68233333D01*
X129507142Y-68166666D01*
X129507142Y-68066666D01*
X129550000Y-68000000D01*
X131556142Y-89216666D02*
X130656142Y-89216666D01*
X131213285Y-89150000D02*
X131556142Y-88950000D01*
X130956142Y-88950000D02*
X131299000Y-89216666D01*
X131513285Y-88383333D02*
X131556142Y-88450000D01*
X131556142Y-88583333D01*
X131513285Y-88650000D01*
X131427571Y-88683333D01*
X131084714Y-88683333D01*
X130999000Y-88650000D01*
X130956142Y-88583333D01*
X130956142Y-88450000D01*
X130999000Y-88383333D01*
X131084714Y-88350000D01*
X131170428Y-88350000D01*
X131256142Y-88683333D01*
X131513285Y-87783333D02*
X131556142Y-87850000D01*
X131556142Y-87983333D01*
X131513285Y-88050000D01*
X131427571Y-88083333D01*
X131084714Y-88083333D01*
X130999000Y-88050000D01*
X130956142Y-87983333D01*
X130956142Y-87850000D01*
X130999000Y-87783333D01*
X131084714Y-87750000D01*
X131170428Y-87750000D01*
X131256142Y-88083333D01*
X130956142Y-87450000D02*
X131856142Y-87450000D01*
X130999000Y-87450000D02*
X130956142Y-87383333D01*
X130956142Y-87250000D01*
X130999000Y-87183333D01*
X131041857Y-87150000D01*
X131127571Y-87116666D01*
X131384714Y-87116666D01*
X131470428Y-87150000D01*
X131513285Y-87183333D01*
X131556142Y-87250000D01*
X131556142Y-87383333D01*
X131513285Y-87450000D01*
X131556142Y-85983333D02*
X131084714Y-85983333D01*
X130999000Y-86016666D01*
X130956142Y-86083333D01*
X130956142Y-86216666D01*
X130999000Y-86283333D01*
X131513285Y-85983333D02*
X131556142Y-86050000D01*
X131556142Y-86216666D01*
X131513285Y-86283333D01*
X131427571Y-86316666D01*
X131341857Y-86316666D01*
X131256142Y-86283333D01*
X131213285Y-86216666D01*
X131213285Y-86050000D01*
X131170428Y-85983333D01*
X130956142Y-85716666D02*
X131556142Y-85583333D01*
X131127571Y-85450000D01*
X131556142Y-85316666D01*
X130956142Y-85183333D01*
X131556142Y-84616666D02*
X131084714Y-84616666D01*
X130999000Y-84650000D01*
X130956142Y-84716666D01*
X130956142Y-84850000D01*
X130999000Y-84916666D01*
X131513285Y-84616666D02*
X131556142Y-84683333D01*
X131556142Y-84850000D01*
X131513285Y-84916666D01*
X131427571Y-84950000D01*
X131341857Y-84950000D01*
X131256142Y-84916666D01*
X131213285Y-84850000D01*
X131213285Y-84683333D01*
X131170428Y-84616666D01*
X130956142Y-84350000D02*
X131556142Y-84183333D01*
X130956142Y-84016666D02*
X131556142Y-84183333D01*
X131770428Y-84250000D01*
X131813285Y-84283333D01*
X131856142Y-84350000D01*
X130956142Y-83316666D02*
X130956142Y-83050000D01*
X131556142Y-83216666D02*
X130784714Y-83216666D01*
X130699000Y-83183333D01*
X130656142Y-83116666D01*
X130656142Y-83050000D01*
X131556142Y-82816666D02*
X130956142Y-82816666D01*
X131127571Y-82816666D02*
X131041857Y-82783333D01*
X130999000Y-82750000D01*
X130956142Y-82683333D01*
X130956142Y-82616666D01*
X131556142Y-82283333D02*
X131513285Y-82350000D01*
X131470428Y-82383333D01*
X131384714Y-82416666D01*
X131127571Y-82416666D01*
X131041857Y-82383333D01*
X130999000Y-82350000D01*
X130956142Y-82283333D01*
X130956142Y-82183333D01*
X130999000Y-82116666D01*
X131041857Y-82083333D01*
X131127571Y-82050000D01*
X131384714Y-82050000D01*
X131470428Y-82083333D01*
X131513285Y-82116666D01*
X131556142Y-82183333D01*
X131556142Y-82283333D01*
X131556142Y-81750000D02*
X130956142Y-81750000D01*
X131041857Y-81750000D02*
X130999000Y-81716666D01*
X130956142Y-81650000D01*
X130956142Y-81550000D01*
X130999000Y-81483333D01*
X131084714Y-81450000D01*
X131556142Y-81450000D01*
X131084714Y-81450000D02*
X130999000Y-81416666D01*
X130956142Y-81350000D01*
X130956142Y-81250000D01*
X130999000Y-81183333D01*
X131084714Y-81150000D01*
X131556142Y-81150000D01*
X131513285Y-79983333D02*
X131556142Y-80050000D01*
X131556142Y-80183333D01*
X131513285Y-80250000D01*
X131470428Y-80283333D01*
X131384714Y-80316666D01*
X131127571Y-80316666D01*
X131041857Y-80283333D01*
X130999000Y-80250000D01*
X130956142Y-80183333D01*
X130956142Y-80050000D01*
X130999000Y-79983333D01*
X131556142Y-79683333D02*
X130656142Y-79683333D01*
X131556142Y-79383333D02*
X131084714Y-79383333D01*
X130999000Y-79416666D01*
X130956142Y-79483333D01*
X130956142Y-79583333D01*
X130999000Y-79650000D01*
X131041857Y-79683333D01*
X131556142Y-79050000D02*
X130956142Y-79050000D01*
X130656142Y-79050000D02*
X130699000Y-79083333D01*
X130741857Y-79050000D01*
X130699000Y-79016666D01*
X130656142Y-79050000D01*
X130741857Y-79050000D01*
X131556142Y-78616666D02*
X131513285Y-78683333D01*
X131427571Y-78716666D01*
X130656142Y-78716666D01*
X131556142Y-78050000D02*
X130656142Y-78050000D01*
X131513285Y-78050000D02*
X131556142Y-78116666D01*
X131556142Y-78250000D01*
X131513285Y-78316666D01*
X131470428Y-78350000D01*
X131384714Y-78383333D01*
X131127571Y-78383333D01*
X131041857Y-78350000D01*
X130999000Y-78316666D01*
X130956142Y-78250000D01*
X130956142Y-78116666D01*
X130999000Y-78050000D01*
X131556142Y-77716666D02*
X130956142Y-77716666D01*
X131127571Y-77716666D02*
X131041857Y-77683333D01*
X130999000Y-77650000D01*
X130956142Y-77583333D01*
X130956142Y-77516666D01*
X131513285Y-77016666D02*
X131556142Y-77083333D01*
X131556142Y-77216666D01*
X131513285Y-77283333D01*
X131427571Y-77316666D01*
X131084714Y-77316666D01*
X130999000Y-77283333D01*
X130956142Y-77216666D01*
X130956142Y-77083333D01*
X130999000Y-77016666D01*
X131084714Y-76983333D01*
X131170428Y-76983333D01*
X131256142Y-77316666D01*
X130956142Y-76683333D02*
X131556142Y-76683333D01*
X131041857Y-76683333D02*
X130999000Y-76650000D01*
X130956142Y-76583333D01*
X130956142Y-76483333D01*
X130999000Y-76416666D01*
X131084714Y-76383333D01*
X131556142Y-76383333D01*
D11*
X102642857Y-51178571D02*
X102642857Y-49678571D01*
X102880952Y-49678571D01*
X103023809Y-49750000D01*
X103119047Y-49892857D01*
X103166666Y-50035714D01*
X103214285Y-50321428D01*
X103214285Y-50535714D01*
X103166666Y-50821428D01*
X103119047Y-50964285D01*
X103023809Y-51107142D01*
X102880952Y-51178571D01*
X102642857Y-51178571D01*
X103642857Y-50607142D02*
X104404761Y-50607142D01*
X104785714Y-49678571D02*
X105404761Y-49678571D01*
X105071428Y-50250000D01*
X105214285Y-50250000D01*
X105309523Y-50321428D01*
X105357142Y-50392857D01*
X105404761Y-50535714D01*
X105404761Y-50892857D01*
X105357142Y-51035714D01*
X105309523Y-51107142D01*
X105214285Y-51178571D01*
X104928571Y-51178571D01*
X104833333Y-51107142D01*
X104785714Y-51035714D01*
D10*
X105328571Y-48507142D02*
X105557142Y-48507142D01*
X105414285Y-48207142D02*
X105414285Y-48978571D01*
X105442857Y-49064285D01*
X105500000Y-49107142D01*
X105557142Y-49107142D01*
X106014285Y-48507142D02*
X106014285Y-49107142D01*
X105757142Y-48507142D02*
X105757142Y-48978571D01*
X105785714Y-49064285D01*
X105842857Y-49107142D01*
X105928571Y-49107142D01*
X105985714Y-49064285D01*
X106014285Y-49021428D01*
X106300000Y-49107142D02*
X106300000Y-48507142D01*
X106300000Y-48678571D02*
X106328571Y-48592857D01*
X106357142Y-48550000D01*
X106414285Y-48507142D01*
X106471428Y-48507142D01*
X106671428Y-48507142D02*
X106671428Y-49107142D01*
X106671428Y-48592857D02*
X106700000Y-48550000D01*
X106757142Y-48507142D01*
X106842857Y-48507142D01*
X106900000Y-48550000D01*
X106928571Y-48635714D01*
X106928571Y-49107142D01*
X107585714Y-48507142D02*
X107814285Y-48507142D01*
X107671428Y-48207142D02*
X107671428Y-48978571D01*
X107700000Y-49064285D01*
X107757142Y-49107142D01*
X107814285Y-49107142D01*
X108100000Y-49107142D02*
X108042857Y-49064285D01*
X108014285Y-49021428D01*
X107985714Y-48935714D01*
X107985714Y-48678571D01*
X108014285Y-48592857D01*
X108042857Y-48550000D01*
X108100000Y-48507142D01*
X108185714Y-48507142D01*
X108242857Y-48550000D01*
X108271428Y-48592857D01*
X108300000Y-48678571D01*
X108300000Y-48935714D01*
X108271428Y-49021428D01*
X108242857Y-49064285D01*
X108185714Y-49107142D01*
X108100000Y-49107142D01*
X109271428Y-49107142D02*
X109271428Y-48635714D01*
X109242857Y-48550000D01*
X109185714Y-48507142D01*
X109071428Y-48507142D01*
X109014285Y-48550000D01*
X109271428Y-49064285D02*
X109214285Y-49107142D01*
X109071428Y-49107142D01*
X109014285Y-49064285D01*
X108985714Y-48978571D01*
X108985714Y-48892857D01*
X109014285Y-48807142D01*
X109071428Y-48764285D01*
X109214285Y-48764285D01*
X109271428Y-48721428D01*
X109814285Y-49107142D02*
X109814285Y-48207142D01*
X109814285Y-49064285D02*
X109757142Y-49107142D01*
X109642857Y-49107142D01*
X109585714Y-49064285D01*
X109557142Y-49021428D01*
X109528571Y-48935714D01*
X109528571Y-48678571D01*
X109557142Y-48592857D01*
X109585714Y-48550000D01*
X109642857Y-48507142D01*
X109757142Y-48507142D01*
X109814285Y-48550000D01*
X110100000Y-48507142D02*
X110100000Y-49278571D01*
X110071428Y-49364285D01*
X110014285Y-49407142D01*
X109985714Y-49407142D01*
X110100000Y-48207142D02*
X110071428Y-48250000D01*
X110100000Y-48292857D01*
X110128571Y-48250000D01*
X110100000Y-48207142D01*
X110100000Y-48292857D01*
X110642857Y-48507142D02*
X110642857Y-49107142D01*
X110385714Y-48507142D02*
X110385714Y-48978571D01*
X110414285Y-49064285D01*
X110471428Y-49107142D01*
X110557142Y-49107142D01*
X110614285Y-49064285D01*
X110642857Y-49021428D01*
X110900000Y-49064285D02*
X110957142Y-49107142D01*
X111071428Y-49107142D01*
X111128571Y-49064285D01*
X111157142Y-48978571D01*
X111157142Y-48935714D01*
X111128571Y-48850000D01*
X111071428Y-48807142D01*
X110985714Y-48807142D01*
X110928571Y-48764285D01*
X110900000Y-48678571D01*
X110900000Y-48635714D01*
X110928571Y-48550000D01*
X110985714Y-48507142D01*
X111071428Y-48507142D01*
X111128571Y-48550000D01*
X111328571Y-48507142D02*
X111557142Y-48507142D01*
X111414285Y-48207142D02*
X111414285Y-48978571D01*
X111442857Y-49064285D01*
X111500000Y-49107142D01*
X111557142Y-49107142D01*
X112214285Y-49107142D02*
X112214285Y-48207142D01*
X112214285Y-48550000D02*
X112271428Y-48507142D01*
X112385714Y-48507142D01*
X112442857Y-48550000D01*
X112471428Y-48592857D01*
X112500000Y-48678571D01*
X112500000Y-48935714D01*
X112471428Y-49021428D01*
X112442857Y-49064285D01*
X112385714Y-49107142D01*
X112271428Y-49107142D01*
X112214285Y-49064285D01*
X112757142Y-49107142D02*
X112757142Y-48507142D01*
X112757142Y-48678571D02*
X112785714Y-48592857D01*
X112814285Y-48550000D01*
X112871428Y-48507142D01*
X112928571Y-48507142D01*
X113128571Y-49107142D02*
X113128571Y-48507142D01*
X113128571Y-48207142D02*
X113100000Y-48250000D01*
X113128571Y-48292857D01*
X113157142Y-48250000D01*
X113128571Y-48207142D01*
X113128571Y-48292857D01*
X113671428Y-48507142D02*
X113671428Y-49235714D01*
X113642857Y-49321428D01*
X113614285Y-49364285D01*
X113557142Y-49407142D01*
X113471428Y-49407142D01*
X113414285Y-49364285D01*
X113671428Y-49064285D02*
X113614285Y-49107142D01*
X113500000Y-49107142D01*
X113442857Y-49064285D01*
X113414285Y-49021428D01*
X113385714Y-48935714D01*
X113385714Y-48678571D01*
X113414285Y-48592857D01*
X113442857Y-48550000D01*
X113500000Y-48507142D01*
X113614285Y-48507142D01*
X113671428Y-48550000D01*
X113957142Y-49107142D02*
X113957142Y-48207142D01*
X114214285Y-49107142D02*
X114214285Y-48635714D01*
X114185714Y-48550000D01*
X114128571Y-48507142D01*
X114042857Y-48507142D01*
X113985714Y-48550000D01*
X113957142Y-48592857D01*
X114414285Y-48507142D02*
X114642857Y-48507142D01*
X114500000Y-48207142D02*
X114500000Y-48978571D01*
X114528571Y-49064285D01*
X114585714Y-49107142D01*
X114642857Y-49107142D01*
X114842857Y-48507142D02*
X114842857Y-49107142D01*
X114842857Y-48592857D02*
X114871428Y-48550000D01*
X114928571Y-48507142D01*
X115014285Y-48507142D01*
X115071428Y-48550000D01*
X115100000Y-48635714D01*
X115100000Y-49107142D01*
X115614285Y-49064285D02*
X115557142Y-49107142D01*
X115442857Y-49107142D01*
X115385714Y-49064285D01*
X115357142Y-48978571D01*
X115357142Y-48635714D01*
X115385714Y-48550000D01*
X115442857Y-48507142D01*
X115557142Y-48507142D01*
X115614285Y-48550000D01*
X115642857Y-48635714D01*
X115642857Y-48721428D01*
X115357142Y-48807142D01*
X115871428Y-49064285D02*
X115928571Y-49107142D01*
X116042857Y-49107142D01*
X116100000Y-49064285D01*
X116128571Y-48978571D01*
X116128571Y-48935714D01*
X116100000Y-48850000D01*
X116042857Y-48807142D01*
X115957142Y-48807142D01*
X115900000Y-48764285D01*
X115871428Y-48678571D01*
X115871428Y-48635714D01*
X115900000Y-48550000D01*
X115957142Y-48507142D01*
X116042857Y-48507142D01*
X116100000Y-48550000D01*
X116357142Y-49064285D02*
X116414285Y-49107142D01*
X116528571Y-49107142D01*
X116585714Y-49064285D01*
X116614285Y-48978571D01*
X116614285Y-48935714D01*
X116585714Y-48850000D01*
X116528571Y-48807142D01*
X116442857Y-48807142D01*
X116385714Y-48764285D01*
X116357142Y-48678571D01*
X116357142Y-48635714D01*
X116385714Y-48550000D01*
X116442857Y-48507142D01*
X116528571Y-48507142D01*
X116585714Y-48550000D01*
X117601666Y-63500000D02*
X117535000Y-63461904D01*
X117435000Y-63461904D01*
X117335000Y-63500000D01*
X117268333Y-63576190D01*
X117235000Y-63652380D01*
X117201666Y-63804761D01*
X117201666Y-63919047D01*
X117235000Y-64071428D01*
X117268333Y-64147619D01*
X117335000Y-64223809D01*
X117435000Y-64261904D01*
X117501666Y-64261904D01*
X117601666Y-64223809D01*
X117635000Y-64185714D01*
X117635000Y-63919047D01*
X117501666Y-63919047D01*
X117935000Y-64261904D02*
X117935000Y-63461904D01*
X118335000Y-64261904D01*
X118335000Y-63461904D01*
X118668333Y-64261904D02*
X118668333Y-63461904D01*
X118835000Y-63461904D01*
X118935000Y-63500000D01*
X119001666Y-63576190D01*
X119035000Y-63652380D01*
X119068333Y-63804761D01*
X119068333Y-63919047D01*
X119035000Y-64071428D01*
X119001666Y-64147619D01*
X118935000Y-64223809D01*
X118835000Y-64261904D01*
X118668333Y-64261904D01*
X136632142Y-62400000D02*
X136632142Y-62733333D01*
X135732142Y-62733333D01*
X136632142Y-62166666D02*
X135732142Y-62166666D01*
X135732142Y-62000000D01*
X135775000Y-61900000D01*
X135860714Y-61833333D01*
X135946428Y-61800000D01*
X136117857Y-61766666D01*
X136246428Y-61766666D01*
X136417857Y-61800000D01*
X136503571Y-61833333D01*
X136589285Y-61900000D01*
X136632142Y-62000000D01*
X136632142Y-62166666D01*
X135732142Y-61333333D02*
X135732142Y-61200000D01*
X135775000Y-61133333D01*
X135860714Y-61066666D01*
X136032142Y-61033333D01*
X136332142Y-61033333D01*
X136503571Y-61066666D01*
X136589285Y-61133333D01*
X136632142Y-61200000D01*
X136632142Y-61333333D01*
X136589285Y-61400000D01*
X136503571Y-61466666D01*
X136332142Y-61500000D01*
X136032142Y-61500000D01*
X135860714Y-61466666D01*
X135775000Y-61400000D01*
X135732142Y-61333333D01*
X158492857Y-81772619D02*
X158492857Y-82558333D01*
X158450000Y-82715476D01*
X158364285Y-82820238D01*
X158235714Y-82872619D01*
X158150000Y-82872619D01*
X159350000Y-82872619D02*
X158921428Y-82872619D01*
X158921428Y-81772619D01*
X160164285Y-82767857D02*
X160121428Y-82820238D01*
X159992857Y-82872619D01*
X159907142Y-82872619D01*
X159778571Y-82820238D01*
X159692857Y-82715476D01*
X159650000Y-82610714D01*
X159607142Y-82401190D01*
X159607142Y-82244047D01*
X159650000Y-82034523D01*
X159692857Y-81929761D01*
X159778571Y-81825000D01*
X159907142Y-81772619D01*
X159992857Y-81772619D01*
X160121428Y-81825000D01*
X160164285Y-81877380D01*
X160807142Y-81772619D02*
X160807142Y-82558333D01*
X160764285Y-82715476D01*
X160678571Y-82820238D01*
X160550000Y-82872619D01*
X160464285Y-82872619D01*
X161664285Y-82872619D02*
X161235714Y-82872619D01*
X161235714Y-81772619D01*
X162478571Y-82767857D02*
X162435714Y-82820238D01*
X162307142Y-82872619D01*
X162221428Y-82872619D01*
X162092857Y-82820238D01*
X162007142Y-82715476D01*
X161964285Y-82610714D01*
X161921428Y-82401190D01*
X161921428Y-82244047D01*
X161964285Y-82034523D01*
X162007142Y-81929761D01*
X162092857Y-81825000D01*
X162221428Y-81772619D01*
X162307142Y-81772619D01*
X162435714Y-81825000D01*
X162478571Y-81877380D01*
X163121428Y-81772619D02*
X163121428Y-82558333D01*
X163078571Y-82715476D01*
X162992857Y-82820238D01*
X162864285Y-82872619D01*
X162778571Y-82872619D01*
X163978571Y-82872619D02*
X163550000Y-82872619D01*
X163550000Y-81772619D01*
X164792857Y-82767857D02*
X164750000Y-82820238D01*
X164621428Y-82872619D01*
X164535714Y-82872619D01*
X164407142Y-82820238D01*
X164321428Y-82715476D01*
X164278571Y-82610714D01*
X164235714Y-82401190D01*
X164235714Y-82244047D01*
X164278571Y-82034523D01*
X164321428Y-81929761D01*
X164407142Y-81825000D01*
X164535714Y-81772619D01*
X164621428Y-81772619D01*
X164750000Y-81825000D01*
X164792857Y-81877380D01*
X165435714Y-81772619D02*
X165435714Y-82558333D01*
X165392857Y-82715476D01*
X165307142Y-82820238D01*
X165178571Y-82872619D01*
X165092857Y-82872619D01*
X166292857Y-82872619D02*
X165864285Y-82872619D01*
X165864285Y-81772619D01*
X167107142Y-82767857D02*
X167064285Y-82820238D01*
X166935714Y-82872619D01*
X166850000Y-82872619D01*
X166721428Y-82820238D01*
X166635714Y-82715476D01*
X166592857Y-82610714D01*
X166550000Y-82401190D01*
X166550000Y-82244047D01*
X166592857Y-82034523D01*
X166635714Y-81929761D01*
X166721428Y-81825000D01*
X166850000Y-81772619D01*
X166935714Y-81772619D01*
X167064285Y-81825000D01*
X167107142Y-81877380D01*
X154980952Y-62071428D02*
X155590476Y-62071428D01*
X155285714Y-62452380D02*
X155285714Y-61690476D01*
X155857142Y-61452380D02*
X156123809Y-62452380D01*
X156390476Y-61452380D01*
X157228571Y-62404761D02*
X157342857Y-62452380D01*
X157533333Y-62452380D01*
X157609523Y-62404761D01*
X157647619Y-62357142D01*
X157685714Y-62261904D01*
X157685714Y-62166666D01*
X157647619Y-62071428D01*
X157609523Y-62023809D01*
X157533333Y-61976190D01*
X157380952Y-61928571D01*
X157304761Y-61880952D01*
X157266666Y-61833333D01*
X157228571Y-61738095D01*
X157228571Y-61642857D01*
X157266666Y-61547619D01*
X157304761Y-61500000D01*
X157380952Y-61452380D01*
X157571428Y-61452380D01*
X157685714Y-61500000D01*
X158180952Y-61452380D02*
X158333333Y-61452380D01*
X158409523Y-61500000D01*
X158485714Y-61595238D01*
X158523809Y-61785714D01*
X158523809Y-62119047D01*
X158485714Y-62309523D01*
X158409523Y-62404761D01*
X158333333Y-62452380D01*
X158180952Y-62452380D01*
X158104761Y-62404761D01*
X158028571Y-62309523D01*
X157990476Y-62119047D01*
X157990476Y-61785714D01*
X158028571Y-61595238D01*
X158104761Y-61500000D01*
X158180952Y-61452380D01*
X159247619Y-62452380D02*
X158866666Y-62452380D01*
X158866666Y-61452380D01*
X159476190Y-62166666D02*
X159857142Y-62166666D01*
X159400000Y-62452380D02*
X159666666Y-61452380D01*
X159933333Y-62452380D01*
X160657142Y-62452380D02*
X160390476Y-61976190D01*
X160200000Y-62452380D02*
X160200000Y-61452380D01*
X160504761Y-61452380D01*
X160580952Y-61500000D01*
X160619047Y-61547619D01*
X160657142Y-61642857D01*
X160657142Y-61785714D01*
X160619047Y-61880952D01*
X160580952Y-61928571D01*
X160504761Y-61976190D01*
X160200000Y-61976190D01*
X123150000Y-60657142D02*
X123383333Y-61557142D01*
X123616666Y-60657142D01*
X124083333Y-61085714D02*
X124183333Y-61128571D01*
X124216666Y-61171428D01*
X124250000Y-61257142D01*
X124250000Y-61385714D01*
X124216666Y-61471428D01*
X124183333Y-61514285D01*
X124116666Y-61557142D01*
X123850000Y-61557142D01*
X123850000Y-60657142D01*
X124083333Y-60657142D01*
X124150000Y-60700000D01*
X124183333Y-60742857D01*
X124216666Y-60828571D01*
X124216666Y-60914285D01*
X124183333Y-61000000D01*
X124150000Y-61042857D01*
X124083333Y-61085714D01*
X123850000Y-61085714D01*
X124516666Y-61300000D02*
X124850000Y-61300000D01*
X124450000Y-61557142D02*
X124683333Y-60657142D01*
X124916666Y-61557142D01*
X125050000Y-60657142D02*
X125450000Y-60657142D01*
X125250000Y-61557142D02*
X125250000Y-60657142D01*
X121816666Y-59307142D02*
X122050000Y-60207142D01*
X122283333Y-59307142D01*
X122850000Y-60207142D02*
X122516666Y-60207142D01*
X122516666Y-59307142D01*
X123083333Y-59735714D02*
X123316666Y-59735714D01*
X123416666Y-60207142D02*
X123083333Y-60207142D01*
X123083333Y-59307142D01*
X123416666Y-59307142D01*
X123716666Y-60207142D02*
X123716666Y-59307142D01*
X123883333Y-59307142D01*
X123983333Y-59350000D01*
X124050000Y-59435714D01*
X124083333Y-59521428D01*
X124116666Y-59692857D01*
X124116666Y-59821428D01*
X124083333Y-59992857D01*
X124050000Y-60078571D01*
X123983333Y-60164285D01*
X123883333Y-60207142D01*
X123716666Y-60207142D01*
X156883333Y-74166285D02*
X156816666Y-74209142D01*
X156683333Y-74209142D01*
X156616666Y-74166285D01*
X156583333Y-74123428D01*
X156550000Y-74037714D01*
X156550000Y-73780571D01*
X156583333Y-73694857D01*
X156616666Y-73652000D01*
X156683333Y-73609142D01*
X156816666Y-73609142D01*
X156883333Y-73652000D01*
X157283333Y-74209142D02*
X157216666Y-74166285D01*
X157183333Y-74123428D01*
X157150000Y-74037714D01*
X157150000Y-73780571D01*
X157183333Y-73694857D01*
X157216666Y-73652000D01*
X157283333Y-73609142D01*
X157383333Y-73609142D01*
X157450000Y-73652000D01*
X157483333Y-73694857D01*
X157516666Y-73780571D01*
X157516666Y-74037714D01*
X157483333Y-74123428D01*
X157450000Y-74166285D01*
X157383333Y-74209142D01*
X157283333Y-74209142D01*
X157816666Y-73609142D02*
X157816666Y-74209142D01*
X157816666Y-73694857D02*
X157850000Y-73652000D01*
X157916666Y-73609142D01*
X158016666Y-73609142D01*
X158083333Y-73652000D01*
X158116666Y-73737714D01*
X158116666Y-74209142D01*
X158450000Y-73609142D02*
X158450000Y-74209142D01*
X158450000Y-73694857D02*
X158483333Y-73652000D01*
X158550000Y-73609142D01*
X158650000Y-73609142D01*
X158716666Y-73652000D01*
X158750000Y-73737714D01*
X158750000Y-74209142D01*
X159350000Y-74166285D02*
X159283333Y-74209142D01*
X159150000Y-74209142D01*
X159083333Y-74166285D01*
X159050000Y-74080571D01*
X159050000Y-73737714D01*
X159083333Y-73652000D01*
X159150000Y-73609142D01*
X159283333Y-73609142D01*
X159350000Y-73652000D01*
X159383333Y-73737714D01*
X159383333Y-73823428D01*
X159050000Y-73909142D01*
X159983333Y-74166285D02*
X159916666Y-74209142D01*
X159783333Y-74209142D01*
X159716666Y-74166285D01*
X159683333Y-74123428D01*
X159650000Y-74037714D01*
X159650000Y-73780571D01*
X159683333Y-73694857D01*
X159716666Y-73652000D01*
X159783333Y-73609142D01*
X159916666Y-73609142D01*
X159983333Y-73652000D01*
X160183333Y-73609142D02*
X160450000Y-73609142D01*
X160283333Y-73309142D02*
X160283333Y-74080571D01*
X160316666Y-74166285D01*
X160383333Y-74209142D01*
X160450000Y-74209142D01*
X160950000Y-74166285D02*
X160883333Y-74209142D01*
X160750000Y-74209142D01*
X160683333Y-74166285D01*
X160650000Y-74080571D01*
X160650000Y-73737714D01*
X160683333Y-73652000D01*
X160750000Y-73609142D01*
X160883333Y-73609142D01*
X160950000Y-73652000D01*
X160983333Y-73737714D01*
X160983333Y-73823428D01*
X160650000Y-73909142D01*
X161583333Y-74209142D02*
X161583333Y-73309142D01*
X161583333Y-74166285D02*
X161516666Y-74209142D01*
X161383333Y-74209142D01*
X161316666Y-74166285D01*
X161283333Y-74123428D01*
X161250000Y-74037714D01*
X161250000Y-73780571D01*
X161283333Y-73694857D01*
X161316666Y-73652000D01*
X161383333Y-73609142D01*
X161516666Y-73609142D01*
X161583333Y-73652000D01*
X162416666Y-74166285D02*
X162483333Y-74209142D01*
X162616666Y-74209142D01*
X162683333Y-74166285D01*
X162716666Y-74080571D01*
X162716666Y-74037714D01*
X162683333Y-73952000D01*
X162616666Y-73909142D01*
X162516666Y-73909142D01*
X162450000Y-73866285D01*
X162416666Y-73780571D01*
X162416666Y-73737714D01*
X162450000Y-73652000D01*
X162516666Y-73609142D01*
X162616666Y-73609142D01*
X162683333Y-73652000D01*
X163116666Y-74209142D02*
X163050000Y-74166285D01*
X163016666Y-74123428D01*
X162983333Y-74037714D01*
X162983333Y-73780571D01*
X163016666Y-73694857D01*
X163050000Y-73652000D01*
X163116666Y-73609142D01*
X163216666Y-73609142D01*
X163283333Y-73652000D01*
X163316666Y-73694857D01*
X163350000Y-73780571D01*
X163350000Y-74037714D01*
X163316666Y-74123428D01*
X163283333Y-74166285D01*
X163216666Y-74209142D01*
X163116666Y-74209142D01*
X163750000Y-74209142D02*
X163683333Y-74166285D01*
X163650000Y-74080571D01*
X163650000Y-73309142D01*
X164316666Y-74209142D02*
X164316666Y-73737714D01*
X164283333Y-73652000D01*
X164216666Y-73609142D01*
X164083333Y-73609142D01*
X164016666Y-73652000D01*
X164316666Y-74166285D02*
X164250000Y-74209142D01*
X164083333Y-74209142D01*
X164016666Y-74166285D01*
X163983333Y-74080571D01*
X163983333Y-73994857D01*
X164016666Y-73909142D01*
X164083333Y-73866285D01*
X164250000Y-73866285D01*
X164316666Y-73823428D01*
X164650000Y-74209142D02*
X164650000Y-73609142D01*
X164650000Y-73780571D02*
X164683333Y-73694857D01*
X164716666Y-73652000D01*
X164783333Y-73609142D01*
X164850000Y-73609142D01*
X165616666Y-73609142D02*
X165616666Y-74509142D01*
X165616666Y-73652000D02*
X165683333Y-73609142D01*
X165816666Y-73609142D01*
X165883333Y-73652000D01*
X165916666Y-73694857D01*
X165950000Y-73780571D01*
X165950000Y-74037714D01*
X165916666Y-74123428D01*
X165883333Y-74166285D01*
X165816666Y-74209142D01*
X165683333Y-74209142D01*
X165616666Y-74166285D01*
X166550000Y-74209142D02*
X166550000Y-73737714D01*
X166516666Y-73652000D01*
X166450000Y-73609142D01*
X166316666Y-73609142D01*
X166250000Y-73652000D01*
X166550000Y-74166285D02*
X166483333Y-74209142D01*
X166316666Y-74209142D01*
X166250000Y-74166285D01*
X166216666Y-74080571D01*
X166216666Y-73994857D01*
X166250000Y-73909142D01*
X166316666Y-73866285D01*
X166483333Y-73866285D01*
X166550000Y-73823428D01*
X166883333Y-73609142D02*
X166883333Y-74209142D01*
X166883333Y-73694857D02*
X166916666Y-73652000D01*
X166983333Y-73609142D01*
X167083333Y-73609142D01*
X167150000Y-73652000D01*
X167183333Y-73737714D01*
X167183333Y-74209142D01*
X167783333Y-74166285D02*
X167716666Y-74209142D01*
X167583333Y-74209142D01*
X167516666Y-74166285D01*
X167483333Y-74080571D01*
X167483333Y-73737714D01*
X167516666Y-73652000D01*
X167583333Y-73609142D01*
X167716666Y-73609142D01*
X167783333Y-73652000D01*
X167816666Y-73737714D01*
X167816666Y-73823428D01*
X167483333Y-73909142D01*
X168216666Y-74209142D02*
X168150000Y-74166285D01*
X168116666Y-74080571D01*
X168116666Y-73309142D01*
X168450000Y-74166285D02*
X168516666Y-74209142D01*
X168650000Y-74209142D01*
X168716666Y-74166285D01*
X168750000Y-74080571D01*
X168750000Y-74037714D01*
X168716666Y-73952000D01*
X168650000Y-73909142D01*
X168550000Y-73909142D01*
X168483333Y-73866285D01*
X168450000Y-73780571D01*
X168450000Y-73737714D01*
X168483333Y-73652000D01*
X168550000Y-73609142D01*
X168650000Y-73609142D01*
X168716666Y-73652000D01*
X152833333Y-75658142D02*
X152833333Y-75058142D01*
X152833333Y-75143857D02*
X152866666Y-75101000D01*
X152933333Y-75058142D01*
X153033333Y-75058142D01*
X153100000Y-75101000D01*
X153133333Y-75186714D01*
X153133333Y-75658142D01*
X153133333Y-75186714D02*
X153166666Y-75101000D01*
X153233333Y-75058142D01*
X153333333Y-75058142D01*
X153400000Y-75101000D01*
X153433333Y-75186714D01*
X153433333Y-75658142D01*
X154066666Y-75058142D02*
X154066666Y-75658142D01*
X153766666Y-75058142D02*
X153766666Y-75529571D01*
X153800000Y-75615285D01*
X153866666Y-75658142D01*
X153966666Y-75658142D01*
X154033333Y-75615285D01*
X154066666Y-75572428D01*
X154366666Y-75615285D02*
X154433333Y-75658142D01*
X154566666Y-75658142D01*
X154633333Y-75615285D01*
X154666666Y-75529571D01*
X154666666Y-75486714D01*
X154633333Y-75401000D01*
X154566666Y-75358142D01*
X154466666Y-75358142D01*
X154400000Y-75315285D01*
X154366666Y-75229571D01*
X154366666Y-75186714D01*
X154400000Y-75101000D01*
X154466666Y-75058142D01*
X154566666Y-75058142D01*
X154633333Y-75101000D01*
X154866666Y-75058142D02*
X155133333Y-75058142D01*
X154966666Y-74758142D02*
X154966666Y-75529571D01*
X155000000Y-75615285D01*
X155066666Y-75658142D01*
X155133333Y-75658142D01*
X155900000Y-75058142D02*
X155900000Y-75958142D01*
X155900000Y-75101000D02*
X155966666Y-75058142D01*
X156100000Y-75058142D01*
X156166666Y-75101000D01*
X156200000Y-75143857D01*
X156233333Y-75229571D01*
X156233333Y-75486714D01*
X156200000Y-75572428D01*
X156166666Y-75615285D01*
X156100000Y-75658142D01*
X155966666Y-75658142D01*
X155900000Y-75615285D01*
X156533333Y-75658142D02*
X156533333Y-75058142D01*
X156533333Y-75229571D02*
X156566666Y-75143857D01*
X156600000Y-75101000D01*
X156666666Y-75058142D01*
X156733333Y-75058142D01*
X157066666Y-75658142D02*
X157000000Y-75615285D01*
X156966666Y-75572428D01*
X156933333Y-75486714D01*
X156933333Y-75229571D01*
X156966666Y-75143857D01*
X157000000Y-75101000D01*
X157066666Y-75058142D01*
X157166666Y-75058142D01*
X157233333Y-75101000D01*
X157266666Y-75143857D01*
X157300000Y-75229571D01*
X157300000Y-75486714D01*
X157266666Y-75572428D01*
X157233333Y-75615285D01*
X157166666Y-75658142D01*
X157066666Y-75658142D01*
X157900000Y-75658142D02*
X157900000Y-74758142D01*
X157900000Y-75615285D02*
X157833333Y-75658142D01*
X157700000Y-75658142D01*
X157633333Y-75615285D01*
X157600000Y-75572428D01*
X157566666Y-75486714D01*
X157566666Y-75229571D01*
X157600000Y-75143857D01*
X157633333Y-75101000D01*
X157700000Y-75058142D01*
X157833333Y-75058142D01*
X157900000Y-75101000D01*
X158533333Y-75058142D02*
X158533333Y-75658142D01*
X158233333Y-75058142D02*
X158233333Y-75529571D01*
X158266666Y-75615285D01*
X158333333Y-75658142D01*
X158433333Y-75658142D01*
X158500000Y-75615285D01*
X158533333Y-75572428D01*
X159166666Y-75615285D02*
X159100000Y-75658142D01*
X158966666Y-75658142D01*
X158900000Y-75615285D01*
X158866666Y-75572428D01*
X158833333Y-75486714D01*
X158833333Y-75229571D01*
X158866666Y-75143857D01*
X158900000Y-75101000D01*
X158966666Y-75058142D01*
X159100000Y-75058142D01*
X159166666Y-75101000D01*
X159733333Y-75615285D02*
X159666666Y-75658142D01*
X159533333Y-75658142D01*
X159466666Y-75615285D01*
X159433333Y-75529571D01*
X159433333Y-75186714D01*
X159466666Y-75101000D01*
X159533333Y-75058142D01*
X159666666Y-75058142D01*
X159733333Y-75101000D01*
X159766666Y-75186714D01*
X159766666Y-75272428D01*
X159433333Y-75358142D01*
X160700000Y-75658142D02*
X160633333Y-75615285D01*
X160600000Y-75529571D01*
X160600000Y-74758142D01*
X161233333Y-75615285D02*
X161166666Y-75658142D01*
X161033333Y-75658142D01*
X160966666Y-75615285D01*
X160933333Y-75529571D01*
X160933333Y-75186714D01*
X160966666Y-75101000D01*
X161033333Y-75058142D01*
X161166666Y-75058142D01*
X161233333Y-75101000D01*
X161266666Y-75186714D01*
X161266666Y-75272428D01*
X160933333Y-75358142D01*
X161533333Y-75615285D02*
X161600000Y-75658142D01*
X161733333Y-75658142D01*
X161800000Y-75615285D01*
X161833333Y-75529571D01*
X161833333Y-75486714D01*
X161800000Y-75401000D01*
X161733333Y-75358142D01*
X161633333Y-75358142D01*
X161566666Y-75315285D01*
X161533333Y-75229571D01*
X161533333Y-75186714D01*
X161566666Y-75101000D01*
X161633333Y-75058142D01*
X161733333Y-75058142D01*
X161800000Y-75101000D01*
X162100000Y-75615285D02*
X162166666Y-75658142D01*
X162300000Y-75658142D01*
X162366666Y-75615285D01*
X162400000Y-75529571D01*
X162400000Y-75486714D01*
X162366666Y-75401000D01*
X162300000Y-75358142D01*
X162200000Y-75358142D01*
X162133333Y-75315285D01*
X162100000Y-75229571D01*
X162100000Y-75186714D01*
X162133333Y-75101000D01*
X162200000Y-75058142D01*
X162300000Y-75058142D01*
X162366666Y-75101000D01*
X163133333Y-75058142D02*
X163400000Y-75058142D01*
X163233333Y-74758142D02*
X163233333Y-75529571D01*
X163266666Y-75615285D01*
X163333333Y-75658142D01*
X163400000Y-75658142D01*
X163633333Y-75658142D02*
X163633333Y-74758142D01*
X163933333Y-75658142D02*
X163933333Y-75186714D01*
X163900000Y-75101000D01*
X163833333Y-75058142D01*
X163733333Y-75058142D01*
X163666666Y-75101000D01*
X163633333Y-75143857D01*
X164566666Y-75658142D02*
X164566666Y-75186714D01*
X164533333Y-75101000D01*
X164466666Y-75058142D01*
X164333333Y-75058142D01*
X164266666Y-75101000D01*
X164566666Y-75615285D02*
X164500000Y-75658142D01*
X164333333Y-75658142D01*
X164266666Y-75615285D01*
X164233333Y-75529571D01*
X164233333Y-75443857D01*
X164266666Y-75358142D01*
X164333333Y-75315285D01*
X164500000Y-75315285D01*
X164566666Y-75272428D01*
X164900000Y-75058142D02*
X164900000Y-75658142D01*
X164900000Y-75143857D02*
X164933333Y-75101000D01*
X165000000Y-75058142D01*
X165100000Y-75058142D01*
X165166666Y-75101000D01*
X165200000Y-75186714D01*
X165200000Y-75658142D01*
X166433333Y-75658142D02*
X166033333Y-75658142D01*
X166233333Y-75658142D02*
X166233333Y-74758142D01*
X166166666Y-74886714D01*
X166100000Y-74972428D01*
X166033333Y-75015285D01*
X166700000Y-74843857D02*
X166733333Y-74801000D01*
X166800000Y-74758142D01*
X166966666Y-74758142D01*
X167033333Y-74801000D01*
X167066666Y-74843857D01*
X167100000Y-74929571D01*
X167100000Y-75015285D01*
X167066666Y-75143857D01*
X166666666Y-75658142D01*
X167100000Y-75658142D01*
X167533333Y-74758142D02*
X167600000Y-74758142D01*
X167666666Y-74801000D01*
X167700000Y-74843857D01*
X167733333Y-74929571D01*
X167766666Y-75101000D01*
X167766666Y-75315285D01*
X167733333Y-75486714D01*
X167700000Y-75572428D01*
X167666666Y-75615285D01*
X167600000Y-75658142D01*
X167533333Y-75658142D01*
X167466666Y-75615285D01*
X167433333Y-75572428D01*
X167400000Y-75486714D01*
X167366666Y-75315285D01*
X167366666Y-75101000D01*
X167400000Y-74929571D01*
X167433333Y-74843857D01*
X167466666Y-74801000D01*
X167533333Y-74758142D01*
X168600000Y-75658142D02*
X168600000Y-75058142D01*
X168600000Y-75143857D02*
X168633333Y-75101000D01*
X168700000Y-75058142D01*
X168800000Y-75058142D01*
X168866666Y-75101000D01*
X168900000Y-75186714D01*
X168900000Y-75658142D01*
X168900000Y-75186714D02*
X168933333Y-75101000D01*
X169000000Y-75058142D01*
X169100000Y-75058142D01*
X169166666Y-75101000D01*
X169200000Y-75186714D01*
X169200000Y-75658142D01*
X169500000Y-75401000D02*
X169833333Y-75401000D01*
X169433333Y-75658142D02*
X169666666Y-74758142D01*
X169900000Y-75658142D01*
X170666666Y-75658142D02*
X170666666Y-75058142D01*
X170666666Y-75143857D02*
X170700000Y-75101000D01*
X170766666Y-75058142D01*
X170866666Y-75058142D01*
X170933333Y-75101000D01*
X170966666Y-75186714D01*
X170966666Y-75658142D01*
X170966666Y-75186714D02*
X171000000Y-75101000D01*
X171066666Y-75058142D01*
X171166666Y-75058142D01*
X171233333Y-75101000D01*
X171266666Y-75186714D01*
X171266666Y-75658142D01*
X171900000Y-75658142D02*
X171900000Y-75186714D01*
X171866666Y-75101000D01*
X171800000Y-75058142D01*
X171666666Y-75058142D01*
X171600000Y-75101000D01*
X171900000Y-75615285D02*
X171833333Y-75658142D01*
X171666666Y-75658142D01*
X171600000Y-75615285D01*
X171566666Y-75529571D01*
X171566666Y-75443857D01*
X171600000Y-75358142D01*
X171666666Y-75315285D01*
X171833333Y-75315285D01*
X171900000Y-75272428D01*
X172166666Y-75658142D02*
X172533333Y-75058142D01*
X172166666Y-75058142D02*
X172533333Y-75658142D01*
X145200000Y-77064285D02*
X145266666Y-77107142D01*
X145400000Y-77107142D01*
X145466666Y-77064285D01*
X145500000Y-76978571D01*
X145500000Y-76935714D01*
X145466666Y-76850000D01*
X145400000Y-76807142D01*
X145300000Y-76807142D01*
X145233333Y-76764285D01*
X145200000Y-76678571D01*
X145200000Y-76635714D01*
X145233333Y-76550000D01*
X145300000Y-76507142D01*
X145400000Y-76507142D01*
X145466666Y-76550000D01*
X145900000Y-77107142D02*
X145833333Y-77064285D01*
X145800000Y-77021428D01*
X145766666Y-76935714D01*
X145766666Y-76678571D01*
X145800000Y-76592857D01*
X145833333Y-76550000D01*
X145900000Y-76507142D01*
X146000000Y-76507142D01*
X146066666Y-76550000D01*
X146100000Y-76592857D01*
X146133333Y-76678571D01*
X146133333Y-76935714D01*
X146100000Y-77021428D01*
X146066666Y-77064285D01*
X146000000Y-77107142D01*
X145900000Y-77107142D01*
X146533333Y-77107142D02*
X146466666Y-77064285D01*
X146433333Y-76978571D01*
X146433333Y-76207142D01*
X147100000Y-77107142D02*
X147100000Y-76635714D01*
X147066666Y-76550000D01*
X147000000Y-76507142D01*
X146866666Y-76507142D01*
X146800000Y-76550000D01*
X147100000Y-77064285D02*
X147033333Y-77107142D01*
X146866666Y-77107142D01*
X146800000Y-77064285D01*
X146766666Y-76978571D01*
X146766666Y-76892857D01*
X146800000Y-76807142D01*
X146866666Y-76764285D01*
X147033333Y-76764285D01*
X147100000Y-76721428D01*
X147433333Y-77107142D02*
X147433333Y-76507142D01*
X147433333Y-76678571D02*
X147466666Y-76592857D01*
X147500000Y-76550000D01*
X147566666Y-76507142D01*
X147633333Y-76507142D01*
X148400000Y-76507142D02*
X148400000Y-77407142D01*
X148400000Y-76550000D02*
X148466666Y-76507142D01*
X148600000Y-76507142D01*
X148666666Y-76550000D01*
X148700000Y-76592857D01*
X148733333Y-76678571D01*
X148733333Y-76935714D01*
X148700000Y-77021428D01*
X148666666Y-77064285D01*
X148600000Y-77107142D01*
X148466666Y-77107142D01*
X148400000Y-77064285D01*
X149333333Y-77107142D02*
X149333333Y-76635714D01*
X149300000Y-76550000D01*
X149233333Y-76507142D01*
X149100000Y-76507142D01*
X149033333Y-76550000D01*
X149333333Y-77064285D02*
X149266666Y-77107142D01*
X149100000Y-77107142D01*
X149033333Y-77064285D01*
X149000000Y-76978571D01*
X149000000Y-76892857D01*
X149033333Y-76807142D01*
X149100000Y-76764285D01*
X149266666Y-76764285D01*
X149333333Y-76721428D01*
X149666666Y-76507142D02*
X149666666Y-77107142D01*
X149666666Y-76592857D02*
X149700000Y-76550000D01*
X149766666Y-76507142D01*
X149866666Y-76507142D01*
X149933333Y-76550000D01*
X149966666Y-76635714D01*
X149966666Y-77107142D01*
X150566666Y-77064285D02*
X150500000Y-77107142D01*
X150366666Y-77107142D01*
X150300000Y-77064285D01*
X150266666Y-76978571D01*
X150266666Y-76635714D01*
X150300000Y-76550000D01*
X150366666Y-76507142D01*
X150500000Y-76507142D01*
X150566666Y-76550000D01*
X150600000Y-76635714D01*
X150600000Y-76721428D01*
X150266666Y-76807142D01*
X151000000Y-77107142D02*
X150933333Y-77064285D01*
X150900000Y-76978571D01*
X150900000Y-76207142D01*
X151800000Y-77107142D02*
X151800000Y-76507142D01*
X151800000Y-76678571D02*
X151833333Y-76592857D01*
X151866666Y-76550000D01*
X151933333Y-76507142D01*
X152000000Y-76507142D01*
X152500000Y-77064285D02*
X152433333Y-77107142D01*
X152300000Y-77107142D01*
X152233333Y-77064285D01*
X152200000Y-76978571D01*
X152200000Y-76635714D01*
X152233333Y-76550000D01*
X152300000Y-76507142D01*
X152433333Y-76507142D01*
X152500000Y-76550000D01*
X152533333Y-76635714D01*
X152533333Y-76721428D01*
X152200000Y-76807142D01*
X153133333Y-77064285D02*
X153066666Y-77107142D01*
X152933333Y-77107142D01*
X152866666Y-77064285D01*
X152833333Y-77021428D01*
X152800000Y-76935714D01*
X152800000Y-76678571D01*
X152833333Y-76592857D01*
X152866666Y-76550000D01*
X152933333Y-76507142D01*
X153066666Y-76507142D01*
X153133333Y-76550000D01*
X153533333Y-77107142D02*
X153466666Y-77064285D01*
X153433333Y-77021428D01*
X153400000Y-76935714D01*
X153400000Y-76678571D01*
X153433333Y-76592857D01*
X153466666Y-76550000D01*
X153533333Y-76507142D01*
X153633333Y-76507142D01*
X153700000Y-76550000D01*
X153733333Y-76592857D01*
X153766666Y-76678571D01*
X153766666Y-76935714D01*
X153733333Y-77021428D01*
X153700000Y-77064285D01*
X153633333Y-77107142D01*
X153533333Y-77107142D01*
X154066666Y-77107142D02*
X154066666Y-76507142D01*
X154066666Y-76592857D02*
X154100000Y-76550000D01*
X154166666Y-76507142D01*
X154266666Y-76507142D01*
X154333333Y-76550000D01*
X154366666Y-76635714D01*
X154366666Y-77107142D01*
X154366666Y-76635714D02*
X154400000Y-76550000D01*
X154466666Y-76507142D01*
X154566666Y-76507142D01*
X154633333Y-76550000D01*
X154666666Y-76635714D01*
X154666666Y-77107142D01*
X155000000Y-77107142D02*
X155000000Y-76507142D01*
X155000000Y-76592857D02*
X155033333Y-76550000D01*
X155100000Y-76507142D01*
X155200000Y-76507142D01*
X155266666Y-76550000D01*
X155300000Y-76635714D01*
X155300000Y-77107142D01*
X155300000Y-76635714D02*
X155333333Y-76550000D01*
X155400000Y-76507142D01*
X155500000Y-76507142D01*
X155566666Y-76550000D01*
X155600000Y-76635714D01*
X155600000Y-77107142D01*
X156200000Y-77064285D02*
X156133333Y-77107142D01*
X156000000Y-77107142D01*
X155933333Y-77064285D01*
X155900000Y-76978571D01*
X155900000Y-76635714D01*
X155933333Y-76550000D01*
X156000000Y-76507142D01*
X156133333Y-76507142D01*
X156200000Y-76550000D01*
X156233333Y-76635714D01*
X156233333Y-76721428D01*
X155900000Y-76807142D01*
X156533333Y-76507142D02*
X156533333Y-77107142D01*
X156533333Y-76592857D02*
X156566666Y-76550000D01*
X156633333Y-76507142D01*
X156733333Y-76507142D01*
X156800000Y-76550000D01*
X156833333Y-76635714D01*
X156833333Y-77107142D01*
X157466666Y-77107142D02*
X157466666Y-76207142D01*
X157466666Y-77064285D02*
X157400000Y-77107142D01*
X157266666Y-77107142D01*
X157200000Y-77064285D01*
X157166666Y-77021428D01*
X157133333Y-76935714D01*
X157133333Y-76678571D01*
X157166666Y-76592857D01*
X157200000Y-76550000D01*
X157266666Y-76507142D01*
X157400000Y-76507142D01*
X157466666Y-76550000D01*
X158100000Y-77107142D02*
X158100000Y-76635714D01*
X158066666Y-76550000D01*
X158000000Y-76507142D01*
X157866666Y-76507142D01*
X157800000Y-76550000D01*
X158100000Y-77064285D02*
X158033333Y-77107142D01*
X157866666Y-77107142D01*
X157800000Y-77064285D01*
X157766666Y-76978571D01*
X157766666Y-76892857D01*
X157800000Y-76807142D01*
X157866666Y-76764285D01*
X158033333Y-76764285D01*
X158100000Y-76721428D01*
X158333333Y-76507142D02*
X158600000Y-76507142D01*
X158433333Y-76207142D02*
X158433333Y-76978571D01*
X158466666Y-77064285D01*
X158533333Y-77107142D01*
X158600000Y-77107142D01*
X158833333Y-77107142D02*
X158833333Y-76507142D01*
X158833333Y-76207142D02*
X158800000Y-76250000D01*
X158833333Y-76292857D01*
X158866666Y-76250000D01*
X158833333Y-76207142D01*
X158833333Y-76292857D01*
X159266666Y-77107142D02*
X159200000Y-77064285D01*
X159166666Y-77021428D01*
X159133333Y-76935714D01*
X159133333Y-76678571D01*
X159166666Y-76592857D01*
X159200000Y-76550000D01*
X159266666Y-76507142D01*
X159366666Y-76507142D01*
X159433333Y-76550000D01*
X159466666Y-76592857D01*
X159500000Y-76678571D01*
X159500000Y-76935714D01*
X159466666Y-77021428D01*
X159433333Y-77064285D01*
X159366666Y-77107142D01*
X159266666Y-77107142D01*
X159800000Y-76507142D02*
X159800000Y-77107142D01*
X159800000Y-76592857D02*
X159833333Y-76550000D01*
X159900000Y-76507142D01*
X160000000Y-76507142D01*
X160066666Y-76550000D01*
X160100000Y-76635714D01*
X160100000Y-77107142D01*
X160966666Y-77107142D02*
X160966666Y-76507142D01*
X160966666Y-76207142D02*
X160933333Y-76250000D01*
X160966666Y-76292857D01*
X161000000Y-76250000D01*
X160966666Y-76207142D01*
X160966666Y-76292857D01*
X161266666Y-77064285D02*
X161333333Y-77107142D01*
X161466666Y-77107142D01*
X161533333Y-77064285D01*
X161566666Y-76978571D01*
X161566666Y-76935714D01*
X161533333Y-76850000D01*
X161466666Y-76807142D01*
X161366666Y-76807142D01*
X161300000Y-76764285D01*
X161266666Y-76678571D01*
X161266666Y-76635714D01*
X161300000Y-76550000D01*
X161366666Y-76507142D01*
X161466666Y-76507142D01*
X161533333Y-76550000D01*
X162700000Y-77107142D02*
X162700000Y-76635714D01*
X162666666Y-76550000D01*
X162600000Y-76507142D01*
X162466666Y-76507142D01*
X162400000Y-76550000D01*
X162700000Y-77064285D02*
X162633333Y-77107142D01*
X162466666Y-77107142D01*
X162400000Y-77064285D01*
X162366666Y-76978571D01*
X162366666Y-76892857D01*
X162400000Y-76807142D01*
X162466666Y-76764285D01*
X162633333Y-76764285D01*
X162700000Y-76721428D01*
X163033333Y-77107142D02*
X163033333Y-76507142D01*
X163033333Y-76678571D02*
X163066666Y-76592857D01*
X163100000Y-76550000D01*
X163166666Y-76507142D01*
X163233333Y-76507142D01*
X163566666Y-77107142D02*
X163500000Y-77064285D01*
X163466666Y-77021428D01*
X163433333Y-76935714D01*
X163433333Y-76678571D01*
X163466666Y-76592857D01*
X163500000Y-76550000D01*
X163566666Y-76507142D01*
X163666666Y-76507142D01*
X163733333Y-76550000D01*
X163766666Y-76592857D01*
X163800000Y-76678571D01*
X163800000Y-76935714D01*
X163766666Y-77021428D01*
X163733333Y-77064285D01*
X163666666Y-77107142D01*
X163566666Y-77107142D01*
X164400000Y-76507142D02*
X164400000Y-77107142D01*
X164100000Y-76507142D02*
X164100000Y-76978571D01*
X164133333Y-77064285D01*
X164200000Y-77107142D01*
X164300000Y-77107142D01*
X164366666Y-77064285D01*
X164400000Y-77021428D01*
X164733333Y-76507142D02*
X164733333Y-77107142D01*
X164733333Y-76592857D02*
X164766666Y-76550000D01*
X164833333Y-76507142D01*
X164933333Y-76507142D01*
X165000000Y-76550000D01*
X165033333Y-76635714D01*
X165033333Y-77107142D01*
X165666666Y-77107142D02*
X165666666Y-76207142D01*
X165666666Y-77064285D02*
X165600000Y-77107142D01*
X165466666Y-77107142D01*
X165400000Y-77064285D01*
X165366666Y-77021428D01*
X165333333Y-76935714D01*
X165333333Y-76678571D01*
X165366666Y-76592857D01*
X165400000Y-76550000D01*
X165466666Y-76507142D01*
X165600000Y-76507142D01*
X165666666Y-76550000D01*
X166866666Y-76207142D02*
X166533333Y-76207142D01*
X166500000Y-76635714D01*
X166533333Y-76592857D01*
X166600000Y-76550000D01*
X166766666Y-76550000D01*
X166833333Y-76592857D01*
X166866666Y-76635714D01*
X166900000Y-76721428D01*
X166900000Y-76935714D01*
X166866666Y-77021428D01*
X166833333Y-77064285D01*
X166766666Y-77107142D01*
X166600000Y-77107142D01*
X166533333Y-77064285D01*
X166500000Y-77021428D01*
X167200000Y-77021428D02*
X167233333Y-77064285D01*
X167200000Y-77107142D01*
X167166666Y-77064285D01*
X167200000Y-77021428D01*
X167200000Y-77107142D01*
X167866666Y-76207142D02*
X167533333Y-76207142D01*
X167500000Y-76635714D01*
X167533333Y-76592857D01*
X167600000Y-76550000D01*
X167766666Y-76550000D01*
X167833333Y-76592857D01*
X167866666Y-76635714D01*
X167900000Y-76721428D01*
X167900000Y-76935714D01*
X167866666Y-77021428D01*
X167833333Y-77064285D01*
X167766666Y-77107142D01*
X167600000Y-77107142D01*
X167533333Y-77064285D01*
X167500000Y-77021428D01*
X168100000Y-76207142D02*
X168333333Y-77107142D01*
X168566666Y-76207142D01*
X169766666Y-76678571D02*
X169733333Y-76635714D01*
X169666666Y-76592857D01*
X169600000Y-76592857D01*
X169533333Y-76635714D01*
X169500000Y-76678571D01*
X169466666Y-76764285D01*
X169466666Y-76850000D01*
X169500000Y-76935714D01*
X169533333Y-76978571D01*
X169600000Y-77021428D01*
X169666666Y-77021428D01*
X169733333Y-76978571D01*
X169766666Y-76935714D01*
X169766666Y-76592857D02*
X169766666Y-76935714D01*
X169800000Y-76978571D01*
X169833333Y-76978571D01*
X169900000Y-76935714D01*
X169933333Y-76850000D01*
X169933333Y-76635714D01*
X169866666Y-76507142D01*
X169766666Y-76421428D01*
X169633333Y-76378571D01*
X169500000Y-76421428D01*
X169400000Y-76507142D01*
X169333333Y-76635714D01*
X169300000Y-76807142D01*
X169333333Y-76978571D01*
X169400000Y-77107142D01*
X169500000Y-77192857D01*
X169633333Y-77235714D01*
X169766666Y-77192857D01*
X169866666Y-77107142D01*
X171066666Y-76207142D02*
X170933333Y-76207142D01*
X170866666Y-76250000D01*
X170833333Y-76292857D01*
X170766666Y-76421428D01*
X170733333Y-76592857D01*
X170733333Y-76935714D01*
X170766666Y-77021428D01*
X170800000Y-77064285D01*
X170866666Y-77107142D01*
X171000000Y-77107142D01*
X171066666Y-77064285D01*
X171100000Y-77021428D01*
X171133333Y-76935714D01*
X171133333Y-76721428D01*
X171100000Y-76635714D01*
X171066666Y-76592857D01*
X171000000Y-76550000D01*
X170866666Y-76550000D01*
X170800000Y-76592857D01*
X170766666Y-76635714D01*
X170733333Y-76721428D01*
X171566666Y-76207142D02*
X171633333Y-76207142D01*
X171700000Y-76250000D01*
X171733333Y-76292857D01*
X171766666Y-76378571D01*
X171800000Y-76550000D01*
X171800000Y-76764285D01*
X171766666Y-76935714D01*
X171733333Y-77021428D01*
X171700000Y-77064285D01*
X171633333Y-77107142D01*
X171566666Y-77107142D01*
X171500000Y-77064285D01*
X171466666Y-77021428D01*
X171433333Y-76935714D01*
X171400000Y-76764285D01*
X171400000Y-76550000D01*
X171433333Y-76378571D01*
X171466666Y-76292857D01*
X171500000Y-76250000D01*
X171566666Y-76207142D01*
X172633333Y-77107142D02*
X172633333Y-76507142D01*
X172633333Y-76592857D02*
X172666666Y-76550000D01*
X172733333Y-76507142D01*
X172833333Y-76507142D01*
X172900000Y-76550000D01*
X172933333Y-76635714D01*
X172933333Y-77107142D01*
X172933333Y-76635714D02*
X172966666Y-76550000D01*
X173033333Y-76507142D01*
X173133333Y-76507142D01*
X173200000Y-76550000D01*
X173233333Y-76635714D01*
X173233333Y-77107142D01*
X173533333Y-76850000D02*
X173866666Y-76850000D01*
X173466666Y-77107142D02*
X173700000Y-76207142D01*
X173933333Y-77107142D01*
X174700000Y-77107142D02*
X174700000Y-76507142D01*
X174700000Y-76592857D02*
X174733333Y-76550000D01*
X174800000Y-76507142D01*
X174900000Y-76507142D01*
X174966666Y-76550000D01*
X175000000Y-76635714D01*
X175000000Y-77107142D01*
X175000000Y-76635714D02*
X175033333Y-76550000D01*
X175100000Y-76507142D01*
X175200000Y-76507142D01*
X175266666Y-76550000D01*
X175300000Y-76635714D01*
X175300000Y-77107142D01*
X175933333Y-77107142D02*
X175933333Y-76635714D01*
X175900000Y-76550000D01*
X175833333Y-76507142D01*
X175700000Y-76507142D01*
X175633333Y-76550000D01*
X175933333Y-77064285D02*
X175866666Y-77107142D01*
X175700000Y-77107142D01*
X175633333Y-77064285D01*
X175600000Y-76978571D01*
X175600000Y-76892857D01*
X175633333Y-76807142D01*
X175700000Y-76764285D01*
X175866666Y-76764285D01*
X175933333Y-76721428D01*
X176200000Y-77107142D02*
X176566666Y-76507142D01*
X176200000Y-76507142D02*
X176566666Y-77107142D01*
X177366666Y-76507142D02*
X177366666Y-77407142D01*
X177366666Y-76550000D02*
X177433333Y-76507142D01*
X177566666Y-76507142D01*
X177633333Y-76550000D01*
X177666666Y-76592857D01*
X177700000Y-76678571D01*
X177700000Y-76935714D01*
X177666666Y-77021428D01*
X177633333Y-77064285D01*
X177566666Y-77107142D01*
X177433333Y-77107142D01*
X177366666Y-77064285D01*
X178100000Y-77107142D02*
X178033333Y-77064285D01*
X178000000Y-77021428D01*
X177966666Y-76935714D01*
X177966666Y-76678571D01*
X178000000Y-76592857D01*
X178033333Y-76550000D01*
X178100000Y-76507142D01*
X178200000Y-76507142D01*
X178266666Y-76550000D01*
X178300000Y-76592857D01*
X178333333Y-76678571D01*
X178333333Y-76935714D01*
X178300000Y-77021428D01*
X178266666Y-77064285D01*
X178200000Y-77107142D01*
X178100000Y-77107142D01*
X178566666Y-76507142D02*
X178700000Y-77107142D01*
X178833333Y-76678571D01*
X178966666Y-77107142D01*
X179100000Y-76507142D01*
X179633333Y-77064285D02*
X179566666Y-77107142D01*
X179433333Y-77107142D01*
X179366666Y-77064285D01*
X179333333Y-76978571D01*
X179333333Y-76635714D01*
X179366666Y-76550000D01*
X179433333Y-76507142D01*
X179566666Y-76507142D01*
X179633333Y-76550000D01*
X179666666Y-76635714D01*
X179666666Y-76721428D01*
X179333333Y-76807142D01*
X179966666Y-77107142D02*
X179966666Y-76507142D01*
X179966666Y-76678571D02*
X180000000Y-76592857D01*
X180033333Y-76550000D01*
X180100000Y-76507142D01*
X180166666Y-76507142D01*
X153333333Y-78556142D02*
X153333333Y-77656142D01*
X153633333Y-78556142D02*
X153633333Y-78084714D01*
X153600000Y-77999000D01*
X153533333Y-77956142D01*
X153433333Y-77956142D01*
X153366666Y-77999000D01*
X153333333Y-78041857D01*
X153966666Y-78556142D02*
X153966666Y-77956142D01*
X153966666Y-77656142D02*
X153933333Y-77699000D01*
X153966666Y-77741857D01*
X154000000Y-77699000D01*
X153966666Y-77656142D01*
X153966666Y-77741857D01*
X154600000Y-77956142D02*
X154600000Y-78684714D01*
X154566666Y-78770428D01*
X154533333Y-78813285D01*
X154466666Y-78856142D01*
X154366666Y-78856142D01*
X154300000Y-78813285D01*
X154600000Y-78513285D02*
X154533333Y-78556142D01*
X154400000Y-78556142D01*
X154333333Y-78513285D01*
X154300000Y-78470428D01*
X154266666Y-78384714D01*
X154266666Y-78127571D01*
X154300000Y-78041857D01*
X154333333Y-77999000D01*
X154400000Y-77956142D01*
X154533333Y-77956142D01*
X154600000Y-77999000D01*
X154933333Y-78556142D02*
X154933333Y-77656142D01*
X155233333Y-78556142D02*
X155233333Y-78084714D01*
X155200000Y-77999000D01*
X155133333Y-77956142D01*
X155033333Y-77956142D01*
X154966666Y-77999000D01*
X154933333Y-78041857D01*
X155833333Y-78513285D02*
X155766666Y-78556142D01*
X155633333Y-78556142D01*
X155566666Y-78513285D01*
X155533333Y-78427571D01*
X155533333Y-78084714D01*
X155566666Y-77999000D01*
X155633333Y-77956142D01*
X155766666Y-77956142D01*
X155833333Y-77999000D01*
X155866666Y-78084714D01*
X155866666Y-78170428D01*
X155533333Y-78256142D01*
X156166666Y-78556142D02*
X156166666Y-77956142D01*
X156166666Y-78127571D02*
X156200000Y-78041857D01*
X156233333Y-77999000D01*
X156300000Y-77956142D01*
X156366666Y-77956142D01*
X157066666Y-77956142D02*
X157233333Y-78556142D01*
X157400000Y-77956142D01*
X157766666Y-78556142D02*
X157700000Y-78513285D01*
X157666666Y-78470428D01*
X157633333Y-78384714D01*
X157633333Y-78127571D01*
X157666666Y-78041857D01*
X157700000Y-77999000D01*
X157766666Y-77956142D01*
X157866666Y-77956142D01*
X157933333Y-77999000D01*
X157966666Y-78041857D01*
X158000000Y-78127571D01*
X158000000Y-78384714D01*
X157966666Y-78470428D01*
X157933333Y-78513285D01*
X157866666Y-78556142D01*
X157766666Y-78556142D01*
X158400000Y-78556142D02*
X158333333Y-78513285D01*
X158300000Y-78427571D01*
X158300000Y-77656142D01*
X158566666Y-77956142D02*
X158833333Y-77956142D01*
X158666666Y-77656142D02*
X158666666Y-78427571D01*
X158700000Y-78513285D01*
X158766666Y-78556142D01*
X158833333Y-78556142D01*
X159366666Y-78556142D02*
X159366666Y-78084714D01*
X159333333Y-77999000D01*
X159266666Y-77956142D01*
X159133333Y-77956142D01*
X159066666Y-77999000D01*
X159366666Y-78513285D02*
X159300000Y-78556142D01*
X159133333Y-78556142D01*
X159066666Y-78513285D01*
X159033333Y-78427571D01*
X159033333Y-78341857D01*
X159066666Y-78256142D01*
X159133333Y-78213285D01*
X159300000Y-78213285D01*
X159366666Y-78170428D01*
X160000000Y-77956142D02*
X160000000Y-78684714D01*
X159966666Y-78770428D01*
X159933333Y-78813285D01*
X159866666Y-78856142D01*
X159766666Y-78856142D01*
X159700000Y-78813285D01*
X160000000Y-78513285D02*
X159933333Y-78556142D01*
X159800000Y-78556142D01*
X159733333Y-78513285D01*
X159700000Y-78470428D01*
X159666666Y-78384714D01*
X159666666Y-78127571D01*
X159700000Y-78041857D01*
X159733333Y-77999000D01*
X159800000Y-77956142D01*
X159933333Y-77956142D01*
X160000000Y-77999000D01*
X160600000Y-78513285D02*
X160533333Y-78556142D01*
X160400000Y-78556142D01*
X160333333Y-78513285D01*
X160300000Y-78427571D01*
X160300000Y-78084714D01*
X160333333Y-77999000D01*
X160400000Y-77956142D01*
X160533333Y-77956142D01*
X160600000Y-77999000D01*
X160633333Y-78084714D01*
X160633333Y-78170428D01*
X160300000Y-78256142D01*
X161766666Y-77956142D02*
X161766666Y-78556142D01*
X161466666Y-77956142D02*
X161466666Y-78427571D01*
X161500000Y-78513285D01*
X161566666Y-78556142D01*
X161666666Y-78556142D01*
X161733333Y-78513285D01*
X161766666Y-78470428D01*
X162100000Y-77956142D02*
X162100000Y-78856142D01*
X162100000Y-77999000D02*
X162166666Y-77956142D01*
X162300000Y-77956142D01*
X162366666Y-77999000D01*
X162400000Y-78041857D01*
X162433333Y-78127571D01*
X162433333Y-78384714D01*
X162400000Y-78470428D01*
X162366666Y-78513285D01*
X162300000Y-78556142D01*
X162166666Y-78556142D01*
X162100000Y-78513285D01*
X163166666Y-77956142D02*
X163433333Y-77956142D01*
X163266666Y-77656142D02*
X163266666Y-78427571D01*
X163300000Y-78513285D01*
X163366666Y-78556142D01*
X163433333Y-78556142D01*
X163766666Y-78556142D02*
X163700000Y-78513285D01*
X163666666Y-78470428D01*
X163633333Y-78384714D01*
X163633333Y-78127571D01*
X163666666Y-78041857D01*
X163700000Y-77999000D01*
X163766666Y-77956142D01*
X163866666Y-77956142D01*
X163933333Y-77999000D01*
X163966666Y-78041857D01*
X164000000Y-78127571D01*
X164000000Y-78384714D01*
X163966666Y-78470428D01*
X163933333Y-78513285D01*
X163866666Y-78556142D01*
X163766666Y-78556142D01*
X165200000Y-78556142D02*
X164800000Y-78556142D01*
X165000000Y-78556142D02*
X165000000Y-77656142D01*
X164933333Y-77784714D01*
X164866666Y-77870428D01*
X164800000Y-77913285D01*
X165466666Y-77741857D02*
X165500000Y-77699000D01*
X165566666Y-77656142D01*
X165733333Y-77656142D01*
X165800000Y-77699000D01*
X165833333Y-77741857D01*
X165866666Y-77827571D01*
X165866666Y-77913285D01*
X165833333Y-78041857D01*
X165433333Y-78556142D01*
X165866666Y-78556142D01*
X166066666Y-77656142D02*
X166300000Y-78556142D01*
X166533333Y-77656142D01*
X167300000Y-78556142D02*
X167300000Y-77956142D01*
X167300000Y-78041857D02*
X167333333Y-77999000D01*
X167400000Y-77956142D01*
X167500000Y-77956142D01*
X167566666Y-77999000D01*
X167600000Y-78084714D01*
X167600000Y-78556142D01*
X167600000Y-78084714D02*
X167633333Y-77999000D01*
X167700000Y-77956142D01*
X167800000Y-77956142D01*
X167866666Y-77999000D01*
X167900000Y-78084714D01*
X167900000Y-78556142D01*
X168533333Y-78556142D02*
X168533333Y-78084714D01*
X168500000Y-77999000D01*
X168433333Y-77956142D01*
X168300000Y-77956142D01*
X168233333Y-77999000D01*
X168533333Y-78513285D02*
X168466666Y-78556142D01*
X168300000Y-78556142D01*
X168233333Y-78513285D01*
X168200000Y-78427571D01*
X168200000Y-78341857D01*
X168233333Y-78256142D01*
X168300000Y-78213285D01*
X168466666Y-78213285D01*
X168533333Y-78170428D01*
X168800000Y-77956142D02*
X168966666Y-78556142D01*
X169133333Y-77956142D02*
X168966666Y-78556142D01*
X168900000Y-78770428D01*
X168866666Y-78813285D01*
X168800000Y-78856142D01*
X169866666Y-77956142D02*
X170000000Y-78556142D01*
X170133333Y-78127571D01*
X170266666Y-78556142D01*
X170400000Y-77956142D01*
X170766666Y-78556142D02*
X170700000Y-78513285D01*
X170666666Y-78470428D01*
X170633333Y-78384714D01*
X170633333Y-78127571D01*
X170666666Y-78041857D01*
X170700000Y-77999000D01*
X170766666Y-77956142D01*
X170866666Y-77956142D01*
X170933333Y-77999000D01*
X170966666Y-78041857D01*
X171000000Y-78127571D01*
X171000000Y-78384714D01*
X170966666Y-78470428D01*
X170933333Y-78513285D01*
X170866666Y-78556142D01*
X170766666Y-78556142D01*
X171300000Y-78556142D02*
X171300000Y-77956142D01*
X171300000Y-78127571D02*
X171333333Y-78041857D01*
X171366666Y-77999000D01*
X171433333Y-77956142D01*
X171500000Y-77956142D01*
X171733333Y-78556142D02*
X171733333Y-77656142D01*
X171800000Y-78213285D02*
X172000000Y-78556142D01*
X172000000Y-77956142D02*
X171733333Y-78299000D01*
X154683333Y-80005142D02*
X154683333Y-79105142D01*
X154683333Y-79448000D02*
X154750000Y-79405142D01*
X154883333Y-79405142D01*
X154950000Y-79448000D01*
X154983333Y-79490857D01*
X155016666Y-79576571D01*
X155016666Y-79833714D01*
X154983333Y-79919428D01*
X154950000Y-79962285D01*
X154883333Y-80005142D01*
X154750000Y-80005142D01*
X154683333Y-79962285D01*
X155616666Y-79405142D02*
X155616666Y-80005142D01*
X155316666Y-79405142D02*
X155316666Y-79876571D01*
X155350000Y-79962285D01*
X155416666Y-80005142D01*
X155516666Y-80005142D01*
X155583333Y-79962285D01*
X155616666Y-79919428D01*
X155850000Y-79405142D02*
X156116666Y-79405142D01*
X155950000Y-79105142D02*
X155950000Y-79876571D01*
X155983333Y-79962285D01*
X156050000Y-80005142D01*
X156116666Y-80005142D01*
X156816666Y-79405142D02*
X156950000Y-80005142D01*
X157083333Y-79576571D01*
X157216666Y-80005142D01*
X157350000Y-79405142D01*
X157616666Y-80005142D02*
X157616666Y-79405142D01*
X157616666Y-79105142D02*
X157583333Y-79148000D01*
X157616666Y-79190857D01*
X157650000Y-79148000D01*
X157616666Y-79105142D01*
X157616666Y-79190857D01*
X158050000Y-80005142D02*
X157983333Y-79962285D01*
X157950000Y-79876571D01*
X157950000Y-79105142D01*
X158416666Y-80005142D02*
X158350000Y-79962285D01*
X158316666Y-79876571D01*
X158316666Y-79105142D01*
X159216666Y-80005142D02*
X159216666Y-79105142D01*
X159516666Y-80005142D02*
X159516666Y-79533714D01*
X159483333Y-79448000D01*
X159416666Y-79405142D01*
X159316666Y-79405142D01*
X159250000Y-79448000D01*
X159216666Y-79490857D01*
X160116666Y-79962285D02*
X160050000Y-80005142D01*
X159916666Y-80005142D01*
X159850000Y-79962285D01*
X159816666Y-79876571D01*
X159816666Y-79533714D01*
X159850000Y-79448000D01*
X159916666Y-79405142D01*
X160050000Y-79405142D01*
X160116666Y-79448000D01*
X160150000Y-79533714D01*
X160150000Y-79619428D01*
X159816666Y-79705142D01*
X160750000Y-80005142D02*
X160750000Y-79533714D01*
X160716666Y-79448000D01*
X160650000Y-79405142D01*
X160516666Y-79405142D01*
X160450000Y-79448000D01*
X160750000Y-79962285D02*
X160683333Y-80005142D01*
X160516666Y-80005142D01*
X160450000Y-79962285D01*
X160416666Y-79876571D01*
X160416666Y-79790857D01*
X160450000Y-79705142D01*
X160516666Y-79662285D01*
X160683333Y-79662285D01*
X160750000Y-79619428D01*
X160983333Y-79405142D02*
X161250000Y-79405142D01*
X161083333Y-79105142D02*
X161083333Y-79876571D01*
X161116666Y-79962285D01*
X161183333Y-80005142D01*
X161250000Y-80005142D01*
X162350000Y-80005142D02*
X162016666Y-80005142D01*
X162016666Y-79105142D01*
X162583333Y-80005142D02*
X162583333Y-79105142D01*
X162750000Y-79105142D01*
X162850000Y-79148000D01*
X162916666Y-79233714D01*
X162950000Y-79319428D01*
X162983333Y-79490857D01*
X162983333Y-79619428D01*
X162950000Y-79790857D01*
X162916666Y-79876571D01*
X162850000Y-79962285D01*
X162750000Y-80005142D01*
X162583333Y-80005142D01*
X163416666Y-79105142D02*
X163550000Y-79105142D01*
X163616666Y-79148000D01*
X163683333Y-79233714D01*
X163716666Y-79405142D01*
X163716666Y-79705142D01*
X163683333Y-79876571D01*
X163616666Y-79962285D01*
X163550000Y-80005142D01*
X163416666Y-80005142D01*
X163350000Y-79962285D01*
X163283333Y-79876571D01*
X163250000Y-79705142D01*
X163250000Y-79405142D01*
X163283333Y-79233714D01*
X163350000Y-79148000D01*
X163416666Y-79105142D01*
X164516666Y-79962285D02*
X164583333Y-80005142D01*
X164716666Y-80005142D01*
X164783333Y-79962285D01*
X164816666Y-79876571D01*
X164816666Y-79833714D01*
X164783333Y-79748000D01*
X164716666Y-79705142D01*
X164616666Y-79705142D01*
X164550000Y-79662285D01*
X164516666Y-79576571D01*
X164516666Y-79533714D01*
X164550000Y-79448000D01*
X164616666Y-79405142D01*
X164716666Y-79405142D01*
X164783333Y-79448000D01*
X165116666Y-80005142D02*
X165116666Y-79405142D01*
X165116666Y-79105142D02*
X165083333Y-79148000D01*
X165116666Y-79190857D01*
X165150000Y-79148000D01*
X165116666Y-79105142D01*
X165116666Y-79190857D01*
X165750000Y-79405142D02*
X165750000Y-80133714D01*
X165716666Y-80219428D01*
X165683333Y-80262285D01*
X165616666Y-80305142D01*
X165516666Y-80305142D01*
X165450000Y-80262285D01*
X165750000Y-79962285D02*
X165683333Y-80005142D01*
X165550000Y-80005142D01*
X165483333Y-79962285D01*
X165450000Y-79919428D01*
X165416666Y-79833714D01*
X165416666Y-79576571D01*
X165450000Y-79490857D01*
X165483333Y-79448000D01*
X165550000Y-79405142D01*
X165683333Y-79405142D01*
X165750000Y-79448000D01*
X166083333Y-79405142D02*
X166083333Y-80005142D01*
X166083333Y-79490857D02*
X166116666Y-79448000D01*
X166183333Y-79405142D01*
X166283333Y-79405142D01*
X166350000Y-79448000D01*
X166383333Y-79533714D01*
X166383333Y-80005142D01*
X166716666Y-80005142D02*
X166716666Y-79405142D01*
X166716666Y-79105142D02*
X166683333Y-79148000D01*
X166716666Y-79190857D01*
X166750000Y-79148000D01*
X166716666Y-79105142D01*
X166716666Y-79190857D01*
X166950000Y-79405142D02*
X167216666Y-79405142D01*
X167050000Y-80005142D02*
X167050000Y-79233714D01*
X167083333Y-79148000D01*
X167150000Y-79105142D01*
X167216666Y-79105142D01*
X167450000Y-80005142D02*
X167450000Y-79405142D01*
X167450000Y-79105142D02*
X167416666Y-79148000D01*
X167450000Y-79190857D01*
X167483333Y-79148000D01*
X167450000Y-79105142D01*
X167450000Y-79190857D01*
X168083333Y-79962285D02*
X168016666Y-80005142D01*
X167883333Y-80005142D01*
X167816666Y-79962285D01*
X167783333Y-79919428D01*
X167750000Y-79833714D01*
X167750000Y-79576571D01*
X167783333Y-79490857D01*
X167816666Y-79448000D01*
X167883333Y-79405142D01*
X168016666Y-79405142D01*
X168083333Y-79448000D01*
X168683333Y-80005142D02*
X168683333Y-79533714D01*
X168650000Y-79448000D01*
X168583333Y-79405142D01*
X168450000Y-79405142D01*
X168383333Y-79448000D01*
X168683333Y-79962285D02*
X168616666Y-80005142D01*
X168450000Y-80005142D01*
X168383333Y-79962285D01*
X168350000Y-79876571D01*
X168350000Y-79790857D01*
X168383333Y-79705142D01*
X168450000Y-79662285D01*
X168616666Y-79662285D01*
X168683333Y-79619428D01*
X169016666Y-79405142D02*
X169016666Y-80005142D01*
X169016666Y-79490857D02*
X169050000Y-79448000D01*
X169116666Y-79405142D01*
X169216666Y-79405142D01*
X169283333Y-79448000D01*
X169316666Y-79533714D01*
X169316666Y-80005142D01*
X169550000Y-79405142D02*
X169816666Y-79405142D01*
X169650000Y-79105142D02*
X169650000Y-79876571D01*
X169683333Y-79962285D01*
X169750000Y-80005142D01*
X169816666Y-80005142D01*
X170150000Y-80005142D02*
X170083333Y-79962285D01*
X170050000Y-79876571D01*
X170050000Y-79105142D01*
X170350000Y-79405142D02*
X170516666Y-80005142D01*
X170683333Y-79405142D02*
X170516666Y-80005142D01*
X170450000Y-80219428D01*
X170416666Y-80262285D01*
X170350000Y-80305142D01*
X120083333Y-48507142D02*
X120216666Y-48507142D01*
X120283333Y-48550000D01*
X120350000Y-48635714D01*
X120383333Y-48807142D01*
X120383333Y-49107142D01*
X120350000Y-49278571D01*
X120283333Y-49364285D01*
X120216666Y-49407142D01*
X120083333Y-49407142D01*
X120016666Y-49364285D01*
X119950000Y-49278571D01*
X119916666Y-49107142D01*
X119916666Y-48807142D01*
X119950000Y-48635714D01*
X120016666Y-48550000D01*
X120083333Y-48507142D01*
X120916666Y-48935714D02*
X120683333Y-48935714D01*
X120683333Y-49407142D02*
X120683333Y-48507142D01*
X121016666Y-48507142D01*
X121516666Y-48935714D02*
X121283333Y-48935714D01*
X121283333Y-49407142D02*
X121283333Y-48507142D01*
X121616666Y-48507142D01*
X119525000Y-63461904D02*
X119758333Y-64261904D01*
X119991666Y-63461904D01*
X120458333Y-63842857D02*
X120558333Y-63880952D01*
X120591666Y-63919047D01*
X120625000Y-63995238D01*
X120625000Y-64109523D01*
X120591666Y-64185714D01*
X120558333Y-64223809D01*
X120491666Y-64261904D01*
X120225000Y-64261904D01*
X120225000Y-63461904D01*
X120458333Y-63461904D01*
X120525000Y-63500000D01*
X120558333Y-63538095D01*
X120591666Y-63614285D01*
X120591666Y-63690476D01*
X120558333Y-63766666D01*
X120525000Y-63804761D01*
X120458333Y-63842857D01*
X120225000Y-63842857D01*
X120891666Y-64033333D02*
X121225000Y-64033333D01*
X120825000Y-64261904D02*
X121058333Y-63461904D01*
X121291666Y-64261904D01*
X121425000Y-63461904D02*
X121825000Y-63461904D01*
X121625000Y-64261904D02*
X121625000Y-63461904D01*
X131016666Y-48507142D02*
X131150000Y-48507142D01*
X131216666Y-48550000D01*
X131283333Y-48635714D01*
X131316666Y-48807142D01*
X131316666Y-49107142D01*
X131283333Y-49278571D01*
X131216666Y-49364285D01*
X131150000Y-49407142D01*
X131016666Y-49407142D01*
X130950000Y-49364285D01*
X130883333Y-49278571D01*
X130850000Y-49107142D01*
X130850000Y-48807142D01*
X130883333Y-48635714D01*
X130950000Y-48550000D01*
X131016666Y-48507142D01*
X131616666Y-49407142D02*
X131616666Y-48507142D01*
X132016666Y-49407142D01*
X132016666Y-48507142D01*
X127352380Y-85135714D02*
X127352380Y-85564285D01*
X126352380Y-85564285D01*
X127352380Y-84835714D02*
X126352380Y-84835714D01*
X127352380Y-83892857D02*
X126876190Y-84192857D01*
X127352380Y-84407142D02*
X126352380Y-84407142D01*
X126352380Y-84064285D01*
X126400000Y-83978571D01*
X126447619Y-83935714D01*
X126542857Y-83892857D01*
X126685714Y-83892857D01*
X126780952Y-83935714D01*
X126828571Y-83978571D01*
X126876190Y-84064285D01*
X126876190Y-84407142D01*
X126447619Y-83550000D02*
X126400000Y-83507142D01*
X126352380Y-83421428D01*
X126352380Y-83207142D01*
X126400000Y-83121428D01*
X126447619Y-83078571D01*
X126542857Y-83035714D01*
X126638095Y-83035714D01*
X126780952Y-83078571D01*
X127352380Y-83592857D01*
X127352380Y-83035714D01*
X126685714Y-82264285D02*
X127352380Y-82264285D01*
X126304761Y-82478571D02*
X127019047Y-82692857D01*
X127019047Y-82135714D01*
X126352380Y-81364285D02*
X126352380Y-81792857D01*
X126828571Y-81835714D01*
X126780952Y-81792857D01*
X126733333Y-81707142D01*
X126733333Y-81492857D01*
X126780952Y-81407142D01*
X126828571Y-81364285D01*
X126923809Y-81321428D01*
X127161904Y-81321428D01*
X127257142Y-81364285D01*
X127304761Y-81407142D01*
X127352380Y-81492857D01*
X127352380Y-81707142D01*
X127304761Y-81792857D01*
X127257142Y-81835714D01*
X126352380Y-80764285D02*
X126352380Y-80678571D01*
X126400000Y-80592857D01*
X126447619Y-80550000D01*
X126542857Y-80507142D01*
X126733333Y-80464285D01*
X126971428Y-80464285D01*
X127161904Y-80507142D01*
X127257142Y-80550000D01*
X127304761Y-80592857D01*
X127352380Y-80678571D01*
X127352380Y-80764285D01*
X127304761Y-80850000D01*
X127257142Y-80892857D01*
X127161904Y-80935714D01*
X126971428Y-80978571D01*
X126733333Y-80978571D01*
X126542857Y-80935714D01*
X126447619Y-80892857D01*
X126400000Y-80850000D01*
X126352380Y-80764285D01*
X126352380Y-79221428D02*
X126352380Y-79050000D01*
X126400000Y-78964285D01*
X126495238Y-78878571D01*
X126685714Y-78835714D01*
X127019047Y-78835714D01*
X127209523Y-78878571D01*
X127304761Y-78964285D01*
X127352380Y-79050000D01*
X127352380Y-79221428D01*
X127304761Y-79307142D01*
X127209523Y-79392857D01*
X127019047Y-79435714D01*
X126685714Y-79435714D01*
X126495238Y-79392857D01*
X126400000Y-79307142D01*
X126352380Y-79221428D01*
X127352380Y-78450000D02*
X126352380Y-78450000D01*
X127352380Y-77935714D01*
X126352380Y-77935714D01*
X127352380Y-77078571D02*
X127352380Y-77507142D01*
X126352380Y-77507142D01*
X126876190Y-76607142D02*
X127352380Y-76607142D01*
X126352380Y-76907142D02*
X126876190Y-76607142D01*
X126352380Y-76307142D01*
D11*
X109642857Y-51178571D02*
X109642857Y-49678571D01*
X109880952Y-49678571D01*
X110023809Y-49750000D01*
X110119047Y-49892857D01*
X110166666Y-50035714D01*
X110214285Y-50321428D01*
X110214285Y-50535714D01*
X110166666Y-50821428D01*
X110119047Y-50964285D01*
X110023809Y-51107142D01*
X109880952Y-51178571D01*
X109642857Y-51178571D01*
X110642857Y-50607142D02*
X111404761Y-50607142D01*
X111833333Y-49821428D02*
X111880952Y-49750000D01*
X111976190Y-49678571D01*
X112214285Y-49678571D01*
X112309523Y-49750000D01*
X112357142Y-49821428D01*
X112404761Y-49964285D01*
X112404761Y-50107142D01*
X112357142Y-50321428D01*
X111785714Y-51178571D01*
X112404761Y-51178571D01*
X116642857Y-51178571D02*
X116642857Y-49678571D01*
X116880952Y-49678571D01*
X117023809Y-49750000D01*
X117119047Y-49892857D01*
X117166666Y-50035714D01*
X117214285Y-50321428D01*
X117214285Y-50535714D01*
X117166666Y-50821428D01*
X117119047Y-50964285D01*
X117023809Y-51107142D01*
X116880952Y-51178571D01*
X116642857Y-51178571D01*
X117642857Y-50607142D02*
X118404761Y-50607142D01*
X119404761Y-51178571D02*
X118833333Y-51178571D01*
X119119047Y-51178571D02*
X119119047Y-49678571D01*
X119023809Y-49892857D01*
X118928571Y-50035714D01*
X118833333Y-50107142D01*
D10*
%TO.C,C2*%
X134483333Y-64971428D02*
X134450000Y-65014285D01*
X134350000Y-65057142D01*
X134283333Y-65057142D01*
X134183333Y-65014285D01*
X134116666Y-64928571D01*
X134083333Y-64842857D01*
X134050000Y-64671428D01*
X134050000Y-64542857D01*
X134083333Y-64371428D01*
X134116666Y-64285714D01*
X134183333Y-64200000D01*
X134283333Y-64157142D01*
X134350000Y-64157142D01*
X134450000Y-64200000D01*
X134483333Y-64242857D01*
X134750000Y-64242857D02*
X134783333Y-64200000D01*
X134850000Y-64157142D01*
X135016666Y-64157142D01*
X135083333Y-64200000D01*
X135116666Y-64242857D01*
X135150000Y-64328571D01*
X135150000Y-64414285D01*
X135116666Y-64542857D01*
X134716666Y-65057142D01*
X135150000Y-65057142D01*
%TO.C,D4*%
X133507142Y-53416666D02*
X132607142Y-53416666D01*
X132607142Y-53250000D01*
X132650000Y-53150000D01*
X132735714Y-53083333D01*
X132821428Y-53050000D01*
X132992857Y-53016666D01*
X133121428Y-53016666D01*
X133292857Y-53050000D01*
X133378571Y-53083333D01*
X133464285Y-53150000D01*
X133507142Y-53250000D01*
X133507142Y-53416666D01*
X132907142Y-52416666D02*
X133507142Y-52416666D01*
X132564285Y-52583333D02*
X133207142Y-52750000D01*
X133207142Y-52316666D01*
%TO.C,R5*%
X103083333Y-60407142D02*
X102850000Y-59978571D01*
X102683333Y-60407142D02*
X102683333Y-59507142D01*
X102950000Y-59507142D01*
X103016666Y-59550000D01*
X103050000Y-59592857D01*
X103083333Y-59678571D01*
X103083333Y-59807142D01*
X103050000Y-59892857D01*
X103016666Y-59935714D01*
X102950000Y-59978571D01*
X102683333Y-59978571D01*
X103716666Y-59507142D02*
X103383333Y-59507142D01*
X103350000Y-59935714D01*
X103383333Y-59892857D01*
X103450000Y-59850000D01*
X103616666Y-59850000D01*
X103683333Y-59892857D01*
X103716666Y-59935714D01*
X103750000Y-60021428D01*
X103750000Y-60235714D01*
X103716666Y-60321428D01*
X103683333Y-60364285D01*
X103616666Y-60407142D01*
X103450000Y-60407142D01*
X103383333Y-60364285D01*
X103350000Y-60321428D01*
%TO.C,R3*%
X108483333Y-60407142D02*
X108250000Y-59978571D01*
X108083333Y-60407142D02*
X108083333Y-59507142D01*
X108350000Y-59507142D01*
X108416666Y-59550000D01*
X108450000Y-59592857D01*
X108483333Y-59678571D01*
X108483333Y-59807142D01*
X108450000Y-59892857D01*
X108416666Y-59935714D01*
X108350000Y-59978571D01*
X108083333Y-59978571D01*
X108716666Y-59507142D02*
X109150000Y-59507142D01*
X108916666Y-59850000D01*
X109016666Y-59850000D01*
X109083333Y-59892857D01*
X109116666Y-59935714D01*
X109150000Y-60021428D01*
X109150000Y-60235714D01*
X109116666Y-60321428D01*
X109083333Y-60364285D01*
X109016666Y-60407142D01*
X108816666Y-60407142D01*
X108750000Y-60364285D01*
X108716666Y-60321428D01*
%TO.C,R1*%
X118683333Y-60307142D02*
X118450000Y-59878571D01*
X118283333Y-60307142D02*
X118283333Y-59407142D01*
X118550000Y-59407142D01*
X118616666Y-59450000D01*
X118650000Y-59492857D01*
X118683333Y-59578571D01*
X118683333Y-59707142D01*
X118650000Y-59792857D01*
X118616666Y-59835714D01*
X118550000Y-59878571D01*
X118283333Y-59878571D01*
X119350000Y-60307142D02*
X118950000Y-60307142D01*
X119150000Y-60307142D02*
X119150000Y-59407142D01*
X119083333Y-59535714D01*
X119016666Y-59621428D01*
X118950000Y-59664285D01*
%TO.C,TH1*%
X126652380Y-69185714D02*
X126652380Y-68614285D01*
X127652380Y-68900000D02*
X126652380Y-68900000D01*
X127652380Y-68280952D02*
X126652380Y-68280952D01*
X127128571Y-68280952D02*
X127128571Y-67709523D01*
X127652380Y-67709523D02*
X126652380Y-67709523D01*
X127652380Y-66709523D02*
X127652380Y-67280952D01*
X127652380Y-66995238D02*
X126652380Y-66995238D01*
X126795238Y-67090476D01*
X126890476Y-67185714D01*
X126938095Y-67280952D01*
%TO.C,SC1*%
X161388095Y-65904761D02*
X161530952Y-65952380D01*
X161769047Y-65952380D01*
X161864285Y-65904761D01*
X161911904Y-65857142D01*
X161959523Y-65761904D01*
X161959523Y-65666666D01*
X161911904Y-65571428D01*
X161864285Y-65523809D01*
X161769047Y-65476190D01*
X161578571Y-65428571D01*
X161483333Y-65380952D01*
X161435714Y-65333333D01*
X161388095Y-65238095D01*
X161388095Y-65142857D01*
X161435714Y-65047619D01*
X161483333Y-65000000D01*
X161578571Y-64952380D01*
X161816666Y-64952380D01*
X161959523Y-65000000D01*
X162959523Y-65857142D02*
X162911904Y-65904761D01*
X162769047Y-65952380D01*
X162673809Y-65952380D01*
X162530952Y-65904761D01*
X162435714Y-65809523D01*
X162388095Y-65714285D01*
X162340476Y-65523809D01*
X162340476Y-65380952D01*
X162388095Y-65190476D01*
X162435714Y-65095238D01*
X162530952Y-65000000D01*
X162673809Y-64952380D01*
X162769047Y-64952380D01*
X162911904Y-65000000D01*
X162959523Y-65047619D01*
X163911904Y-65952380D02*
X163340476Y-65952380D01*
X163626190Y-65952380D02*
X163626190Y-64952380D01*
X163530952Y-65095238D01*
X163435714Y-65190476D01*
X163340476Y-65238095D01*
%TO.C,C3*%
X132021428Y-58416666D02*
X132064285Y-58450000D01*
X132107142Y-58550000D01*
X132107142Y-58616666D01*
X132064285Y-58716666D01*
X131978571Y-58783333D01*
X131892857Y-58816666D01*
X131721428Y-58850000D01*
X131592857Y-58850000D01*
X131421428Y-58816666D01*
X131335714Y-58783333D01*
X131250000Y-58716666D01*
X131207142Y-58616666D01*
X131207142Y-58550000D01*
X131250000Y-58450000D01*
X131292857Y-58416666D01*
X131207142Y-58183333D02*
X131207142Y-57750000D01*
X131550000Y-57983333D01*
X131550000Y-57883333D01*
X131592857Y-57816666D01*
X131635714Y-57783333D01*
X131721428Y-57750000D01*
X131935714Y-57750000D01*
X132021428Y-57783333D01*
X132064285Y-57816666D01*
X132107142Y-57883333D01*
X132107142Y-58083333D01*
X132064285Y-58150000D01*
X132021428Y-58183333D01*
%TO.C,SW1*%
X125316666Y-49889285D02*
X125416666Y-49932142D01*
X125583333Y-49932142D01*
X125650000Y-49889285D01*
X125683333Y-49846428D01*
X125716666Y-49760714D01*
X125716666Y-49675000D01*
X125683333Y-49589285D01*
X125650000Y-49546428D01*
X125583333Y-49503571D01*
X125450000Y-49460714D01*
X125383333Y-49417857D01*
X125350000Y-49375000D01*
X125316666Y-49289285D01*
X125316666Y-49203571D01*
X125350000Y-49117857D01*
X125383333Y-49075000D01*
X125450000Y-49032142D01*
X125616666Y-49032142D01*
X125716666Y-49075000D01*
X125950000Y-49032142D02*
X126116666Y-49932142D01*
X126250000Y-49289285D01*
X126383333Y-49932142D01*
X126550000Y-49032142D01*
X127183333Y-49932142D02*
X126783333Y-49932142D01*
X126983333Y-49932142D02*
X126983333Y-49032142D01*
X126916666Y-49160714D01*
X126850000Y-49246428D01*
X126783333Y-49289285D01*
%TO.C,R6*%
X103083333Y-62907142D02*
X102850000Y-62478571D01*
X102683333Y-62907142D02*
X102683333Y-62007142D01*
X102950000Y-62007142D01*
X103016666Y-62050000D01*
X103050000Y-62092857D01*
X103083333Y-62178571D01*
X103083333Y-62307142D01*
X103050000Y-62392857D01*
X103016666Y-62435714D01*
X102950000Y-62478571D01*
X102683333Y-62478571D01*
X103683333Y-62007142D02*
X103550000Y-62007142D01*
X103483333Y-62050000D01*
X103450000Y-62092857D01*
X103383333Y-62221428D01*
X103350000Y-62392857D01*
X103350000Y-62735714D01*
X103383333Y-62821428D01*
X103416666Y-62864285D01*
X103483333Y-62907142D01*
X103616666Y-62907142D01*
X103683333Y-62864285D01*
X103716666Y-62821428D01*
X103750000Y-62735714D01*
X103750000Y-62521428D01*
X103716666Y-62435714D01*
X103683333Y-62392857D01*
X103616666Y-62350000D01*
X103483333Y-62350000D01*
X103416666Y-62392857D01*
X103383333Y-62435714D01*
X103350000Y-62521428D01*
%TO.C,C1*%
X123133333Y-53921428D02*
X123100000Y-53964285D01*
X123000000Y-54007142D01*
X122933333Y-54007142D01*
X122833333Y-53964285D01*
X122766666Y-53878571D01*
X122733333Y-53792857D01*
X122700000Y-53621428D01*
X122700000Y-53492857D01*
X122733333Y-53321428D01*
X122766666Y-53235714D01*
X122833333Y-53150000D01*
X122933333Y-53107142D01*
X123000000Y-53107142D01*
X123100000Y-53150000D01*
X123133333Y-53192857D01*
X123800000Y-54007142D02*
X123400000Y-54007142D01*
X123600000Y-54007142D02*
X123600000Y-53107142D01*
X123533333Y-53235714D01*
X123466666Y-53321428D01*
X123400000Y-53364285D01*
%TO.C,R7*%
X131183333Y-60007142D02*
X130950000Y-59578571D01*
X130783333Y-60007142D02*
X130783333Y-59107142D01*
X131050000Y-59107142D01*
X131116666Y-59150000D01*
X131150000Y-59192857D01*
X131183333Y-59278571D01*
X131183333Y-59407142D01*
X131150000Y-59492857D01*
X131116666Y-59535714D01*
X131050000Y-59578571D01*
X130783333Y-59578571D01*
X131416666Y-59107142D02*
X131883333Y-59107142D01*
X131583333Y-60007142D01*
%TO.C,R8*%
X130483333Y-65007142D02*
X130250000Y-64578571D01*
X130083333Y-65007142D02*
X130083333Y-64107142D01*
X130350000Y-64107142D01*
X130416666Y-64150000D01*
X130450000Y-64192857D01*
X130483333Y-64278571D01*
X130483333Y-64407142D01*
X130450000Y-64492857D01*
X130416666Y-64535714D01*
X130350000Y-64578571D01*
X130083333Y-64578571D01*
X130883333Y-64492857D02*
X130816666Y-64450000D01*
X130783333Y-64407142D01*
X130750000Y-64321428D01*
X130750000Y-64278571D01*
X130783333Y-64192857D01*
X130816666Y-64150000D01*
X130883333Y-64107142D01*
X131016666Y-64107142D01*
X131083333Y-64150000D01*
X131116666Y-64192857D01*
X131150000Y-64278571D01*
X131150000Y-64321428D01*
X131116666Y-64407142D01*
X131083333Y-64450000D01*
X131016666Y-64492857D01*
X130883333Y-64492857D01*
X130816666Y-64535714D01*
X130783333Y-64578571D01*
X130750000Y-64664285D01*
X130750000Y-64835714D01*
X130783333Y-64921428D01*
X130816666Y-64964285D01*
X130883333Y-65007142D01*
X131016666Y-65007142D01*
X131083333Y-64964285D01*
X131116666Y-64921428D01*
X131150000Y-64835714D01*
X131150000Y-64664285D01*
X131116666Y-64578571D01*
X131083333Y-64535714D01*
X131016666Y-64492857D01*
%TO.C,D5*%
X106383333Y-98207142D02*
X106383333Y-97307142D01*
X106550000Y-97307142D01*
X106650000Y-97350000D01*
X106716666Y-97435714D01*
X106750000Y-97521428D01*
X106783333Y-97692857D01*
X106783333Y-97821428D01*
X106750000Y-97992857D01*
X106716666Y-98078571D01*
X106650000Y-98164285D01*
X106550000Y-98207142D01*
X106383333Y-98207142D01*
X107416666Y-97307142D02*
X107083333Y-97307142D01*
X107050000Y-97735714D01*
X107083333Y-97692857D01*
X107150000Y-97650000D01*
X107316666Y-97650000D01*
X107383333Y-97692857D01*
X107416666Y-97735714D01*
X107450000Y-97821428D01*
X107450000Y-98035714D01*
X107416666Y-98121428D01*
X107383333Y-98164285D01*
X107316666Y-98207142D01*
X107150000Y-98207142D01*
X107083333Y-98164285D01*
X107050000Y-98121428D01*
%TO.C,U1*%
X133466666Y-61686904D02*
X133466666Y-62334523D01*
X133500000Y-62410714D01*
X133533333Y-62448809D01*
X133600000Y-62486904D01*
X133733333Y-62486904D01*
X133800000Y-62448809D01*
X133833333Y-62410714D01*
X133866666Y-62334523D01*
X133866666Y-61686904D01*
X134566666Y-62486904D02*
X134166666Y-62486904D01*
X134366666Y-62486904D02*
X134366666Y-61686904D01*
X134300000Y-61801190D01*
X134233333Y-61877380D01*
X134166666Y-61915476D01*
%TO.C,R4*%
X113483333Y-60407142D02*
X113250000Y-59978571D01*
X113083333Y-60407142D02*
X113083333Y-59507142D01*
X113350000Y-59507142D01*
X113416666Y-59550000D01*
X113450000Y-59592857D01*
X113483333Y-59678571D01*
X113483333Y-59807142D01*
X113450000Y-59892857D01*
X113416666Y-59935714D01*
X113350000Y-59978571D01*
X113083333Y-59978571D01*
X114083333Y-59807142D02*
X114083333Y-60407142D01*
X113916666Y-59464285D02*
X113750000Y-60107142D01*
X114183333Y-60107142D01*
%TO.C,R2*%
X118683333Y-62707142D02*
X118450000Y-62278571D01*
X118283333Y-62707142D02*
X118283333Y-61807142D01*
X118550000Y-61807142D01*
X118616666Y-61850000D01*
X118650000Y-61892857D01*
X118683333Y-61978571D01*
X118683333Y-62107142D01*
X118650000Y-62192857D01*
X118616666Y-62235714D01*
X118550000Y-62278571D01*
X118283333Y-62278571D01*
X118950000Y-61892857D02*
X118983333Y-61850000D01*
X119050000Y-61807142D01*
X119216666Y-61807142D01*
X119283333Y-61850000D01*
X119316666Y-61892857D01*
X119350000Y-61978571D01*
X119350000Y-62064285D01*
X119316666Y-62192857D01*
X118916666Y-62707142D01*
X119350000Y-62707142D01*
D12*
%TO.C,C2*%
X134861252Y-66735000D02*
X134338748Y-66735000D01*
X134861252Y-65265000D02*
X134338748Y-65265000D01*
%TO.C,D4*%
X132350000Y-48500000D02*
X132350000Y-55400000D01*
X135650000Y-48500000D02*
X135650000Y-55400000D01*
X135650000Y-48500000D02*
X132350000Y-48500000D01*
%TO.C,TP2*%
X137250000Y-84200000D02*
X137250000Y-79800000D01*
X139800000Y-79800000D02*
X144200000Y-79800000D01*
X144200000Y-84200000D02*
X139800000Y-84200000D01*
X144200000Y-79800000D02*
X144200000Y-84200000D01*
%TO.C,R5*%
X103927064Y-59090000D02*
X102472936Y-59090000D01*
X103927064Y-60910000D02*
X102472936Y-60910000D01*
%TO.C,R3*%
X109327064Y-59090000D02*
X107872936Y-59090000D01*
X109327064Y-60910000D02*
X107872936Y-60910000D01*
%TO.C,TP3*%
X136300000Y-68000000D02*
X136300000Y-69400000D01*
X134900000Y-68000000D02*
X136300000Y-68000000D01*
X136300000Y-69400000D02*
X134900000Y-69400000D01*
X134900000Y-69400000D02*
X134900000Y-68000000D01*
%TO.C,R1*%
X118072936Y-60810000D02*
X119527064Y-60810000D01*
X118072936Y-58990000D02*
X119527064Y-58990000D01*
%TO.C,RV3*%
X106040000Y-52630000D02*
X106370000Y-52630000D01*
X105240000Y-57370000D02*
X106370000Y-57370000D01*
X103741000Y-52630000D02*
X104260000Y-52630000D01*
X106370000Y-52630000D02*
X106370000Y-57370000D01*
X101630000Y-52630000D02*
X101961000Y-52630000D01*
X101630000Y-57370000D02*
X102760000Y-57370000D01*
X101630000Y-52630000D02*
X101630000Y-57370000D01*
%TO.C,TP5*%
X179800000Y-84200000D02*
X179800000Y-79800000D01*
X187000000Y-79800000D02*
X187000000Y-84200000D01*
X179800000Y-79800000D02*
X184200000Y-79800000D01*
X184200000Y-84200000D02*
X179800000Y-84200000D01*
%TO.C,TH1*%
X126410000Y-66513748D02*
X126410000Y-69286252D01*
X122990000Y-66513748D02*
X122990000Y-69286252D01*
%TO.C,SC1*%
X158763748Y-62840000D02*
X166536252Y-62840000D01*
X158763748Y-68160000D02*
X166536252Y-68160000D01*
%TO.C,C3*%
X133738748Y-59235000D02*
X134261252Y-59235000D01*
X133738748Y-57765000D02*
X134261252Y-57765000D01*
%TO.C,SW1*%
X122800000Y-49805000D02*
X122800000Y-50595000D01*
X129100000Y-48795000D02*
X123400000Y-48795000D01*
X129700000Y-50595000D02*
X129700000Y-49805000D01*
X124850000Y-51645000D02*
X124650000Y-51645000D01*
X127850000Y-51645000D02*
X126150000Y-51645000D01*
%TO.C,TP1*%
X121800000Y-56550000D02*
X124200000Y-56550000D01*
X124200000Y-56550000D02*
X124200000Y-58950000D01*
X124200000Y-58950000D02*
X121800000Y-58950000D01*
X121800000Y-58950000D02*
X121800000Y-56550000D01*
%TO.C,R6*%
X103927064Y-63410000D02*
X102472936Y-63410000D01*
X103927064Y-61590000D02*
X102472936Y-61590000D01*
%TO.C,C1*%
X123511252Y-54265000D02*
X122988748Y-54265000D01*
X123511252Y-55735000D02*
X122988748Y-55735000D01*
%TO.C,R7*%
X130465000Y-61672936D02*
X130465000Y-62127064D01*
X131935000Y-61672936D02*
X131935000Y-62127064D01*
%TO.C,R8*%
X130372936Y-66735000D02*
X130827064Y-66735000D01*
X130372936Y-65265000D02*
X130827064Y-65265000D01*
%TO.C,D5*%
X109150000Y-96800000D02*
X105250000Y-96800000D01*
X109150000Y-98800000D02*
X105250000Y-98800000D01*
X109150000Y-98800000D02*
X109150000Y-96800000D01*
%TO.C,BT1*%
X125250000Y-84950000D02*
X119400000Y-93850000D01*
X119400000Y-93850000D02*
X116100000Y-93850000D01*
X126050000Y-84950000D02*
X125250000Y-84950000D01*
X126050000Y-77050000D02*
X126050000Y-84950000D01*
X125250000Y-77050000D02*
X119400000Y-68150000D01*
X109900000Y-93850000D02*
X105700000Y-93850000D01*
X119400000Y-68150000D02*
X116100000Y-68150000D01*
X109900000Y-68150000D02*
X105700000Y-68150000D01*
X126050000Y-77050000D02*
X125250000Y-77050000D01*
X103050000Y-91150000D02*
G75*
G03*
X105750000Y-93850000I2700001J1D01*
G01*
X103050000Y-70850000D02*
G75*
G03*
X103328249Y-71521751I950003J2D01*
G01*
X103328249Y-90478249D02*
G75*
G03*
X103050000Y-91150000I671743J-671749D01*
G01*
X105750000Y-68150000D02*
G75*
G03*
X103050000Y-70850000I1J-2700001D01*
G01*
%TO.C,TP4*%
X125500000Y-61900000D02*
X125500000Y-64300000D01*
X123100000Y-61900000D02*
X125500000Y-61900000D01*
X123100000Y-64300000D02*
X123100000Y-61900000D01*
X125500000Y-64300000D02*
X123100000Y-64300000D01*
%TO.C,RV2*%
X112240000Y-57370000D02*
X113370000Y-57370000D01*
X113040000Y-52630000D02*
X113370000Y-52630000D01*
X108630000Y-57370000D02*
X109760000Y-57370000D01*
X108630000Y-52630000D02*
X108961000Y-52630000D01*
X113370000Y-52630000D02*
X113370000Y-57370000D01*
X108630000Y-52630000D02*
X108630000Y-57370000D01*
X110741000Y-52630000D02*
X111260000Y-52630000D01*
%TO.C,U1*%
X132440000Y-62100000D02*
X132440000Y-63900000D01*
X135560000Y-62100000D02*
X135560000Y-61300000D01*
X132440000Y-62100000D02*
X132440000Y-61300000D01*
X135560000Y-62100000D02*
X135560000Y-62900000D01*
%TO.C,R4*%
X112872936Y-59090000D02*
X114327064Y-59090000D01*
X112872936Y-60910000D02*
X114327064Y-60910000D01*
%TO.C,J1*%
X122005000Y-64470000D02*
X122005000Y-65800000D01*
X119405000Y-64470000D02*
X119405000Y-67130000D01*
X119405000Y-64470000D02*
X116805000Y-64470000D01*
X116805000Y-64470000D02*
X116805000Y-67130000D01*
X120675000Y-64470000D02*
X122005000Y-64470000D01*
X119405000Y-67130000D02*
X116805000Y-67130000D01*
%TO.C,R2*%
X118072936Y-63210000D02*
X119527064Y-63210000D01*
X118072936Y-61390000D02*
X119527064Y-61390000D01*
%TO.C,RV1*%
X117741000Y-52630000D02*
X118260000Y-52630000D01*
X120040000Y-52630000D02*
X120370000Y-52630000D01*
X119240000Y-57370000D02*
X120370000Y-57370000D01*
X115630000Y-57370000D02*
X116760000Y-57370000D01*
X120370000Y-52630000D02*
X120370000Y-57370000D01*
X115630000Y-52630000D02*
X115630000Y-57370000D01*
X115630000Y-52630000D02*
X115961000Y-52630000D01*
%TD*%
M02*
