%TF.GenerationSoftware,KiCad,Pcbnew,(6.0.2-0)*%
%TF.CreationDate,2023-06-03T21:44:49-06:00*%
%TF.ProjectId,catlin_card,6361746c-696e-45f6-9361-72642e6b6963,rev?*%
%TF.SameCoordinates,Original*%
%TF.FileFunction,Soldermask,Bot*%
%TF.FilePolarity,Negative*%
%FSLAX46Y46*%
G04 Gerber Fmt 4.6, Leading zero omitted, Abs format (unit mm)*
G04 Created by KiCad (PCBNEW (6.0.2-0)) date 2023-06-03 21:44:49*
%MOMM*%
%LPD*%
G01*
G04 APERTURE LIST*
G04 Aperture macros list*
%AMRoundRect*
0 Rectangle with rounded corners*
0 $1 Rounding radius*
0 $2 $3 $4 $5 $6 $7 $8 $9 X,Y pos of 4 corners*
0 Add a 4 corners polygon primitive as box body*
4,1,4,$2,$3,$4,$5,$6,$7,$8,$9,$2,$3,0*
0 Add four circle primitives for the rounded corners*
1,1,$1+$1,$2,$3*
1,1,$1+$1,$4,$5*
1,1,$1+$1,$6,$7*
1,1,$1+$1,$8,$9*
0 Add four rect primitives between the rounded corners*
20,1,$1+$1,$2,$3,$4,$5,0*
20,1,$1+$1,$4,$5,$6,$7,0*
20,1,$1+$1,$6,$7,$8,$9,0*
20,1,$1+$1,$8,$9,$2,$3,0*%
G04 Aperture macros list end*
%ADD10C,0.800000*%
%ADD11C,0.900000*%
%ADD12RoundRect,0.425000X-0.425000X0.425000X-0.425000X-0.425000X0.425000X-0.425000X0.425000X0.425000X0*%
%ADD13O,1.700000X1.700000*%
%ADD14R,2.800000X0.600000*%
%ADD15RoundRect,0.537500X-1.212500X-0.537500X1.212500X-0.537500X1.212500X0.537500X-1.212500X0.537500X0*%
%ADD16R,0.600000X2.800000*%
%ADD17RoundRect,0.537500X0.537500X-1.212500X0.537500X1.212500X-0.537500X1.212500X-0.537500X-1.212500X0*%
G04 APERTURE END LIST*
D10*
X181500000Y-69071428D02*
X181785714Y-69547619D01*
X182642857Y-70023809D01*
X183214285Y-70023809D01*
X184071428Y-69547619D01*
X184642857Y-68595238D01*
X184928571Y-67642857D01*
X185214285Y-65738095D01*
X185214285Y-64309523D01*
X184928571Y-62404761D01*
X184642857Y-61452380D01*
X184071428Y-60500000D01*
X183214285Y-60023809D01*
X182642857Y-60023809D01*
X181785714Y-60500000D01*
X181500000Y-60976190D01*
X178071428Y-70023809D02*
X178642857Y-69547619D01*
X178928571Y-69071428D01*
X179214285Y-68119047D01*
X179214285Y-65261904D01*
X178928571Y-64309523D01*
X178642857Y-63833333D01*
X178071428Y-63357142D01*
X177214285Y-63357142D01*
X176642857Y-63833333D01*
X176357142Y-64309523D01*
X176071428Y-65261904D01*
X176071428Y-68119047D01*
X176357142Y-69071428D01*
X176642857Y-69547619D01*
X177214285Y-70023809D01*
X178071428Y-70023809D01*
X172642857Y-70023809D02*
X173214285Y-69547619D01*
X173500000Y-68595238D01*
X173500000Y-60023809D01*
X170357142Y-70023809D02*
X170357142Y-63357142D01*
X170357142Y-60023809D02*
X170642857Y-60500000D01*
X170357142Y-60976190D01*
X170071428Y-60500000D01*
X170357142Y-60023809D01*
X170357142Y-60976190D01*
X167500000Y-63357142D02*
X167500000Y-70023809D01*
X167500000Y-64309523D02*
X167214285Y-63833333D01*
X166642857Y-63357142D01*
X165785714Y-63357142D01*
X165214285Y-63833333D01*
X164928571Y-64785714D01*
X164928571Y-70023809D01*
X154071428Y-69071428D02*
X154357142Y-69547619D01*
X155214285Y-70023809D01*
X155785714Y-70023809D01*
X156642857Y-69547619D01*
X157214285Y-68595238D01*
X157500000Y-67642857D01*
X157785714Y-65738095D01*
X157785714Y-64309523D01*
X157500000Y-62404761D01*
X157214285Y-61452380D01*
X156642857Y-60500000D01*
X155785714Y-60023809D01*
X155214285Y-60023809D01*
X154357142Y-60500000D01*
X154071428Y-60976190D01*
X148928571Y-70023809D02*
X148928571Y-64785714D01*
X149214285Y-63833333D01*
X149785714Y-63357142D01*
X150928571Y-63357142D01*
X151500000Y-63833333D01*
X148928571Y-69547619D02*
X149500000Y-70023809D01*
X150928571Y-70023809D01*
X151500000Y-69547619D01*
X151785714Y-68595238D01*
X151785714Y-67642857D01*
X151500000Y-66690476D01*
X150928571Y-66214285D01*
X149500000Y-66214285D01*
X148928571Y-65738095D01*
X146928571Y-63357142D02*
X144642857Y-63357142D01*
X146071428Y-60023809D02*
X146071428Y-68595238D01*
X145785714Y-69547619D01*
X145214285Y-70023809D01*
X144642857Y-70023809D01*
X141785714Y-70023809D02*
X142357142Y-69547619D01*
X142642857Y-68595238D01*
X142642857Y-60023809D01*
X139500000Y-70023809D02*
X139500000Y-63357142D01*
X139500000Y-60023809D02*
X139785714Y-60500000D01*
X139500000Y-60976190D01*
X139214285Y-60500000D01*
X139500000Y-60023809D01*
X139500000Y-60976190D01*
X136642857Y-63357142D02*
X136642857Y-70023809D01*
X136642857Y-64309523D02*
X136357142Y-63833333D01*
X135785714Y-63357142D01*
X134928571Y-63357142D01*
X134357142Y-63833333D01*
X134071428Y-64785714D01*
X134071428Y-70023809D01*
D11*
%TO.C,SW1*%
X124750000Y-50195000D03*
X127750000Y-50195000D03*
%TD*%
D12*
%TO.C,J1*%
X120675000Y-65800000D03*
D13*
X118135000Y-65800000D03*
%TD*%
D14*
%TO.C,D3*%
X123500000Y-58400000D03*
D15*
X123500000Y-57075000D03*
D14*
X123500000Y-59600000D03*
D15*
X123500000Y-60925000D03*
%TD*%
%TO.C,D1*%
X123500000Y-64725000D03*
D14*
X123500000Y-66050000D03*
D15*
X123500000Y-68575000D03*
D14*
X123500000Y-67250000D03*
%TD*%
D16*
%TO.C,D2*%
X128150000Y-62782500D03*
D17*
X126825000Y-62782500D03*
X130675000Y-62782500D03*
D16*
X129350000Y-62782500D03*
%TD*%
M02*
