%TF.GenerationSoftware,KiCad,Pcbnew,(6.0.2-0)*%
%TF.CreationDate,2023-06-03T21:44:48-06:00*%
%TF.ProjectId,catlin_card,6361746c-696e-45f6-9361-72642e6b6963,rev?*%
%TF.SameCoordinates,Original*%
%TF.FileFunction,Copper,L2,Bot*%
%TF.FilePolarity,Positive*%
%FSLAX46Y46*%
G04 Gerber Fmt 4.6, Leading zero omitted, Abs format (unit mm)*
G04 Created by KiCad (PCBNEW (6.0.2-0)) date 2023-06-03 21:44:48*
%MOMM*%
%LPD*%
G01*
G04 APERTURE LIST*
G04 Aperture macros list*
%AMRoundRect*
0 Rectangle with rounded corners*
0 $1 Rounding radius*
0 $2 $3 $4 $5 $6 $7 $8 $9 X,Y pos of 4 corners*
0 Add a 4 corners polygon primitive as box body*
4,1,4,$2,$3,$4,$5,$6,$7,$8,$9,$2,$3,0*
0 Add four circle primitives for the rounded corners*
1,1,$1+$1,$2,$3*
1,1,$1+$1,$4,$5*
1,1,$1+$1,$6,$7*
1,1,$1+$1,$8,$9*
0 Add four rect primitives between the rounded corners*
20,1,$1+$1,$2,$3,$4,$5,0*
20,1,$1+$1,$4,$5,$6,$7,0*
20,1,$1+$1,$6,$7,$8,$9,0*
20,1,$1+$1,$8,$9,$2,$3,0*%
G04 Aperture macros list end*
%TA.AperFunction,ComponentPad*%
%ADD10RoundRect,0.425000X-0.425000X0.425000X-0.425000X-0.425000X0.425000X-0.425000X0.425000X0.425000X0*%
%TD*%
%TA.AperFunction,ComponentPad*%
%ADD11O,1.700000X1.700000*%
%TD*%
%TA.AperFunction,SMDPad,CuDef*%
%ADD12R,2.800000X0.600000*%
%TD*%
%TA.AperFunction,SMDPad,CuDef*%
%ADD13RoundRect,0.537500X-1.212500X-0.537500X1.212500X-0.537500X1.212500X0.537500X-1.212500X0.537500X0*%
%TD*%
%TA.AperFunction,SMDPad,CuDef*%
%ADD14R,0.600000X2.800000*%
%TD*%
%TA.AperFunction,SMDPad,CuDef*%
%ADD15RoundRect,0.537500X0.537500X-1.212500X0.537500X1.212500X-0.537500X1.212500X-0.537500X-1.212500X0*%
%TD*%
%TA.AperFunction,ViaPad*%
%ADD16C,0.700000*%
%TD*%
%TA.AperFunction,ViaPad*%
%ADD17C,1.000000*%
%TD*%
%TA.AperFunction,ViaPad*%
%ADD18C,0.600000*%
%TD*%
%TA.AperFunction,Conductor*%
%ADD19C,0.600000*%
%TD*%
%TA.AperFunction,Conductor*%
%ADD20C,1.400000*%
%TD*%
%TA.AperFunction,Conductor*%
%ADD21C,1.500000*%
%TD*%
%TA.AperFunction,Conductor*%
%ADD22C,1.600000*%
%TD*%
%TA.AperFunction,Conductor*%
%ADD23C,1.800000*%
%TD*%
%TA.AperFunction,Conductor*%
%ADD24C,0.800000*%
%TD*%
%TA.AperFunction,Conductor*%
%ADD25C,1.200000*%
%TD*%
G04 APERTURE END LIST*
D10*
%TO.P,J1,1,Pin_1*%
%TO.N,/VBAT*%
X120675000Y-65800000D03*
D11*
%TO.P,J1,2,Pin_2*%
%TO.N,GND*%
X118135000Y-65800000D03*
%TD*%
D12*
%TO.P,D3,1,K*%
%TO.N,/POT3*%
X123500000Y-58400000D03*
D13*
X123500000Y-57075000D03*
D12*
%TO.P,D3,2,A*%
%TO.N,/VLED*%
X123500000Y-59600000D03*
D13*
X123500000Y-60925000D03*
%TD*%
%TO.P,D1,1,K*%
%TO.N,/POT1*%
X123500000Y-64725000D03*
D12*
X123500000Y-66050000D03*
D13*
%TO.P,D1,2,A*%
%TO.N,/VLED*%
X123500000Y-68575000D03*
D12*
X123500000Y-67250000D03*
%TD*%
D14*
%TO.P,D2,1,K*%
%TO.N,/POT2*%
X128150000Y-62782500D03*
D15*
X126825000Y-62782500D03*
%TO.P,D2,2,A*%
%TO.N,/VLED*%
X130675000Y-62782500D03*
D14*
X129350000Y-62782500D03*
%TD*%
D16*
%TO.N,GND*%
X114500000Y-82500000D03*
X114500000Y-79500000D03*
X112500000Y-82500000D03*
X111500000Y-82500000D03*
X112500000Y-81500000D03*
X112500000Y-56000000D03*
X166800000Y-65000000D03*
X114500000Y-80500000D03*
D17*
X165900000Y-64900000D03*
D16*
X112500000Y-80500000D03*
X111500000Y-79500000D03*
X135800000Y-58500000D03*
D17*
X181400000Y-80900000D03*
X168600000Y-66000000D03*
X182600000Y-80900000D03*
D16*
X122500000Y-52750000D03*
X114500000Y-81500000D03*
D17*
X165900000Y-66000000D03*
D16*
X113500000Y-80500000D03*
X121300000Y-52700000D03*
X113500000Y-81500000D03*
D17*
X181400000Y-82000000D03*
D18*
X134000000Y-62650000D03*
D17*
X168600000Y-64900000D03*
D16*
X169600000Y-65900000D03*
X111500000Y-81500000D03*
X132700000Y-65900000D03*
X112500000Y-79500000D03*
X113500000Y-79500000D03*
X166800000Y-65800000D03*
D17*
X182600000Y-82000000D03*
D16*
X111500000Y-80500000D03*
X169600000Y-64900000D03*
X132700000Y-66650000D03*
X113500000Y-82500000D03*
D17*
%TO.N,/VSOL*%
X142600000Y-82000000D03*
X141400000Y-82000000D03*
X160000000Y-64700000D03*
X158900000Y-65800000D03*
X160000000Y-65800000D03*
X141400000Y-80900000D03*
X142600000Y-80900000D03*
X158900000Y-64700000D03*
D16*
%TO.N,/VLED*%
X124400000Y-54200000D03*
X125500000Y-55100000D03*
X125500000Y-54200000D03*
%TO.N,/VLDO*%
X133200000Y-60500000D03*
X132600000Y-61000000D03*
%TO.N,/POT1*%
X114500000Y-57500000D03*
%TO.N,/POT2*%
X112500000Y-53250000D03*
%TO.N,/POT3*%
X115000000Y-52000000D03*
%TD*%
D19*
%TO.N,/VSOL*%
X159100000Y-64900000D02*
X159900000Y-64900000D01*
X141600000Y-81200000D02*
X142400000Y-81200000D01*
X159100000Y-65700000D02*
X159900000Y-64900000D01*
X141500000Y-81100000D02*
X141500000Y-82000000D01*
X141600000Y-82000000D02*
X142400000Y-81200000D01*
X141400000Y-81000000D02*
X141500000Y-81100000D01*
X141500000Y-82000000D02*
X141600000Y-82000000D01*
X142400000Y-81200000D02*
X142400000Y-82000000D01*
X159900000Y-64900000D02*
X159900000Y-65700000D01*
X141500000Y-82000000D02*
X142400000Y-82000000D01*
X141400000Y-81000000D02*
X141600000Y-81200000D01*
X159100000Y-64900000D02*
X159100000Y-65700000D01*
X159900000Y-65700000D02*
X159100000Y-65700000D01*
D20*
%TO.N,/VLED*%
X126650000Y-58550000D02*
X124275000Y-60925000D01*
X129800000Y-65600000D02*
X126825000Y-68575000D01*
D21*
X125300000Y-55100000D02*
X125500000Y-55100000D01*
X124400000Y-54200000D02*
X125300000Y-55100000D01*
D20*
X125500000Y-54200000D02*
X125500000Y-55100000D01*
X127425000Y-58250000D02*
X129800000Y-60625000D01*
X125500000Y-55100000D02*
X125500000Y-55250000D01*
D22*
X124400000Y-54200000D02*
X125500000Y-54200000D01*
D20*
X125500000Y-55250000D02*
X127000000Y-56750000D01*
X124275000Y-60925000D02*
X123500000Y-60925000D01*
X129800000Y-60625000D02*
X129800000Y-65600000D01*
X127000000Y-58250000D02*
X127425000Y-58250000D01*
D23*
X127000000Y-56750000D02*
X127000000Y-58250000D01*
D20*
X126825000Y-68575000D02*
X123000000Y-68575000D01*
X126650000Y-58250000D02*
X126650000Y-58550000D01*
D24*
%TO.N,/VLDO*%
X133100000Y-60500000D02*
X132600000Y-61000000D01*
X133200000Y-60500000D02*
X133100000Y-60500000D01*
D19*
%TO.N,/POT1*%
X114500000Y-57500000D02*
X114500000Y-60500000D01*
X114500000Y-60500000D02*
X118200000Y-64200000D01*
X122475000Y-64200000D02*
X123000000Y-64725000D01*
X118200000Y-64200000D02*
X122475000Y-64200000D01*
D25*
%TO.N,/POT2*%
X116500000Y-59500000D02*
X116500000Y-57250000D01*
D24*
X119750000Y-62750000D02*
X126792500Y-62750000D01*
D25*
X116500000Y-57250000D02*
X112500000Y-53250000D01*
D24*
X126792500Y-62750000D02*
X126825000Y-62782500D01*
X119600000Y-62600000D02*
X119750000Y-62750000D01*
D25*
X119600000Y-62600000D02*
X116500000Y-59500000D01*
%TO.N,/POT3*%
X117925000Y-52000000D02*
X123000000Y-57075000D01*
X115000000Y-52000000D02*
X117925000Y-52000000D01*
%TD*%
%TA.AperFunction,Conductor*%
%TO.N,GND*%
G36*
X122986398Y-49418907D02*
G01*
X123022362Y-49468407D01*
X123021557Y-49531965D01*
X122989977Y-49621392D01*
X122960312Y-49705397D01*
X122959618Y-49708919D01*
X122959617Y-49708922D01*
X122914479Y-49937934D01*
X122908380Y-49968878D01*
X122895028Y-50237095D01*
X122895368Y-50240657D01*
X122895368Y-50240664D01*
X122920193Y-50500861D01*
X122920534Y-50504431D01*
X122984364Y-50765285D01*
X123085182Y-51014192D01*
X123086993Y-51017285D01*
X123086994Y-51017287D01*
X123177773Y-51172325D01*
X123220875Y-51245938D01*
X123223110Y-51248733D01*
X123223113Y-51248737D01*
X123278245Y-51317676D01*
X123388601Y-51455669D01*
X123584846Y-51638991D01*
X123805499Y-51792064D01*
X123808704Y-51793658D01*
X123808710Y-51793662D01*
X123951688Y-51864792D01*
X123995366Y-51907639D01*
X124005517Y-51967977D01*
X123978264Y-52022757D01*
X123927160Y-52050476D01*
X123893805Y-52057201D01*
X123824988Y-52071077D01*
X123824983Y-52071078D01*
X123821761Y-52071728D01*
X123818644Y-52072801D01*
X123818645Y-52072801D01*
X123548475Y-52165828D01*
X123548469Y-52165830D01*
X123545363Y-52166900D01*
X123283980Y-52297791D01*
X123042205Y-52462101D01*
X123039759Y-52464288D01*
X122893886Y-52594714D01*
X122824284Y-52656945D01*
X122634047Y-52878898D01*
X122474836Y-53124062D01*
X122349448Y-53388129D01*
X122348446Y-53391249D01*
X122347234Y-53394311D01*
X122346241Y-53393918D01*
X122312868Y-53440171D01*
X122254740Y-53459270D01*
X122196488Y-53440555D01*
X122184410Y-53430275D01*
X119360097Y-50605962D01*
X119358468Y-50604293D01*
X119277223Y-50519127D01*
X119274801Y-50516588D01*
X119202404Y-50459515D01*
X119198816Y-50456546D01*
X119131855Y-50398441D01*
X119131854Y-50398441D01*
X119129209Y-50396145D01*
X119126265Y-50394244D01*
X119093392Y-50373018D01*
X119085804Y-50367595D01*
X119055080Y-50343374D01*
X119055072Y-50343369D01*
X119052320Y-50341199D01*
X119049290Y-50339439D01*
X119049284Y-50339435D01*
X118972618Y-50294905D01*
X118968682Y-50292494D01*
X118891211Y-50242471D01*
X118888037Y-50241008D01*
X118888032Y-50241005D01*
X118852489Y-50224620D01*
X118844217Y-50220324D01*
X118807346Y-50198907D01*
X118721898Y-50164297D01*
X118717671Y-50162468D01*
X118633933Y-50123864D01*
X118630573Y-50122859D01*
X118630570Y-50122858D01*
X118593091Y-50111650D01*
X118584289Y-50108560D01*
X118548007Y-50093864D01*
X118548008Y-50093864D01*
X118544768Y-50092552D01*
X118541374Y-50091709D01*
X118541371Y-50091708D01*
X118455336Y-50070337D01*
X118450836Y-50069106D01*
X118365862Y-50043693D01*
X118365856Y-50043692D01*
X118362510Y-50042691D01*
X118359058Y-50042172D01*
X118320335Y-50036350D01*
X118311189Y-50034530D01*
X118289419Y-50029123D01*
X118269823Y-50024255D01*
X118178151Y-50014862D01*
X118173538Y-50014280D01*
X118142363Y-50009593D01*
X118085819Y-50001092D01*
X118085815Y-50001092D01*
X118082358Y-50000572D01*
X118039715Y-50000238D01*
X118033253Y-49999881D01*
X118033253Y-49999887D01*
X118030724Y-49999758D01*
X118028210Y-49999500D01*
X117946203Y-49999500D01*
X117945426Y-49999497D01*
X117945112Y-49999495D01*
X117799067Y-49998348D01*
X117795592Y-49998815D01*
X117792104Y-49999034D01*
X117792099Y-49998950D01*
X117783870Y-49999500D01*
X114927830Y-49999500D01*
X114835838Y-50006014D01*
X114720903Y-50014151D01*
X114720897Y-50014152D01*
X114717407Y-50014399D01*
X114440453Y-50074025D01*
X114174663Y-50172080D01*
X114171580Y-50173743D01*
X114171581Y-50173743D01*
X113947028Y-50294905D01*
X113925340Y-50306607D01*
X113922530Y-50308682D01*
X113922526Y-50308685D01*
X113835427Y-50373018D01*
X113697460Y-50474922D01*
X113495570Y-50673666D01*
X113323696Y-50898874D01*
X113321984Y-50901931D01*
X113321982Y-50901934D01*
X113301881Y-50937828D01*
X113185270Y-51146053D01*
X113141749Y-51258548D01*
X113103121Y-51305996D01*
X113043979Y-51321677D01*
X113021054Y-51317676D01*
X112937510Y-51292691D01*
X112797434Y-51271631D01*
X112660818Y-51251092D01*
X112660815Y-51251092D01*
X112657358Y-51250572D01*
X112374067Y-51248348D01*
X112370601Y-51248814D01*
X112370594Y-51248814D01*
X112129285Y-51281225D01*
X112093288Y-51286060D01*
X111911316Y-51337382D01*
X111823995Y-51362009D01*
X111823992Y-51362010D01*
X111820624Y-51362960D01*
X111561515Y-51477511D01*
X111321132Y-51627427D01*
X111318449Y-51629682D01*
X111318448Y-51629683D01*
X111176125Y-51749318D01*
X111104270Y-51809718D01*
X110915257Y-52020748D01*
X110757864Y-52256303D01*
X110756347Y-52259461D01*
X110756347Y-52259462D01*
X110738650Y-52296317D01*
X110635231Y-52511686D01*
X110549805Y-52781799D01*
X110503291Y-53061256D01*
X110503209Y-53064754D01*
X110497522Y-53306051D01*
X110496616Y-53344477D01*
X110529915Y-53625814D01*
X110602522Y-53899652D01*
X110712988Y-54160527D01*
X110859111Y-54403236D01*
X110861315Y-54405944D01*
X110861317Y-54405946D01*
X111010852Y-54589622D01*
X111012452Y-54591587D01*
X111014240Y-54593375D01*
X112951982Y-56531116D01*
X112979759Y-56585633D01*
X112970188Y-56646065D01*
X112966615Y-56652477D01*
X112935920Y-56703061D01*
X112835305Y-56943001D01*
X112834401Y-56946563D01*
X112834400Y-56946564D01*
X112774115Y-57183940D01*
X112771261Y-57195177D01*
X112745194Y-57454049D01*
X112757677Y-57713930D01*
X112767824Y-57764942D01*
X112797598Y-57914630D01*
X112799500Y-57933944D01*
X112799500Y-60463256D01*
X112799077Y-60624908D01*
X112803956Y-60657364D01*
X112808497Y-60687569D01*
X112809312Y-60694777D01*
X112814120Y-60757976D01*
X112827367Y-60815127D01*
X112828821Y-60822750D01*
X112836982Y-60877040D01*
X112836984Y-60877048D01*
X112837541Y-60880754D01*
X112838653Y-60884334D01*
X112838654Y-60884340D01*
X112856334Y-60941277D01*
X112858230Y-60948281D01*
X112872539Y-61010015D01*
X112873933Y-61013510D01*
X112873934Y-61013512D01*
X112894275Y-61064497D01*
X112896870Y-61071824D01*
X112914263Y-61127838D01*
X112941998Y-61184829D01*
X112944922Y-61191445D01*
X112968410Y-61250318D01*
X112970314Y-61253556D01*
X112970318Y-61253565D01*
X112998142Y-61300894D01*
X113001813Y-61307739D01*
X113027476Y-61360474D01*
X113029611Y-61363563D01*
X113029615Y-61363570D01*
X113063507Y-61412607D01*
X113067407Y-61418716D01*
X113099527Y-61473354D01*
X113101903Y-61476272D01*
X113101904Y-61476274D01*
X113136557Y-61518838D01*
X113141217Y-61525044D01*
X113174574Y-61573308D01*
X113176699Y-61575668D01*
X113229175Y-61633949D01*
X113229189Y-61633963D01*
X113230050Y-61634920D01*
X113231923Y-61636793D01*
X113238693Y-61644293D01*
X113262871Y-61673991D01*
X113265655Y-61676511D01*
X113265657Y-61676513D01*
X113326935Y-61731979D01*
X113330503Y-61735373D01*
X116971501Y-65376371D01*
X117085589Y-65491058D01*
X117088608Y-65493288D01*
X117088614Y-65493293D01*
X117136559Y-65528705D01*
X117142234Y-65533227D01*
X117190319Y-65574514D01*
X117193513Y-65576506D01*
X117240091Y-65605555D01*
X117246520Y-65609924D01*
X117293698Y-65644770D01*
X117297023Y-65646519D01*
X117297024Y-65646520D01*
X117349775Y-65674273D01*
X117356069Y-65677885D01*
X117406656Y-65709435D01*
X117406661Y-65709438D01*
X117409846Y-65711424D01*
X117413296Y-65712906D01*
X117413307Y-65712912D01*
X117463746Y-65734582D01*
X117470763Y-65737928D01*
X117519336Y-65763484D01*
X117519341Y-65763486D01*
X117522663Y-65765234D01*
X117526218Y-65766462D01*
X117526219Y-65766462D01*
X117582554Y-65785915D01*
X117589320Y-65788532D01*
X117647557Y-65813552D01*
X117651189Y-65814495D01*
X117651190Y-65814495D01*
X117704330Y-65828287D01*
X117711771Y-65830534D01*
X117767215Y-65849679D01*
X117770911Y-65850354D01*
X117829561Y-65861066D01*
X117836644Y-65862630D01*
X117894336Y-65877603D01*
X117897981Y-65878549D01*
X117901724Y-65878933D01*
X117901727Y-65878933D01*
X117956318Y-65884526D01*
X117964015Y-65885621D01*
X118018603Y-65895591D01*
X118018609Y-65895592D01*
X118021726Y-65896161D01*
X118104519Y-65900500D01*
X118107171Y-65900500D01*
X118117261Y-65901016D01*
X118155355Y-65904919D01*
X118241670Y-65900622D01*
X118246591Y-65900500D01*
X118325501Y-65900500D01*
X118383692Y-65919407D01*
X118419656Y-65968907D01*
X118424501Y-65999500D01*
X118424501Y-66312450D01*
X118432258Y-66441753D01*
X118448675Y-66525818D01*
X118481045Y-66691572D01*
X118484263Y-66708051D01*
X118575057Y-66963738D01*
X118576782Y-66966975D01*
X118576784Y-66966980D01*
X118700920Y-67199954D01*
X118700924Y-67199960D01*
X118702648Y-67203196D01*
X118864230Y-67421164D01*
X118899696Y-67456568D01*
X119046911Y-67603526D01*
X119056256Y-67612855D01*
X119059206Y-67615034D01*
X119059212Y-67615039D01*
X119178517Y-67703158D01*
X119274507Y-67774057D01*
X119514187Y-67901229D01*
X119517645Y-67902450D01*
X119766565Y-67990354D01*
X119766569Y-67990355D01*
X119770032Y-67991578D01*
X119773637Y-67992276D01*
X119773639Y-67992276D01*
X119845404Y-68006161D01*
X120036420Y-68043117D01*
X120162549Y-68050500D01*
X120250500Y-68050500D01*
X120308691Y-68069407D01*
X120344655Y-68118907D01*
X120349500Y-68149500D01*
X120349500Y-69238496D01*
X120350539Y-69264942D01*
X120391343Y-69536341D01*
X120469979Y-69799284D01*
X120471447Y-69802468D01*
X120471448Y-69802471D01*
X120571060Y-70018545D01*
X120584880Y-70048523D01*
X120586776Y-70051459D01*
X120586778Y-70051463D01*
X120731854Y-70276146D01*
X120731859Y-70276152D01*
X120733753Y-70279086D01*
X120736041Y-70281723D01*
X120736045Y-70281728D01*
X120833463Y-70393992D01*
X120913627Y-70486373D01*
X120916274Y-70488670D01*
X121118272Y-70663955D01*
X121118277Y-70663959D01*
X121120914Y-70666247D01*
X121123848Y-70668141D01*
X121123854Y-70668146D01*
X121348537Y-70813222D01*
X121348541Y-70813224D01*
X121351477Y-70815120D01*
X121354651Y-70816583D01*
X121354656Y-70816586D01*
X121597529Y-70928552D01*
X121600716Y-70930021D01*
X121863659Y-71008657D01*
X122135058Y-71049461D01*
X122137779Y-71049568D01*
X122137780Y-71049568D01*
X122140472Y-71049674D01*
X122161504Y-71050500D01*
X124838496Y-71050500D01*
X124859528Y-71049674D01*
X124862220Y-71049568D01*
X124862221Y-71049568D01*
X124864942Y-71049461D01*
X125136341Y-71008657D01*
X125399284Y-70930021D01*
X125402471Y-70928552D01*
X125645344Y-70816586D01*
X125645349Y-70816583D01*
X125648523Y-70815120D01*
X125651460Y-70813224D01*
X125651463Y-70813222D01*
X125840238Y-70691331D01*
X125893940Y-70675500D01*
X126703661Y-70675500D01*
X126714524Y-70676098D01*
X126736834Y-70678561D01*
X126740200Y-70678473D01*
X126740203Y-70678473D01*
X126852447Y-70675534D01*
X126855038Y-70675500D01*
X126896992Y-70675500D01*
X126898905Y-70675370D01*
X126921896Y-70673803D01*
X126926035Y-70673608D01*
X126984130Y-70672086D01*
X127023136Y-70671065D01*
X127026463Y-70670520D01*
X127026465Y-70670520D01*
X127062101Y-70664685D01*
X127071363Y-70663613D01*
X127107370Y-70661158D01*
X127107376Y-70661157D01*
X127110737Y-70660928D01*
X127205832Y-70641235D01*
X127209885Y-70640483D01*
X127242208Y-70635190D01*
X127302453Y-70625325D01*
X127302460Y-70625323D01*
X127305772Y-70624781D01*
X127308987Y-70623792D01*
X127308991Y-70623791D01*
X127343503Y-70613173D01*
X127352539Y-70610853D01*
X127391186Y-70602850D01*
X127482732Y-70570432D01*
X127486669Y-70569131D01*
X127576277Y-70541564D01*
X127576291Y-70541559D01*
X127579511Y-70540568D01*
X127615316Y-70523948D01*
X127623948Y-70520426D01*
X127657970Y-70508378D01*
X127657984Y-70508372D01*
X127661158Y-70507248D01*
X127664151Y-70505703D01*
X127664156Y-70505701D01*
X127712594Y-70480700D01*
X127747472Y-70462698D01*
X127751175Y-70460884D01*
X127839288Y-70419983D01*
X127872510Y-70398655D01*
X127880588Y-70393992D01*
X127912654Y-70377442D01*
X127912660Y-70377438D01*
X127915658Y-70375891D01*
X127995133Y-70320035D01*
X127998551Y-70317738D01*
X128080297Y-70265258D01*
X128110319Y-70239616D01*
X128117678Y-70233909D01*
X128147221Y-70213146D01*
X128147228Y-70213140D01*
X128149976Y-70211209D01*
X128152434Y-70208925D01*
X128152440Y-70208920D01*
X128221116Y-70145103D01*
X128224210Y-70142346D01*
X128250150Y-70120190D01*
X128250153Y-70120187D01*
X128251625Y-70118930D01*
X128281156Y-70089399D01*
X128283769Y-70086881D01*
X128357307Y-70018545D01*
X128359776Y-70016251D01*
X128381326Y-69989922D01*
X128387932Y-69982623D01*
X131199479Y-67171077D01*
X131207584Y-67163818D01*
X131210075Y-67161822D01*
X131225100Y-67149785D01*
X131304687Y-67065918D01*
X131306495Y-67064061D01*
X131336184Y-67034372D01*
X131337718Y-67032613D01*
X131352598Y-67015558D01*
X131355385Y-67012495D01*
X131419924Y-66944484D01*
X131419925Y-66944483D01*
X131422245Y-66942038D01*
X131445283Y-66909977D01*
X131451075Y-66902671D01*
X131474801Y-66875473D01*
X131474808Y-66875463D01*
X131477020Y-66872928D01*
X131530336Y-66791762D01*
X131532685Y-66788344D01*
X131554424Y-66758090D01*
X131589371Y-66709457D01*
X131607856Y-66674545D01*
X131612582Y-66666555D01*
X131634260Y-66633553D01*
X131676070Y-66545897D01*
X131677932Y-66542195D01*
X131721807Y-66459329D01*
X131723386Y-66456347D01*
X131736959Y-66419257D01*
X131740565Y-66410679D01*
X131756107Y-66378095D01*
X131757558Y-66375053D01*
X131787085Y-66282534D01*
X131788428Y-66278612D01*
X131805886Y-66230905D01*
X131821810Y-66187390D01*
X131830220Y-66148817D01*
X131832635Y-66139808D01*
X131843607Y-66105428D01*
X131844634Y-66102211D01*
X131861337Y-66006502D01*
X131862128Y-66002475D01*
X131882822Y-65907564D01*
X131885412Y-65874661D01*
X131908828Y-65818133D01*
X131942659Y-65792525D01*
X132048683Y-65743647D01*
X132056266Y-65740151D01*
X156995585Y-65740151D01*
X156995722Y-65743642D01*
X156995722Y-65743647D01*
X156998506Y-65814495D01*
X157006152Y-66009083D01*
X157054505Y-66273843D01*
X157055612Y-66277161D01*
X157055613Y-66277165D01*
X157116388Y-66459329D01*
X157139682Y-66529148D01*
X157141247Y-66532280D01*
X157141249Y-66532285D01*
X157148052Y-66545899D01*
X157259981Y-66769905D01*
X157413003Y-66991309D01*
X157595695Y-67188944D01*
X157598405Y-67191151D01*
X157598409Y-67191154D01*
X157801701Y-67356660D01*
X157804411Y-67358866D01*
X158034987Y-67497684D01*
X158282822Y-67602628D01*
X158542972Y-67671606D01*
X158546445Y-67672017D01*
X158546450Y-67672018D01*
X158751812Y-67696324D01*
X158810245Y-67703240D01*
X158813734Y-67703158D01*
X158813739Y-67703158D01*
X158936338Y-67700268D01*
X159079310Y-67696899D01*
X159344796Y-67652710D01*
X159348128Y-67651656D01*
X159348133Y-67651655D01*
X159420854Y-67628656D01*
X159476079Y-67627355D01*
X159551501Y-67647353D01*
X159642972Y-67671606D01*
X159646445Y-67672017D01*
X159646450Y-67672018D01*
X159851812Y-67696324D01*
X159910245Y-67703240D01*
X159913734Y-67703158D01*
X159913739Y-67703158D01*
X160036338Y-67700268D01*
X160179310Y-67696899D01*
X160444796Y-67652710D01*
X160448128Y-67651656D01*
X160448133Y-67651655D01*
X160579024Y-67610259D01*
X160701408Y-67571554D01*
X160704566Y-67570038D01*
X160704570Y-67570036D01*
X160940867Y-67456568D01*
X160940873Y-67456565D01*
X160944025Y-67455051D01*
X161167806Y-67305526D01*
X161170414Y-67303190D01*
X161170418Y-67303187D01*
X161365675Y-67128300D01*
X161365678Y-67128297D01*
X161368286Y-67125961D01*
X161504649Y-66963738D01*
X161539215Y-66922617D01*
X161539217Y-66922615D01*
X161541465Y-66919940D01*
X161683887Y-66691572D01*
X161685301Y-66688374D01*
X161791296Y-66448620D01*
X161791298Y-66448614D01*
X161792712Y-66445416D01*
X161793660Y-66442053D01*
X161793663Y-66442046D01*
X161842072Y-66270400D01*
X161865767Y-66186382D01*
X161901595Y-65919638D01*
X161901871Y-65910857D01*
X161905276Y-65802528D01*
X161905276Y-65802519D01*
X161905355Y-65800000D01*
X161902981Y-65766462D01*
X161889390Y-65574514D01*
X161886347Y-65531533D01*
X161831134Y-65275083D01*
X161830436Y-65271839D01*
X161830434Y-65271832D01*
X161829700Y-65268423D01*
X161829725Y-65268418D01*
X161829516Y-65214920D01*
X161864815Y-65089758D01*
X161864815Y-65089756D01*
X161865767Y-65086382D01*
X161901595Y-64819638D01*
X161905355Y-64700000D01*
X161904066Y-64681784D01*
X161886594Y-64435026D01*
X161886347Y-64431533D01*
X161829700Y-64168423D01*
X161812204Y-64120996D01*
X161737760Y-63919207D01*
X161736547Y-63915919D01*
X161608744Y-63679060D01*
X161574022Y-63632049D01*
X161450925Y-63465390D01*
X161448843Y-63462571D01*
X161260034Y-63270772D01*
X161046083Y-63107490D01*
X160811261Y-62975983D01*
X160560251Y-62878875D01*
X160556845Y-62878086D01*
X160556840Y-62878084D01*
X160394420Y-62840437D01*
X160298063Y-62818103D01*
X160088043Y-62799913D01*
X160033416Y-62795182D01*
X160033415Y-62795182D01*
X160029928Y-62794880D01*
X159914211Y-62801248D01*
X159764695Y-62809476D01*
X159764689Y-62809477D01*
X159761196Y-62809669D01*
X159497228Y-62862176D01*
X159493932Y-62863333D01*
X159493930Y-62863334D01*
X159491561Y-62864166D01*
X159481019Y-62867868D01*
X159425863Y-62870904D01*
X159198063Y-62818103D01*
X158988043Y-62799913D01*
X158933416Y-62795182D01*
X158933415Y-62795182D01*
X158929928Y-62794880D01*
X158814211Y-62801248D01*
X158664695Y-62809476D01*
X158664689Y-62809477D01*
X158661196Y-62809669D01*
X158397228Y-62862176D01*
X158143292Y-62951352D01*
X158140191Y-62952963D01*
X158140186Y-62952965D01*
X158095875Y-62975983D01*
X157904455Y-63075418D01*
X157901614Y-63077448D01*
X157901611Y-63077450D01*
X157813116Y-63140690D01*
X157685481Y-63231899D01*
X157642114Y-63273269D01*
X157493271Y-63415257D01*
X157493267Y-63415261D01*
X157490740Y-63417672D01*
X157324118Y-63629032D01*
X157188939Y-63861760D01*
X157087900Y-64111213D01*
X157023017Y-64372414D01*
X156995585Y-64640151D01*
X156995722Y-64643642D01*
X156995722Y-64643647D01*
X156998036Y-64702528D01*
X157006152Y-64909083D01*
X157010159Y-64931023D01*
X157052267Y-65161586D01*
X157054505Y-65173843D01*
X157055613Y-65177164D01*
X157055614Y-65177168D01*
X157069866Y-65219884D01*
X157072035Y-65275083D01*
X157023017Y-65472414D01*
X157022660Y-65475898D01*
X156996156Y-65734582D01*
X156995585Y-65740151D01*
X132056266Y-65740151D01*
X132145344Y-65699086D01*
X132145349Y-65699083D01*
X132148523Y-65697620D01*
X132151459Y-65695724D01*
X132151463Y-65695722D01*
X132376146Y-65550646D01*
X132376152Y-65550641D01*
X132379086Y-65548747D01*
X132381723Y-65546459D01*
X132381728Y-65546455D01*
X132583726Y-65371170D01*
X132586373Y-65368873D01*
X132715659Y-65219884D01*
X132763955Y-65164228D01*
X132763959Y-65164223D01*
X132766247Y-65161586D01*
X132768141Y-65158652D01*
X132768146Y-65158646D01*
X132913222Y-64933963D01*
X132913224Y-64933959D01*
X132915120Y-64931023D01*
X132923646Y-64912530D01*
X133028552Y-64684971D01*
X133028553Y-64684968D01*
X133030021Y-64681784D01*
X133108657Y-64418841D01*
X133149461Y-64147442D01*
X133150500Y-64120996D01*
X133150500Y-62786688D01*
X133169407Y-62728497D01*
X133212014Y-62695059D01*
X133402232Y-62617239D01*
X133405632Y-62615848D01*
X133635621Y-62479019D01*
X133808616Y-62337676D01*
X134059714Y-62086578D01*
X134080593Y-62070630D01*
X134206457Y-61998693D01*
X134206458Y-61998693D01*
X134209650Y-61996868D01*
X134419811Y-61831190D01*
X134422325Y-61828517D01*
X134422331Y-61828512D01*
X134565317Y-61676513D01*
X134603175Y-61636269D01*
X134755714Y-61416385D01*
X134874076Y-61176371D01*
X134955662Y-60921497D01*
X134956252Y-60917876D01*
X134998089Y-60660983D01*
X134998089Y-60660978D01*
X134998678Y-60657364D01*
X135002181Y-60389774D01*
X134966093Y-60124605D01*
X134891208Y-59867683D01*
X134779169Y-59624652D01*
X134663703Y-59448537D01*
X134634449Y-59403918D01*
X134634448Y-59403916D01*
X134632438Y-59400851D01*
X134604638Y-59369703D01*
X134456683Y-59203934D01*
X134456682Y-59203933D01*
X134454240Y-59201197D01*
X134248488Y-59030075D01*
X134019702Y-58891244D01*
X133772909Y-58787755D01*
X133753482Y-58782821D01*
X133529898Y-58726038D01*
X133513530Y-58721881D01*
X133509877Y-58721513D01*
X133509876Y-58721513D01*
X133418366Y-58712299D01*
X133291259Y-58699500D01*
X133155373Y-58699500D01*
X133149760Y-58699341D01*
X133072154Y-58694934D01*
X133072152Y-58694934D01*
X133068489Y-58694726D01*
X132951765Y-58705451D01*
X132950046Y-58705594D01*
X132833123Y-58714283D01*
X132824035Y-58716339D01*
X132811274Y-58718361D01*
X132801999Y-58719213D01*
X132798434Y-58720085D01*
X132798424Y-58720087D01*
X132688148Y-58747071D01*
X132686468Y-58747467D01*
X132628579Y-58760567D01*
X132572109Y-58773345D01*
X132568676Y-58774680D01*
X132563439Y-58776716D01*
X132551091Y-58780609D01*
X132545629Y-58781946D01*
X132545624Y-58781948D01*
X132542055Y-58782821D01*
X132469963Y-58812314D01*
X132433540Y-58827215D01*
X132431948Y-58827850D01*
X132322691Y-58870338D01*
X132319514Y-58872154D01*
X132319505Y-58872158D01*
X132314615Y-58874953D01*
X132302980Y-58880629D01*
X132294368Y-58884152D01*
X132291208Y-58886032D01*
X132193627Y-58944087D01*
X132192134Y-58944958D01*
X132095830Y-59000000D01*
X132090350Y-59003132D01*
X132087467Y-59005405D01*
X132083042Y-59008893D01*
X132072380Y-59016220D01*
X132067538Y-59019101D01*
X132067533Y-59019104D01*
X132064379Y-59020981D01*
X132061537Y-59023303D01*
X131973545Y-59095195D01*
X131972203Y-59096272D01*
X131880189Y-59168810D01*
X131852378Y-59198374D01*
X131806521Y-59247122D01*
X131804416Y-59249293D01*
X131652922Y-59400787D01*
X131598405Y-59428564D01*
X131537973Y-59418993D01*
X131499609Y-59384267D01*
X131492085Y-59372548D01*
X131492081Y-59372543D01*
X131490258Y-59369703D01*
X131464617Y-59339681D01*
X131458902Y-59332312D01*
X131438151Y-59302786D01*
X131438145Y-59302778D01*
X131436209Y-59300024D01*
X131384872Y-59244778D01*
X131370101Y-59228883D01*
X131367343Y-59225787D01*
X131345189Y-59199848D01*
X131345188Y-59199847D01*
X131343930Y-59198374D01*
X131314386Y-59168830D01*
X131311868Y-59166217D01*
X131243545Y-59092693D01*
X131241251Y-59090224D01*
X131214927Y-59068678D01*
X131207628Y-59062072D01*
X129329496Y-57183940D01*
X129301719Y-57129423D01*
X129300500Y-57113936D01*
X129300500Y-56674690D01*
X129295849Y-56603730D01*
X129285925Y-56452308D01*
X129285924Y-56452302D01*
X129285713Y-56449080D01*
X129226880Y-56153309D01*
X129129945Y-55867748D01*
X128996566Y-55597282D01*
X128829025Y-55346539D01*
X128630189Y-55119811D01*
X128403461Y-54920975D01*
X128152718Y-54753434D01*
X128149812Y-54752001D01*
X128149807Y-54751998D01*
X128011210Y-54683650D01*
X127882252Y-54620055D01*
X127841072Y-54606076D01*
X127802891Y-54582335D01*
X127721457Y-54500901D01*
X127693680Y-54446384D01*
X127692563Y-54426406D01*
X127704229Y-54169504D01*
X127704941Y-54153813D01*
X127679464Y-53862601D01*
X127627293Y-53629203D01*
X127616410Y-53580514D01*
X127616408Y-53580509D01*
X127615695Y-53577317D01*
X127514756Y-53302973D01*
X127389158Y-53064754D01*
X127379948Y-53047285D01*
X127379944Y-53047278D01*
X127378420Y-53044388D01*
X127209082Y-52806107D01*
X127009717Y-52592314D01*
X127007180Y-52590230D01*
X126786368Y-52408852D01*
X126786363Y-52408848D01*
X126783829Y-52406767D01*
X126535384Y-52252725D01*
X126532387Y-52251378D01*
X126532383Y-52251376D01*
X126347692Y-52168373D01*
X126268750Y-52132895D01*
X125988609Y-52049381D01*
X125985368Y-52048868D01*
X125985365Y-52048867D01*
X125896925Y-52034860D01*
X125699883Y-52003652D01*
X125683714Y-52002918D01*
X125626441Y-51981392D01*
X125592759Y-51930312D01*
X125595534Y-51869189D01*
X125633705Y-51821371D01*
X125640132Y-51817475D01*
X125762837Y-51749318D01*
X125762841Y-51749315D01*
X125765976Y-51747574D01*
X125905575Y-51641036D01*
X125976607Y-51586826D01*
X125976609Y-51586825D01*
X125979458Y-51584650D01*
X126167185Y-51392614D01*
X126172317Y-51385564D01*
X126221847Y-51349641D01*
X126283032Y-51349692D01*
X126329677Y-51381989D01*
X126338174Y-51392614D01*
X126388601Y-51455669D01*
X126584846Y-51638991D01*
X126805499Y-51792064D01*
X126864409Y-51821371D01*
X127042723Y-51910081D01*
X127042728Y-51910083D01*
X127045938Y-51911680D01*
X127049349Y-51912798D01*
X127049351Y-51912799D01*
X127297721Y-51994219D01*
X127297724Y-51994220D01*
X127301126Y-51995335D01*
X127565717Y-52041276D01*
X127614761Y-52043717D01*
X127649335Y-52045439D01*
X127649348Y-52045439D01*
X127650567Y-52045500D01*
X127818223Y-52045500D01*
X128017846Y-52031016D01*
X128280080Y-51973120D01*
X128283429Y-51971851D01*
X128283433Y-51971850D01*
X128393070Y-51930312D01*
X128531211Y-51877975D01*
X128685879Y-51792064D01*
X128762837Y-51749318D01*
X128762841Y-51749315D01*
X128765976Y-51747574D01*
X128905575Y-51641036D01*
X128976607Y-51586826D01*
X128976609Y-51586825D01*
X128979458Y-51584650D01*
X129167185Y-51392614D01*
X129325225Y-51175491D01*
X129342323Y-51142994D01*
X129448595Y-50941002D01*
X129450265Y-50937828D01*
X129539688Y-50684603D01*
X129575904Y-50500861D01*
X129590925Y-50424648D01*
X129591620Y-50421122D01*
X129604972Y-50152905D01*
X129604632Y-50149343D01*
X129604632Y-50149336D01*
X129579807Y-49889139D01*
X129579806Y-49889134D01*
X129579466Y-49885569D01*
X129515636Y-49624715D01*
X129479770Y-49536166D01*
X129475449Y-49475134D01*
X129507827Y-49423217D01*
X129564537Y-49400247D01*
X129571529Y-49400000D01*
X187501000Y-49400000D01*
X187559191Y-49418907D01*
X187595155Y-49468407D01*
X187600000Y-49499000D01*
X187600000Y-98501000D01*
X187581093Y-98559191D01*
X187531593Y-98595155D01*
X187501000Y-98600000D01*
X101499000Y-98600000D01*
X101440809Y-98581093D01*
X101404845Y-98531593D01*
X101400000Y-98501000D01*
X101400000Y-81940151D01*
X139495585Y-81940151D01*
X139495722Y-81943642D01*
X139495722Y-81943647D01*
X139498036Y-82002528D01*
X139506152Y-82209083D01*
X139554505Y-82473843D01*
X139555612Y-82477161D01*
X139555613Y-82477165D01*
X139638571Y-82725818D01*
X139639682Y-82729148D01*
X139759981Y-82969905D01*
X139913003Y-83191309D01*
X140095695Y-83388944D01*
X140098405Y-83391151D01*
X140098409Y-83391154D01*
X140301701Y-83556660D01*
X140304411Y-83558866D01*
X140534987Y-83697684D01*
X140782822Y-83802628D01*
X141042972Y-83871606D01*
X141046445Y-83872017D01*
X141046450Y-83872018D01*
X141251812Y-83896324D01*
X141310245Y-83903240D01*
X141313734Y-83903158D01*
X141313739Y-83903158D01*
X141436338Y-83900268D01*
X141579310Y-83896899D01*
X141844796Y-83852710D01*
X141966458Y-83814233D01*
X142021684Y-83812932D01*
X142239583Y-83870708D01*
X142239591Y-83870710D01*
X142242972Y-83871606D01*
X142246445Y-83872017D01*
X142246450Y-83872018D01*
X142451812Y-83896324D01*
X142510245Y-83903240D01*
X142513734Y-83903158D01*
X142513739Y-83903158D01*
X142636338Y-83900268D01*
X142779310Y-83896899D01*
X143044796Y-83852710D01*
X143048128Y-83851656D01*
X143048133Y-83851655D01*
X143144373Y-83821218D01*
X143301408Y-83771554D01*
X143304566Y-83770038D01*
X143304570Y-83770036D01*
X143540867Y-83656568D01*
X143540873Y-83656565D01*
X143544025Y-83655051D01*
X143767806Y-83505526D01*
X143770414Y-83503190D01*
X143770418Y-83503187D01*
X143965675Y-83328300D01*
X143965678Y-83328297D01*
X143968286Y-83325961D01*
X144141465Y-83119940D01*
X144283887Y-82891572D01*
X144285301Y-82888374D01*
X144391296Y-82648620D01*
X144391298Y-82648614D01*
X144392712Y-82645416D01*
X144393660Y-82642053D01*
X144393663Y-82642046D01*
X144464816Y-82389753D01*
X144465767Y-82386382D01*
X144501595Y-82119638D01*
X144505355Y-82000000D01*
X144486347Y-81731533D01*
X144431134Y-81475083D01*
X144430436Y-81471839D01*
X144430434Y-81471832D01*
X144429700Y-81468423D01*
X144429725Y-81468418D01*
X144429516Y-81414920D01*
X144464815Y-81289758D01*
X144464815Y-81289756D01*
X144465767Y-81286382D01*
X144501595Y-81019638D01*
X144505355Y-80900000D01*
X144486347Y-80631533D01*
X144429700Y-80368423D01*
X144409849Y-80314612D01*
X144337760Y-80119207D01*
X144336547Y-80115919D01*
X144208744Y-79879060D01*
X144174022Y-79832049D01*
X144050925Y-79665390D01*
X144048843Y-79662571D01*
X143860034Y-79470772D01*
X143646083Y-79307490D01*
X143411261Y-79175983D01*
X143160251Y-79078875D01*
X143156845Y-79078086D01*
X143156840Y-79078084D01*
X142994420Y-79040437D01*
X142898063Y-79018103D01*
X142688043Y-78999913D01*
X142633416Y-78995182D01*
X142633415Y-78995182D01*
X142629928Y-78994880D01*
X142514211Y-79001248D01*
X142364695Y-79009476D01*
X142364689Y-79009477D01*
X142361196Y-79009669D01*
X142097228Y-79062176D01*
X142037260Y-79083235D01*
X141976093Y-79084676D01*
X141968736Y-79082157D01*
X141963515Y-79080137D01*
X141963506Y-79080134D01*
X141960251Y-79078875D01*
X141698063Y-79018103D01*
X141488043Y-78999913D01*
X141433416Y-78995182D01*
X141433415Y-78995182D01*
X141429928Y-78994880D01*
X141314211Y-79001248D01*
X141164695Y-79009476D01*
X141164689Y-79009477D01*
X141161196Y-79009669D01*
X140897228Y-79062176D01*
X140643292Y-79151352D01*
X140640191Y-79152963D01*
X140640186Y-79152965D01*
X140595875Y-79175983D01*
X140404455Y-79275418D01*
X140401614Y-79277448D01*
X140401611Y-79277450D01*
X140313116Y-79340690D01*
X140185481Y-79431899D01*
X140142114Y-79473269D01*
X139993271Y-79615257D01*
X139993267Y-79615261D01*
X139990740Y-79617672D01*
X139824118Y-79829032D01*
X139688939Y-80061760D01*
X139587900Y-80311213D01*
X139523017Y-80572414D01*
X139495585Y-80840151D01*
X139495722Y-80843642D01*
X139495722Y-80843647D01*
X139498036Y-80902528D01*
X139506152Y-81109083D01*
X139554505Y-81373843D01*
X139555613Y-81377164D01*
X139555614Y-81377168D01*
X139569866Y-81419884D01*
X139572035Y-81475083D01*
X139523017Y-81672414D01*
X139495585Y-81940151D01*
X101400000Y-81940151D01*
X101400000Y-49499000D01*
X101418907Y-49440809D01*
X101468407Y-49404845D01*
X101499000Y-49400000D01*
X122928207Y-49400000D01*
X122986398Y-49418907D01*
G37*
%TD.AperFunction*%
%TD*%
M02*
