%TF.GenerationSoftware,KiCad,Pcbnew,(6.0.2-0)*%
%TF.CreationDate,2023-06-03T21:44:49-06:00*%
%TF.ProjectId,catlin_card,6361746c-696e-45f6-9361-72642e6b6963,rev?*%
%TF.SameCoordinates,Original*%
%TF.FileFunction,Legend,Bot*%
%TF.FilePolarity,Positive*%
%FSLAX46Y46*%
G04 Gerber Fmt 4.6, Leading zero omitted, Abs format (unit mm)*
G04 Created by KiCad (PCBNEW (6.0.2-0)) date 2023-06-03 21:44:49*
%MOMM*%
%LPD*%
G01*
G04 APERTURE LIST*
%ADD10C,0.400000*%
%ADD11C,0.150000*%
%ADD12C,0.200000*%
G04 APERTURE END LIST*
D10*
X180687619Y-78631857D02*
X179240000Y-78631857D01*
X179963809Y-79927095D02*
X179963809Y-77336619D01*
X177340000Y-79927095D02*
X178425714Y-79927095D01*
X177882857Y-79927095D02*
X177882857Y-76527095D01*
X178063809Y-77012809D01*
X178244761Y-77336619D01*
X178425714Y-77498523D01*
X174263809Y-76527095D02*
X174625714Y-76527095D01*
X174806666Y-76689000D01*
X174897142Y-76850904D01*
X175078095Y-77336619D01*
X175168571Y-77984238D01*
X175168571Y-79279476D01*
X175078095Y-79603285D01*
X174987619Y-79765190D01*
X174806666Y-79927095D01*
X174444761Y-79927095D01*
X174263809Y-79765190D01*
X174173333Y-79603285D01*
X174082857Y-79279476D01*
X174082857Y-78469952D01*
X174173333Y-78146142D01*
X174263809Y-77984238D01*
X174444761Y-77822333D01*
X174806666Y-77822333D01*
X174987619Y-77984238D01*
X175078095Y-78146142D01*
X175168571Y-78469952D01*
X172273333Y-79927095D02*
X173359047Y-79927095D01*
X172816190Y-79927095D02*
X172816190Y-76527095D01*
X172997142Y-77012809D01*
X173178095Y-77336619D01*
X173359047Y-77498523D01*
X171549523Y-76850904D02*
X171459047Y-76689000D01*
X171278095Y-76527095D01*
X170825714Y-76527095D01*
X170644761Y-76689000D01*
X170554285Y-76850904D01*
X170463809Y-77174714D01*
X170463809Y-77498523D01*
X170554285Y-77984238D01*
X171640000Y-79927095D01*
X170463809Y-79927095D01*
X169830476Y-76527095D02*
X168563809Y-76527095D01*
X169378095Y-79927095D01*
X167478095Y-76527095D02*
X167297142Y-76527095D01*
X167116190Y-76689000D01*
X167025714Y-76850904D01*
X166935238Y-77174714D01*
X166844761Y-77822333D01*
X166844761Y-78631857D01*
X166935238Y-79279476D01*
X167025714Y-79603285D01*
X167116190Y-79765190D01*
X167297142Y-79927095D01*
X167478095Y-79927095D01*
X167659047Y-79765190D01*
X167749523Y-79603285D01*
X167840000Y-79279476D01*
X167930476Y-78631857D01*
X167930476Y-77822333D01*
X167840000Y-77174714D01*
X167749523Y-76850904D01*
X167659047Y-76689000D01*
X167478095Y-76527095D01*
X166211428Y-76527095D02*
X164944761Y-76527095D01*
X165759047Y-79927095D01*
X164401904Y-76527095D02*
X163225714Y-76527095D01*
X163859047Y-77822333D01*
X163587619Y-77822333D01*
X163406666Y-77984238D01*
X163316190Y-78146142D01*
X163225714Y-78469952D01*
X163225714Y-79279476D01*
X163316190Y-79603285D01*
X163406666Y-79765190D01*
X163587619Y-79927095D01*
X164130476Y-79927095D01*
X164311428Y-79765190D01*
X164401904Y-79603285D01*
X162049523Y-76527095D02*
X161868571Y-76527095D01*
X161687619Y-76689000D01*
X161597142Y-76850904D01*
X161506666Y-77174714D01*
X161416190Y-77822333D01*
X161416190Y-78631857D01*
X161506666Y-79279476D01*
X161597142Y-79603285D01*
X161687619Y-79765190D01*
X161868571Y-79927095D01*
X162049523Y-79927095D01*
X162230476Y-79765190D01*
X162320952Y-79603285D01*
X162411428Y-79279476D01*
X162501904Y-78631857D01*
X162501904Y-77822333D01*
X162411428Y-77174714D01*
X162320952Y-76850904D01*
X162230476Y-76689000D01*
X162049523Y-76527095D01*
X160511428Y-79927095D02*
X160149523Y-79927095D01*
X159968571Y-79765190D01*
X159878095Y-79603285D01*
X159697142Y-79117571D01*
X159606666Y-78469952D01*
X159606666Y-77174714D01*
X159697142Y-76850904D01*
X159787619Y-76689000D01*
X159968571Y-76527095D01*
X160330476Y-76527095D01*
X160511428Y-76689000D01*
X160601904Y-76850904D01*
X160692380Y-77174714D01*
X160692380Y-77984238D01*
X160601904Y-78308047D01*
X160511428Y-78469952D01*
X160330476Y-78631857D01*
X159968571Y-78631857D01*
X159787619Y-78469952D01*
X159697142Y-78308047D01*
X159606666Y-77984238D01*
X158430476Y-76527095D02*
X158249523Y-76527095D01*
X158068571Y-76689000D01*
X157978095Y-76850904D01*
X157887619Y-77174714D01*
X157797142Y-77822333D01*
X157797142Y-78631857D01*
X157887619Y-79279476D01*
X157978095Y-79603285D01*
X158068571Y-79765190D01*
X158249523Y-79927095D01*
X158430476Y-79927095D01*
X158611428Y-79765190D01*
X158701904Y-79603285D01*
X158792380Y-79279476D01*
X158882857Y-78631857D01*
X158882857Y-77822333D01*
X158792380Y-77174714D01*
X158701904Y-76850904D01*
X158611428Y-76689000D01*
X158430476Y-76527095D01*
X179873333Y-85239190D02*
X180054285Y-85401095D01*
X180416190Y-85401095D01*
X180597142Y-85239190D01*
X180687619Y-85077285D01*
X180778095Y-84753476D01*
X180778095Y-83782047D01*
X180687619Y-83458238D01*
X180597142Y-83296333D01*
X180416190Y-83134428D01*
X180054285Y-83134428D01*
X179873333Y-83296333D01*
X178787619Y-85401095D02*
X178968571Y-85239190D01*
X179059047Y-85077285D01*
X179149523Y-84753476D01*
X179149523Y-83782047D01*
X179059047Y-83458238D01*
X178968571Y-83296333D01*
X178787619Y-83134428D01*
X178516190Y-83134428D01*
X178335238Y-83296333D01*
X178244761Y-83458238D01*
X178154285Y-83782047D01*
X178154285Y-84753476D01*
X178244761Y-85077285D01*
X178335238Y-85239190D01*
X178516190Y-85401095D01*
X178787619Y-85401095D01*
X177068571Y-85401095D02*
X177249523Y-85239190D01*
X177340000Y-84915380D01*
X177340000Y-82001095D01*
X176344761Y-85401095D02*
X176344761Y-83134428D01*
X176344761Y-82001095D02*
X176435238Y-82163000D01*
X176344761Y-82324904D01*
X176254285Y-82163000D01*
X176344761Y-82001095D01*
X176344761Y-82324904D01*
X175440000Y-83134428D02*
X175440000Y-85401095D01*
X175440000Y-83458238D02*
X175349523Y-83296333D01*
X175168571Y-83134428D01*
X174897142Y-83134428D01*
X174716190Y-83296333D01*
X174625714Y-83620142D01*
X174625714Y-85401095D01*
X173720952Y-85077285D02*
X173630476Y-85239190D01*
X173720952Y-85401095D01*
X173811428Y-85239190D01*
X173720952Y-85077285D01*
X173720952Y-85401095D01*
X172001904Y-85239190D02*
X172182857Y-85401095D01*
X172544761Y-85401095D01*
X172725714Y-85239190D01*
X172816190Y-85077285D01*
X172906666Y-84753476D01*
X172906666Y-83782047D01*
X172816190Y-83458238D01*
X172725714Y-83296333D01*
X172544761Y-83134428D01*
X172182857Y-83134428D01*
X172001904Y-83296333D01*
X170373333Y-85401095D02*
X170373333Y-83620142D01*
X170463809Y-83296333D01*
X170644761Y-83134428D01*
X171006666Y-83134428D01*
X171187619Y-83296333D01*
X170373333Y-85239190D02*
X170554285Y-85401095D01*
X171006666Y-85401095D01*
X171187619Y-85239190D01*
X171278095Y-84915380D01*
X171278095Y-84591571D01*
X171187619Y-84267761D01*
X171006666Y-84105857D01*
X170554285Y-84105857D01*
X170373333Y-83943952D01*
X169740000Y-83134428D02*
X169016190Y-83134428D01*
X169468571Y-82001095D02*
X169468571Y-84915380D01*
X169378095Y-85239190D01*
X169197142Y-85401095D01*
X169016190Y-85401095D01*
X168111428Y-85401095D02*
X168292380Y-85239190D01*
X168382857Y-84915380D01*
X168382857Y-82001095D01*
X167387619Y-85401095D02*
X167387619Y-83134428D01*
X167387619Y-82001095D02*
X167478095Y-82163000D01*
X167387619Y-82324904D01*
X167297142Y-82163000D01*
X167387619Y-82001095D01*
X167387619Y-82324904D01*
X166482857Y-83134428D02*
X166482857Y-85401095D01*
X166482857Y-83458238D02*
X166392380Y-83296333D01*
X166211428Y-83134428D01*
X165940000Y-83134428D01*
X165759047Y-83296333D01*
X165668571Y-83620142D01*
X165668571Y-85401095D01*
X163587619Y-83782047D02*
X163678095Y-83620142D01*
X163859047Y-83458238D01*
X164040000Y-83458238D01*
X164220952Y-83620142D01*
X164311428Y-83782047D01*
X164401904Y-84105857D01*
X164401904Y-84429666D01*
X164311428Y-84753476D01*
X164220952Y-84915380D01*
X164040000Y-85077285D01*
X163859047Y-85077285D01*
X163678095Y-84915380D01*
X163587619Y-84753476D01*
X163587619Y-83458238D02*
X163587619Y-84753476D01*
X163497142Y-84915380D01*
X163406666Y-84915380D01*
X163225714Y-84753476D01*
X163135238Y-84429666D01*
X163135238Y-83620142D01*
X163316190Y-83134428D01*
X163587619Y-82810619D01*
X163949523Y-82648714D01*
X164311428Y-82810619D01*
X164582857Y-83134428D01*
X164763809Y-83620142D01*
X164854285Y-84267761D01*
X164763809Y-84915380D01*
X164582857Y-85401095D01*
X164311428Y-85724904D01*
X163949523Y-85886809D01*
X163587619Y-85724904D01*
X163316190Y-85401095D01*
X161506666Y-83134428D02*
X161506666Y-85886809D01*
X161597142Y-86210619D01*
X161687619Y-86372523D01*
X161868571Y-86534428D01*
X162140000Y-86534428D01*
X162320952Y-86372523D01*
X161506666Y-85239190D02*
X161687619Y-85401095D01*
X162049523Y-85401095D01*
X162230476Y-85239190D01*
X162320952Y-85077285D01*
X162411428Y-84753476D01*
X162411428Y-83782047D01*
X162320952Y-83458238D01*
X162230476Y-83296333D01*
X162049523Y-83134428D01*
X161687619Y-83134428D01*
X161506666Y-83296333D01*
X160601904Y-85401095D02*
X160601904Y-83134428D01*
X160601904Y-83458238D02*
X160511428Y-83296333D01*
X160330476Y-83134428D01*
X160059047Y-83134428D01*
X159878095Y-83296333D01*
X159787619Y-83620142D01*
X159787619Y-85401095D01*
X159787619Y-83620142D02*
X159697142Y-83296333D01*
X159516190Y-83134428D01*
X159244761Y-83134428D01*
X159063809Y-83296333D01*
X158973333Y-83620142D01*
X158973333Y-85401095D01*
X157254285Y-85401095D02*
X157254285Y-83620142D01*
X157344761Y-83296333D01*
X157525714Y-83134428D01*
X157887619Y-83134428D01*
X158068571Y-83296333D01*
X157254285Y-85239190D02*
X157435238Y-85401095D01*
X157887619Y-85401095D01*
X158068571Y-85239190D01*
X158159047Y-84915380D01*
X158159047Y-84591571D01*
X158068571Y-84267761D01*
X157887619Y-84105857D01*
X157435238Y-84105857D01*
X157254285Y-83943952D01*
X156349523Y-85401095D02*
X156349523Y-83134428D01*
X156349523Y-82001095D02*
X156440000Y-82163000D01*
X156349523Y-82324904D01*
X156259047Y-82163000D01*
X156349523Y-82001095D01*
X156349523Y-82324904D01*
X155173333Y-85401095D02*
X155354285Y-85239190D01*
X155444761Y-84915380D01*
X155444761Y-82001095D01*
X154449523Y-85077285D02*
X154359047Y-85239190D01*
X154449523Y-85401095D01*
X154540000Y-85239190D01*
X154449523Y-85077285D01*
X154449523Y-85401095D01*
X152730476Y-85239190D02*
X152911428Y-85401095D01*
X153273333Y-85401095D01*
X153454285Y-85239190D01*
X153544761Y-85077285D01*
X153635238Y-84753476D01*
X153635238Y-83782047D01*
X153544761Y-83458238D01*
X153454285Y-83296333D01*
X153273333Y-83134428D01*
X152911428Y-83134428D01*
X152730476Y-83296333D01*
X151644761Y-85401095D02*
X151825714Y-85239190D01*
X151916190Y-85077285D01*
X152006666Y-84753476D01*
X152006666Y-83782047D01*
X151916190Y-83458238D01*
X151825714Y-83296333D01*
X151644761Y-83134428D01*
X151373333Y-83134428D01*
X151192380Y-83296333D01*
X151101904Y-83458238D01*
X151011428Y-83782047D01*
X151011428Y-84753476D01*
X151101904Y-85077285D01*
X151192380Y-85239190D01*
X151373333Y-85401095D01*
X151644761Y-85401095D01*
X150197142Y-85401095D02*
X150197142Y-83134428D01*
X150197142Y-83458238D02*
X150106666Y-83296333D01*
X149925714Y-83134428D01*
X149654285Y-83134428D01*
X149473333Y-83296333D01*
X149382857Y-83620142D01*
X149382857Y-85401095D01*
X149382857Y-83620142D02*
X149292380Y-83296333D01*
X149111428Y-83134428D01*
X148840000Y-83134428D01*
X148659047Y-83296333D01*
X148568571Y-83620142D01*
X148568571Y-85401095D01*
X179873333Y-88608428D02*
X179873333Y-91360809D01*
X179963809Y-91684619D01*
X180054285Y-91846523D01*
X180235238Y-92008428D01*
X180506666Y-92008428D01*
X180687619Y-91846523D01*
X179873333Y-90713190D02*
X180054285Y-90875095D01*
X180416190Y-90875095D01*
X180597142Y-90713190D01*
X180687619Y-90551285D01*
X180778095Y-90227476D01*
X180778095Y-89256047D01*
X180687619Y-88932238D01*
X180597142Y-88770333D01*
X180416190Y-88608428D01*
X180054285Y-88608428D01*
X179873333Y-88770333D01*
X178968571Y-90875095D02*
X178968571Y-88608428D01*
X178968571Y-87475095D02*
X179059047Y-87637000D01*
X178968571Y-87798904D01*
X178878095Y-87637000D01*
X178968571Y-87475095D01*
X178968571Y-87798904D01*
X178335238Y-88608428D02*
X177611428Y-88608428D01*
X178063809Y-87475095D02*
X178063809Y-90389380D01*
X177973333Y-90713190D01*
X177792380Y-90875095D01*
X177611428Y-90875095D01*
X176978095Y-90875095D02*
X176978095Y-87475095D01*
X176163809Y-90875095D02*
X176163809Y-89094142D01*
X176254285Y-88770333D01*
X176435238Y-88608428D01*
X176706666Y-88608428D01*
X176887619Y-88770333D01*
X176978095Y-88932238D01*
X174444761Y-88608428D02*
X174444761Y-90875095D01*
X175259047Y-88608428D02*
X175259047Y-90389380D01*
X175168571Y-90713190D01*
X174987619Y-90875095D01*
X174716190Y-90875095D01*
X174535238Y-90713190D01*
X174444761Y-90551285D01*
X173540000Y-90875095D02*
X173540000Y-87475095D01*
X173540000Y-88770333D02*
X173359047Y-88608428D01*
X172997142Y-88608428D01*
X172816190Y-88770333D01*
X172725714Y-88932238D01*
X172635238Y-89256047D01*
X172635238Y-90227476D01*
X172725714Y-90551285D01*
X172816190Y-90713190D01*
X172997142Y-90875095D01*
X173359047Y-90875095D01*
X173540000Y-90713190D01*
X171820952Y-90551285D02*
X171730476Y-90713190D01*
X171820952Y-90875095D01*
X171911428Y-90713190D01*
X171820952Y-90551285D01*
X171820952Y-90875095D01*
X171820952Y-88770333D02*
X171730476Y-88932238D01*
X171820952Y-89094142D01*
X171911428Y-88932238D01*
X171820952Y-88770333D01*
X171820952Y-89094142D01*
X169559047Y-87313190D02*
X171187619Y-91684619D01*
X167568571Y-87313190D02*
X169197142Y-91684619D01*
X167116190Y-88608428D02*
X166754285Y-90875095D01*
X166392380Y-89256047D01*
X166030476Y-90875095D01*
X165668571Y-88608428D01*
X164944761Y-90875095D02*
X164944761Y-88608428D01*
X164944761Y-87475095D02*
X165035238Y-87637000D01*
X164944761Y-87798904D01*
X164854285Y-87637000D01*
X164944761Y-87475095D01*
X164944761Y-87798904D01*
X164040000Y-88608428D02*
X164040000Y-90875095D01*
X164040000Y-88932238D02*
X163949523Y-88770333D01*
X163768571Y-88608428D01*
X163497142Y-88608428D01*
X163316190Y-88770333D01*
X163225714Y-89094142D01*
X163225714Y-90875095D01*
X161597142Y-90713190D02*
X161778095Y-90875095D01*
X162140000Y-90875095D01*
X162320952Y-90713190D01*
X162411428Y-90389380D01*
X162411428Y-89094142D01*
X162320952Y-88770333D01*
X162140000Y-88608428D01*
X161778095Y-88608428D01*
X161597142Y-88770333D01*
X161506666Y-89094142D01*
X161506666Y-89417952D01*
X162411428Y-89741761D01*
X159878095Y-90875095D02*
X159878095Y-87475095D01*
X159878095Y-90713190D02*
X160059047Y-90875095D01*
X160420952Y-90875095D01*
X160601904Y-90713190D01*
X160692380Y-90551285D01*
X160782857Y-90227476D01*
X160782857Y-89256047D01*
X160692380Y-88932238D01*
X160601904Y-88770333D01*
X160420952Y-88608428D01*
X160059047Y-88608428D01*
X159878095Y-88770333D01*
X158159047Y-90875095D02*
X158159047Y-89094142D01*
X158249523Y-88770333D01*
X158430476Y-88608428D01*
X158792380Y-88608428D01*
X158973333Y-88770333D01*
X158159047Y-90713190D02*
X158340000Y-90875095D01*
X158792380Y-90875095D01*
X158973333Y-90713190D01*
X159063809Y-90389380D01*
X159063809Y-90065571D01*
X158973333Y-89741761D01*
X158792380Y-89579857D01*
X158340000Y-89579857D01*
X158159047Y-89417952D01*
X157254285Y-90875095D02*
X157254285Y-88608428D01*
X157254285Y-89256047D02*
X157163809Y-88932238D01*
X157073333Y-88770333D01*
X156892380Y-88608428D01*
X156711428Y-88608428D01*
X156078095Y-90875095D02*
X156078095Y-87475095D01*
X155897142Y-89579857D02*
X155354285Y-90875095D01*
X155354285Y-88608428D02*
X156078095Y-89903666D01*
X154630476Y-90713190D02*
X154449523Y-90875095D01*
X154087619Y-90875095D01*
X153906666Y-90713190D01*
X153816190Y-90389380D01*
X153816190Y-90227476D01*
X153906666Y-89903666D01*
X154087619Y-89741761D01*
X154359047Y-89741761D01*
X154540000Y-89579857D01*
X154630476Y-89256047D01*
X154630476Y-89094142D01*
X154540000Y-88770333D01*
X154359047Y-88608428D01*
X154087619Y-88608428D01*
X153906666Y-88770333D01*
X152278095Y-90713190D02*
X152459047Y-90875095D01*
X152820952Y-90875095D01*
X153001904Y-90713190D01*
X153092380Y-90389380D01*
X153092380Y-89094142D01*
X153001904Y-88770333D01*
X152820952Y-88608428D01*
X152459047Y-88608428D01*
X152278095Y-88770333D01*
X152187619Y-89094142D01*
X152187619Y-89417952D01*
X153092380Y-89741761D01*
X150559047Y-90875095D02*
X150559047Y-89094142D01*
X150649523Y-88770333D01*
X150830476Y-88608428D01*
X151192380Y-88608428D01*
X151373333Y-88770333D01*
X150559047Y-90713190D02*
X150740000Y-90875095D01*
X151192380Y-90875095D01*
X151373333Y-90713190D01*
X151463809Y-90389380D01*
X151463809Y-90065571D01*
X151373333Y-89741761D01*
X151192380Y-89579857D01*
X150740000Y-89579857D01*
X150559047Y-89417952D01*
X180687619Y-96349095D02*
X180687619Y-92949095D01*
X179873333Y-96349095D02*
X179873333Y-94568142D01*
X179963809Y-94244333D01*
X180144761Y-94082428D01*
X180416190Y-94082428D01*
X180597142Y-94244333D01*
X180687619Y-94406238D01*
X179240000Y-94082428D02*
X178516190Y-94082428D01*
X178968571Y-92949095D02*
X178968571Y-95863380D01*
X178878095Y-96187190D01*
X178697142Y-96349095D01*
X178516190Y-96349095D01*
X178154285Y-94082428D02*
X177430476Y-94082428D01*
X177882857Y-92949095D02*
X177882857Y-95863380D01*
X177792380Y-96187190D01*
X177611428Y-96349095D01*
X177430476Y-96349095D01*
X176797142Y-94082428D02*
X176797142Y-97482428D01*
X176797142Y-94244333D02*
X176616190Y-94082428D01*
X176254285Y-94082428D01*
X176073333Y-94244333D01*
X175982857Y-94406238D01*
X175892380Y-94730047D01*
X175892380Y-95701476D01*
X175982857Y-96025285D01*
X176073333Y-96187190D01*
X176254285Y-96349095D01*
X176616190Y-96349095D01*
X176797142Y-96187190D01*
X175168571Y-96187190D02*
X174987619Y-96349095D01*
X174625714Y-96349095D01*
X174444761Y-96187190D01*
X174354285Y-95863380D01*
X174354285Y-95701476D01*
X174444761Y-95377666D01*
X174625714Y-95215761D01*
X174897142Y-95215761D01*
X175078095Y-95053857D01*
X175168571Y-94730047D01*
X175168571Y-94568142D01*
X175078095Y-94244333D01*
X174897142Y-94082428D01*
X174625714Y-94082428D01*
X174444761Y-94244333D01*
X173540000Y-96025285D02*
X173449523Y-96187190D01*
X173540000Y-96349095D01*
X173630476Y-96187190D01*
X173540000Y-96025285D01*
X173540000Y-96349095D01*
X173540000Y-94244333D02*
X173449523Y-94406238D01*
X173540000Y-94568142D01*
X173630476Y-94406238D01*
X173540000Y-94244333D01*
X173540000Y-94568142D01*
X171278095Y-92787190D02*
X172906666Y-97158619D01*
X169287619Y-92787190D02*
X170916190Y-97158619D01*
X168744761Y-96187190D02*
X168563809Y-96349095D01*
X168201904Y-96349095D01*
X168020952Y-96187190D01*
X167930476Y-95863380D01*
X167930476Y-95701476D01*
X168020952Y-95377666D01*
X168201904Y-95215761D01*
X168473333Y-95215761D01*
X168654285Y-95053857D01*
X168744761Y-94730047D01*
X168744761Y-94568142D01*
X168654285Y-94244333D01*
X168473333Y-94082428D01*
X168201904Y-94082428D01*
X168020952Y-94244333D01*
X167297142Y-94082428D02*
X166844761Y-96349095D01*
X166392380Y-94082428D02*
X166844761Y-96349095D01*
X167025714Y-97158619D01*
X167116190Y-97320523D01*
X167297142Y-97482428D01*
X165397142Y-96349095D02*
X165578095Y-96187190D01*
X165668571Y-95863380D01*
X165668571Y-92949095D01*
X164401904Y-96349095D02*
X164582857Y-96187190D01*
X164673333Y-95863380D01*
X164673333Y-92949095D01*
X162954285Y-96187190D02*
X163135238Y-96349095D01*
X163497142Y-96349095D01*
X163678095Y-96187190D01*
X163768571Y-95863380D01*
X163768571Y-94568142D01*
X163678095Y-94244333D01*
X163497142Y-94082428D01*
X163135238Y-94082428D01*
X162954285Y-94244333D01*
X162863809Y-94568142D01*
X162863809Y-94891952D01*
X163768571Y-95215761D01*
X162049523Y-94082428D02*
X162049523Y-97482428D01*
X162049523Y-94244333D02*
X161868571Y-94082428D01*
X161506666Y-94082428D01*
X161325714Y-94244333D01*
X161235238Y-94406238D01*
X161144761Y-94730047D01*
X161144761Y-95701476D01*
X161235238Y-96025285D01*
X161325714Y-96187190D01*
X161506666Y-96349095D01*
X161868571Y-96349095D01*
X162049523Y-96187190D01*
X160420952Y-96187190D02*
X160240000Y-96349095D01*
X159878095Y-96349095D01*
X159697142Y-96187190D01*
X159606666Y-95863380D01*
X159606666Y-95701476D01*
X159697142Y-95377666D01*
X159878095Y-95215761D01*
X160149523Y-95215761D01*
X160330476Y-95053857D01*
X160420952Y-94730047D01*
X160420952Y-94568142D01*
X160330476Y-94244333D01*
X160149523Y-94082428D01*
X159878095Y-94082428D01*
X159697142Y-94244333D01*
X158792380Y-96349095D02*
X158792380Y-94082428D01*
X158792380Y-92949095D02*
X158882857Y-93111000D01*
X158792380Y-93272904D01*
X158701904Y-93111000D01*
X158792380Y-92949095D01*
X158792380Y-93272904D01*
X157978095Y-96187190D02*
X157797142Y-96349095D01*
X157435238Y-96349095D01*
X157254285Y-96187190D01*
X157163809Y-95863380D01*
X157163809Y-95701476D01*
X157254285Y-95377666D01*
X157435238Y-95215761D01*
X157706666Y-95215761D01*
X157887619Y-95053857D01*
X157978095Y-94730047D01*
X157978095Y-94568142D01*
X157887619Y-94244333D01*
X157706666Y-94082428D01*
X157435238Y-94082428D01*
X157254285Y-94244333D01*
X156349523Y-96025285D02*
X156259047Y-96187190D01*
X156349523Y-96349095D01*
X156440000Y-96187190D01*
X156349523Y-96025285D01*
X156349523Y-96349095D01*
X155173333Y-96349095D02*
X155354285Y-96187190D01*
X155444761Y-95863380D01*
X155444761Y-92949095D01*
X154449523Y-96349095D02*
X154449523Y-94082428D01*
X154449523Y-92949095D02*
X154540000Y-93111000D01*
X154449523Y-93272904D01*
X154359047Y-93111000D01*
X154449523Y-92949095D01*
X154449523Y-93272904D01*
X153725714Y-94082428D02*
X153273333Y-96349095D01*
X152820952Y-94082428D01*
X151373333Y-96187190D02*
X151554285Y-96349095D01*
X151916190Y-96349095D01*
X152097142Y-96187190D01*
X152187619Y-95863380D01*
X152187619Y-94568142D01*
X152097142Y-94244333D01*
X151916190Y-94082428D01*
X151554285Y-94082428D01*
X151373333Y-94244333D01*
X151282857Y-94568142D01*
X151282857Y-94891952D01*
X152187619Y-95215761D01*
D11*
X130533333Y-57139785D02*
X130433333Y-57182642D01*
X130266666Y-57182642D01*
X130200000Y-57139785D01*
X130166666Y-57096928D01*
X130133333Y-57011214D01*
X130133333Y-56925500D01*
X130166666Y-56839785D01*
X130200000Y-56796928D01*
X130266666Y-56754071D01*
X130400000Y-56711214D01*
X130466666Y-56668357D01*
X130500000Y-56625500D01*
X130533333Y-56539785D01*
X130533333Y-56454071D01*
X130500000Y-56368357D01*
X130466666Y-56325500D01*
X130400000Y-56282642D01*
X130233333Y-56282642D01*
X130133333Y-56325500D01*
X129833333Y-57182642D02*
X129833333Y-56282642D01*
X129600000Y-56925500D01*
X129366666Y-56282642D01*
X129366666Y-57182642D01*
X129033333Y-57182642D02*
X129033333Y-56282642D01*
X128866666Y-56282642D01*
X128766666Y-56325500D01*
X128700000Y-56411214D01*
X128666666Y-56496928D01*
X128633333Y-56668357D01*
X128633333Y-56796928D01*
X128666666Y-56968357D01*
X128700000Y-57054071D01*
X128766666Y-57139785D01*
X128866666Y-57182642D01*
X129033333Y-57182642D01*
X128400000Y-56282642D02*
X127966666Y-56282642D01*
X128200000Y-56625500D01*
X128100000Y-56625500D01*
X128033333Y-56668357D01*
X128000000Y-56711214D01*
X127966666Y-56796928D01*
X127966666Y-57011214D01*
X128000000Y-57096928D01*
X128033333Y-57139785D01*
X128100000Y-57182642D01*
X128300000Y-57182642D01*
X128366666Y-57139785D01*
X128400000Y-57096928D01*
X127533333Y-56282642D02*
X127466666Y-56282642D01*
X127400000Y-56325500D01*
X127366666Y-56368357D01*
X127333333Y-56454071D01*
X127300000Y-56625500D01*
X127300000Y-56839785D01*
X127333333Y-57011214D01*
X127366666Y-57096928D01*
X127400000Y-57139785D01*
X127466666Y-57182642D01*
X127533333Y-57182642D01*
X127600000Y-57139785D01*
X127633333Y-57096928D01*
X127666666Y-57011214D01*
X127700000Y-56839785D01*
X127700000Y-56625500D01*
X127666666Y-56454071D01*
X127633333Y-56368357D01*
X127600000Y-56325500D01*
X127533333Y-56282642D01*
X127066666Y-56282642D02*
X126633333Y-56282642D01*
X126866666Y-56625500D01*
X126766666Y-56625500D01*
X126700000Y-56668357D01*
X126666666Y-56711214D01*
X126633333Y-56796928D01*
X126633333Y-57011214D01*
X126666666Y-57096928D01*
X126700000Y-57139785D01*
X126766666Y-57182642D01*
X126966666Y-57182642D01*
X127033333Y-57139785D01*
X127066666Y-57096928D01*
X126200000Y-56282642D02*
X126133333Y-56282642D01*
X126066666Y-56325500D01*
X126033333Y-56368357D01*
X126000000Y-56454071D01*
X125966666Y-56625500D01*
X125966666Y-56839785D01*
X126000000Y-57011214D01*
X126033333Y-57096928D01*
X126066666Y-57139785D01*
X126133333Y-57182642D01*
X126200000Y-57182642D01*
X126266666Y-57139785D01*
X126300000Y-57096928D01*
X126333333Y-57011214D01*
X126366666Y-56839785D01*
X126366666Y-56625500D01*
X126333333Y-56454071D01*
X126300000Y-56368357D01*
X126266666Y-56325500D01*
X126200000Y-56282642D01*
X129033333Y-58631642D02*
X129366666Y-58631642D01*
X129366666Y-57731642D01*
X128800000Y-58160214D02*
X128566666Y-58160214D01*
X128466666Y-58631642D02*
X128800000Y-58631642D01*
X128800000Y-57731642D01*
X128466666Y-57731642D01*
X128166666Y-58631642D02*
X128166666Y-57731642D01*
X128000000Y-57731642D01*
X127900000Y-57774500D01*
X127833333Y-57860214D01*
X127800000Y-57945928D01*
X127766666Y-58117357D01*
X127766666Y-58245928D01*
X127800000Y-58417357D01*
X127833333Y-58503071D01*
X127900000Y-58588785D01*
X128000000Y-58631642D01*
X128166666Y-58631642D01*
X127500000Y-58588785D02*
X127400000Y-58631642D01*
X127233333Y-58631642D01*
X127166666Y-58588785D01*
X127133333Y-58545928D01*
X127100000Y-58460214D01*
X127100000Y-58374500D01*
X127133333Y-58288785D01*
X127166666Y-58245928D01*
X127233333Y-58203071D01*
X127366666Y-58160214D01*
X127433333Y-58117357D01*
X127466666Y-58074500D01*
X127500000Y-57988785D01*
X127500000Y-57903071D01*
X127466666Y-57817357D01*
X127433333Y-57774500D01*
X127366666Y-57731642D01*
X127200000Y-57731642D01*
X127100000Y-57774500D01*
%TO.C,D3*%
X124016666Y-55407142D02*
X124016666Y-54507142D01*
X123850000Y-54507142D01*
X123750000Y-54550000D01*
X123683333Y-54635714D01*
X123650000Y-54721428D01*
X123616666Y-54892857D01*
X123616666Y-55021428D01*
X123650000Y-55192857D01*
X123683333Y-55278571D01*
X123750000Y-55364285D01*
X123850000Y-55407142D01*
X124016666Y-55407142D01*
X123383333Y-54507142D02*
X122950000Y-54507142D01*
X123183333Y-54850000D01*
X123083333Y-54850000D01*
X123016666Y-54892857D01*
X122983333Y-54935714D01*
X122950000Y-55021428D01*
X122950000Y-55235714D01*
X122983333Y-55321428D01*
X123016666Y-55364285D01*
X123083333Y-55407142D01*
X123283333Y-55407142D01*
X123350000Y-55364285D01*
X123383333Y-55321428D01*
%TO.C,D1*%
X124016666Y-71157142D02*
X124016666Y-70257142D01*
X123850000Y-70257142D01*
X123750000Y-70300000D01*
X123683333Y-70385714D01*
X123650000Y-70471428D01*
X123616666Y-70642857D01*
X123616666Y-70771428D01*
X123650000Y-70942857D01*
X123683333Y-71028571D01*
X123750000Y-71114285D01*
X123850000Y-71157142D01*
X124016666Y-71157142D01*
X122950000Y-71157142D02*
X123350000Y-71157142D01*
X123150000Y-71157142D02*
X123150000Y-70257142D01*
X123216666Y-70385714D01*
X123283333Y-70471428D01*
X123350000Y-70514285D01*
%TO.C,D2*%
X129266666Y-60339642D02*
X129266666Y-59439642D01*
X129100000Y-59439642D01*
X129000000Y-59482500D01*
X128933333Y-59568214D01*
X128900000Y-59653928D01*
X128866666Y-59825357D01*
X128866666Y-59953928D01*
X128900000Y-60125357D01*
X128933333Y-60211071D01*
X129000000Y-60296785D01*
X129100000Y-60339642D01*
X129266666Y-60339642D01*
X128600000Y-59525357D02*
X128566666Y-59482500D01*
X128500000Y-59439642D01*
X128333333Y-59439642D01*
X128266666Y-59482500D01*
X128233333Y-59525357D01*
X128200000Y-59611071D01*
X128200000Y-59696785D01*
X128233333Y-59825357D01*
X128633333Y-60339642D01*
X128200000Y-60339642D01*
%TO.C,G\u002A\u002A\u002A*%
G36*
X185017850Y-76683600D02*
G01*
X185133749Y-76708486D01*
X185251158Y-76753907D01*
X185297357Y-76780931D01*
X185406042Y-76880408D01*
X185502393Y-77016624D01*
X185579749Y-77176838D01*
X185631449Y-77348310D01*
X185650831Y-77518300D01*
X185642334Y-77611300D01*
X185612870Y-77752706D01*
X185566176Y-77918962D01*
X185506263Y-78097253D01*
X185437140Y-78274765D01*
X185362816Y-78438685D01*
X185328252Y-78504859D01*
X185185833Y-78731259D01*
X185006281Y-78964694D01*
X184799266Y-79195562D01*
X184574461Y-79414256D01*
X184341539Y-79611171D01*
X184110172Y-79776701D01*
X183890033Y-79901243D01*
X183835965Y-79925741D01*
X183713711Y-79976464D01*
X183572403Y-80030988D01*
X183432933Y-80081091D01*
X183344201Y-80110880D01*
X183229068Y-80145260D01*
X183137128Y-80164261D01*
X183051228Y-80171022D01*
X182954215Y-80168682D01*
X182895529Y-80163792D01*
X182700357Y-80122324D01*
X182523277Y-80047087D01*
X182373178Y-79943810D01*
X182258952Y-79818218D01*
X182189489Y-79676040D01*
X182177902Y-79635104D01*
X182152153Y-79503285D01*
X182156995Y-79410852D01*
X182192472Y-79352998D01*
X182215614Y-79336913D01*
X182281332Y-79295780D01*
X182376480Y-79238424D01*
X182490453Y-79171051D01*
X182612646Y-79099872D01*
X182732453Y-79031096D01*
X182839269Y-78970932D01*
X182922489Y-78925590D01*
X182930573Y-78921453D01*
X182982591Y-78904429D01*
X183032908Y-78911739D01*
X183089838Y-78948483D01*
X183161694Y-79019760D01*
X183256789Y-79130670D01*
X183322506Y-79208769D01*
X183397615Y-79287989D01*
X183458806Y-79330193D01*
X183517428Y-79339289D01*
X183584831Y-79319187D01*
X183672362Y-79273794D01*
X183915434Y-79122446D01*
X184214876Y-78883342D01*
X184472067Y-78609483D01*
X184686908Y-78300966D01*
X184729288Y-78228283D01*
X184781365Y-78134380D01*
X184816840Y-78064493D01*
X184829733Y-78029965D01*
X184827969Y-78017049D01*
X184810630Y-77981620D01*
X184769543Y-77933540D01*
X184698228Y-77865816D01*
X184590203Y-77771452D01*
X184579951Y-77762659D01*
X184477581Y-77671096D01*
X184413691Y-77602464D01*
X184383149Y-77547897D01*
X184380825Y-77498528D01*
X184401587Y-77445490D01*
X184429847Y-77393204D01*
X184486799Y-77291253D01*
X184554234Y-77173261D01*
X184625922Y-77049847D01*
X184695631Y-76931631D01*
X184757131Y-76829232D01*
X184804191Y-76753269D01*
X184830579Y-76714361D01*
X184846582Y-76700704D01*
X184917461Y-76680568D01*
X185017850Y-76683600D01*
G37*
G36*
X184114600Y-87543830D02*
G01*
X184351078Y-87583575D01*
X184580722Y-87653029D01*
X184800000Y-87752485D01*
X185006225Y-87881740D01*
X185196973Y-88038902D01*
X185367213Y-88219672D01*
X185513909Y-88420822D01*
X185634026Y-88639126D01*
X185680464Y-88747127D01*
X185754304Y-88978896D01*
X185797525Y-89217023D01*
X185810483Y-89458043D01*
X185793534Y-89698493D01*
X185747034Y-89934908D01*
X185671340Y-90163824D01*
X185566809Y-90381778D01*
X185433796Y-90585303D01*
X185332519Y-90706879D01*
X185176334Y-90860089D01*
X185002246Y-90998787D01*
X184818124Y-91116863D01*
X184631833Y-91208206D01*
X184601246Y-91220498D01*
X184529548Y-91245313D01*
X184477466Y-91254613D01*
X184438005Y-91249044D01*
X184404167Y-91229252D01*
X184397687Y-91219264D01*
X184389550Y-91181523D01*
X184384847Y-91115523D01*
X184383334Y-91018792D01*
X184383334Y-90825000D01*
X184579167Y-90825000D01*
X184618341Y-90824725D01*
X184727141Y-90818885D01*
X184811793Y-90802448D01*
X184878983Y-90771471D01*
X184935400Y-90722015D01*
X184987732Y-90650139D01*
X185042667Y-90551903D01*
X185084386Y-90477557D01*
X185132024Y-90410238D01*
X185190319Y-90347185D01*
X185268166Y-90277576D01*
X185288163Y-90260438D01*
X185310021Y-90237631D01*
X185310411Y-90222644D01*
X185292312Y-90206743D01*
X185256791Y-90189540D01*
X185190580Y-90187599D01*
X185108334Y-90214427D01*
X185074597Y-90232654D01*
X185035959Y-90261740D01*
X184992032Y-90304345D01*
X184938159Y-90365031D01*
X184869685Y-90448362D01*
X184850969Y-90469612D01*
X184799637Y-90516486D01*
X184749516Y-90550247D01*
X184700228Y-90568398D01*
X184614318Y-90581917D01*
X184521006Y-90580936D01*
X184433781Y-90564831D01*
X184417272Y-90559539D01*
X184385708Y-90543120D01*
X184366670Y-90515275D01*
X184351251Y-90465261D01*
X184344099Y-90440905D01*
X184321352Y-90383782D01*
X184296670Y-90341218D01*
X184293931Y-90337694D01*
X184273846Y-90308209D01*
X184268934Y-90293534D01*
X184272612Y-90292159D01*
X184301461Y-90285148D01*
X184352039Y-90274413D01*
X184416449Y-90261661D01*
X184529253Y-90233596D01*
X184680887Y-90172707D01*
X184812986Y-90090440D01*
X184922038Y-89989126D01*
X185004531Y-89871098D01*
X185032263Y-89813376D01*
X185077562Y-89678972D01*
X185106438Y-89529781D01*
X185116469Y-89376500D01*
X185109567Y-89240858D01*
X185084625Y-89110187D01*
X185039382Y-88994637D01*
X184971646Y-88886793D01*
X184962201Y-88874000D01*
X184945104Y-88846087D01*
X184938406Y-88818165D01*
X184940754Y-88779330D01*
X184950797Y-88718675D01*
X184960061Y-88654732D01*
X184961901Y-88577281D01*
X184951178Y-88491407D01*
X184944664Y-88454866D01*
X184930238Y-88388044D01*
X184913923Y-88346577D01*
X184891208Y-88325047D01*
X184857579Y-88318036D01*
X184808523Y-88320125D01*
X184774880Y-88325793D01*
X184705192Y-88346101D01*
X184623743Y-88376593D01*
X184540777Y-88412985D01*
X184466536Y-88450990D01*
X184411265Y-88486324D01*
X184405269Y-88490560D01*
X184384759Y-88498799D01*
X184354849Y-88499839D01*
X184307898Y-88493363D01*
X184236265Y-88479053D01*
X184183267Y-88468811D01*
X184115389Y-88459527D01*
X184041981Y-88454698D01*
X183953816Y-88453790D01*
X183841667Y-88456271D01*
X183823617Y-88456888D01*
X183723358Y-88462036D01*
X183631788Y-88469456D01*
X183557122Y-88478367D01*
X183507575Y-88487990D01*
X183423482Y-88511851D01*
X183304661Y-88442195D01*
X183276805Y-88426273D01*
X183154248Y-88366464D01*
X183043354Y-88329387D01*
X182948732Y-88316666D01*
X182913116Y-88318055D01*
X182890278Y-88327590D01*
X182874997Y-88353254D01*
X182858980Y-88403025D01*
X182856845Y-88410569D01*
X182843401Y-88480791D01*
X182835700Y-88563605D01*
X182834019Y-88647706D01*
X182838637Y-88721792D01*
X182849833Y-88774559D01*
X182854395Y-88788816D01*
X182855147Y-88817111D01*
X182841173Y-88851145D01*
X182809258Y-88900928D01*
X182768604Y-88963934D01*
X182724210Y-89051374D01*
X182696090Y-89140897D01*
X182681375Y-89242621D01*
X182677194Y-89366666D01*
X182677230Y-89377754D01*
X182683687Y-89523905D01*
X182702673Y-89648387D01*
X182736221Y-89760571D01*
X182786364Y-89869828D01*
X182821749Y-89927013D01*
X182904183Y-90024797D01*
X183003482Y-90110634D01*
X183109264Y-90174717D01*
X183140192Y-90188234D01*
X183212205Y-90214865D01*
X183293534Y-90240542D01*
X183374109Y-90262414D01*
X183443864Y-90277628D01*
X183492730Y-90283333D01*
X183501727Y-90283423D01*
X183516237Y-90286594D01*
X183517740Y-90299228D01*
X183505195Y-90327896D01*
X183477564Y-90379166D01*
X183425000Y-90475000D01*
X183419685Y-90846202D01*
X183414369Y-91217404D01*
X183373541Y-91244155D01*
X183370829Y-91245919D01*
X183346797Y-91258524D01*
X183321816Y-91261184D01*
X183285848Y-91253180D01*
X183228857Y-91233793D01*
X183090267Y-91176897D01*
X182885806Y-91063794D01*
X182690764Y-90919126D01*
X182504628Y-90742546D01*
X182392114Y-90612004D01*
X182254070Y-90410810D01*
X182144545Y-90196619D01*
X182063760Y-89972302D01*
X182011934Y-89740728D01*
X181989289Y-89504768D01*
X181996045Y-89267291D01*
X182032423Y-89031168D01*
X182098642Y-88799268D01*
X182194925Y-88574462D01*
X182321491Y-88359620D01*
X182336931Y-88337702D01*
X182402160Y-88255158D01*
X182482818Y-88163784D01*
X182570503Y-88072441D01*
X182656809Y-87989994D01*
X182733334Y-87925303D01*
X182749968Y-87912682D01*
X182953293Y-87780382D01*
X183170973Y-87676019D01*
X183399474Y-87599886D01*
X183635267Y-87552281D01*
X183874819Y-87533497D01*
X184114600Y-87543830D01*
G37*
%TO.C,D3*%
X125795000Y-58220000D02*
X125795000Y-58620000D01*
X125805000Y-58650000D02*
X125425000Y-59240000D01*
X125245000Y-58620000D02*
X126345000Y-58620000D01*
X125425000Y-59240000D02*
X126185000Y-59240000D01*
X125795000Y-59720000D02*
X125795000Y-59240000D01*
X126195000Y-59220000D02*
X125805000Y-58650000D01*
D12*
X125850000Y-57450000D02*
G75*
G03*
X125850000Y-57450000I-100000J0D01*
G01*
%TO.C,G\u002A\u002A\u002A*%
G36*
X107896627Y-50804180D02*
G01*
X107514742Y-50804180D01*
X107514742Y-50040410D01*
X107896627Y-50040410D01*
X107896627Y-50804180D01*
G37*
G36*
X105977888Y-59242904D02*
G01*
X105596003Y-59242904D01*
X105596003Y-58861019D01*
X105977888Y-58861019D01*
X105977888Y-59242904D01*
G37*
G36*
X104450349Y-53877887D02*
G01*
X104068464Y-53877887D01*
X104068464Y-54259772D01*
X103677265Y-54259772D01*
X103677265Y-53486688D01*
X104068464Y-53486688D01*
X104068464Y-53104803D01*
X104450349Y-53104803D01*
X104450349Y-53877887D01*
G37*
G36*
X107132857Y-50422295D02*
G01*
X106750972Y-50422295D01*
X106750972Y-50040410D01*
X107132857Y-50040410D01*
X107132857Y-50422295D01*
G37*
G36*
X108669711Y-50804180D02*
G01*
X108278512Y-50804180D01*
X108278512Y-50422295D01*
X108669711Y-50422295D01*
X108669711Y-50804180D01*
G37*
G36*
X102913495Y-53486688D02*
G01*
X102531610Y-53486688D01*
X102531610Y-53104803D01*
X102913495Y-53104803D01*
X102913495Y-53486688D01*
G37*
G36*
X106369087Y-52722919D02*
G01*
X105977888Y-52722919D01*
X105977888Y-52341034D01*
X106369087Y-52341034D01*
X106369087Y-52722919D01*
G37*
G36*
X109042281Y-59615475D02*
G01*
X109042281Y-59233590D01*
X109424166Y-59233590D01*
X111333590Y-59233590D01*
X111333590Y-57324165D01*
X109424166Y-57324165D01*
X109424166Y-59233590D01*
X109042281Y-59233590D01*
X109042281Y-56942281D01*
X111715475Y-56942281D01*
X111715475Y-59615475D01*
X109042281Y-59615475D01*
G37*
G36*
X103677265Y-53486688D02*
G01*
X103295380Y-53486688D01*
X103295380Y-53104803D01*
X103677265Y-53104803D01*
X103677265Y-53486688D01*
G37*
G36*
X107514742Y-59624789D02*
G01*
X107514742Y-59242904D01*
X106750972Y-59242904D01*
X106750972Y-58861019D01*
X107514742Y-58861019D01*
X107896627Y-58861019D01*
X107896627Y-59242904D01*
X108278512Y-59242904D01*
X108278512Y-58861019D01*
X107896627Y-58861019D01*
X107896627Y-58087935D01*
X107514742Y-58087935D01*
X107514742Y-58861019D01*
X106750972Y-58861019D01*
X105977888Y-58861019D01*
X105977888Y-58479134D01*
X107132857Y-58479134D01*
X107132857Y-58087935D01*
X107514742Y-58087935D01*
X107514742Y-57706050D01*
X107896627Y-57706050D01*
X107896627Y-57324165D01*
X108278512Y-57324165D01*
X108278512Y-57706050D01*
X108669711Y-57706050D01*
X108669711Y-59624789D01*
X107514742Y-59624789D01*
G37*
G36*
X104068464Y-51968605D02*
G01*
X103493308Y-51966206D01*
X102918152Y-51963806D01*
X102918152Y-50818151D01*
X103493308Y-50815752D01*
X104068464Y-50813352D01*
X104068464Y-51968605D01*
G37*
G36*
X102531610Y-53877887D02*
G01*
X102149725Y-53877887D01*
X102149725Y-53486688D01*
X102531610Y-53486688D01*
X102531610Y-53877887D01*
G37*
G36*
X103295380Y-54259772D02*
G01*
X102913495Y-54259772D01*
X102913495Y-53877887D01*
X103295380Y-53877887D01*
X103295380Y-54259772D01*
G37*
G36*
X110958778Y-51381665D02*
G01*
X110958786Y-51383376D01*
X110959143Y-51484261D01*
X110959339Y-51579700D01*
X110959381Y-51668047D01*
X110959274Y-51747652D01*
X110959024Y-51816869D01*
X110958638Y-51874050D01*
X110958120Y-51917545D01*
X110957477Y-51945709D01*
X110956715Y-51956892D01*
X110955995Y-51957771D01*
X110949044Y-51960126D01*
X110933988Y-51962094D01*
X110909658Y-51963695D01*
X110874885Y-51964947D01*
X110828500Y-51965870D01*
X110769334Y-51966483D01*
X110696217Y-51966804D01*
X110607981Y-51966852D01*
X110503455Y-51966647D01*
X110381472Y-51966206D01*
X109810708Y-51963806D01*
X109810708Y-50818151D01*
X110956363Y-50818151D01*
X110958778Y-51381665D01*
G37*
G36*
X106369087Y-50422295D02*
G01*
X106750972Y-50422295D01*
X106750972Y-50804180D01*
X106369087Y-50804180D01*
X106369087Y-51186065D01*
X105977888Y-51186065D01*
X105977888Y-51577264D01*
X106369087Y-51577264D01*
X106369087Y-51959149D01*
X105977888Y-51959149D01*
X105977888Y-51577264D01*
X105214118Y-51577264D01*
X105214118Y-50804180D01*
X105596003Y-50804180D01*
X105596003Y-51186065D01*
X105977888Y-51186065D01*
X105977888Y-50422295D01*
X105596003Y-50422295D01*
X105596003Y-50040410D01*
X106369087Y-50040410D01*
X106369087Y-50422295D01*
G37*
G36*
X106750972Y-50804180D02*
G01*
X107132857Y-50804180D01*
X107132857Y-51577264D01*
X106369087Y-51577264D01*
X106369087Y-51186065D01*
X106750972Y-51186065D01*
X106750972Y-50804180D01*
G37*
G36*
X105596003Y-59624789D02*
G01*
X105214118Y-59624789D01*
X105214118Y-59242904D01*
X105596003Y-59242904D01*
X105596003Y-59624789D01*
G37*
G36*
X106369087Y-59624789D02*
G01*
X105977888Y-59624789D01*
X105977888Y-59242904D01*
X106369087Y-59242904D01*
X106369087Y-59624789D01*
G37*
G36*
X102913495Y-58479134D02*
G01*
X102531610Y-58479134D01*
X102531610Y-58861019D01*
X102913495Y-58861019D01*
X102913495Y-59242904D01*
X103295380Y-59242904D01*
X103295380Y-59624789D01*
X102149725Y-59624789D01*
X102149725Y-59242904D01*
X102531610Y-59242904D01*
X102531610Y-58861019D01*
X102149725Y-58861019D01*
X102149725Y-58087935D01*
X102913495Y-58087935D01*
X102913495Y-58479134D01*
G37*
G36*
X107132857Y-52341034D02*
G01*
X107132857Y-52722919D01*
X106750972Y-52722919D01*
X106750972Y-53486688D01*
X105977888Y-53486688D01*
X105977888Y-53877887D01*
X106750972Y-53877887D01*
X106750972Y-54259772D01*
X107132857Y-54259772D01*
X107132857Y-55023542D01*
X106750972Y-55023542D01*
X106750972Y-54641657D01*
X106369087Y-54641657D01*
X106369087Y-54259772D01*
X105596003Y-54259772D01*
X105596003Y-54641657D01*
X106369087Y-54641657D01*
X106369087Y-55023542D01*
X105977888Y-55023542D01*
X105977888Y-55405427D01*
X107514742Y-55405427D01*
X107514742Y-56560396D01*
X107132857Y-56560396D01*
X107132857Y-57706050D01*
X106750972Y-57706050D01*
X106750972Y-57324165D01*
X106369087Y-57324165D01*
X106369087Y-57706050D01*
X106750972Y-57706050D01*
X106750972Y-58087935D01*
X105977888Y-58087935D01*
X105977888Y-57324165D01*
X105596003Y-57324165D01*
X105596003Y-58087935D01*
X105977888Y-58087935D01*
X105977888Y-58479134D01*
X105214118Y-58479134D01*
X105214118Y-58087935D01*
X104068464Y-58087935D01*
X104068464Y-58861019D01*
X104450349Y-58861019D01*
X104450349Y-58479134D01*
X105214118Y-58479134D01*
X105214118Y-59242904D01*
X103295380Y-59242904D01*
X103295380Y-58861019D01*
X102913495Y-58861019D01*
X102913495Y-58479134D01*
X103295380Y-58479134D01*
X103295380Y-58861019D01*
X103677265Y-58861019D01*
X103677265Y-58087935D01*
X103295380Y-58087935D01*
X103295380Y-57706050D01*
X104068464Y-57706050D01*
X105214118Y-57706050D01*
X105214118Y-56560396D01*
X104068464Y-56560396D01*
X104068464Y-57706050D01*
X103295380Y-57706050D01*
X103295380Y-57324165D01*
X103677265Y-57324165D01*
X103677265Y-56560396D01*
X103295380Y-56560396D01*
X103295380Y-56178511D01*
X104832234Y-56178511D01*
X104832234Y-55787312D01*
X105214118Y-55787312D01*
X105596003Y-55787312D01*
X105596003Y-56178511D01*
X105977888Y-56178511D01*
X105977888Y-56560396D01*
X106369087Y-56560396D01*
X106369087Y-56942281D01*
X106750972Y-56942281D01*
X106750972Y-56178511D01*
X107132857Y-56178511D01*
X107132857Y-55787312D01*
X106750972Y-55787312D01*
X106750972Y-56178511D01*
X106369087Y-56178511D01*
X106369087Y-55787312D01*
X105596003Y-55787312D01*
X105596003Y-55405427D01*
X105214118Y-55405427D01*
X105214118Y-55787312D01*
X104832234Y-55787312D01*
X104450349Y-55787312D01*
X104450349Y-55405427D01*
X104832234Y-55405427D01*
X104832234Y-55023542D01*
X105214118Y-55023542D01*
X105214118Y-54641657D01*
X104832234Y-54641657D01*
X104832234Y-55023542D01*
X104450349Y-55023542D01*
X104450349Y-55405427D01*
X104068464Y-55405427D01*
X104068464Y-55787312D01*
X103677265Y-55787312D01*
X103677265Y-55023542D01*
X103295380Y-55023542D01*
X103295380Y-54641657D01*
X104832234Y-54641657D01*
X104832234Y-54259772D01*
X104450349Y-54259772D01*
X104450349Y-53877887D01*
X104832234Y-53877887D01*
X105214118Y-53877887D01*
X105596003Y-53877887D01*
X105596003Y-53104803D01*
X105214118Y-53104803D01*
X105214118Y-53877887D01*
X104832234Y-53877887D01*
X104832234Y-53104803D01*
X105214118Y-53104803D01*
X105214118Y-51959149D01*
X105977888Y-51959149D01*
X105977888Y-52341034D01*
X105596003Y-52341034D01*
X105596003Y-53104803D01*
X106369087Y-53104803D01*
X106369087Y-52722919D01*
X106750972Y-52722919D01*
X106750972Y-52341034D01*
X106369087Y-52341034D01*
X106369087Y-51959149D01*
X107514742Y-51959149D01*
X107514742Y-52341034D01*
X107896627Y-52341034D01*
X107896627Y-51577264D01*
X107514742Y-51577264D01*
X107514742Y-51186065D01*
X108669711Y-51186065D01*
X108669711Y-51577264D01*
X108278512Y-51577264D01*
X108278512Y-51959149D01*
X108669711Y-51959149D01*
X108669711Y-52722919D01*
X108278512Y-52722919D01*
X108278512Y-52341034D01*
X107896627Y-52341034D01*
X107896627Y-52722919D01*
X108278512Y-52722919D01*
X108278512Y-53104803D01*
X109433480Y-53104803D01*
X109433480Y-53486688D01*
X107896627Y-53486688D01*
X107896627Y-53104803D01*
X107514742Y-53104803D01*
X107514742Y-53486688D01*
X107896627Y-53486688D01*
X107896627Y-54259772D01*
X107514742Y-54259772D01*
X107514742Y-53486688D01*
X107132857Y-53486688D01*
X107132857Y-52722919D01*
X107514742Y-52722919D01*
X107514742Y-52341034D01*
X107132857Y-52341034D01*
G37*
G36*
X107132857Y-53486688D02*
G01*
X107132857Y-53877887D01*
X106750972Y-53877887D01*
X106750972Y-53486688D01*
X107132857Y-53486688D01*
G37*
G36*
X102913495Y-55405427D02*
G01*
X103295380Y-55405427D01*
X103295380Y-55787312D01*
X102913495Y-55787312D01*
X102913495Y-56178511D01*
X102531610Y-56178511D01*
X102531610Y-56942281D01*
X103295380Y-56942281D01*
X103295380Y-57324165D01*
X102149725Y-57324165D01*
X102149725Y-55405427D01*
X102531610Y-55405427D01*
X102531610Y-55023542D01*
X102149725Y-55023542D01*
X102149725Y-54641657D01*
X102913495Y-54641657D01*
X102913495Y-55405427D01*
G37*
G36*
X107896627Y-57324165D02*
G01*
X107514742Y-57324165D01*
X107514742Y-56942281D01*
X107896627Y-56942281D01*
X107896627Y-57324165D01*
G37*
G36*
X110961020Y-58272668D02*
G01*
X110961019Y-58277957D01*
X110960910Y-58378760D01*
X110960615Y-58473912D01*
X110960150Y-58561792D01*
X110959535Y-58640776D01*
X110958787Y-58709244D01*
X110957922Y-58765571D01*
X110956960Y-58808137D01*
X110955917Y-58835320D01*
X110954810Y-58845495D01*
X110954638Y-58845595D01*
X110942895Y-58846692D01*
X110914283Y-58847725D01*
X110870415Y-58848677D01*
X110812908Y-58849530D01*
X110743378Y-58850266D01*
X110663439Y-58850870D01*
X110574707Y-58851322D01*
X110478797Y-58851606D01*
X110377326Y-58851705D01*
X109806051Y-58851705D01*
X109806051Y-57706050D01*
X110961020Y-57706050D01*
X110961020Y-58272668D01*
G37*
G36*
X108669711Y-54641657D02*
G01*
X108278512Y-54641657D01*
X108278512Y-54259772D01*
X108669711Y-54259772D01*
X108669711Y-54641657D01*
G37*
G36*
X109042281Y-52732233D02*
G01*
X109042281Y-52350348D01*
X109424166Y-52350348D01*
X111333678Y-52350348D01*
X111331306Y-51393307D01*
X111328933Y-50436267D01*
X110376550Y-50433894D01*
X109424166Y-50431522D01*
X109424166Y-52350348D01*
X109042281Y-52350348D01*
X109042281Y-50049661D01*
X110376550Y-50052022D01*
X111710818Y-50054382D01*
X111713178Y-51393307D01*
X111714865Y-52350348D01*
X111715538Y-52732233D01*
X109042281Y-52732233D01*
G37*
G36*
X110197250Y-54641657D02*
G01*
X110579135Y-54641657D01*
X110579135Y-55405427D01*
X110970334Y-55405427D01*
X110970334Y-55023542D01*
X111352219Y-55023542D01*
X111352219Y-54259772D01*
X110970334Y-54259772D01*
X110970334Y-53877887D01*
X111352219Y-53877887D01*
X111352219Y-54259772D01*
X111734104Y-54259772D01*
X111734104Y-56560396D01*
X111352219Y-56560396D01*
X111352219Y-55405427D01*
X110970334Y-55405427D01*
X110970334Y-55787312D01*
X110579135Y-55787312D01*
X110579135Y-56178511D01*
X110197250Y-56178511D01*
X110197250Y-56560396D01*
X109815365Y-56560396D01*
X109815365Y-56178511D01*
X109433480Y-56178511D01*
X109433480Y-55787312D01*
X109051595Y-55787312D01*
X109051595Y-56178511D01*
X109433480Y-56178511D01*
X109433480Y-56560396D01*
X108669711Y-56560396D01*
X108669711Y-57324165D01*
X108278512Y-57324165D01*
X108278512Y-56942281D01*
X107896627Y-56942281D01*
X107896627Y-56560396D01*
X108278512Y-56560396D01*
X108278512Y-56178511D01*
X107896627Y-56178511D01*
X107896627Y-55405427D01*
X108278512Y-55405427D01*
X108278512Y-55023542D01*
X108669711Y-55023542D01*
X108669711Y-55787312D01*
X109051595Y-55787312D01*
X109051595Y-55405427D01*
X109815365Y-55405427D01*
X109815365Y-55023542D01*
X109051595Y-55023542D01*
X109051595Y-54641657D01*
X109433480Y-54641657D01*
X109433480Y-54259772D01*
X109051595Y-54259772D01*
X109051595Y-53877887D01*
X110197250Y-53877887D01*
X110197250Y-53486688D01*
X109815365Y-53486688D01*
X109815365Y-53104803D01*
X111734104Y-53104803D01*
X111734104Y-53486688D01*
X110970334Y-53486688D01*
X110970334Y-53877887D01*
X110579135Y-53877887D01*
X110579135Y-54259772D01*
X110197250Y-54259772D01*
X110197250Y-54641657D01*
X109815365Y-54641657D01*
X109815365Y-55023542D01*
X110197250Y-55023542D01*
X110197250Y-54641657D01*
G37*
G36*
X104832234Y-57324165D02*
G01*
X104450349Y-57324165D01*
X104450349Y-56942281D01*
X104832234Y-56942281D01*
X104832234Y-57324165D01*
G37*
G36*
X108278512Y-55023542D02*
G01*
X107514742Y-55023542D01*
X107514742Y-54641657D01*
X108278512Y-54641657D01*
X108278512Y-55023542D01*
G37*
G36*
X110970334Y-56560396D02*
G01*
X110579135Y-56560396D01*
X110579135Y-56178511D01*
X110970334Y-56178511D01*
X110970334Y-56560396D01*
G37*
G36*
X104832234Y-52732233D02*
G01*
X102149725Y-52732233D01*
X102149725Y-52345691D01*
X102536267Y-52345691D01*
X103487055Y-52348063D01*
X103583602Y-52348272D01*
X103711393Y-52348446D01*
X103833006Y-52348495D01*
X103947197Y-52348426D01*
X104052720Y-52348242D01*
X104148330Y-52347949D01*
X104232782Y-52347552D01*
X104304831Y-52347056D01*
X104363232Y-52346466D01*
X104406740Y-52345787D01*
X104434109Y-52345024D01*
X104444095Y-52344182D01*
X104444718Y-52338863D01*
X104445559Y-52316316D01*
X104446359Y-52277278D01*
X104447109Y-52222998D01*
X104447802Y-52154721D01*
X104448428Y-52073694D01*
X104448981Y-51981164D01*
X104449452Y-51878378D01*
X104449832Y-51766582D01*
X104450114Y-51647023D01*
X104450289Y-51520948D01*
X104450349Y-51389604D01*
X104450349Y-50441279D01*
X104429392Y-50436215D01*
X104424031Y-50435784D01*
X104401066Y-50435149D01*
X104361546Y-50434594D01*
X104306754Y-50434121D01*
X104237970Y-50433734D01*
X104156476Y-50433436D01*
X104063553Y-50433231D01*
X103960483Y-50433121D01*
X103848546Y-50433111D01*
X103729024Y-50433203D01*
X103603199Y-50433401D01*
X103472351Y-50433709D01*
X102536267Y-50436267D01*
X102536267Y-52345691D01*
X102149725Y-52345691D01*
X102149725Y-50049725D01*
X103476246Y-50049725D01*
X103608873Y-50049753D01*
X103760593Y-50049856D01*
X103906409Y-50050030D01*
X104045263Y-50050272D01*
X104176092Y-50050575D01*
X104297837Y-50050937D01*
X104409437Y-50051352D01*
X104509831Y-50051816D01*
X104597960Y-50052325D01*
X104672762Y-50052873D01*
X104733178Y-50053457D01*
X104778147Y-50054072D01*
X104806607Y-50054714D01*
X104817500Y-50055378D01*
X104818895Y-50056449D01*
X104820804Y-50060372D01*
X104822524Y-50067870D01*
X104824065Y-50079829D01*
X104825435Y-50097134D01*
X104826646Y-50120671D01*
X104827706Y-50151325D01*
X104828625Y-50189981D01*
X104829414Y-50237526D01*
X104830081Y-50294845D01*
X104830636Y-50362823D01*
X104831090Y-50442345D01*
X104831452Y-50534298D01*
X104831731Y-50639566D01*
X104831938Y-50759035D01*
X104832082Y-50893591D01*
X104832173Y-51044119D01*
X104832220Y-51211504D01*
X104832233Y-51389604D01*
X104832234Y-51396632D01*
X104832234Y-52732233D01*
G37*
G36*
X185936696Y-94867720D02*
G01*
X185930630Y-95014851D01*
X185872119Y-95362172D01*
X185757341Y-95675893D01*
X185714600Y-95746702D01*
X185582208Y-95966039D01*
X185342633Y-96242633D01*
X185312121Y-96272692D01*
X185036567Y-96503182D01*
X184745882Y-96671474D01*
X184427701Y-96784896D01*
X184276337Y-96813604D01*
X184052000Y-96832961D01*
X183810524Y-96835025D01*
X183579992Y-96819739D01*
X183388485Y-96787043D01*
X183376090Y-96783841D01*
X183037298Y-96659813D01*
X182725623Y-96476384D01*
X182449208Y-96241696D01*
X182216196Y-95963893D01*
X182083240Y-95734728D01*
X182281717Y-95734728D01*
X182283386Y-95744465D01*
X182316593Y-95807991D01*
X182382615Y-95901344D01*
X182468556Y-96008253D01*
X182561522Y-96112448D01*
X182648618Y-96197660D01*
X182705545Y-96243624D01*
X182806543Y-96315506D01*
X182921326Y-96390120D01*
X183035558Y-96458922D01*
X183134901Y-96513372D01*
X183205020Y-96544924D01*
X183231579Y-96545038D01*
X183212980Y-96509389D01*
X183164040Y-96433016D01*
X183095381Y-96332519D01*
X183034373Y-96237171D01*
X182946698Y-96076173D01*
X182880012Y-95926386D01*
X182837900Y-95813778D01*
X183027682Y-95813778D01*
X183062120Y-95906023D01*
X183128120Y-96042070D01*
X183231251Y-96216553D01*
X183359747Y-96383112D01*
X183496753Y-96522185D01*
X183528619Y-96545038D01*
X183625607Y-96614595D01*
X183671191Y-96638027D01*
X183737548Y-96665000D01*
X183782225Y-96662868D01*
X183809107Y-96623386D01*
X183822083Y-96538311D01*
X183825040Y-96399399D01*
X183824105Y-96340181D01*
X183975701Y-96340181D01*
X183976328Y-96399399D01*
X183977444Y-96504836D01*
X183990002Y-96610037D01*
X184018079Y-96662360D01*
X184066381Y-96668378D01*
X184139611Y-96634666D01*
X184242475Y-96567798D01*
X184273995Y-96545670D01*
X184276107Y-96543837D01*
X184576708Y-96543837D01*
X184578280Y-96544689D01*
X184620310Y-96532062D01*
X184702886Y-96491105D01*
X184809857Y-96431182D01*
X184925072Y-96361662D01*
X185032381Y-96291910D01*
X185115632Y-96231294D01*
X185171535Y-96181505D01*
X185261472Y-96089117D01*
X185354200Y-95983695D01*
X185436634Y-95880987D01*
X185495690Y-95796740D01*
X185518283Y-95746702D01*
X185517431Y-95744106D01*
X185475708Y-95729184D01*
X185383694Y-95718664D01*
X185258721Y-95714681D01*
X184999160Y-95714681D01*
X184970178Y-95792179D01*
X184919988Y-95926386D01*
X184875637Y-96029941D01*
X184791742Y-96191812D01*
X184702847Y-96335048D01*
X184700313Y-96338669D01*
X184633678Y-96437894D01*
X184589315Y-96511517D01*
X184576708Y-96543837D01*
X184276107Y-96543837D01*
X184424942Y-96414655D01*
X184553112Y-96251431D01*
X184673833Y-96037144D01*
X184696424Y-95991622D01*
X184752897Y-95871552D01*
X184775724Y-95792179D01*
X184757561Y-95745536D01*
X184691068Y-95723658D01*
X184568904Y-95718576D01*
X184383726Y-95722324D01*
X183987950Y-95732272D01*
X183978134Y-96198407D01*
X183975701Y-96340181D01*
X183824105Y-96340181D01*
X183821866Y-96198407D01*
X183812050Y-95732272D01*
X183416274Y-95722324D01*
X183351660Y-95720693D01*
X183186794Y-95718794D01*
X183082713Y-95728271D01*
X183032111Y-95757230D01*
X183027682Y-95813778D01*
X182837900Y-95813778D01*
X182800840Y-95714681D01*
X182541278Y-95714681D01*
X182520279Y-95714747D01*
X182399302Y-95717968D01*
X182314003Y-95725075D01*
X182281717Y-95734728D01*
X182083240Y-95734728D01*
X182034731Y-95651118D01*
X181912957Y-95311515D01*
X181894752Y-95226436D01*
X181867930Y-94996529D01*
X181865005Y-94867720D01*
X182035457Y-94867720D01*
X182035653Y-94983375D01*
X182048515Y-95117328D01*
X182088002Y-95296439D01*
X182147094Y-95477216D01*
X182161715Y-95511807D01*
X182188344Y-95546862D01*
X182235113Y-95565412D01*
X182318759Y-95572698D01*
X182456022Y-95573961D01*
X182540149Y-95573446D01*
X182663489Y-95568097D01*
X182732844Y-95554414D01*
X182759112Y-95529306D01*
X182753189Y-95489682D01*
X182751175Y-95483040D01*
X182739585Y-95416661D01*
X182725540Y-95304838D01*
X182711638Y-95167706D01*
X182686288Y-94887950D01*
X182360873Y-94877835D01*
X182052411Y-94868247D01*
X182869580Y-94868247D01*
X182888635Y-95146268D01*
X182890439Y-95170668D01*
X182905767Y-95311629D01*
X182926169Y-95428881D01*
X182947743Y-95499125D01*
X182956662Y-95514507D01*
X182970533Y-95529306D01*
X182982279Y-95541838D01*
X183025444Y-95559226D01*
X183099356Y-95568894D01*
X183217218Y-95573065D01*
X183392231Y-95573961D01*
X183421812Y-95573923D01*
X183600252Y-95571085D01*
X183719013Y-95563014D01*
X183750697Y-95556371D01*
X183987950Y-95556371D01*
X184415764Y-95566224D01*
X184843578Y-95576076D01*
X184858251Y-95507656D01*
X185052399Y-95507656D01*
X185063594Y-95536122D01*
X185104321Y-95552158D01*
X185188178Y-95560657D01*
X185328762Y-95566511D01*
X185458430Y-95570447D01*
X185550116Y-95568395D01*
X185602216Y-95555327D01*
X185630902Y-95526848D01*
X185652349Y-95478561D01*
X185706543Y-95315935D01*
X185748603Y-95134444D01*
X185764347Y-94983375D01*
X185764543Y-94867720D01*
X185745304Y-94868318D01*
X185439127Y-94877835D01*
X185113712Y-94887950D01*
X185091362Y-95134211D01*
X185078751Y-95266266D01*
X185065883Y-95388795D01*
X185056182Y-95468421D01*
X185052399Y-95507656D01*
X184858251Y-95507656D01*
X184881900Y-95397387D01*
X184891192Y-95348818D01*
X184911941Y-95190569D01*
X184920222Y-95043508D01*
X184920222Y-94868318D01*
X183987950Y-94887950D01*
X183987950Y-95556371D01*
X183750697Y-95556371D01*
X183787389Y-95548678D01*
X183814671Y-95527046D01*
X183817303Y-95516392D01*
X183823241Y-95443268D01*
X183825076Y-95325881D01*
X183822362Y-95184040D01*
X183812050Y-94887950D01*
X183340815Y-94878099D01*
X182869580Y-94868247D01*
X182052411Y-94868247D01*
X182035457Y-94867720D01*
X181865005Y-94867720D01*
X181862190Y-94743770D01*
X181863071Y-94729640D01*
X182035457Y-94729640D01*
X182353182Y-94729640D01*
X182879778Y-94729640D01*
X183338223Y-94729640D01*
X183445074Y-94729219D01*
X183613504Y-94725453D01*
X183725200Y-94717044D01*
X183748131Y-94712050D01*
X183987950Y-94712050D01*
X184459185Y-94721902D01*
X184930420Y-94731753D01*
X184911364Y-94453733D01*
X184904899Y-94361106D01*
X184889969Y-94216806D01*
X184862820Y-94121121D01*
X184833092Y-94088121D01*
X185052632Y-94088121D01*
X185056182Y-94131579D01*
X185065357Y-94206498D01*
X185078144Y-94327681D01*
X185091362Y-94465790D01*
X185113712Y-94712050D01*
X185439127Y-94722165D01*
X185747589Y-94731753D01*
X185764543Y-94732280D01*
X185764347Y-94616625D01*
X185751590Y-94483235D01*
X185711937Y-94303442D01*
X185652349Y-94121439D01*
X185633114Y-94077032D01*
X185605884Y-94046763D01*
X185556864Y-94032347D01*
X185469881Y-94029387D01*
X185328762Y-94033489D01*
X185201749Y-94038600D01*
X185111819Y-94046524D01*
X185066646Y-94061400D01*
X185052632Y-94088121D01*
X184833092Y-94088121D01*
X184811824Y-94064512D01*
X184725355Y-94037437D01*
X184591786Y-94030358D01*
X184399489Y-94033733D01*
X183987950Y-94043629D01*
X183987950Y-94712050D01*
X183748131Y-94712050D01*
X183789232Y-94703099D01*
X183814671Y-94682724D01*
X183817303Y-94672071D01*
X183823241Y-94598947D01*
X183825076Y-94481560D01*
X183822362Y-94339719D01*
X183812050Y-94043629D01*
X183384236Y-94033776D01*
X182956422Y-94023924D01*
X182944200Y-94080913D01*
X182918100Y-94202613D01*
X182908771Y-94251370D01*
X182888047Y-94409164D01*
X182879778Y-94555471D01*
X182879778Y-94729640D01*
X182353182Y-94729640D01*
X182407220Y-94729357D01*
X182559577Y-94723411D01*
X182649910Y-94709123D01*
X182684451Y-94685665D01*
X182685035Y-94683603D01*
X182694721Y-94623956D01*
X182706824Y-94517426D01*
X182718867Y-94385613D01*
X182719769Y-94374608D01*
X182731137Y-94244256D01*
X182741314Y-94141086D01*
X182748194Y-94086582D01*
X182748254Y-94080913D01*
X182716111Y-94058268D01*
X182625771Y-94042843D01*
X182471238Y-94033489D01*
X182341570Y-94029553D01*
X182249884Y-94031605D01*
X182197784Y-94044673D01*
X182169097Y-94073153D01*
X182147651Y-94121439D01*
X182092757Y-94286563D01*
X182051222Y-94466281D01*
X182035653Y-94615305D01*
X182035457Y-94729640D01*
X181863071Y-94729640D01*
X181877507Y-94498160D01*
X181913854Y-94289700D01*
X182028872Y-93964891D01*
X182092013Y-93853298D01*
X182281717Y-93853298D01*
X182282569Y-93855894D01*
X182324292Y-93870816D01*
X182416306Y-93881337D01*
X182541278Y-93885319D01*
X182800840Y-93885319D01*
X182821313Y-93830575D01*
X183020499Y-93830575D01*
X183025452Y-93849288D01*
X183054214Y-93867526D01*
X183118838Y-93878511D01*
X183230809Y-93883892D01*
X183401616Y-93885319D01*
X183528804Y-93883996D01*
X183665776Y-93879093D01*
X183763405Y-93871416D01*
X183806186Y-93861865D01*
X183807472Y-93859904D01*
X183816128Y-93809093D01*
X183823171Y-93703947D01*
X183827907Y-93558537D01*
X183829640Y-93386934D01*
X183829517Y-93297805D01*
X183827868Y-93194837D01*
X183975376Y-93194837D01*
X183977938Y-93386934D01*
X183978134Y-93401593D01*
X183987950Y-93867729D01*
X184383726Y-93877676D01*
X184446802Y-93879265D01*
X184612152Y-93881184D01*
X184716709Y-93871863D01*
X184767814Y-93843337D01*
X184772809Y-93787639D01*
X184739034Y-93696800D01*
X184673833Y-93562856D01*
X184651449Y-93518671D01*
X184530507Y-93315211D01*
X184399292Y-93159340D01*
X184272361Y-93056432D01*
X184568421Y-93056432D01*
X184587060Y-93091408D01*
X184635994Y-93167238D01*
X184704618Y-93267481D01*
X184765626Y-93362830D01*
X184853302Y-93523828D01*
X184919988Y-93673614D01*
X184962630Y-93787639D01*
X184999160Y-93885319D01*
X185258721Y-93885319D01*
X185279766Y-93885214D01*
X185400722Y-93880066D01*
X185486004Y-93868715D01*
X185518283Y-93853298D01*
X185507331Y-93822319D01*
X185457107Y-93745414D01*
X185377601Y-93644673D01*
X185281504Y-93535049D01*
X185181503Y-93431496D01*
X185090289Y-93348967D01*
X185074909Y-93336805D01*
X184984095Y-93272456D01*
X184875378Y-93203685D01*
X184764105Y-93139094D01*
X184665623Y-93087287D01*
X184595279Y-93056865D01*
X184568421Y-93056432D01*
X184272361Y-93056432D01*
X184242475Y-93032202D01*
X184172102Y-92985367D01*
X184089006Y-92939268D01*
X184032490Y-92930591D01*
X183997849Y-92965911D01*
X183980379Y-93051802D01*
X183975376Y-93194837D01*
X183827868Y-93194837D01*
X183826782Y-93127028D01*
X183817194Y-93014846D01*
X183796517Y-92952927D01*
X183760516Y-92932936D01*
X183704958Y-92946540D01*
X183625607Y-92985406D01*
X183562286Y-93026293D01*
X183530237Y-93054962D01*
X183443808Y-93132276D01*
X183321541Y-93270521D01*
X183206779Y-93425252D01*
X183110821Y-93580690D01*
X183044962Y-93721057D01*
X183020499Y-93830575D01*
X182821313Y-93830575D01*
X182880012Y-93673614D01*
X182923021Y-93572813D01*
X183006734Y-93410615D01*
X183095381Y-93267481D01*
X183163874Y-93167235D01*
X183212882Y-93090772D01*
X183231579Y-93054962D01*
X183225592Y-93051679D01*
X183176710Y-93068559D01*
X183091222Y-93111185D01*
X182984401Y-93170842D01*
X182871521Y-93238810D01*
X182767856Y-93306373D01*
X182688681Y-93364814D01*
X182634837Y-93413028D01*
X182542116Y-93507679D01*
X182447543Y-93614516D01*
X182364018Y-93718055D01*
X182304443Y-93802811D01*
X182281717Y-93853298D01*
X182092013Y-93853298D01*
X182210040Y-93644700D01*
X182443689Y-93362519D01*
X182722836Y-93125330D01*
X183040500Y-92940115D01*
X183389700Y-92813854D01*
X183473668Y-92795501D01*
X183701932Y-92768276D01*
X183954329Y-92762093D01*
X184200857Y-92776978D01*
X184411514Y-92812957D01*
X184553056Y-92854510D01*
X184888710Y-93001350D01*
X185187553Y-93202353D01*
X185444181Y-93450576D01*
X185653188Y-93739079D01*
X185708546Y-93853298D01*
X185809171Y-94060917D01*
X185906724Y-94409150D01*
X185936357Y-94732280D01*
X185940443Y-94776835D01*
X185936696Y-94867720D01*
G37*
G36*
X123916725Y-94647232D02*
G01*
X123901766Y-94662191D01*
X123886808Y-94647232D01*
X123901766Y-94632273D01*
X123916725Y-94647232D01*
G37*
G36*
X124126148Y-94198469D02*
G01*
X124111189Y-94213427D01*
X124096230Y-94198469D01*
X124111189Y-94183510D01*
X124126148Y-94198469D01*
G37*
G36*
X129630977Y-95365253D02*
G01*
X129616018Y-95380212D01*
X129601060Y-95365253D01*
X129616018Y-95350294D01*
X129630977Y-95365253D01*
G37*
G36*
X126280212Y-84624853D02*
G01*
X126265253Y-84639811D01*
X126250294Y-84624853D01*
X126265253Y-84609894D01*
X126280212Y-84624853D01*
G37*
G36*
X125741696Y-84056419D02*
G01*
X125726737Y-84071378D01*
X125711778Y-84056419D01*
X125726737Y-84041460D01*
X125741696Y-84056419D01*
G37*
G36*
X125981036Y-93779623D02*
G01*
X125966077Y-93794582D01*
X125951119Y-93779623D01*
X125966077Y-93764664D01*
X125981036Y-93779623D01*
G37*
G36*
X120326619Y-84116254D02*
G01*
X120311660Y-84131213D01*
X120296702Y-84116254D01*
X120311660Y-84101296D01*
X120326619Y-84116254D01*
G37*
G36*
X125270494Y-83708551D02*
G01*
X125302405Y-83735934D01*
X125322850Y-83760907D01*
X125322359Y-83766157D01*
X125302867Y-83766359D01*
X125259199Y-83719847D01*
X125242486Y-83698170D01*
X125235057Y-83682677D01*
X125270494Y-83708551D01*
G37*
G36*
X118411896Y-95589635D02*
G01*
X118112720Y-95589635D01*
X118112720Y-95290459D01*
X118411896Y-95290459D01*
X118411896Y-95589635D01*
G37*
G36*
X112548056Y-93719788D02*
G01*
X112533097Y-93734747D01*
X112518139Y-93719788D01*
X112533097Y-93704829D01*
X112548056Y-93719788D01*
G37*
G36*
X126160541Y-84834276D02*
G01*
X126145583Y-84849234D01*
X126130624Y-84834276D01*
X126145583Y-84819317D01*
X126160541Y-84834276D01*
G37*
G36*
X125322850Y-95479937D02*
G01*
X125322198Y-95513406D01*
X125315168Y-95589680D01*
X125302905Y-95629525D01*
X125293621Y-95634574D01*
X125237270Y-95645227D01*
X125153317Y-95649470D01*
X125023674Y-95649470D01*
X125023674Y-95350294D01*
X125322850Y-95350294D01*
X125322850Y-95479937D01*
G37*
G36*
X129591087Y-95300432D02*
G01*
X129595768Y-95309430D01*
X129571142Y-95320377D01*
X129555304Y-95318218D01*
X129551197Y-95300432D01*
X129555582Y-95296851D01*
X129591087Y-95300432D01*
G37*
G36*
X129301884Y-95365253D02*
G01*
X129286925Y-95380212D01*
X129271967Y-95365253D01*
X129286925Y-95350294D01*
X129301884Y-95365253D01*
G37*
G36*
X129601060Y-95440047D02*
G01*
X129598901Y-95455885D01*
X129581115Y-95459992D01*
X129577534Y-95455607D01*
X129581115Y-95420102D01*
X129590113Y-95415421D01*
X129601060Y-95440047D01*
G37*
G36*
X122840042Y-89558060D02*
G01*
X122847148Y-89612023D01*
X122850088Y-89690765D01*
X122848296Y-89773136D01*
X122841207Y-89837986D01*
X122824735Y-89845465D01*
X122819352Y-89835394D01*
X122812468Y-89781236D01*
X122809776Y-89695877D01*
X122811369Y-89642025D01*
X122819929Y-89573206D01*
X122833417Y-89546290D01*
X122840042Y-89558060D01*
G37*
G36*
X126494929Y-93978689D02*
G01*
X126549470Y-94004005D01*
X126569780Y-94020661D01*
X126564428Y-94033006D01*
X126544175Y-94029320D01*
X126489634Y-94004005D01*
X126469324Y-93987349D01*
X126474676Y-93975003D01*
X126494929Y-93978689D01*
G37*
G36*
X121613074Y-89621084D02*
G01*
X121598115Y-89636042D01*
X121583156Y-89621084D01*
X121598115Y-89606125D01*
X121613074Y-89621084D01*
G37*
G36*
X126808755Y-94103730D02*
G01*
X126813435Y-94112728D01*
X126788810Y-94123675D01*
X126772972Y-94121516D01*
X126768865Y-94103730D01*
X126773250Y-94100149D01*
X126808755Y-94103730D01*
G37*
G36*
X126310129Y-91715312D02*
G01*
X126295170Y-91730271D01*
X126280212Y-91715312D01*
X126295170Y-91700353D01*
X126310129Y-91715312D01*
G37*
G36*
X126429799Y-92283746D02*
G01*
X126414841Y-92298704D01*
X126399882Y-92283746D01*
X126414841Y-92268787D01*
X126429799Y-92283746D01*
G37*
G36*
X112079872Y-93495893D02*
G01*
X112086263Y-93502693D01*
X112117117Y-93540248D01*
X112112823Y-93546374D01*
X112093314Y-93541414D01*
X112039458Y-93555241D01*
X112019059Y-93565381D01*
X111969260Y-93561717D01*
X111949705Y-93510365D01*
X111949827Y-93504802D01*
X111970833Y-93456367D01*
X112018645Y-93452901D01*
X112079872Y-93495893D01*
G37*
G36*
X130019905Y-93957363D02*
G01*
X130019320Y-93972468D01*
X130005188Y-94002682D01*
X129976307Y-93976154D01*
X129972241Y-93965367D01*
X129989500Y-93929512D01*
X130005186Y-93926549D01*
X130019905Y-93957363D01*
G37*
G36*
X117155359Y-87063133D02*
G01*
X117153200Y-87078971D01*
X117135414Y-87083078D01*
X117131833Y-87078693D01*
X117135414Y-87043188D01*
X117144412Y-87038507D01*
X117155359Y-87063133D01*
G37*
G36*
X120045245Y-80772968D02*
G01*
X120024089Y-80797290D01*
X119981303Y-80837498D01*
X119967609Y-80829961D01*
X119986983Y-80806329D01*
X120034923Y-80762646D01*
X120102238Y-80705654D01*
X120045245Y-80772968D01*
G37*
G36*
X112877149Y-93869376D02*
G01*
X112862190Y-93884334D01*
X112847232Y-93869376D01*
X112862190Y-93854417D01*
X112877149Y-93869376D01*
G37*
G36*
X112087191Y-89212574D02*
G01*
X112083216Y-89218664D01*
X112053656Y-89246217D01*
X112039458Y-89233921D01*
X112042132Y-89227192D01*
X112073998Y-89199381D01*
X112090717Y-89192102D01*
X112087191Y-89212574D01*
G37*
G36*
X125053592Y-93151354D02*
G01*
X125038633Y-93166313D01*
X125023674Y-93151354D01*
X125038633Y-93136396D01*
X125053592Y-93151354D01*
G37*
G36*
X120057361Y-84325677D02*
G01*
X120042402Y-84340636D01*
X120027444Y-84325677D01*
X120042402Y-84310718D01*
X120057361Y-84325677D01*
G37*
G36*
X117843462Y-86748999D02*
G01*
X117828504Y-86763958D01*
X117813545Y-86748999D01*
X117828504Y-86734040D01*
X117843462Y-86748999D01*
G37*
G36*
X124036395Y-94318139D02*
G01*
X124021437Y-94333098D01*
X124006478Y-94318139D01*
X124021437Y-94303180D01*
X124036395Y-94318139D01*
G37*
G36*
X126446487Y-92329968D02*
G01*
X126474676Y-92358539D01*
X126480248Y-92369132D01*
X126478207Y-92388457D01*
X126472947Y-92387111D01*
X126444758Y-92358539D01*
X126439186Y-92347947D01*
X126441227Y-92328622D01*
X126446487Y-92329968D01*
G37*
G36*
X122690124Y-95507362D02*
G01*
X122690106Y-95649470D01*
X122390930Y-95649470D01*
X122390930Y-95385987D01*
X122540536Y-95375620D01*
X122690143Y-95365253D01*
X122690124Y-95507362D01*
G37*
G36*
X127032824Y-87938524D02*
G01*
X127043812Y-87918990D01*
X127058068Y-87855948D01*
X127079495Y-87736278D01*
X127083740Y-87848469D01*
X127091387Y-87922354D01*
X127115743Y-87954665D01*
X127170259Y-87962721D01*
X127236489Y-87966039D01*
X127327326Y-87974508D01*
X127330884Y-87974936D01*
X127389948Y-87980065D01*
X127496923Y-87987849D01*
X127641324Y-87997580D01*
X127812669Y-88008548D01*
X128000471Y-88020043D01*
X128022133Y-88021351D01*
X128210039Y-88033738D01*
X128381450Y-88046779D01*
X128525553Y-88059527D01*
X128631533Y-88071033D01*
X128688574Y-88080351D01*
X128778327Y-88104851D01*
X128684372Y-88107549D01*
X128646576Y-88109988D01*
X128611420Y-88122944D01*
X128585246Y-88157980D01*
X128560080Y-88227050D01*
X128527952Y-88342108D01*
X128516253Y-88386732D01*
X128433493Y-88831289D01*
X128408365Y-89286422D01*
X128440614Y-89748087D01*
X128529983Y-90212241D01*
X128629137Y-90525916D01*
X128676213Y-90674841D01*
X128684156Y-90689970D01*
X128698566Y-90698827D01*
X128723936Y-90697401D01*
X128765288Y-90683093D01*
X128827643Y-90653304D01*
X128916025Y-90605435D01*
X129035454Y-90536889D01*
X129190953Y-90445067D01*
X129387543Y-90327371D01*
X129630247Y-90181201D01*
X129719143Y-90127598D01*
X129991605Y-89963407D01*
X130218275Y-89827058D01*
X130403332Y-89716134D01*
X130550959Y-89628213D01*
X130665337Y-89560876D01*
X130750646Y-89511703D01*
X130811069Y-89478276D01*
X130850785Y-89458173D01*
X130873978Y-89448976D01*
X130884827Y-89448265D01*
X130887514Y-89453620D01*
X130885278Y-89459633D01*
X130849129Y-89492374D01*
X130782803Y-89533423D01*
X130741593Y-89557931D01*
X130690589Y-89610014D01*
X130675159Y-89680243D01*
X130669656Y-89819209D01*
X130661841Y-89971423D01*
X130652968Y-90113644D01*
X130644078Y-90229269D01*
X130636210Y-90301697D01*
X130632882Y-90341422D01*
X130632712Y-90448452D01*
X130638571Y-90594264D01*
X130649474Y-90765924D01*
X130657316Y-90862662D01*
X130664437Y-90950497D01*
X130674866Y-91057207D01*
X130682473Y-91135048D01*
X130702599Y-91306643D01*
X130723828Y-91452345D01*
X130729346Y-91484507D01*
X130751614Y-91601880D01*
X130758356Y-91637416D01*
X130794937Y-91812120D01*
X130835927Y-91995196D01*
X130878164Y-92173223D01*
X130918485Y-92332779D01*
X130953727Y-92460440D01*
X130980730Y-92542785D01*
X131001454Y-92611144D01*
X131017159Y-92707331D01*
X131017595Y-92712005D01*
X131040063Y-92781327D01*
X131088619Y-92876837D01*
X131153628Y-92979329D01*
X131167145Y-92998471D01*
X131234163Y-93087926D01*
X131285131Y-93139298D01*
X131333562Y-93163415D01*
X131392968Y-93171101D01*
X131500824Y-93175889D01*
X131403592Y-93187955D01*
X131334161Y-93207491D01*
X131306360Y-93244936D01*
X131307194Y-93255375D01*
X131324721Y-93321305D01*
X131358419Y-93411122D01*
X131399566Y-93504648D01*
X131439444Y-93581700D01*
X131469331Y-93622098D01*
X131478007Y-93635711D01*
X131445268Y-93644536D01*
X131412092Y-93652291D01*
X131406932Y-93689870D01*
X131410515Y-93714183D01*
X131382708Y-93734747D01*
X131365866Y-93737497D01*
X131323812Y-93772144D01*
X131308556Y-93794145D01*
X131288908Y-93772144D01*
X131284236Y-93765240D01*
X131240560Y-93743373D01*
X131177777Y-93735325D01*
X131121399Y-93742091D01*
X131096937Y-93764664D01*
X131097237Y-93766169D01*
X131098907Y-93774549D01*
X131131841Y-93794582D01*
X131143723Y-93795429D01*
X131154279Y-93806781D01*
X131136946Y-93811503D01*
X131064059Y-93820244D01*
X130939004Y-93830723D01*
X130766363Y-93842677D01*
X130550715Y-93855843D01*
X130296644Y-93869960D01*
X130008730Y-93884766D01*
X129691555Y-93899999D01*
X129349702Y-93915396D01*
X128987750Y-93930696D01*
X128963322Y-93931696D01*
X128705170Y-93942330D01*
X128462999Y-93952413D01*
X128244111Y-93961634D01*
X128055806Y-93969681D01*
X127905385Y-93976243D01*
X127800148Y-93981007D01*
X127747397Y-93983662D01*
X127710915Y-93987315D01*
X127652006Y-94010514D01*
X127623229Y-94064364D01*
X127610626Y-94107764D01*
X127602854Y-94116363D01*
X127599566Y-94069826D01*
X127594657Y-94034401D01*
X127573418Y-94013207D01*
X127521555Y-94006724D01*
X127424558Y-94009991D01*
X127355827Y-94014454D01*
X127290087Y-94024903D01*
X127262367Y-94044509D01*
X127259402Y-94078799D01*
X127262002Y-94104395D01*
X127269047Y-94187542D01*
X127269065Y-94187760D01*
X127276449Y-94288221D01*
X127280673Y-94341064D01*
X127292998Y-94406040D01*
X127318616Y-94435996D01*
X127366812Y-94447276D01*
X127394891Y-94448023D01*
X127441800Y-94426192D01*
X127443069Y-94382596D01*
X127394640Y-94333778D01*
X127373255Y-94319818D01*
X127368217Y-94307144D01*
X127417078Y-94309853D01*
X127427686Y-94311213D01*
X127476302Y-94332576D01*
X127482512Y-94385453D01*
X127480707Y-94403173D01*
X127493859Y-94442901D01*
X127549827Y-94452768D01*
X127585971Y-94450233D01*
X127618919Y-94426102D01*
X127626501Y-94361250D01*
X127626506Y-94359332D01*
X127635129Y-94299650D01*
X127657212Y-94288712D01*
X127666132Y-94295936D01*
X127683585Y-94342833D01*
X127681745Y-94380844D01*
X127698615Y-94417725D01*
X127750275Y-94435984D01*
X127849195Y-94443176D01*
X127940458Y-94444681D01*
X127991164Y-94436408D01*
X128012854Y-94410631D01*
X128021171Y-94359764D01*
X128028906Y-94302169D01*
X128041799Y-94294074D01*
X128069994Y-94335089D01*
X128071749Y-94337945D01*
X128091614Y-94379051D01*
X128073592Y-94376940D01*
X128054398Y-94369777D01*
X128051017Y-94394984D01*
X128054173Y-94400964D01*
X128099087Y-94427784D01*
X128174568Y-94442326D01*
X128195095Y-94443563D01*
X128256770Y-94441196D01*
X128280684Y-94414493D01*
X128283540Y-94367182D01*
X128314605Y-94367182D01*
X128318715Y-94418790D01*
X128344931Y-94445637D01*
X128411837Y-94448285D01*
X128445724Y-94446594D01*
X128561661Y-94436682D01*
X128631073Y-94419687D01*
X128664784Y-94391456D01*
X128673616Y-94347835D01*
X128671895Y-94333098D01*
X128703533Y-94333098D01*
X128703864Y-94347835D01*
X128704294Y-94366958D01*
X128716167Y-94405226D01*
X128755377Y-94420249D01*
X128838162Y-94422850D01*
X129002709Y-94422850D01*
X129207145Y-94422850D01*
X129281338Y-94422316D01*
X129373677Y-94416532D01*
X129424854Y-94399983D01*
X129429591Y-94392933D01*
X129481389Y-94392933D01*
X129840400Y-94392933D01*
X129840400Y-94298627D01*
X129870318Y-94298627D01*
X129870917Y-94336132D01*
X129879377Y-94362340D01*
X129906075Y-94376588D01*
X129961393Y-94381130D01*
X130055711Y-94378223D01*
X130199411Y-94370121D01*
X130201490Y-94369998D01*
X130330573Y-94348412D01*
X130411024Y-94303533D01*
X130438751Y-94237627D01*
X130429062Y-94231371D01*
X130372500Y-94222140D01*
X130276660Y-94215790D01*
X130154534Y-94213427D01*
X129870318Y-94213427D01*
X129870318Y-94298627D01*
X129840400Y-94298627D01*
X129840400Y-94213427D01*
X129481389Y-94213427D01*
X129481389Y-94392933D01*
X129429591Y-94392933D01*
X129446807Y-94367310D01*
X129451472Y-94313153D01*
X129450737Y-94291775D01*
X129440556Y-94264718D01*
X129408271Y-94250236D01*
X129341308Y-94244416D01*
X129227090Y-94243345D01*
X129002709Y-94243345D01*
X129002709Y-94422850D01*
X128838162Y-94422850D01*
X128888952Y-94422343D01*
X128946355Y-94414428D01*
X128968888Y-94388288D01*
X128972791Y-94333098D01*
X128972030Y-94299238D01*
X128960157Y-94260969D01*
X128920948Y-94245947D01*
X128838162Y-94243345D01*
X128787372Y-94243852D01*
X128729969Y-94251767D01*
X128707436Y-94277907D01*
X128703533Y-94333098D01*
X128671895Y-94333098D01*
X128667085Y-94291903D01*
X128638950Y-94261955D01*
X128576870Y-94254138D01*
X128468504Y-94263370D01*
X128399624Y-94272544D01*
X128342349Y-94288317D01*
X128319030Y-94316476D01*
X128314605Y-94367182D01*
X128283540Y-94367182D01*
X128284687Y-94348191D01*
X128285132Y-94316968D01*
X128295425Y-94267995D01*
X128332123Y-94244552D01*
X128411837Y-94231379D01*
X128465842Y-94226808D01*
X128576864Y-94220580D01*
X128727987Y-94213862D01*
X128908434Y-94206977D01*
X129107432Y-94200248D01*
X129314205Y-94193997D01*
X129517979Y-94188547D01*
X129707979Y-94184220D01*
X129873429Y-94181340D01*
X130003556Y-94180228D01*
X130087585Y-94181207D01*
X130145256Y-94181630D01*
X130216458Y-94170192D01*
X130247853Y-94140129D01*
X130281168Y-94108591D01*
X130356208Y-94093757D01*
X130366774Y-94093551D01*
X130461737Y-94082265D01*
X130562623Y-94059046D01*
X130611919Y-94045943D01*
X130681513Y-94040899D01*
X130703847Y-94068876D01*
X130681832Y-94131645D01*
X130657232Y-94192279D01*
X130646917Y-94237627D01*
X130636743Y-94282352D01*
X130622268Y-94345650D01*
X130596980Y-94392933D01*
X130593158Y-94400080D01*
X130578441Y-94419428D01*
X130558421Y-94483683D01*
X130556133Y-94507931D01*
X130538704Y-94550000D01*
X130537101Y-94553868D01*
X130535995Y-94555088D01*
X130513276Y-94596657D01*
X130506962Y-94611084D01*
X130480566Y-94671395D01*
X130446502Y-94757540D01*
X130419720Y-94833330D01*
X130413919Y-94856655D01*
X130408858Y-94877005D01*
X130409469Y-94879117D01*
X130441083Y-94882873D01*
X130505868Y-94869525D01*
X130515017Y-94866908D01*
X130579090Y-94849018D01*
X130608173Y-94841696D01*
X130607400Y-94847886D01*
X130592389Y-94893474D01*
X130589478Y-94901278D01*
X130564278Y-94968846D01*
X130560687Y-94978047D01*
X130507719Y-95090468D01*
X130478680Y-95124420D01*
X130455053Y-95152044D01*
X130396012Y-95170789D01*
X130373413Y-95174150D01*
X130369181Y-95178268D01*
X130348998Y-95197906D01*
X130339761Y-95210684D01*
X130295569Y-95211050D01*
X130281528Y-95208996D01*
X130236365Y-95231087D01*
X130229655Y-95241929D01*
X130190858Y-95304619D01*
X130154173Y-95384934D01*
X130146603Y-95425908D01*
X130174794Y-95436060D01*
X130243836Y-95427168D01*
X130348096Y-95410599D01*
X130266274Y-95531081D01*
X130238287Y-95568144D01*
X130133194Y-95664564D01*
X129979935Y-95756900D01*
X129775419Y-95862236D01*
X129793476Y-96047549D01*
X129800812Y-96123634D01*
X129815417Y-96278095D01*
X129828519Y-96419847D01*
X129845506Y-96606831D01*
X115369777Y-96606831D01*
X115331825Y-96479682D01*
X115299643Y-96388072D01*
X115194090Y-96192029D01*
X115039591Y-96006387D01*
X114832523Y-95827204D01*
X114569262Y-95650540D01*
X114534903Y-95629280D01*
X114431857Y-95559717D01*
X115629564Y-95559717D01*
X115644351Y-95578273D01*
X115696878Y-95589177D01*
X115713098Y-95588844D01*
X115742812Y-95581540D01*
X115719316Y-95559717D01*
X115702887Y-95549698D01*
X115648397Y-95531879D01*
X115629564Y-95559717D01*
X114431857Y-95559717D01*
X114389412Y-95531064D01*
X114242232Y-95421236D01*
X114197197Y-95383706D01*
X115582287Y-95383706D01*
X115587736Y-95421855D01*
X115600685Y-95461454D01*
X115613300Y-95492367D01*
X115641062Y-95501313D01*
X115713108Y-95513633D01*
X115811844Y-95526590D01*
X115920089Y-95538337D01*
X116020661Y-95547030D01*
X116096380Y-95550822D01*
X116130065Y-95547870D01*
X116150291Y-95545199D01*
X116195569Y-95570903D01*
X116216003Y-95580233D01*
X116222390Y-95581540D01*
X116283060Y-95593955D01*
X116395554Y-95607570D01*
X116555282Y-95621178D01*
X116764046Y-95634884D01*
X117023643Y-95648789D01*
X117335874Y-95662997D01*
X117702537Y-95677609D01*
X118125433Y-95692729D01*
X118606360Y-95708460D01*
X118673898Y-95710485D01*
X118921565Y-95716713D01*
X119217829Y-95722723D01*
X119554350Y-95728440D01*
X119922789Y-95733793D01*
X120314804Y-95738709D01*
X120722057Y-95743115D01*
X121136206Y-95746939D01*
X121548912Y-95750107D01*
X121951835Y-95752549D01*
X122336635Y-95754190D01*
X122694971Y-95754959D01*
X123018503Y-95754782D01*
X123298892Y-95753587D01*
X123527797Y-95751302D01*
X123848270Y-95746713D01*
X124541063Y-95736616D01*
X125182722Y-95727008D01*
X125772456Y-95717903D01*
X126309474Y-95709315D01*
X126792986Y-95701257D01*
X127222202Y-95693745D01*
X127596329Y-95686792D01*
X127914578Y-95680412D01*
X128176158Y-95674620D01*
X128380279Y-95669428D01*
X128526149Y-95664852D01*
X128612979Y-95660906D01*
X128649630Y-95658563D01*
X128767050Y-95650198D01*
X128835320Y-95641908D01*
X128862966Y-95630895D01*
X128858511Y-95614362D01*
X128830478Y-95589510D01*
X128804790Y-95567338D01*
X128783723Y-95532562D01*
X128806637Y-95501217D01*
X128807863Y-95499882D01*
X128947687Y-95499882D01*
X129044451Y-95499882D01*
X129184668Y-95499882D01*
X129284904Y-95499882D01*
X129294994Y-95499817D01*
X129357411Y-95490987D01*
X129382419Y-95469004D01*
X129451472Y-95469004D01*
X129475107Y-95490400D01*
X129535683Y-95499882D01*
X129572812Y-95496702D01*
X129600372Y-95481219D01*
X129682122Y-95481219D01*
X129684967Y-95483683D01*
X129736326Y-95498269D01*
X129804527Y-95495920D01*
X129853011Y-95477444D01*
X129858493Y-95470454D01*
X129885940Y-95421071D01*
X129919571Y-95349908D01*
X129948057Y-95281887D01*
X129960070Y-95241929D01*
X129960069Y-95241873D01*
X129933738Y-95233927D01*
X129870926Y-95230624D01*
X129817838Y-95236943D01*
X129782656Y-95261315D01*
X129769329Y-95270547D01*
X129722620Y-95346590D01*
X129707383Y-95378503D01*
X129683058Y-95445771D01*
X129682122Y-95481219D01*
X129600372Y-95481219D01*
X129625348Y-95467188D01*
X129670312Y-95394156D01*
X129704455Y-95316912D01*
X129715868Y-95261315D01*
X129691823Y-95236382D01*
X129629451Y-95230624D01*
X129582238Y-95234538D01*
X129567327Y-95243352D01*
X129533501Y-95263347D01*
X129494822Y-95334375D01*
X129488766Y-95349170D01*
X129462243Y-95422910D01*
X129451472Y-95469004D01*
X129382419Y-95469004D01*
X129396997Y-95456190D01*
X129433265Y-95379607D01*
X129439339Y-95364430D01*
X129469940Y-95283270D01*
X129474143Y-95243352D01*
X129447815Y-95231917D01*
X129386826Y-95236208D01*
X129324317Y-95250776D01*
X129295622Y-95276674D01*
X129279832Y-95290925D01*
X129238465Y-95372733D01*
X129184668Y-95499882D01*
X129044451Y-95499882D01*
X129098790Y-95495196D01*
X129148916Y-95465506D01*
X129191632Y-95394156D01*
X129226756Y-95318109D01*
X129235249Y-95276674D01*
X129208716Y-95262212D01*
X129141876Y-95260542D01*
X129132486Y-95260598D01*
X129069756Y-95269269D01*
X129030346Y-95303838D01*
X128994695Y-95380212D01*
X128947687Y-95499882D01*
X128807863Y-95499882D01*
X128821191Y-95485367D01*
X128862063Y-95420257D01*
X128903271Y-95333615D01*
X128922497Y-95290122D01*
X128957539Y-95226062D01*
X128982036Y-95200819D01*
X128986894Y-95200274D01*
X128992424Y-95178268D01*
X128979391Y-95174662D01*
X128914865Y-95170377D01*
X128804173Y-95168235D01*
X128655816Y-95168275D01*
X128478297Y-95170535D01*
X128280117Y-95175053D01*
X127890368Y-95185275D01*
X127153487Y-95202168D01*
X126383617Y-95216951D01*
X125592350Y-95229502D01*
X124791280Y-95239699D01*
X123992000Y-95247420D01*
X123206103Y-95252544D01*
X122445182Y-95254948D01*
X121720830Y-95254510D01*
X121044640Y-95251110D01*
X120645787Y-95247754D01*
X120030176Y-95241046D01*
X119467122Y-95232776D01*
X118952097Y-95222791D01*
X118480572Y-95210940D01*
X118048016Y-95197071D01*
X117649901Y-95181030D01*
X117281697Y-95162666D01*
X116938875Y-95141828D01*
X116616906Y-95118362D01*
X116311260Y-95092116D01*
X116262297Y-95087684D01*
X116174576Y-95082521D01*
X116124372Y-95089160D01*
X116095950Y-95111718D01*
X116073574Y-95154314D01*
X116010472Y-95236723D01*
X115889722Y-95303274D01*
X115717040Y-95341182D01*
X115667178Y-95347601D01*
X115604483Y-95361628D01*
X115582287Y-95383706D01*
X114197197Y-95383706D01*
X114120533Y-95319819D01*
X114054028Y-95261529D01*
X114016836Y-95231777D01*
X115539811Y-95231777D01*
X115541812Y-95252919D01*
X115568035Y-95282299D01*
X115637043Y-95289261D01*
X115653088Y-95288638D01*
X115762707Y-95263985D01*
X115860872Y-95211644D01*
X115931536Y-95142652D01*
X115958657Y-95068044D01*
X115939261Y-95054081D01*
X115887140Y-95051485D01*
X115829670Y-95060886D01*
X115808776Y-95072411D01*
X115794613Y-95080223D01*
X115788228Y-95087017D01*
X115737124Y-95114470D01*
X115658218Y-95141212D01*
X115622647Y-95151895D01*
X115558702Y-95185779D01*
X115539811Y-95231777D01*
X114016836Y-95231777D01*
X113970638Y-95194821D01*
X113908521Y-95152481D01*
X113873911Y-95137921D01*
X113873042Y-95154551D01*
X113912147Y-95205784D01*
X113926676Y-95222424D01*
X113948120Y-95249854D01*
X113932133Y-95242999D01*
X113873362Y-95201233D01*
X113868638Y-95197782D01*
X113796661Y-95136662D01*
X113760902Y-95089330D01*
X113764917Y-95063582D01*
X113812261Y-95067216D01*
X113850808Y-95078117D01*
X113860126Y-95074258D01*
X113819552Y-95041666D01*
X113780597Y-95006558D01*
X113757508Y-94971257D01*
X113751955Y-94938026D01*
X113737061Y-94861294D01*
X113723864Y-94796820D01*
X114467275Y-94796820D01*
X114622094Y-94878172D01*
X114626999Y-94880727D01*
X114736970Y-94931635D01*
X114874250Y-94986986D01*
X115010319Y-95035239D01*
X115046706Y-95046956D01*
X115182668Y-95087704D01*
X115273360Y-95106820D01*
X115327430Y-95104274D01*
X115346394Y-95086662D01*
X115456920Y-95086662D01*
X115457158Y-95087368D01*
X115481330Y-95120418D01*
X115531906Y-95127638D01*
X115623603Y-95111195D01*
X115687951Y-95094055D01*
X115732914Y-95072411D01*
X115719331Y-95053295D01*
X115647805Y-95034802D01*
X115618658Y-95030087D01*
X115525590Y-95027737D01*
X115507193Y-95034080D01*
X115467988Y-95047597D01*
X115456920Y-95086662D01*
X115346394Y-95086662D01*
X115353528Y-95080037D01*
X115360306Y-95034080D01*
X115359688Y-95020204D01*
X115349322Y-94987176D01*
X115319323Y-94954617D01*
X115260911Y-94916374D01*
X115165307Y-94866294D01*
X115078470Y-94824544D01*
X116347585Y-94824544D01*
X116358483Y-94852608D01*
X116409913Y-94871614D01*
X116427810Y-94869962D01*
X116458474Y-94846699D01*
X116456292Y-94839930D01*
X116527090Y-94839930D01*
X116528010Y-94846699D01*
X116528231Y-94848324D01*
X116557008Y-94886572D01*
X116572422Y-94889387D01*
X116586925Y-94858420D01*
X116583264Y-94836130D01*
X116557008Y-94811778D01*
X116549910Y-94812584D01*
X116527090Y-94839930D01*
X116456292Y-94839930D01*
X116447331Y-94812130D01*
X116397462Y-94787147D01*
X116370016Y-94788598D01*
X116347585Y-94824544D01*
X115078470Y-94824544D01*
X115023733Y-94798227D01*
X114975046Y-94775230D01*
X114819349Y-94702303D01*
X114707302Y-94652708D01*
X114630549Y-94624808D01*
X114580735Y-94616966D01*
X114549505Y-94627543D01*
X114528504Y-94654902D01*
X114509377Y-94697405D01*
X114467275Y-94796820D01*
X113723864Y-94796820D01*
X113716486Y-94760778D01*
X113701104Y-94695262D01*
X113658371Y-94580306D01*
X113600458Y-94510447D01*
X113520376Y-94475524D01*
X113489735Y-94466784D01*
X113489933Y-94452983D01*
X113542243Y-94428517D01*
X113595416Y-94395396D01*
X113607838Y-94352875D01*
X113606619Y-94327995D01*
X113639881Y-94292425D01*
X113667669Y-94286336D01*
X113666610Y-94308607D01*
X113661554Y-94328583D01*
X113696930Y-94323411D01*
X113700035Y-94322242D01*
X113734743Y-94319650D01*
X113730837Y-94359746D01*
X113729169Y-94366655D01*
X113738759Y-94435699D01*
X113781236Y-94522838D01*
X113794934Y-94543787D01*
X113848820Y-94612285D01*
X113882629Y-94628448D01*
X113894346Y-94591060D01*
X113900949Y-94564000D01*
X113938643Y-94513084D01*
X113939114Y-94512695D01*
X113976752Y-94496317D01*
X114029227Y-94508363D01*
X114113054Y-94552573D01*
X114155879Y-94578886D01*
X114233785Y-94633137D01*
X114281843Y-94675425D01*
X114326041Y-94714773D01*
X114367805Y-94708325D01*
X114404328Y-94643593D01*
X114418890Y-94578570D01*
X114396108Y-94518423D01*
X114391586Y-94514269D01*
X114342671Y-94483421D01*
X114248772Y-94431392D01*
X114116984Y-94361882D01*
X113954404Y-94278588D01*
X113768128Y-94185209D01*
X113565253Y-94085442D01*
X113362953Y-93986716D01*
X113121585Y-93868552D01*
X112881739Y-93750783D01*
X112656492Y-93639842D01*
X112458923Y-93542160D01*
X112302107Y-93464170D01*
X111831777Y-93229142D01*
X111701424Y-93504383D01*
X111673567Y-93563319D01*
X111604710Y-93709537D01*
X111522698Y-93884193D01*
X111435508Y-94070288D01*
X111351119Y-94250824D01*
X111289977Y-94379916D01*
X111223096Y-94516450D01*
X111167488Y-94624819D01*
X111127670Y-94696264D01*
X111108158Y-94722026D01*
X111107145Y-94722003D01*
X111100350Y-94718545D01*
X111099791Y-94705307D01*
X111107827Y-94676723D01*
X111126816Y-94627226D01*
X111159117Y-94551248D01*
X111207088Y-94443224D01*
X111273088Y-94297586D01*
X111359474Y-94108767D01*
X111468606Y-93871201D01*
X111506995Y-93787591D01*
X111595562Y-93592562D01*
X111660655Y-93443306D01*
X111703790Y-93333713D01*
X111726479Y-93257671D01*
X111730236Y-93209067D01*
X111716575Y-93181791D01*
X111687008Y-93169729D01*
X111643050Y-93166771D01*
X111614354Y-93158841D01*
X111595672Y-93120023D01*
X111590695Y-93035972D01*
X111590695Y-92905630D01*
X110685689Y-92479580D01*
X110545236Y-92413413D01*
X110331656Y-92312616D01*
X110135857Y-92219995D01*
X109965114Y-92139006D01*
X109826702Y-92073099D01*
X109727896Y-92025729D01*
X109675971Y-92000349D01*
X109671804Y-91998251D01*
X109611346Y-91968845D01*
X109505790Y-91918387D01*
X109363177Y-91850688D01*
X109191548Y-91769556D01*
X108998943Y-91678800D01*
X108793404Y-91582230D01*
X108766823Y-91569758D01*
X108435419Y-91413989D01*
X108154434Y-91281302D01*
X107920209Y-91169881D01*
X107729085Y-91077913D01*
X107577403Y-91003584D01*
X107461505Y-90945078D01*
X107377732Y-90900581D01*
X107322423Y-90868279D01*
X107291921Y-90846358D01*
X107282567Y-90833002D01*
X107283592Y-90822392D01*
X107300491Y-90806203D01*
X107344541Y-90813099D01*
X107423983Y-90845327D01*
X107547055Y-90905136D01*
X107750214Y-91007445D01*
X107955712Y-90856827D01*
X107869987Y-90936073D01*
X107852208Y-90952908D01*
X107807676Y-91000257D01*
X107795193Y-91023080D01*
X107821843Y-91035717D01*
X107897190Y-91070277D01*
X108014993Y-91123903D01*
X108169070Y-91193790D01*
X108353238Y-91277134D01*
X108561316Y-91371132D01*
X108787121Y-91472979D01*
X108998351Y-91567945D01*
X109220817Y-91667069D01*
X109398460Y-91744755D01*
X109536570Y-91803072D01*
X109640438Y-91844087D01*
X109715353Y-91869869D01*
X109766604Y-91882485D01*
X109799482Y-91884003D01*
X109819277Y-91876492D01*
X109833783Y-91865659D01*
X109854581Y-91853156D01*
X109833704Y-91879140D01*
X109828871Y-91887862D01*
X109835731Y-91908531D01*
X109868498Y-91937320D01*
X109932851Y-91977629D01*
X110034469Y-92032862D01*
X110179032Y-92106418D01*
X110372220Y-92201701D01*
X110377280Y-92204175D01*
X110574732Y-92300158D01*
X110778337Y-92398194D01*
X110973145Y-92491147D01*
X111144203Y-92571882D01*
X111276560Y-92633264D01*
X111378331Y-92679843D01*
X111558461Y-92762652D01*
X111737946Y-92845533D01*
X111889870Y-92916075D01*
X111904701Y-92922987D01*
X112027824Y-92980229D01*
X112189655Y-93055290D01*
X112376677Y-93141909D01*
X112575370Y-93233823D01*
X112772214Y-93324771D01*
X112854811Y-93362969D01*
X113031766Y-93445687D01*
X113163620Y-93509503D01*
X113257206Y-93558442D01*
X113319358Y-93596525D01*
X113356906Y-93627776D01*
X113376684Y-93656217D01*
X113385524Y-93685871D01*
X113394298Y-93715630D01*
X113414738Y-93745379D01*
X113453753Y-93777927D01*
X113518525Y-93817658D01*
X113616239Y-93868955D01*
X113754077Y-93936203D01*
X113939222Y-94023786D01*
X113947386Y-94027620D01*
X114121757Y-94109353D01*
X114285437Y-94185770D01*
X114427567Y-94251824D01*
X114537287Y-94302469D01*
X114603739Y-94332656D01*
X114729740Y-94388552D01*
X114702561Y-94355786D01*
X114778892Y-94355786D01*
X114814068Y-94401967D01*
X114841841Y-94427992D01*
X114931786Y-94488380D01*
X115048329Y-94548962D01*
X115172441Y-94601296D01*
X115285092Y-94636935D01*
X115367250Y-94647436D01*
X115369688Y-94647240D01*
X115424758Y-94640065D01*
X115452788Y-94619716D01*
X115462494Y-94570641D01*
X115462588Y-94477290D01*
X115462542Y-94474228D01*
X115462607Y-94382548D01*
X115471416Y-94336665D01*
X115496557Y-94322899D01*
X115545615Y-94327568D01*
X115555937Y-94329201D01*
X115605983Y-94346675D01*
X115602111Y-94375004D01*
X115591132Y-94395046D01*
X115600675Y-94453771D01*
X115611859Y-94479205D01*
X115614605Y-94542521D01*
X115613204Y-94585675D01*
X115630634Y-94631097D01*
X115656672Y-94655197D01*
X115679211Y-94639753D01*
X115711725Y-94612354D01*
X115785840Y-94604150D01*
X115883207Y-94620974D01*
X115987552Y-94661669D01*
X116005429Y-94670333D01*
X116111700Y-94708920D01*
X116227854Y-94735047D01*
X116337350Y-94746749D01*
X116423649Y-94742059D01*
X116470209Y-94719013D01*
X116471270Y-94717375D01*
X116498094Y-94692956D01*
X116527090Y-94722026D01*
X116531160Y-94728037D01*
X116558111Y-94751825D01*
X116585744Y-94722172D01*
X116596437Y-94707138D01*
X116622112Y-94697846D01*
X116658064Y-94737046D01*
X116680486Y-94778368D01*
X116672752Y-94831468D01*
X116661933Y-94849604D01*
X116663620Y-94858420D01*
X116667746Y-94879980D01*
X116672759Y-94882328D01*
X116724772Y-94897363D01*
X116803828Y-94913916D01*
X116855774Y-94921535D01*
X116903252Y-94917290D01*
X116916018Y-94889694D01*
X116913273Y-94869949D01*
X116906093Y-94858962D01*
X117011912Y-94858962D01*
X117012136Y-94905667D01*
X117025223Y-94928199D01*
X117048166Y-94905547D01*
X117054998Y-94883305D01*
X117100224Y-94883305D01*
X117107366Y-94923346D01*
X117117579Y-94922883D01*
X117121665Y-94894052D01*
X117340395Y-94894052D01*
X117367554Y-94927082D01*
X117430273Y-94953253D01*
X117500530Y-94961411D01*
X117550780Y-94944900D01*
X117561416Y-94930618D01*
X117558540Y-94899636D01*
X117604122Y-94899636D01*
X117607295Y-94927300D01*
X117610726Y-94930618D01*
X117635412Y-94954488D01*
X117706186Y-94961366D01*
X117745657Y-94960016D01*
X117792778Y-94945488D01*
X117799824Y-94913217D01*
X117843462Y-94913217D01*
X117850688Y-94928278D01*
X117897359Y-94953695D01*
X117966279Y-94969796D01*
X118032588Y-94971961D01*
X118071426Y-94955571D01*
X118075927Y-94914998D01*
X118032368Y-94883449D01*
X117992544Y-94877966D01*
X118101280Y-94877966D01*
X118101877Y-94914998D01*
X118101901Y-94916490D01*
X118111589Y-94937972D01*
X118130880Y-94961366D01*
X118136237Y-94956406D01*
X118140639Y-94928956D01*
X118232391Y-94928956D01*
X118240621Y-94966118D01*
X118279461Y-94991284D01*
X118303970Y-94984106D01*
X118316858Y-94941407D01*
X118311901Y-94923626D01*
X118357690Y-94923626D01*
X118365139Y-94941407D01*
X118371900Y-94957546D01*
X118411939Y-94985261D01*
X118452927Y-94977970D01*
X118471731Y-94933642D01*
X118467321Y-94916490D01*
X118501649Y-94916490D01*
X118516607Y-94931449D01*
X118519100Y-94928956D01*
X118621319Y-94928956D01*
X118622357Y-94933642D01*
X118629549Y-94966118D01*
X118668389Y-94991284D01*
X118692898Y-94984106D01*
X118704277Y-94946407D01*
X118740989Y-94946407D01*
X118752095Y-94972577D01*
X118800824Y-94991284D01*
X118835717Y-94982955D01*
X118860659Y-94946407D01*
X118849553Y-94920238D01*
X118838224Y-94915889D01*
X118896969Y-94915889D01*
X118900046Y-94946407D01*
X118900549Y-94951394D01*
X118909548Y-94956074D01*
X118913845Y-94946407D01*
X119010247Y-94946407D01*
X119012419Y-94959309D01*
X119046707Y-94983873D01*
X119129917Y-94991284D01*
X119164321Y-94990469D01*
X119229827Y-94977611D01*
X119249587Y-94946407D01*
X119247415Y-94933506D01*
X119222825Y-94915889D01*
X119285897Y-94915889D01*
X119288974Y-94946407D01*
X119289477Y-94951394D01*
X119298476Y-94956074D01*
X119309422Y-94931449D01*
X119307263Y-94915610D01*
X119289477Y-94911504D01*
X119285897Y-94915889D01*
X119222825Y-94915889D01*
X119213127Y-94908941D01*
X119129917Y-94901531D01*
X119095513Y-94902346D01*
X119030008Y-94915204D01*
X119019720Y-94931449D01*
X119010247Y-94946407D01*
X118913845Y-94946407D01*
X118920494Y-94931449D01*
X118918335Y-94915610D01*
X118900549Y-94911504D01*
X118896969Y-94915889D01*
X118838224Y-94915889D01*
X118800824Y-94901531D01*
X118765931Y-94909860D01*
X118744401Y-94941407D01*
X118740989Y-94946407D01*
X118704277Y-94946407D01*
X118705786Y-94941407D01*
X118700513Y-94922490D01*
X118670442Y-94883964D01*
X118637081Y-94885093D01*
X118625799Y-94916490D01*
X118621319Y-94928956D01*
X118519100Y-94928956D01*
X118531566Y-94916490D01*
X118516607Y-94901531D01*
X118501649Y-94916490D01*
X118467321Y-94916490D01*
X118460851Y-94891325D01*
X118409702Y-94871614D01*
X118368714Y-94881041D01*
X118357690Y-94923626D01*
X118311901Y-94923626D01*
X118311584Y-94922490D01*
X118281514Y-94883964D01*
X118248153Y-94885093D01*
X118236871Y-94916490D01*
X118232391Y-94928956D01*
X118140639Y-94928956D01*
X118142638Y-94916490D01*
X118139373Y-94895860D01*
X118113659Y-94871614D01*
X118101280Y-94877966D01*
X117992544Y-94877966D01*
X117946408Y-94871614D01*
X117871144Y-94881452D01*
X117847127Y-94909011D01*
X117843462Y-94913217D01*
X117799824Y-94913217D01*
X117800742Y-94909011D01*
X117776651Y-94870908D01*
X117698678Y-94847280D01*
X117656109Y-94844816D01*
X117614300Y-94857299D01*
X117604122Y-94899636D01*
X117558540Y-94899636D01*
X117557518Y-94888620D01*
X117510925Y-94855278D01*
X117434181Y-94841696D01*
X117389696Y-94843343D01*
X117345831Y-94858002D01*
X117341899Y-94884079D01*
X117340395Y-94894052D01*
X117121665Y-94894052D01*
X117123079Y-94884079D01*
X117118289Y-94854672D01*
X117105004Y-94866004D01*
X117103224Y-94872447D01*
X117100224Y-94883305D01*
X117054998Y-94883305D01*
X117058333Y-94872447D01*
X117046386Y-94842828D01*
X117017613Y-94849799D01*
X117011912Y-94858962D01*
X116906093Y-94858962D01*
X116884311Y-94825631D01*
X116873902Y-94805428D01*
X116906664Y-94766504D01*
X116947522Y-94745283D01*
X116998207Y-94758080D01*
X117022423Y-94773309D01*
X117035689Y-94755607D01*
X117040783Y-94740114D01*
X117080565Y-94722026D01*
X117094164Y-94718499D01*
X117109813Y-94694240D01*
X117119369Y-94638741D01*
X117124141Y-94542482D01*
X117125441Y-94395945D01*
X117125441Y-94090091D01*
X117304947Y-94090091D01*
X117305890Y-94395945D01*
X117305898Y-94398579D01*
X117306136Y-94435939D01*
X117311829Y-94593507D01*
X117327372Y-94701525D01*
X117355986Y-94768343D01*
X117400892Y-94802311D01*
X117465312Y-94811778D01*
X117522534Y-94801115D01*
X117545238Y-94759423D01*
X117546139Y-94736005D01*
X117555393Y-94723438D01*
X117585934Y-94759423D01*
X117619022Y-94787284D01*
X117686777Y-94809082D01*
X117753591Y-94805397D01*
X117793815Y-94774382D01*
X117807767Y-94753594D01*
X117834005Y-94772010D01*
X117869098Y-94799505D01*
X117936939Y-94826591D01*
X117942350Y-94827907D01*
X118004046Y-94829695D01*
X118035884Y-94791566D01*
X118045100Y-94768743D01*
X118061847Y-94753265D01*
X118087230Y-94790999D01*
X118118003Y-94825652D01*
X118157348Y-94811985D01*
X118183479Y-94796067D01*
X118216534Y-94810326D01*
X118223784Y-94819791D01*
X118265839Y-94841696D01*
X118275184Y-94839940D01*
X118278545Y-94813846D01*
X118274470Y-94802918D01*
X118291949Y-94767073D01*
X118310652Y-94764136D01*
X118340514Y-94794923D01*
X118343491Y-94801829D01*
X118381020Y-94837498D01*
X118422544Y-94832875D01*
X118442765Y-94789340D01*
X118443117Y-94777702D01*
X118451398Y-94753696D01*
X118480162Y-94781861D01*
X118485809Y-94787932D01*
X118536570Y-94816566D01*
X118601471Y-94831869D01*
X118657377Y-94830640D01*
X118681154Y-94809678D01*
X118694568Y-94799909D01*
X118738560Y-94817204D01*
X118792023Y-94837703D01*
X118843271Y-94813795D01*
X118878348Y-94791681D01*
X118890577Y-94810131D01*
X118901004Y-94828854D01*
X118950412Y-94826737D01*
X118986955Y-94821359D01*
X119010247Y-94839680D01*
X119018461Y-94853873D01*
X119065227Y-94868626D01*
X119132533Y-94869871D01*
X119196221Y-94858203D01*
X119232135Y-94834217D01*
X119247519Y-94812640D01*
X119267455Y-94835465D01*
X119287132Y-94857841D01*
X119326456Y-94839974D01*
X119367354Y-94823102D01*
X119415437Y-94853684D01*
X119438756Y-94884697D01*
X119431230Y-94901531D01*
X119416459Y-94906612D01*
X119405672Y-94931449D01*
X119399175Y-94946407D01*
X119404388Y-94967336D01*
X119444051Y-94991284D01*
X119473323Y-94976645D01*
X119488928Y-94916490D01*
X119497711Y-94867703D01*
X119533804Y-94841696D01*
X119538028Y-94841995D01*
X119569798Y-94875892D01*
X119583906Y-94963998D01*
X119580881Y-95068044D01*
X119579851Y-95103475D01*
X119574398Y-95170789D01*
X121154791Y-95170789D01*
X121492134Y-95170711D01*
X121774935Y-95170373D01*
X122007999Y-95169597D01*
X122196130Y-95168202D01*
X122344133Y-95166011D01*
X122456813Y-95162844D01*
X122538976Y-95158522D01*
X122595425Y-95152867D01*
X122630966Y-95145699D01*
X122650404Y-95136840D01*
X122653019Y-95133392D01*
X122697455Y-95133392D01*
X122706918Y-95154527D01*
X122760894Y-95166987D01*
X122867118Y-95170789D01*
X122901834Y-95170569D01*
X122991513Y-95165366D01*
X123036679Y-95150984D01*
X123049116Y-95124420D01*
X123048485Y-95116172D01*
X123030492Y-95093676D01*
X122978333Y-95084882D01*
X122879454Y-95087023D01*
X122817572Y-95092279D01*
X122733951Y-95109336D01*
X122697455Y-95133392D01*
X122653019Y-95133392D01*
X122658543Y-95126110D01*
X122660188Y-95113331D01*
X122666940Y-95087061D01*
X122719557Y-95046388D01*
X122817271Y-95025254D01*
X122951607Y-95026192D01*
X123064075Y-95035815D01*
X123062964Y-94976325D01*
X123617550Y-94976325D01*
X123621602Y-95035815D01*
X123622268Y-95045591D01*
X123647001Y-95075199D01*
X123707302Y-95081036D01*
X123766673Y-95075532D01*
X123792052Y-95046677D01*
X123797055Y-94976325D01*
X123796036Y-94961366D01*
X124365488Y-94961366D01*
X124366356Y-94976325D01*
X124368238Y-95008737D01*
X124391669Y-95043706D01*
X124455241Y-95051119D01*
X124502612Y-95048369D01*
X124537580Y-95024938D01*
X124544994Y-94961366D01*
X124544016Y-94944512D01*
X125113427Y-94944512D01*
X125113428Y-94946765D01*
X125114478Y-94961366D01*
X125118462Y-95016761D01*
X125143578Y-95045535D01*
X125204119Y-95051119D01*
X125280331Y-95032769D01*
X125322376Y-94985431D01*
X125324194Y-94946407D01*
X125861366Y-94946407D01*
X125865706Y-95013579D01*
X125889095Y-95044737D01*
X125946132Y-95051119D01*
X126025396Y-95042442D01*
X126062006Y-95006021D01*
X126070789Y-94926462D01*
X126069619Y-94914594D01*
X126609305Y-94914594D01*
X126609334Y-94926462D01*
X126609336Y-94927243D01*
X126615453Y-94991589D01*
X126644905Y-95016835D01*
X126715912Y-95021201D01*
X126729060Y-95021170D01*
X126792516Y-95015543D01*
X126815036Y-94988651D01*
X126813144Y-94923969D01*
X126809532Y-94901531D01*
X127327326Y-94901531D01*
X127332830Y-94960902D01*
X127361686Y-94986280D01*
X127395020Y-94988651D01*
X127432037Y-94991284D01*
X127501304Y-94986566D01*
X127530911Y-94961832D01*
X127536749Y-94901531D01*
X127531244Y-94842160D01*
X127502389Y-94816782D01*
X127469055Y-94814411D01*
X128108874Y-94814411D01*
X128110766Y-94879093D01*
X128114378Y-94901531D01*
X128119313Y-94932191D01*
X128148834Y-94971195D01*
X128217373Y-94985700D01*
X128229367Y-94986822D01*
X128287739Y-94986281D01*
X128310643Y-94959005D01*
X128314605Y-94888468D01*
X128314581Y-94879003D01*
X128857327Y-94879003D01*
X128857509Y-94888468D01*
X128858414Y-94935503D01*
X128886439Y-94957586D01*
X128957832Y-94961366D01*
X128974419Y-94961317D01*
X129036904Y-94955461D01*
X129037280Y-94955000D01*
X130378916Y-94955000D01*
X130387491Y-94972440D01*
X130430378Y-94982480D01*
X130487488Y-94970400D01*
X130533988Y-94938796D01*
X130545362Y-94924426D01*
X130555492Y-94901278D01*
X130518577Y-94910888D01*
X130485193Y-94921236D01*
X130421345Y-94931449D01*
X130403066Y-94933761D01*
X130378916Y-94955000D01*
X129037280Y-94955000D01*
X129058942Y-94928438D01*
X129058592Y-94917095D01*
X129391637Y-94917095D01*
X129391664Y-94917446D01*
X129419191Y-94927348D01*
X129436128Y-94928438D01*
X129482916Y-94931449D01*
X129530128Y-94927535D01*
X129573864Y-94901682D01*
X129646029Y-94901682D01*
X129646656Y-94902628D01*
X129687852Y-94920321D01*
X129751703Y-94920357D01*
X129804815Y-94902553D01*
X129814483Y-94890226D01*
X129870318Y-94890226D01*
X129870679Y-94891195D01*
X129902182Y-94898526D01*
X129969019Y-94901531D01*
X130022362Y-94897808D01*
X130070100Y-94870718D01*
X130076983Y-94856655D01*
X130348998Y-94856655D01*
X130363957Y-94871614D01*
X130378916Y-94856655D01*
X130363957Y-94841696D01*
X130348998Y-94856655D01*
X130076983Y-94856655D01*
X130103648Y-94802175D01*
X130108689Y-94787539D01*
X130368660Y-94787539D01*
X130377546Y-94811778D01*
X130378192Y-94811731D01*
X130401394Y-94785425D01*
X130431488Y-94727179D01*
X130457553Y-94661048D01*
X130468669Y-94611084D01*
X130463743Y-94599678D01*
X130441189Y-94616280D01*
X130410595Y-94662012D01*
X130400382Y-94684544D01*
X130383418Y-94721971D01*
X130381201Y-94728524D01*
X130368660Y-94787539D01*
X130108689Y-94787539D01*
X130127101Y-94734084D01*
X130134424Y-94684544D01*
X130110630Y-94665379D01*
X130050224Y-94662191D01*
X130000854Y-94666987D01*
X129964801Y-94690701D01*
X129954375Y-94697559D01*
X129915595Y-94770556D01*
X129906674Y-94792129D01*
X129880745Y-94858072D01*
X129870318Y-94890226D01*
X129814483Y-94890226D01*
X129824845Y-94877013D01*
X129858273Y-94813399D01*
X129887631Y-94741910D01*
X129900235Y-94690701D01*
X129876611Y-94670949D01*
X129816024Y-94662191D01*
X129777749Y-94665608D01*
X129726390Y-94695212D01*
X129725809Y-94695547D01*
X129680899Y-94768957D01*
X129671289Y-94790251D01*
X129647563Y-94860470D01*
X129646029Y-94901682D01*
X129573864Y-94901682D01*
X129578865Y-94898726D01*
X129617545Y-94827698D01*
X129646000Y-94754126D01*
X129656532Y-94695212D01*
X129633684Y-94668486D01*
X129574391Y-94662191D01*
X129518495Y-94669807D01*
X129477424Y-94704745D01*
X129439762Y-94782466D01*
X129427261Y-94814203D01*
X129401777Y-94882966D01*
X129391637Y-94917095D01*
X129058592Y-94917095D01*
X129056960Y-94864134D01*
X129048280Y-94809577D01*
X129020761Y-94774480D01*
X128957832Y-94766902D01*
X128907114Y-94770607D01*
X128872196Y-94796753D01*
X128858705Y-94864134D01*
X128857327Y-94879003D01*
X128314581Y-94879003D01*
X128314573Y-94875819D01*
X128308456Y-94811473D01*
X128279005Y-94786227D01*
X128207998Y-94781861D01*
X128194850Y-94781892D01*
X128131393Y-94787519D01*
X128108874Y-94814411D01*
X127469055Y-94814411D01*
X127432037Y-94811778D01*
X127362771Y-94816497D01*
X127333163Y-94841230D01*
X127327326Y-94901531D01*
X126809532Y-94901531D01*
X126804597Y-94870872D01*
X126775075Y-94831867D01*
X126706537Y-94817362D01*
X126694542Y-94816240D01*
X126636171Y-94816782D01*
X126613267Y-94844058D01*
X126609305Y-94914594D01*
X126069619Y-94914594D01*
X126065427Y-94872086D01*
X126036535Y-94846862D01*
X125966077Y-94841696D01*
X125958107Y-94841709D01*
X125892127Y-94847445D01*
X125865997Y-94876227D01*
X125862656Y-94926864D01*
X125861366Y-94946407D01*
X125324194Y-94946407D01*
X125325105Y-94926864D01*
X125287968Y-94874878D01*
X125210414Y-94847280D01*
X125198573Y-94846169D01*
X125140282Y-94846703D01*
X125117394Y-94873976D01*
X125113427Y-94944512D01*
X124544016Y-94944512D01*
X124542244Y-94913995D01*
X124518813Y-94879027D01*
X124455241Y-94871614D01*
X124407870Y-94874363D01*
X124372902Y-94897794D01*
X124365488Y-94961366D01*
X123796036Y-94961366D01*
X123792337Y-94907059D01*
X123767604Y-94877451D01*
X123707302Y-94871614D01*
X123647931Y-94877118D01*
X123622553Y-94905973D01*
X123617550Y-94976325D01*
X123062964Y-94976325D01*
X123053461Y-94467554D01*
X123053305Y-94459295D01*
X123051233Y-94374731D01*
X123288457Y-94374731D01*
X123288531Y-94415199D01*
X123291116Y-94594513D01*
X123297159Y-94728602D01*
X123306349Y-94812614D01*
X123318374Y-94841696D01*
X123327599Y-94840053D01*
X123348292Y-94808115D01*
X123353426Y-94791465D01*
X123385689Y-94804607D01*
X123410122Y-94816500D01*
X123486966Y-94830485D01*
X123582649Y-94833644D01*
X123671308Y-94825810D01*
X123727077Y-94806817D01*
X123745759Y-94796237D01*
X123781198Y-94810326D01*
X123794295Y-94823903D01*
X123843049Y-94840235D01*
X123893491Y-94834815D01*
X123916725Y-94808115D01*
X123921767Y-94791642D01*
X123954122Y-94804279D01*
X123992032Y-94813839D01*
X124077200Y-94821564D01*
X124195640Y-94826810D01*
X124334058Y-94829561D01*
X124479163Y-94829803D01*
X124617660Y-94827518D01*
X124736257Y-94822692D01*
X124821660Y-94815308D01*
X124860578Y-94805352D01*
X124881146Y-94798113D01*
X124933086Y-94811331D01*
X124944835Y-94816633D01*
X125010807Y-94830994D01*
X125081579Y-94832306D01*
X125125872Y-94819278D01*
X125125901Y-94819252D01*
X125157818Y-94816302D01*
X125240005Y-94813779D01*
X125362976Y-94811835D01*
X125517246Y-94810619D01*
X125693329Y-94810282D01*
X125868707Y-94810120D01*
X126020751Y-94808640D01*
X126129604Y-94804967D01*
X126204143Y-94798256D01*
X126253245Y-94787660D01*
X126285787Y-94772332D01*
X126310646Y-94751427D01*
X126367715Y-94713034D01*
X126448031Y-94692108D01*
X126498576Y-94686646D01*
X126517630Y-94658021D01*
X126514722Y-94602356D01*
X126549470Y-94602356D01*
X126549574Y-94617176D01*
X126557434Y-94667772D01*
X126590273Y-94688266D01*
X126665476Y-94692108D01*
X126682154Y-94691692D01*
X126765036Y-94677471D01*
X126817254Y-94649008D01*
X126857690Y-94619564D01*
X126930800Y-94596652D01*
X126984989Y-94581286D01*
X127020857Y-94550000D01*
X127020511Y-94539243D01*
X126991187Y-94523624D01*
X126917299Y-94515153D01*
X126791303Y-94512603D01*
X126549470Y-94512603D01*
X126549470Y-94602356D01*
X126514722Y-94602356D01*
X126513995Y-94588438D01*
X126501893Y-94484769D01*
X127043109Y-94467727D01*
X127048667Y-94344292D01*
X127048595Y-94280614D01*
X127032053Y-94222263D01*
X126988832Y-94187067D01*
X126923439Y-94153277D01*
X126990753Y-94170410D01*
X127058068Y-94187542D01*
X127058068Y-93914252D01*
X127446996Y-93914252D01*
X127457874Y-93935817D01*
X127503474Y-93940777D01*
X127566666Y-93914252D01*
X127579921Y-93904735D01*
X127581413Y-93890110D01*
X127640921Y-93890110D01*
X127641240Y-93897415D01*
X127658738Y-93903015D01*
X127697287Y-93906830D01*
X127760761Y-93908781D01*
X127853032Y-93908787D01*
X127977972Y-93906768D01*
X128139455Y-93902644D01*
X128341353Y-93896335D01*
X128587540Y-93887760D01*
X128881887Y-93876840D01*
X129228268Y-93863494D01*
X129630555Y-93847643D01*
X129888188Y-93836981D01*
X130154973Y-93824967D01*
X130398069Y-93813010D01*
X130611455Y-93801454D01*
X130789116Y-93790646D01*
X130925033Y-93780932D01*
X131013189Y-93772657D01*
X131047565Y-93766169D01*
X131041293Y-93749700D01*
X130983017Y-93734612D01*
X130877150Y-93722570D01*
X130730054Y-93713513D01*
X130548089Y-93707379D01*
X130337614Y-93704108D01*
X130104991Y-93703638D01*
X129856579Y-93705909D01*
X129598739Y-93710859D01*
X129337832Y-93718428D01*
X129080218Y-93728553D01*
X128832256Y-93741175D01*
X128600308Y-93756233D01*
X128390734Y-93773664D01*
X128209894Y-93793409D01*
X128049784Y-93814788D01*
X127893860Y-93837847D01*
X127767271Y-93858987D01*
X127680047Y-93876525D01*
X127642220Y-93888775D01*
X127641748Y-93889260D01*
X127640921Y-93890110D01*
X127581413Y-93890110D01*
X127581500Y-93889260D01*
X127529269Y-93884793D01*
X127472799Y-93892688D01*
X127446996Y-93914252D01*
X127058068Y-93914252D01*
X127058068Y-93701722D01*
X127057488Y-93536136D01*
X127054871Y-93394958D01*
X127049298Y-93295714D01*
X127039854Y-93228868D01*
X127025630Y-93184884D01*
X127005712Y-93154226D01*
X126975609Y-93118141D01*
X126971349Y-93107728D01*
X127006541Y-93133783D01*
X127015983Y-93140417D01*
X127029726Y-93143834D01*
X127040070Y-93131313D01*
X127047385Y-93096585D01*
X127052039Y-93033379D01*
X127054401Y-92935425D01*
X127054839Y-92796452D01*
X127053721Y-92610191D01*
X127051417Y-92370370D01*
X127043400Y-91593876D01*
X127207656Y-91593876D01*
X127208241Y-91608981D01*
X127222373Y-91639196D01*
X127251254Y-91612668D01*
X127255320Y-91601880D01*
X127238061Y-91566026D01*
X127222375Y-91563063D01*
X127207656Y-91593876D01*
X127043400Y-91593876D01*
X127043109Y-91565724D01*
X126065851Y-91556803D01*
X125088594Y-91547881D01*
X125086493Y-91555107D01*
X125038568Y-91719965D01*
X125013487Y-91809384D01*
X124960538Y-92036099D01*
X124928096Y-92255179D01*
X124913521Y-92488667D01*
X124914171Y-92758608D01*
X124919056Y-92922764D01*
X124926770Y-93082702D01*
X124937248Y-93197142D01*
X124951608Y-93274085D01*
X124970966Y-93321530D01*
X124996441Y-93347478D01*
X125012813Y-93362937D01*
X124990246Y-93381893D01*
X124981870Y-93387906D01*
X124975978Y-93419890D01*
X124986728Y-93484631D01*
X125015705Y-93589838D01*
X125064493Y-93743217D01*
X125064881Y-93744395D01*
X125112539Y-93881863D01*
X125157843Y-93999614D01*
X125195690Y-94085165D01*
X125220977Y-94126030D01*
X125242038Y-94148775D01*
X125263015Y-94199791D01*
X125264097Y-94206327D01*
X125287302Y-94258212D01*
X125334554Y-94340783D01*
X125397644Y-94439429D01*
X125416984Y-94468360D01*
X125475749Y-94557520D01*
X125516821Y-94621790D01*
X125532273Y-94648843D01*
X125527659Y-94648275D01*
X125484033Y-94630233D01*
X125404235Y-94593203D01*
X125300412Y-94542742D01*
X125291259Y-94538229D01*
X125159133Y-94475820D01*
X125012051Y-94410369D01*
X124863827Y-94347593D01*
X124728275Y-94293206D01*
X124619208Y-94252924D01*
X124550441Y-94232461D01*
X124490591Y-94215423D01*
X124411399Y-94186373D01*
X124330197Y-94160578D01*
X124239432Y-94144403D01*
X124182083Y-94135128D01*
X124156125Y-94119469D01*
X124155808Y-94117877D01*
X124124876Y-94100019D01*
X124058833Y-94083438D01*
X123986453Y-94069296D01*
X123870815Y-94044718D01*
X123732960Y-94014285D01*
X123591351Y-93982133D01*
X123464453Y-93952401D01*
X123370730Y-93929227D01*
X123288457Y-93907765D01*
X123288457Y-94374731D01*
X123051233Y-94374731D01*
X123048947Y-94281411D01*
X123043302Y-94124887D01*
X123036861Y-93999343D01*
X123030111Y-93914394D01*
X123023543Y-93879659D01*
X122997231Y-93870409D01*
X122920011Y-93855952D01*
X122804326Y-93839320D01*
X122661889Y-93821778D01*
X122504413Y-93804589D01*
X122343611Y-93789019D01*
X122191196Y-93776331D01*
X122058882Y-93767792D01*
X121958380Y-93764664D01*
X121756002Y-93764664D01*
X121776711Y-93876855D01*
X121787509Y-93924980D01*
X121830456Y-94063267D01*
X121891531Y-94222087D01*
X121962062Y-94379878D01*
X122033377Y-94515076D01*
X122115092Y-94653664D01*
X121886521Y-94583048D01*
X121823902Y-94564221D01*
X121595576Y-94502364D01*
X121345352Y-94443200D01*
X121086418Y-94389187D01*
X120831964Y-94342784D01*
X120595178Y-94306448D01*
X120389251Y-94282637D01*
X120227371Y-94273811D01*
X120170769Y-94274157D01*
X120113919Y-94280505D01*
X120095828Y-94300267D01*
X120103226Y-94340577D01*
X120107520Y-94353167D01*
X120139601Y-94426343D01*
X120191135Y-94530391D01*
X120253630Y-94649065D01*
X120318593Y-94766118D01*
X120377530Y-94865305D01*
X120383820Y-94880685D01*
X120362086Y-94865876D01*
X120313993Y-94819994D01*
X120246867Y-94750801D01*
X120168035Y-94666056D01*
X120084823Y-94573520D01*
X120004560Y-94480953D01*
X119934570Y-94396118D01*
X119824117Y-94257395D01*
X119505076Y-94277160D01*
X119400924Y-94284332D01*
X119286452Y-94294186D01*
X119205785Y-94303537D01*
X119171897Y-94311063D01*
X119169257Y-94318463D01*
X119171434Y-94369556D01*
X119185534Y-94448819D01*
X119192568Y-94481216D01*
X119204756Y-94546481D01*
X119206309Y-94572438D01*
X119205913Y-94572372D01*
X119174569Y-94558410D01*
X119104941Y-94524823D01*
X119011188Y-94478433D01*
X118981298Y-94463579D01*
X118888534Y-94420996D01*
X118821202Y-94401877D01*
X118757513Y-94402327D01*
X118675677Y-94418449D01*
X118663935Y-94421309D01*
X118558442Y-94454078D01*
X118428519Y-94502835D01*
X118299561Y-94558149D01*
X118256705Y-94577922D01*
X118170193Y-94616437D01*
X118122311Y-94632286D01*
X118113828Y-94621571D01*
X118145510Y-94580395D01*
X118218123Y-94504860D01*
X118332435Y-94391069D01*
X118447438Y-94277083D01*
X118332435Y-94247082D01*
X118325674Y-94245335D01*
X118211615Y-94218845D01*
X118097762Y-94196349D01*
X118078922Y-94193073D01*
X117986639Y-94176716D01*
X117918256Y-94164149D01*
X117892528Y-94159894D01*
X117809197Y-94148892D01*
X117708833Y-94137868D01*
X117670106Y-94133924D01*
X117543848Y-94120060D01*
X117432096Y-94106573D01*
X117304947Y-94090091D01*
X117125441Y-94090091D01*
X117125441Y-94069865D01*
X116754144Y-94048449D01*
X116599019Y-94041577D01*
X116310767Y-94038942D01*
X116024706Y-94048316D01*
X115749045Y-94068647D01*
X115491994Y-94098878D01*
X115261761Y-94137956D01*
X115066557Y-94184825D01*
X114914589Y-94238431D01*
X114814068Y-94297718D01*
X114785407Y-94324732D01*
X114778892Y-94355786D01*
X114702561Y-94355786D01*
X114564050Y-94188799D01*
X114521138Y-94134688D01*
X114380191Y-93923661D01*
X114254539Y-93686706D01*
X114154555Y-93445052D01*
X114090612Y-93219930D01*
X114088642Y-93210032D01*
X114079869Y-93147878D01*
X119010019Y-93147878D01*
X119011676Y-93345281D01*
X119023602Y-93507893D01*
X119034378Y-93578243D01*
X119050794Y-93647939D01*
X119065692Y-93674912D01*
X119071288Y-93672666D01*
X119111846Y-93640885D01*
X119179068Y-93579374D01*
X119261773Y-93498208D01*
X119436633Y-93321505D01*
X119442616Y-92772708D01*
X119443638Y-92686890D01*
X119447346Y-92503100D01*
X119454556Y-92353683D01*
X119467625Y-92223380D01*
X119488912Y-92096934D01*
X119520774Y-91959087D01*
X119565569Y-91794583D01*
X119625654Y-91588162D01*
X119633044Y-91555107D01*
X119619020Y-91527150D01*
X119559732Y-91521306D01*
X119492992Y-91527576D01*
X119437609Y-91544869D01*
X119412601Y-91573339D01*
X119366943Y-91650500D01*
X119311175Y-91761796D01*
X119250904Y-91894746D01*
X119191732Y-92036868D01*
X119139265Y-92175682D01*
X119099109Y-92298704D01*
X119084459Y-92356780D01*
X119055852Y-92520134D01*
X119033189Y-92717983D01*
X119017550Y-92933005D01*
X119010019Y-93147878D01*
X114079869Y-93147878D01*
X114059695Y-93004952D01*
X114047009Y-92783286D01*
X114051119Y-92569600D01*
X114072558Y-92388457D01*
X114079795Y-92347536D01*
X114088496Y-92275569D01*
X114086398Y-92241547D01*
X114062290Y-92237990D01*
X113986917Y-92249421D01*
X113869755Y-92277075D01*
X113719029Y-92318406D01*
X113542967Y-92370865D01*
X113349792Y-92431906D01*
X113147732Y-92498981D01*
X112945011Y-92569544D01*
X112749857Y-92641048D01*
X112570494Y-92710945D01*
X112476384Y-92748421D01*
X112374214Y-92787462D01*
X112304552Y-92812036D01*
X112278798Y-92817958D01*
X112279040Y-92817212D01*
X112299596Y-92785604D01*
X112349466Y-92714130D01*
X112423284Y-92610342D01*
X112515683Y-92481791D01*
X112621295Y-92336029D01*
X112682946Y-92251781D01*
X112791916Y-92103154D01*
X112866125Y-91994352D01*
X112903726Y-91918064D01*
X112902874Y-91866976D01*
X112861723Y-91833776D01*
X112778427Y-91811153D01*
X112651141Y-91791794D01*
X112478019Y-91768387D01*
X112391293Y-91758101D01*
X112204972Y-91743397D01*
X111978032Y-91731992D01*
X111722463Y-91723974D01*
X111450257Y-91719432D01*
X111173405Y-91718454D01*
X110903898Y-91721130D01*
X110653728Y-91727548D01*
X110434886Y-91737796D01*
X110259364Y-91751964D01*
X110199026Y-91758323D01*
X110090386Y-91768917D01*
X110013816Y-91775193D01*
X109983011Y-91775962D01*
X109986899Y-91771723D01*
X110027459Y-91739090D01*
X110106484Y-91678596D01*
X110217197Y-91595355D01*
X110352818Y-91494481D01*
X110407229Y-91454351D01*
X125143345Y-91454351D01*
X125146693Y-91462372D01*
X125170463Y-91473286D01*
X125222451Y-91480976D01*
X125308972Y-91485723D01*
X125436347Y-91487805D01*
X125610893Y-91487502D01*
X125838928Y-91485093D01*
X125919937Y-91483995D01*
X126135506Y-91480753D01*
X126342158Y-91477220D01*
X126527166Y-91473637D01*
X126677799Y-91470244D01*
X126781331Y-91467282D01*
X127028150Y-91458593D01*
X127028150Y-91340133D01*
X127028056Y-91338201D01*
X127202494Y-91338201D01*
X127204124Y-91416137D01*
X127214299Y-91451705D01*
X127227511Y-91458593D01*
X127252718Y-91471735D01*
X127334867Y-91477819D01*
X127336454Y-91477839D01*
X127398450Y-91473285D01*
X127466317Y-91455069D01*
X127551114Y-91418430D01*
X127663901Y-91358609D01*
X127815737Y-91270845D01*
X127882324Y-91231184D01*
X128010931Y-91151124D01*
X128091738Y-91094114D01*
X128128662Y-91057207D01*
X128125615Y-91037454D01*
X128107648Y-91029438D01*
X128032443Y-91005182D01*
X127923942Y-90975951D01*
X127799872Y-90945920D01*
X127677959Y-90919266D01*
X127575929Y-90900164D01*
X127511510Y-90892789D01*
X127464642Y-90902641D01*
X127425021Y-90955191D01*
X127419862Y-90971537D01*
X127388375Y-91004934D01*
X127321793Y-91005056D01*
X127257855Y-91001563D01*
X127223239Y-91011240D01*
X127222378Y-91013057D01*
X127215297Y-91057142D01*
X127209006Y-91139098D01*
X127204429Y-91239320D01*
X127202494Y-91338201D01*
X127028056Y-91338201D01*
X127024877Y-91272754D01*
X127007617Y-91231824D01*
X126968315Y-91221672D01*
X126923518Y-91206724D01*
X126908480Y-91149325D01*
X126898544Y-91054126D01*
X126864471Y-91005463D01*
X126801487Y-91000271D01*
X126789541Y-91002220D01*
X126741492Y-90996676D01*
X126728975Y-90953000D01*
X126738895Y-90913646D01*
X126788810Y-90892579D01*
X126823604Y-90886632D01*
X126846927Y-90862662D01*
X127192697Y-90862662D01*
X127213016Y-90879229D01*
X127271022Y-90892579D01*
X127303451Y-90886431D01*
X127312367Y-90862662D01*
X127292048Y-90846095D01*
X127234042Y-90832744D01*
X127201613Y-90838892D01*
X127192697Y-90862662D01*
X126846927Y-90862662D01*
X126848645Y-90860896D01*
X126850994Y-90850075D01*
X126878563Y-90847703D01*
X126890152Y-90852378D01*
X126908480Y-90834510D01*
X126905935Y-90822788D01*
X126871083Y-90798969D01*
X126831563Y-90794216D01*
X126758892Y-90784292D01*
X126732784Y-90781259D01*
X126639856Y-90774524D01*
X126510106Y-90768227D01*
X126355612Y-90762632D01*
X126188447Y-90758003D01*
X126020686Y-90754605D01*
X125864406Y-90752702D01*
X125731681Y-90752557D01*
X125634587Y-90754437D01*
X125585197Y-90758604D01*
X125558813Y-90772797D01*
X125528056Y-90802827D01*
X125497410Y-90832748D01*
X125423129Y-90926525D01*
X125344106Y-91041315D01*
X125268478Y-91164306D01*
X125204385Y-91282684D01*
X125159961Y-91383637D01*
X125146822Y-91439552D01*
X125143345Y-91454351D01*
X110407229Y-91454351D01*
X110498111Y-91387322D01*
X115456341Y-91387322D01*
X115456585Y-91387461D01*
X115490846Y-91390536D01*
X115576687Y-91394777D01*
X115706328Y-91399899D01*
X115871992Y-91405614D01*
X116065899Y-91411636D01*
X116280270Y-91417678D01*
X117095524Y-91439552D01*
X117095524Y-91315653D01*
X117092460Y-91252309D01*
X117260300Y-91252309D01*
X117261856Y-91315669D01*
X117268351Y-91363781D01*
X117269541Y-91369621D01*
X117282443Y-91403079D01*
X117312368Y-91420625D01*
X117373548Y-91426317D01*
X117480216Y-91424215D01*
X117520707Y-91423026D01*
X117630616Y-91420455D01*
X117786218Y-91417278D01*
X117978693Y-91413657D01*
X118199223Y-91409758D01*
X118438989Y-91405743D01*
X118689171Y-91401777D01*
X119699427Y-91386219D01*
X119991979Y-90802827D01*
X119613304Y-90803235D01*
X119605440Y-90803248D01*
X119455434Y-90804934D01*
X119322974Y-90808969D01*
X119222154Y-90814768D01*
X119167070Y-90821747D01*
X119150464Y-90826284D01*
X119118101Y-90841571D01*
X119120341Y-90871136D01*
X119155219Y-90933530D01*
X119188506Y-90990483D01*
X119245983Y-91090762D01*
X119306177Y-91197366D01*
X119401428Y-91367523D01*
X119120369Y-91224427D01*
X119060274Y-91194680D01*
X118898796Y-91120613D01*
X118734454Y-91051876D01*
X118594878Y-91000255D01*
X118583730Y-90996558D01*
X118467539Y-90959258D01*
X118383824Y-90939104D01*
X118310042Y-90934516D01*
X118223649Y-90943912D01*
X118102102Y-90965714D01*
X118060170Y-90973519D01*
X117951018Y-90993299D01*
X117870628Y-91007078D01*
X117834005Y-91012250D01*
X117829233Y-91009395D01*
X117811659Y-90968419D01*
X117795391Y-90894297D01*
X117785337Y-90840703D01*
X117763404Y-90793428D01*
X117717042Y-90766595D01*
X117629018Y-90744710D01*
X117564428Y-90731063D01*
X117484119Y-90717818D01*
X117442554Y-90722945D01*
X117426974Y-90750072D01*
X117424617Y-90802827D01*
X117425122Y-90808269D01*
X117430121Y-90862198D01*
X117458977Y-90887576D01*
X117529328Y-90892579D01*
X117538865Y-90892661D01*
X117611333Y-90904264D01*
X117634040Y-90937456D01*
X117633686Y-90942863D01*
X117614726Y-90966668D01*
X117558765Y-90978886D01*
X117454534Y-90982332D01*
X117400718Y-90982861D01*
X117321788Y-90988968D01*
X117283137Y-91004979D01*
X117271503Y-91034688D01*
X117263826Y-91158426D01*
X117260300Y-91252309D01*
X117092460Y-91252309D01*
X117092022Y-91243260D01*
X117075113Y-91202082D01*
X117037584Y-91191755D01*
X117024817Y-91190935D01*
X116987109Y-91165458D01*
X116970270Y-91094523D01*
X116961723Y-91041425D01*
X116932201Y-91002421D01*
X116863663Y-90987916D01*
X116856129Y-90987127D01*
X116787324Y-90967336D01*
X116766431Y-90925783D01*
X116767156Y-90913437D01*
X116788746Y-90884857D01*
X116851232Y-90885471D01*
X116882999Y-90889401D01*
X116919794Y-90883057D01*
X116935513Y-90846315D01*
X116939489Y-90787868D01*
X117280788Y-90787868D01*
X117282783Y-90818533D01*
X117299534Y-90876222D01*
X117337919Y-90892579D01*
X117362226Y-90888859D01*
X117380070Y-90865122D01*
X117381373Y-90808269D01*
X117368193Y-90705595D01*
X117362193Y-90695734D01*
X117320816Y-90683157D01*
X117315051Y-90683543D01*
X117286916Y-90711170D01*
X117280788Y-90787868D01*
X116939489Y-90787868D01*
X116941081Y-90764458D01*
X116942606Y-90706837D01*
X116934814Y-90652201D01*
X116902940Y-90627205D01*
X116833842Y-90613327D01*
X116807579Y-90609423D01*
X116676902Y-90593781D01*
X116512888Y-90578258D01*
X116331009Y-90563901D01*
X116146737Y-90551754D01*
X115975543Y-90542864D01*
X115832898Y-90538275D01*
X115734275Y-90539032D01*
X115554770Y-90548528D01*
X115501218Y-90963684D01*
X115494514Y-91016259D01*
X115477070Y-91159829D01*
X115464124Y-91276796D01*
X115456829Y-91356260D01*
X115456341Y-91387322D01*
X110498111Y-91387322D01*
X110506568Y-91381085D01*
X110602231Y-91310776D01*
X110901339Y-91090586D01*
X110969684Y-91040164D01*
X113540471Y-91040164D01*
X113544125Y-91040682D01*
X113575178Y-91011820D01*
X113632006Y-90944906D01*
X113708140Y-90847796D01*
X113797114Y-90728349D01*
X113834870Y-90676297D01*
X113924697Y-90548935D01*
X113984864Y-90455172D01*
X114020814Y-90384916D01*
X114037989Y-90328075D01*
X114041831Y-90274557D01*
X114041460Y-90257081D01*
X114036471Y-90167469D01*
X114024806Y-90116273D01*
X114003528Y-90106203D01*
X113969699Y-90139969D01*
X113920383Y-90220283D01*
X113852643Y-90349855D01*
X113763541Y-90531395D01*
X113696630Y-90671834D01*
X113631823Y-90812468D01*
X113581529Y-90926813D01*
X113549745Y-91005752D01*
X113540471Y-91040164D01*
X110969684Y-91040164D01*
X111208539Y-90863947D01*
X111520082Y-90633655D01*
X111832219Y-90402510D01*
X112141199Y-90173309D01*
X112443274Y-89948850D01*
X112734694Y-89731931D01*
X113011709Y-89525351D01*
X113270569Y-89331907D01*
X113507526Y-89154397D01*
X113718829Y-88995620D01*
X113900729Y-88858373D01*
X114049476Y-88745455D01*
X114161321Y-88659664D01*
X114232515Y-88603798D01*
X114259307Y-88580654D01*
X114261517Y-88576402D01*
X114283855Y-88525850D01*
X114322293Y-88433583D01*
X114372075Y-88311145D01*
X114428445Y-88170082D01*
X114486517Y-88027095D01*
X114570641Y-87827825D01*
X114656919Y-87630426D01*
X114733692Y-87461945D01*
X114769605Y-87385104D01*
X114822721Y-87267332D01*
X114853758Y-87188077D01*
X114865620Y-87137248D01*
X114861208Y-87104751D01*
X114843427Y-87080496D01*
X114843192Y-87080262D01*
X114780606Y-87046146D01*
X114696777Y-87030233D01*
X114607933Y-87021844D01*
X114522614Y-87004198D01*
X114514033Y-87001075D01*
X114517919Y-86992842D01*
X114572885Y-86990220D01*
X114672202Y-86993683D01*
X114672988Y-86993727D01*
X114769366Y-86999391D01*
X114915176Y-87008309D01*
X115100260Y-87019834D01*
X115314461Y-87033320D01*
X115547622Y-87048118D01*
X115789584Y-87063582D01*
X116030191Y-87079066D01*
X116259284Y-87093922D01*
X116466706Y-87107503D01*
X116642300Y-87119163D01*
X116709855Y-87123217D01*
X116823325Y-87127621D01*
X116905922Y-87127598D01*
X116943262Y-87122968D01*
X116950325Y-87111077D01*
X116963601Y-87052893D01*
X116972385Y-86966478D01*
X116974798Y-86909283D01*
X116968092Y-86846736D01*
X116938042Y-86808937D01*
X116873366Y-86773952D01*
X116816227Y-86739452D01*
X116773327Y-86694602D01*
X116767608Y-86658871D01*
X116805378Y-86644287D01*
X116817785Y-86637983D01*
X116838125Y-86592816D01*
X116845160Y-86547055D01*
X117071774Y-86547055D01*
X117079737Y-86575023D01*
X117110482Y-86621391D01*
X117126953Y-86631600D01*
X117183278Y-86645588D01*
X117225963Y-86632608D01*
X117233354Y-86596964D01*
X117225062Y-86572308D01*
X117215194Y-86522170D01*
X117195950Y-86503960D01*
X117139089Y-86494700D01*
X117137896Y-86494702D01*
X117081826Y-86506639D01*
X117071774Y-86547055D01*
X116845160Y-86547055D01*
X116848546Y-86525029D01*
X116846393Y-86459624D01*
X116829013Y-86421604D01*
X116813166Y-86416206D01*
X116749717Y-86403982D01*
X116659947Y-86391922D01*
X116636996Y-86389324D01*
X116524940Y-86376260D01*
X116385283Y-86359589D01*
X116242874Y-86342267D01*
X116174579Y-86334738D01*
X115966063Y-86320617D01*
X115750515Y-86317238D01*
X115541213Y-86323960D01*
X115351436Y-86340142D01*
X115194462Y-86365140D01*
X115083568Y-86398313D01*
X114941460Y-86461417D01*
X114936110Y-86838751D01*
X114893313Y-86689164D01*
X114884392Y-86657053D01*
X114819989Y-86333723D01*
X114793195Y-85993198D01*
X114804604Y-85656223D01*
X114854810Y-85343543D01*
X114855992Y-85338624D01*
X114906307Y-85171410D01*
X114982820Y-84969036D01*
X115079282Y-84745984D01*
X115189443Y-84516731D01*
X115307053Y-84295760D01*
X115379851Y-84166045D01*
X115459407Y-84023685D01*
X115528690Y-83899112D01*
X115578131Y-83809489D01*
X115664095Y-83652311D01*
X115594474Y-83622013D01*
X115577147Y-83613680D01*
X115568881Y-83604427D01*
X115590443Y-83600777D01*
X115647751Y-83603043D01*
X115746717Y-83611540D01*
X115893257Y-83626580D01*
X116093286Y-83648478D01*
X116114345Y-83650797D01*
X116277415Y-83667671D01*
X116448672Y-83683912D01*
X116594315Y-83696295D01*
X116614400Y-83697896D01*
X116729163Y-83708983D01*
X116820814Y-83720937D01*
X116871052Y-83731431D01*
X116883530Y-83734944D01*
X116908891Y-83719595D01*
X116916018Y-83655733D01*
X116915990Y-83651914D01*
X116905693Y-83588832D01*
X116882438Y-83562780D01*
X116865364Y-83555392D01*
X116884734Y-83519550D01*
X116904063Y-83480489D01*
X116910836Y-83407359D01*
X116902297Y-83376179D01*
X116873806Y-83347311D01*
X116813118Y-83325624D01*
X116706596Y-83304230D01*
X116633031Y-83293350D01*
X116482347Y-83279005D01*
X116315002Y-83270434D01*
X116146226Y-83267764D01*
X115991250Y-83271124D01*
X115865303Y-83280643D01*
X115783616Y-83296448D01*
X115743445Y-83312759D01*
X115699612Y-83352927D01*
X115688228Y-83423598D01*
X115687057Y-83517903D01*
X115643352Y-83417236D01*
X115611865Y-83304121D01*
X115601107Y-83140530D01*
X115618221Y-82964784D01*
X115662535Y-82798588D01*
X115675946Y-82766249D01*
X115734301Y-82653227D01*
X115813100Y-82524147D01*
X115899214Y-82401059D01*
X115945237Y-82338575D01*
X116005029Y-82250400D01*
X116040702Y-82187878D01*
X116045748Y-82161641D01*
X116041141Y-82159536D01*
X116018492Y-82122478D01*
X116019380Y-82114897D01*
X116040930Y-82106815D01*
X116068365Y-82113437D01*
X116145226Y-82125095D01*
X116257629Y-82139141D01*
X116392461Y-82153821D01*
X116497345Y-82164773D01*
X116639468Y-82180462D01*
X116758545Y-82194559D01*
X116836321Y-82204961D01*
X116865310Y-82209285D01*
X116924003Y-82212442D01*
X116945245Y-82191815D01*
X116945342Y-82137282D01*
X116943191Y-82101902D01*
X116938987Y-81958028D01*
X116941769Y-81827824D01*
X116950668Y-81722805D01*
X116964812Y-81654488D01*
X116983333Y-81634387D01*
X116992636Y-81641970D01*
X117008183Y-81689718D01*
X117016076Y-81784678D01*
X117017007Y-81932997D01*
X117014804Y-82022234D01*
X117013781Y-82107652D01*
X117022372Y-82167184D01*
X117048782Y-82206950D01*
X117101218Y-82233067D01*
X117187883Y-82251656D01*
X117316985Y-82268833D01*
X117496729Y-82290719D01*
X117576033Y-82301068D01*
X117719617Y-82321983D01*
X117819721Y-82339875D01*
X117872352Y-82353810D01*
X117873516Y-82362855D01*
X117819221Y-82366078D01*
X117783665Y-82373578D01*
X117721106Y-82426864D01*
X117671163Y-82520848D01*
X117637893Y-82643104D01*
X117625350Y-82781202D01*
X117637589Y-82922715D01*
X117669112Y-83036581D01*
X117740157Y-83207077D01*
X117840405Y-83397019D01*
X117963342Y-83593006D01*
X118080206Y-83765096D01*
X117879561Y-83663351D01*
X117799867Y-83626044D01*
X117669483Y-83572179D01*
X117522844Y-83517174D01*
X117374230Y-83465906D01*
X117237918Y-83423250D01*
X117128187Y-83394081D01*
X117059316Y-83383274D01*
X117057738Y-83383286D01*
X117025347Y-83394763D01*
X117009941Y-83437408D01*
X117006229Y-83525383D01*
X117007426Y-83568921D01*
X117016168Y-83654157D01*
X117030507Y-83705007D01*
X117037063Y-83710542D01*
X117094682Y-83729930D01*
X117204818Y-83752377D01*
X117362082Y-83776894D01*
X117561085Y-83802491D01*
X117749782Y-83824962D01*
X117948276Y-83849179D01*
X118096239Y-83868234D01*
X118198738Y-83882946D01*
X118260842Y-83894136D01*
X118287618Y-83902621D01*
X118284136Y-83909222D01*
X118255463Y-83914758D01*
X118253479Y-83915025D01*
X118216803Y-83922835D01*
X118188793Y-83941114D01*
X118165126Y-83979453D01*
X118141478Y-84047440D01*
X118113526Y-84154666D01*
X118076948Y-84310718D01*
X118058267Y-84431213D01*
X118046026Y-84601104D01*
X118041310Y-84798548D01*
X118043902Y-85007218D01*
X118053583Y-85210791D01*
X118070136Y-85392939D01*
X118093342Y-85537338D01*
X118095944Y-85549150D01*
X118122065Y-85668166D01*
X118144481Y-85770993D01*
X118158587Y-85836513D01*
X118161685Y-85850696D01*
X118202568Y-86001181D01*
X118263631Y-86186832D01*
X118338650Y-86391335D01*
X118421402Y-86598375D01*
X118505662Y-86791639D01*
X118585207Y-86954811D01*
X118620023Y-87021321D01*
X118657751Y-87094447D01*
X118676759Y-87132735D01*
X118665103Y-87131527D01*
X118617660Y-87101608D01*
X118544927Y-87048506D01*
X118486852Y-87006445D01*
X118370275Y-86930601D01*
X118264934Y-86871144D01*
X118264434Y-86870895D01*
X118176765Y-86830462D01*
X118061695Y-86781640D01*
X117935672Y-86730897D01*
X117815140Y-86684701D01*
X117716549Y-86649518D01*
X117656343Y-86631817D01*
X117627595Y-86624709D01*
X117552523Y-86603463D01*
X117456584Y-86574649D01*
X117379119Y-86550673D01*
X117313891Y-86532392D01*
X117283551Y-86531456D01*
X117274972Y-86548573D01*
X117275029Y-86584452D01*
X117278210Y-86596964D01*
X117284863Y-86623132D01*
X117334864Y-86644287D01*
X117369757Y-86652617D01*
X117394699Y-86689164D01*
X117386112Y-86711719D01*
X117341382Y-86729024D01*
X117248507Y-86734040D01*
X117180833Y-86734976D01*
X117125272Y-86744540D01*
X117100041Y-86773165D01*
X117087927Y-86831272D01*
X117087453Y-86834599D01*
X117082161Y-86935225D01*
X117088471Y-87040695D01*
X117096352Y-87092388D01*
X117114645Y-87134686D01*
X117157108Y-87150426D01*
X117241571Y-87152646D01*
X117270019Y-87152682D01*
X117418251Y-87154739D01*
X117597460Y-87159557D01*
X117799394Y-87166694D01*
X118015799Y-87175706D01*
X118238425Y-87186148D01*
X118459018Y-87197579D01*
X118669326Y-87209554D01*
X118861098Y-87221630D01*
X119026081Y-87233363D01*
X119156023Y-87244310D01*
X119242671Y-87254027D01*
X119277775Y-87262071D01*
X119267355Y-87268598D01*
X119212104Y-87270877D01*
X119123674Y-87266429D01*
X119035729Y-87262222D01*
X118966455Y-87269656D01*
X118937521Y-87292913D01*
X118928814Y-87309503D01*
X118898889Y-87329126D01*
X118840824Y-87329393D01*
X118788326Y-87358510D01*
X118734309Y-87425840D01*
X118669063Y-87540304D01*
X118576009Y-87749129D01*
X118485535Y-88071085D01*
X118442502Y-88421979D01*
X118447425Y-88796759D01*
X118500820Y-89190376D01*
X118519401Y-89284517D01*
X118542229Y-89395059D01*
X118559422Y-89472178D01*
X118568245Y-89503188D01*
X118577125Y-89497416D01*
X118622598Y-89457648D01*
X118682766Y-89402081D01*
X121432861Y-89402081D01*
X121449095Y-89676129D01*
X121449112Y-89676420D01*
X121463349Y-89861343D01*
X121483220Y-90044234D01*
X121506689Y-90210655D01*
X121518493Y-90274557D01*
X121531722Y-90346168D01*
X121556283Y-90436337D01*
X121557287Y-90438979D01*
X121570515Y-90465488D01*
X121592943Y-90483546D01*
X121634697Y-90494771D01*
X121705904Y-90500784D01*
X121816692Y-90503204D01*
X121977186Y-90503651D01*
X122014400Y-90503645D01*
X122164381Y-90502950D01*
X122268562Y-90499696D01*
X122338603Y-90491896D01*
X122386164Y-90477567D01*
X122422905Y-90454722D01*
X122460485Y-90421378D01*
X122467203Y-90415097D01*
X122516250Y-90371794D01*
X122529951Y-90368890D01*
X122514478Y-90404452D01*
X122492979Y-90449914D01*
X122480683Y-90486726D01*
X122487489Y-90490503D01*
X122539429Y-90497248D01*
X122631362Y-90501911D01*
X122749941Y-90503651D01*
X123019199Y-90503651D01*
X123019199Y-90354064D01*
X123018769Y-90319736D01*
X123009560Y-90240123D01*
X122984198Y-90207352D01*
X122937219Y-90211955D01*
X122936539Y-90212141D01*
X122916677Y-90190039D01*
X122899668Y-90129682D01*
X122893671Y-90099668D01*
X122873643Y-90058895D01*
X122829070Y-90039637D01*
X122742307Y-90030811D01*
X122735758Y-90030379D01*
X122650914Y-90020183D01*
X122610588Y-90000169D01*
X122600353Y-89963496D01*
X122600869Y-89951650D01*
X122615171Y-89922124D01*
X122660008Y-89908562D01*
X122749941Y-89905300D01*
X122899528Y-89905300D01*
X122899528Y-89860424D01*
X123198704Y-89860424D01*
X123213663Y-89875383D01*
X123228621Y-89860424D01*
X123213663Y-89845465D01*
X123198704Y-89860424D01*
X122899528Y-89860424D01*
X122899528Y-89523357D01*
X123214318Y-89523357D01*
X123221252Y-89541102D01*
X123236587Y-89563457D01*
X123255677Y-89634864D01*
X123266128Y-89735093D01*
X123271556Y-89860424D01*
X123273498Y-89905272D01*
X123430565Y-89905286D01*
X123462754Y-89905505D01*
X123541429Y-89911000D01*
X123578406Y-89927550D01*
X123587632Y-89960016D01*
X123586285Y-89974989D01*
X123567188Y-90000708D01*
X123514953Y-90014668D01*
X123416251Y-90021665D01*
X123342600Y-90027253D01*
X123264499Y-90040589D01*
X123227108Y-90057337D01*
X123226016Y-90059711D01*
X123220251Y-90105128D01*
X123217924Y-90186579D01*
X123218663Y-90284896D01*
X123222093Y-90380907D01*
X123227840Y-90455443D01*
X123235531Y-90489335D01*
X123237474Y-90489830D01*
X123280191Y-90492828D01*
X123371700Y-90496766D01*
X123502936Y-90501322D01*
X123580600Y-90503651D01*
X123664834Y-90506177D01*
X123848331Y-90511010D01*
X124453082Y-90525916D01*
X124442274Y-90179568D01*
X124431465Y-89833219D01*
X124271327Y-89777727D01*
X124194949Y-89752653D01*
X124068178Y-89714446D01*
X123927403Y-89674733D01*
X123786877Y-89637283D01*
X123660855Y-89605865D01*
X123563591Y-89584250D01*
X123509340Y-89576207D01*
X123481402Y-89586107D01*
X123471638Y-89626299D01*
X123478200Y-89710836D01*
X123481861Y-89750022D01*
X123480366Y-89818833D01*
X123466366Y-89845465D01*
X123443607Y-89833034D01*
X123434163Y-89786097D01*
X123436712Y-89692373D01*
X123419960Y-89606940D01*
X123358221Y-89541270D01*
X123263881Y-89516830D01*
X123214318Y-89523357D01*
X122899528Y-89523357D01*
X122899528Y-89464366D01*
X122787338Y-89445536D01*
X122786990Y-89445478D01*
X122692684Y-89433441D01*
X122558415Y-89421222D01*
X122396633Y-89409449D01*
X122219790Y-89398744D01*
X122040335Y-89389735D01*
X121870718Y-89383046D01*
X121723391Y-89379303D01*
X121610803Y-89379132D01*
X121545406Y-89383156D01*
X121432861Y-89402081D01*
X118682766Y-89402081D01*
X118701142Y-89385110D01*
X118806691Y-89285499D01*
X118933181Y-89164507D01*
X119074546Y-89027829D01*
X119572430Y-88544052D01*
X119590541Y-88284189D01*
X119610299Y-88093853D01*
X119686927Y-87708022D01*
X119691850Y-87692240D01*
X124524750Y-87692240D01*
X124546910Y-88159648D01*
X124623918Y-88626325D01*
X124625084Y-88631456D01*
X124651476Y-88730803D01*
X124677249Y-88801404D01*
X124696979Y-88828268D01*
X124708702Y-88824252D01*
X124724499Y-88786368D01*
X124728311Y-88770876D01*
X124754043Y-88706562D01*
X124800033Y-88604863D01*
X124861564Y-88476049D01*
X124933922Y-88330387D01*
X124975796Y-88247436D01*
X125042179Y-88115214D01*
X125095307Y-88008468D01*
X125130566Y-87936488D01*
X125143345Y-87908566D01*
X125129871Y-87903855D01*
X125078523Y-87900824D01*
X125041752Y-87896767D01*
X125031755Y-87882772D01*
X125037774Y-87881284D01*
X125091132Y-87879352D01*
X125191766Y-87879970D01*
X125330656Y-87882805D01*
X125498781Y-87887527D01*
X125687119Y-87893802D01*
X125886651Y-87901299D01*
X126088353Y-87909687D01*
X126283206Y-87918632D01*
X126462188Y-87927803D01*
X126616278Y-87936869D01*
X126736454Y-87945497D01*
X126741561Y-87945919D01*
X126836021Y-87952154D01*
X126885802Y-87947474D01*
X126905192Y-87926889D01*
X126908480Y-87885407D01*
X126901103Y-87836661D01*
X126878563Y-87811072D01*
X126850382Y-87799573D01*
X126798143Y-87759242D01*
X126750069Y-87709748D01*
X126728975Y-87672262D01*
X126735748Y-87657047D01*
X126773293Y-87619906D01*
X126804994Y-87580780D01*
X126786510Y-87541565D01*
X126712556Y-87508073D01*
X126585341Y-87480762D01*
X126407077Y-87460090D01*
X126179974Y-87446512D01*
X125906242Y-87440488D01*
X125728474Y-87439937D01*
X125590161Y-87441930D01*
X125490020Y-87447582D01*
X125416977Y-87457937D01*
X125359958Y-87474041D01*
X125307891Y-87496937D01*
X125307129Y-87497319D01*
X125229501Y-87543698D01*
X125190818Y-87595486D01*
X125173262Y-87676443D01*
X125158303Y-87796113D01*
X125107727Y-87631566D01*
X125074524Y-87515234D01*
X125008117Y-87165489D01*
X124997768Y-86831044D01*
X125043597Y-86507325D01*
X125145724Y-86189755D01*
X125172665Y-86122531D01*
X125200438Y-86040689D01*
X125204452Y-85998236D01*
X125186524Y-85986101D01*
X125167397Y-85989557D01*
X125143345Y-86019292D01*
X125143133Y-86021779D01*
X125111775Y-86040613D01*
X125034264Y-86039748D01*
X125006487Y-86036715D01*
X124957047Y-86037469D01*
X124921927Y-86058769D01*
X124888243Y-86111988D01*
X124843113Y-86208501D01*
X124781089Y-86354784D01*
X124642467Y-86782891D01*
X124556812Y-87231015D01*
X124524750Y-87692240D01*
X119691850Y-87692240D01*
X119814511Y-87299036D01*
X119993526Y-86865671D01*
X120224446Y-86406706D01*
X120507747Y-85920917D01*
X120515748Y-85907979D01*
X120582261Y-85795075D01*
X120614320Y-85721984D01*
X120611740Y-85680248D01*
X120574333Y-85661408D01*
X120501912Y-85657008D01*
X120469908Y-85651373D01*
X120460061Y-85629011D01*
X120459657Y-85620316D01*
X120422982Y-85600122D01*
X120349636Y-85584534D01*
X120329488Y-85581907D01*
X120225580Y-85566920D01*
X120176885Y-85556874D01*
X120179566Y-85551620D01*
X120229785Y-85551006D01*
X120323703Y-85554884D01*
X120457481Y-85563102D01*
X120627282Y-85575511D01*
X120829268Y-85591961D01*
X121059599Y-85612301D01*
X121082616Y-85614393D01*
X121279304Y-85631501D01*
X121486170Y-85648358D01*
X121679968Y-85663121D01*
X121837455Y-85673949D01*
X121949367Y-85682410D01*
X122069997Y-85695224D01*
X122158442Y-85708963D01*
X122200907Y-85721808D01*
X122202358Y-85722893D01*
X122256414Y-85740358D01*
X122335536Y-85745650D01*
X122413943Y-85746820D01*
X122528606Y-85753337D01*
X122652709Y-85763806D01*
X122869611Y-85785357D01*
X122869611Y-85631430D01*
X122868107Y-85582214D01*
X122959364Y-85582214D01*
X122974322Y-85597173D01*
X122989281Y-85582214D01*
X122974322Y-85567256D01*
X122959364Y-85582214D01*
X122868107Y-85582214D01*
X122867508Y-85562620D01*
X122854675Y-85497390D01*
X122828224Y-85477503D01*
X122801242Y-85466289D01*
X122771190Y-85417668D01*
X122752633Y-85383483D01*
X122692906Y-85357833D01*
X122655476Y-85349437D01*
X122630270Y-85312956D01*
X122633855Y-85292284D01*
X122661954Y-85268080D01*
X122674062Y-85264154D01*
X122672005Y-85233078D01*
X122665837Y-85213550D01*
X122696417Y-85215746D01*
X122731621Y-85213736D01*
X122742461Y-85163081D01*
X122742189Y-85152635D01*
X122728860Y-85111511D01*
X122685020Y-85083320D01*
X122596266Y-85057677D01*
X122545456Y-85046937D01*
X122460577Y-85035765D01*
X122409187Y-85038293D01*
X122390087Y-85042457D01*
X122342220Y-85028304D01*
X122306139Y-85010914D01*
X122216354Y-84990490D01*
X122087880Y-84972504D01*
X121932465Y-84958006D01*
X121761854Y-84948049D01*
X121587794Y-84943684D01*
X121422033Y-84945961D01*
X121365040Y-84948295D01*
X121205330Y-84958192D01*
X121085581Y-84972989D01*
X120990468Y-84995083D01*
X120904665Y-85026870D01*
X120781034Y-85088121D01*
X120700562Y-85151037D01*
X120664752Y-85220364D01*
X120666256Y-85304665D01*
X120674325Y-85352452D01*
X120676517Y-85388671D01*
X120667602Y-85380112D01*
X120650451Y-85334802D01*
X120627935Y-85260770D01*
X120602924Y-85166046D01*
X120578291Y-85058657D01*
X120556065Y-84923285D01*
X120537166Y-84735139D01*
X120525711Y-84529201D01*
X120522348Y-84324666D01*
X120527723Y-84140728D01*
X120542483Y-83996584D01*
X120559084Y-83910401D01*
X120612886Y-83716450D01*
X120693344Y-83510925D01*
X120804170Y-83285944D01*
X120949079Y-83033628D01*
X121131784Y-82746097D01*
X121162789Y-82698919D01*
X121273551Y-82527100D01*
X121352280Y-82398190D01*
X121401463Y-82307697D01*
X121423589Y-82251135D01*
X121421146Y-82224013D01*
X121416656Y-82220803D01*
X121368598Y-82202638D01*
X121291791Y-82182933D01*
X121263593Y-82176312D01*
X121243903Y-82167501D01*
X121274977Y-82165615D01*
X121350964Y-82170152D01*
X121466014Y-82180612D01*
X121614277Y-82196494D01*
X121789904Y-82217295D01*
X121987043Y-82242514D01*
X122042860Y-82249881D01*
X122216593Y-82272568D01*
X122379422Y-82293499D01*
X122515213Y-82310611D01*
X122607832Y-82321843D01*
X122779858Y-82341768D01*
X122779858Y-82207665D01*
X122779377Y-82161269D01*
X122770952Y-82100072D01*
X122742665Y-82071270D01*
X122682626Y-82056360D01*
X122559130Y-82036116D01*
X122278455Y-82001271D01*
X122013124Y-81983051D01*
X121783667Y-81983130D01*
X121733452Y-81985702D01*
X121617510Y-81994620D01*
X121542861Y-82007972D01*
X121495599Y-82029148D01*
X121461817Y-82061534D01*
X121408734Y-82127089D01*
X121357156Y-81992035D01*
X121317137Y-81839429D01*
X121318260Y-81682646D01*
X121365141Y-81520148D01*
X121460026Y-81344272D01*
X121605167Y-81147360D01*
X121669409Y-81066374D01*
X121715256Y-81004556D01*
X121732744Y-80975334D01*
X121732739Y-80975168D01*
X121706059Y-80964416D01*
X121642991Y-80959953D01*
X121641940Y-80959951D01*
X121579258Y-80952640D01*
X121553239Y-80935383D01*
X121554171Y-80931468D01*
X121565974Y-80925104D01*
X121596696Y-80923232D01*
X121653058Y-80926492D01*
X121741783Y-80935525D01*
X121869594Y-80950972D01*
X122043211Y-80973474D01*
X122269358Y-81003673D01*
X122391960Y-81019494D01*
X122525506Y-81035142D01*
X122631197Y-81045781D01*
X122693342Y-81049705D01*
X122775176Y-81049705D01*
X122781708Y-80802886D01*
X122782265Y-80781471D01*
X122785326Y-80648765D01*
X122787527Y-80528306D01*
X122788422Y-80443875D01*
X122788989Y-80423728D01*
X122800329Y-80358129D01*
X122821627Y-80331722D01*
X122831374Y-80340683D01*
X122844306Y-80400574D01*
X122851897Y-80517737D01*
X122854253Y-80693343D01*
X122854250Y-80696961D01*
X122855697Y-80837085D01*
X122859792Y-80953500D01*
X122865918Y-81034165D01*
X122873455Y-81067040D01*
X122874529Y-81067555D01*
X122915204Y-81076581D01*
X123002543Y-81091633D01*
X123125071Y-81111014D01*
X123271313Y-81133029D01*
X123429792Y-81155979D01*
X123589033Y-81178169D01*
X123737560Y-81197902D01*
X123863898Y-81213480D01*
X123938177Y-81224091D01*
X124014307Y-81240484D01*
X124049303Y-81255809D01*
X124049783Y-81256688D01*
X124032166Y-81267951D01*
X123974886Y-81265264D01*
X123973680Y-81265088D01*
X123923815Y-81262557D01*
X123887767Y-81280395D01*
X123853292Y-81330236D01*
X123808146Y-81423716D01*
X123785907Y-81474083D01*
X123751905Y-81573296D01*
X123739699Y-81669506D01*
X123743923Y-81793616D01*
X123770382Y-81966194D01*
X123844733Y-82157129D01*
X123971576Y-82335534D01*
X123999727Y-82368549D01*
X124041827Y-82422502D01*
X124055044Y-82447155D01*
X124052678Y-82447417D01*
X124012819Y-82435475D01*
X123935024Y-82406159D01*
X123833082Y-82364598D01*
X123776122Y-82342316D01*
X123656645Y-82300710D01*
X123513189Y-82254814D01*
X123359204Y-82208514D01*
X123208142Y-82165697D01*
X123073455Y-82130250D01*
X122968593Y-82106058D01*
X122907008Y-82097010D01*
X122901780Y-82097931D01*
X122879803Y-82131532D01*
X122870279Y-82196548D01*
X122874526Y-82269779D01*
X122893864Y-82328020D01*
X122916474Y-82340039D01*
X122993108Y-82360954D01*
X123115871Y-82386038D01*
X123277146Y-82413773D01*
X123469319Y-82442642D01*
X123616140Y-82463757D01*
X123824948Y-82495360D01*
X124003245Y-82524292D01*
X124146239Y-82549631D01*
X124249136Y-82570454D01*
X124307143Y-82585839D01*
X124315467Y-82594863D01*
X124269314Y-82596604D01*
X124251892Y-82596259D01*
X124180798Y-82598831D01*
X124145413Y-82606854D01*
X124130294Y-82635487D01*
X124102134Y-82713733D01*
X124067801Y-82825581D01*
X124031151Y-82957058D01*
X123996044Y-83094190D01*
X123966337Y-83223003D01*
X123945888Y-83329523D01*
X123930542Y-83451752D01*
X123917650Y-83691319D01*
X123921049Y-83950348D01*
X123939668Y-84209320D01*
X123972437Y-84448714D01*
X124018283Y-84649010D01*
X124093020Y-84871195D01*
X124221058Y-85153624D01*
X124381979Y-85407435D01*
X124585444Y-85649673D01*
X124733451Y-85806884D01*
X124422320Y-85661259D01*
X124374093Y-85638972D01*
X124183681Y-85555643D01*
X123982933Y-85474096D01*
X123780021Y-85397042D01*
X123583116Y-85327193D01*
X123400390Y-85267260D01*
X123240016Y-85219956D01*
X123110165Y-85187990D01*
X123019008Y-85174076D01*
X122974718Y-85180924D01*
X122966538Y-85192823D01*
X122976429Y-85228351D01*
X123024243Y-85256157D01*
X123093993Y-85264974D01*
X123188680Y-85264218D01*
X123242793Y-85279045D01*
X123258539Y-85312956D01*
X123252393Y-85332869D01*
X123210967Y-85352175D01*
X123121280Y-85357833D01*
X122984022Y-85357833D01*
X123004415Y-85478538D01*
X123010695Y-85574515D01*
X123008277Y-85582214D01*
X122989614Y-85641648D01*
X122973695Y-85672553D01*
X122972096Y-85739747D01*
X122992235Y-85766820D01*
X123062954Y-85795841D01*
X123185475Y-85811940D01*
X123363250Y-85815788D01*
X123370899Y-85815878D01*
X123436462Y-85819110D01*
X123551222Y-85826495D01*
X123706811Y-85837431D01*
X123894858Y-85851318D01*
X124106993Y-85867555D01*
X124334846Y-85885540D01*
X124404349Y-85891103D01*
X124622724Y-85908521D01*
X124819191Y-85924100D01*
X124986204Y-85937248D01*
X125116217Y-85947373D01*
X125201681Y-85953882D01*
X125235050Y-85956184D01*
X125258452Y-85933041D01*
X125290044Y-85875783D01*
X125303863Y-85849451D01*
X125349221Y-85772243D01*
X125417050Y-85662041D01*
X125500825Y-85529385D01*
X125594021Y-85384812D01*
X125655592Y-85289378D01*
X125737364Y-85159561D01*
X125802586Y-85052254D01*
X125845754Y-84976579D01*
X125861366Y-84941656D01*
X125859544Y-84935743D01*
X125821341Y-84915301D01*
X125749175Y-84904995D01*
X125719818Y-84903412D01*
X125683655Y-84896941D01*
X125702560Y-84888183D01*
X125729838Y-84886519D01*
X125813461Y-84888625D01*
X125937400Y-84895742D01*
X126090031Y-84907162D01*
X126259732Y-84922175D01*
X126405799Y-84936313D01*
X126577088Y-84952825D01*
X126701214Y-84962629D01*
X126785660Y-84964134D01*
X126837908Y-84955749D01*
X126865443Y-84935886D01*
X126870175Y-84920760D01*
X126943098Y-84920760D01*
X126950240Y-84960802D01*
X126960453Y-84960339D01*
X126965953Y-84921535D01*
X126961163Y-84892128D01*
X126947878Y-84903460D01*
X126943098Y-84920760D01*
X126870175Y-84920760D01*
X126875746Y-84902954D01*
X126876302Y-84855363D01*
X126874593Y-84791523D01*
X126873745Y-84614140D01*
X126674210Y-84592584D01*
X126431958Y-84573658D01*
X126226778Y-84572783D01*
X126064754Y-84589544D01*
X125949581Y-84623261D01*
X125884957Y-84673261D01*
X125874579Y-84738866D01*
X125877152Y-84752862D01*
X125868466Y-84749599D01*
X125842759Y-84699647D01*
X125802620Y-84585535D01*
X125776750Y-84383312D01*
X125797282Y-84172409D01*
X125862123Y-83967968D01*
X125969180Y-83785129D01*
X125986566Y-83762075D01*
X126036861Y-83687400D01*
X126051916Y-83642526D01*
X126036221Y-83616131D01*
X126028917Y-83610338D01*
X126033881Y-83598388D01*
X126094924Y-83604729D01*
X126132423Y-83610812D01*
X126251615Y-83626979D01*
X126389282Y-83642371D01*
X126532442Y-83655927D01*
X126668116Y-83666586D01*
X126783323Y-83673286D01*
X126865083Y-83674967D01*
X126900416Y-83670569D01*
X126906259Y-83648178D01*
X126888107Y-83596863D01*
X126873274Y-83563300D01*
X126884661Y-83490984D01*
X126888827Y-83482100D01*
X126903128Y-83410839D01*
X126903111Y-83320911D01*
X126899981Y-83271072D01*
X126908211Y-83218431D01*
X126937607Y-83203699D01*
X126940366Y-83203773D01*
X126961689Y-83215097D01*
X126973305Y-83253310D01*
X126976787Y-83329323D01*
X126973708Y-83454051D01*
X126964143Y-83704473D01*
X127198090Y-83739718D01*
X127338209Y-83759502D01*
X127489370Y-83778667D01*
X127614769Y-83792471D01*
X127797500Y-83809978D01*
X127749941Y-83903281D01*
X127726955Y-83967339D01*
X127708153Y-84091064D01*
X127701839Y-84265842D01*
X127702331Y-84357339D01*
X127708311Y-84467798D01*
X127725304Y-84557480D01*
X127758599Y-84650273D01*
X127813486Y-84770066D01*
X127835355Y-84816071D01*
X127881585Y-84914884D01*
X127913667Y-84985732D01*
X127925677Y-85015650D01*
X127912099Y-85011720D01*
X127860366Y-84983966D01*
X127783219Y-84937712D01*
X127770221Y-84929909D01*
X127661922Y-84875324D01*
X127517085Y-84813808D01*
X127354071Y-84752347D01*
X127191241Y-84697928D01*
X127046956Y-84657539D01*
X126961051Y-84636848D01*
X126982529Y-84810356D01*
X126992421Y-84886926D01*
X126997411Y-84921535D01*
X127002826Y-84959091D01*
X127008694Y-84988944D01*
X127038370Y-84993756D01*
X127118170Y-85004092D01*
X127238745Y-85018809D01*
X127390748Y-85036766D01*
X127564832Y-85056823D01*
X127600716Y-85060931D01*
X127814707Y-85086570D01*
X127976326Y-85108135D01*
X128084129Y-85125362D01*
X128136671Y-85137992D01*
X128132508Y-85145762D01*
X128070197Y-85148410D01*
X128037617Y-85151481D01*
X128003939Y-85172840D01*
X127976622Y-85226140D01*
X127946313Y-85324685D01*
X127928709Y-85391058D01*
X127857592Y-85792079D01*
X127845208Y-86194948D01*
X127890893Y-86595871D01*
X127993985Y-86991054D01*
X128153820Y-87376702D01*
X128369737Y-87749021D01*
X128544053Y-88009627D01*
X128317138Y-87911552D01*
X128264812Y-87890148D01*
X128112317Y-87835044D01*
X127925757Y-87774491D01*
X127722053Y-87713454D01*
X127518125Y-87656898D01*
X127330893Y-87609787D01*
X127177277Y-87577087D01*
X127171786Y-87576095D01*
X127083588Y-87563616D01*
X127039909Y-87568124D01*
X127028150Y-87590774D01*
X127028481Y-87595083D01*
X127060830Y-87622589D01*
X127147821Y-87631566D01*
X127182225Y-87632381D01*
X127247730Y-87645239D01*
X127267491Y-87676443D01*
X127244867Y-87709921D01*
X127170259Y-87721777D01*
X127075194Y-87731613D01*
X127020376Y-87765569D01*
X127012561Y-87826771D01*
X127019027Y-87862824D01*
X127022711Y-87885407D01*
X127030107Y-87930742D01*
X127032824Y-87938524D01*
G37*
G36*
X117783627Y-94527562D02*
G01*
X117768669Y-94542521D01*
X117753710Y-94527562D01*
X117768669Y-94512603D01*
X117783627Y-94527562D01*
G37*
G36*
X119387073Y-84844612D02*
G01*
X119383099Y-84850702D01*
X119353538Y-84878255D01*
X119339340Y-84865959D01*
X119342014Y-84859230D01*
X119373880Y-84831419D01*
X119390599Y-84824139D01*
X119387073Y-84844612D01*
G37*
G36*
X113382180Y-86425362D02*
G01*
X113380794Y-86427257D01*
X113344897Y-86475272D01*
X113281822Y-86558758D01*
X113200065Y-86666496D01*
X113108120Y-86787268D01*
X112991058Y-86944108D01*
X112569456Y-87570478D01*
X112187433Y-88241052D01*
X111845521Y-88954836D01*
X111544251Y-89710836D01*
X111508181Y-89810655D01*
X111447381Y-89978981D01*
X111381928Y-90160253D01*
X111320887Y-90329365D01*
X111194848Y-90678635D01*
X110921570Y-90659400D01*
X110770764Y-90650470D01*
X110458855Y-90640541D01*
X110125053Y-90639462D01*
X109781004Y-90646664D01*
X109438357Y-90661577D01*
X109108758Y-90683631D01*
X108803854Y-90712257D01*
X108535293Y-90746884D01*
X108314723Y-90786943D01*
X108266370Y-90797178D01*
X108157019Y-90816999D01*
X108068252Y-90828758D01*
X108012722Y-90831017D01*
X108003082Y-90822339D01*
X108027317Y-90802441D01*
X108092749Y-90748793D01*
X108194073Y-90665744D01*
X108326037Y-90557598D01*
X108483388Y-90428661D01*
X108660872Y-90283236D01*
X108853239Y-90125628D01*
X108907778Y-90080941D01*
X109158871Y-89875119D01*
X109438056Y-89646154D01*
X109730727Y-89406031D01*
X110022276Y-89166737D01*
X110298096Y-88940258D01*
X110543580Y-88738581D01*
X110688517Y-88619483D01*
X110908031Y-88439158D01*
X111125672Y-88260432D01*
X111332569Y-88090586D01*
X111519856Y-87936900D01*
X111678661Y-87806654D01*
X111800117Y-87707129D01*
X111809308Y-87699603D01*
X112114993Y-87449163D01*
X112379883Y-87231846D01*
X112609454Y-87043149D01*
X112809179Y-86878566D01*
X112984530Y-86733594D01*
X113140984Y-86603728D01*
X113158185Y-86589459D01*
X113257895Y-86508624D01*
X113333171Y-86450849D01*
X113376953Y-86421355D01*
X113382180Y-86425362D01*
G37*
G36*
X126100706Y-91685394D02*
G01*
X126085748Y-91700353D01*
X126070789Y-91685394D01*
X126085748Y-91670436D01*
X126100706Y-91685394D01*
G37*
G36*
X110184570Y-92463251D02*
G01*
X110169611Y-92478210D01*
X110154652Y-92463251D01*
X110169611Y-92448292D01*
X110184570Y-92463251D01*
G37*
G36*
X129391637Y-95365253D02*
G01*
X129376678Y-95380212D01*
X129361719Y-95365253D01*
X129376678Y-95350294D01*
X129391637Y-95365253D01*
G37*
G36*
X120117196Y-95649470D02*
G01*
X119818021Y-95649470D01*
X119818021Y-95350294D01*
X120117196Y-95350294D01*
X120117196Y-95649470D01*
G37*
G36*
X129989988Y-94781861D02*
G01*
X129987829Y-94797699D01*
X129970043Y-94801806D01*
X129966462Y-94797421D01*
X129970043Y-94761916D01*
X129979041Y-94757235D01*
X129989988Y-94781861D01*
G37*
G36*
X125292932Y-93480448D02*
G01*
X125277974Y-93495406D01*
X125263015Y-93480448D01*
X125277974Y-93465489D01*
X125292932Y-93480448D01*
G37*
G36*
X122165725Y-80169489D02*
G01*
X122301177Y-80232351D01*
X122344358Y-80255591D01*
X122456827Y-80302567D01*
X122557611Y-80329223D01*
X122600520Y-80335669D01*
X122653592Y-80350942D01*
X122667040Y-80381479D01*
X122654214Y-80443001D01*
X122633692Y-80503838D01*
X122599971Y-80528109D01*
X122532409Y-80521629D01*
X122447462Y-80496427D01*
X122364743Y-80455188D01*
X122298476Y-80410169D01*
X122215156Y-80354280D01*
X122210223Y-80351075D01*
X122088808Y-80307282D01*
X121950378Y-80312099D01*
X121806057Y-80361771D01*
X121666968Y-80452545D01*
X121544237Y-80580667D01*
X121503277Y-80630060D01*
X121449077Y-80672228D01*
X121383732Y-80686689D01*
X121292221Y-80675840D01*
X121159522Y-80642080D01*
X120986261Y-80593466D01*
X120879781Y-80686957D01*
X120793223Y-80747820D01*
X120697515Y-80775552D01*
X120582442Y-80767111D01*
X120432965Y-80723737D01*
X120375775Y-80701838D01*
X120324725Y-80672629D01*
X120332178Y-80653565D01*
X120343516Y-80650841D01*
X120410354Y-80654596D01*
X120495090Y-80676726D01*
X120588087Y-80705440D01*
X120684782Y-80714374D01*
X120765117Y-80685453D01*
X120848837Y-80615245D01*
X120870437Y-80594114D01*
X120933364Y-80544281D01*
X120995024Y-80526001D01*
X121073956Y-80537100D01*
X121188696Y-80575405D01*
X121283091Y-80600197D01*
X121370905Y-80592448D01*
X121458616Y-80543638D01*
X121561528Y-80448560D01*
X121631305Y-80378701D01*
X121779411Y-80252736D01*
X121912646Y-80177400D01*
X122038816Y-80150412D01*
X122165725Y-80169489D01*
G37*
G36*
X113727015Y-94925717D02*
G01*
X113728522Y-94963433D01*
X113723082Y-94971864D01*
X113701422Y-94988373D01*
X113694896Y-94947723D01*
X113698044Y-94928734D01*
X113720315Y-94919873D01*
X113727015Y-94925717D01*
G37*
G36*
X123557715Y-95649470D02*
G01*
X123258539Y-95649470D01*
X123258539Y-95350294D01*
X123557715Y-95350294D01*
X123557715Y-95649470D01*
G37*
G36*
X130703285Y-94303180D02*
G01*
X130699115Y-94344335D01*
X130688195Y-94340577D01*
X130684244Y-94327035D01*
X130688195Y-94265783D01*
X130698584Y-94260708D01*
X130703285Y-94303180D01*
G37*
G36*
X129152296Y-95380212D02*
G01*
X129150137Y-95396050D01*
X129132351Y-95400157D01*
X129128771Y-95395772D01*
X129132351Y-95360267D01*
X129141350Y-95355586D01*
X129152296Y-95380212D01*
G37*
G36*
X119907773Y-84445347D02*
G01*
X119892815Y-84460306D01*
X119877856Y-84445347D01*
X119892815Y-84430389D01*
X119907773Y-84445347D01*
G37*
G36*
X129630977Y-94707067D02*
G01*
X129616018Y-94722026D01*
X129601060Y-94707067D01*
X129616018Y-94692108D01*
X129630977Y-94707067D01*
G37*
G36*
X129331802Y-95305418D02*
G01*
X129316843Y-95320377D01*
X129301884Y-95305418D01*
X129316843Y-95290459D01*
X129331802Y-95305418D01*
G37*
G36*
X118052885Y-94692108D02*
G01*
X118050726Y-94707947D01*
X118032940Y-94712053D01*
X118029360Y-94707668D01*
X118032940Y-94672163D01*
X118041939Y-94667483D01*
X118052885Y-94692108D01*
G37*
G36*
X122630270Y-90279270D02*
G01*
X122615312Y-90294228D01*
X122600353Y-90279270D01*
X122615312Y-90264311D01*
X122630270Y-90279270D01*
G37*
G36*
X130289163Y-95365253D02*
G01*
X130274205Y-95380212D01*
X130259246Y-95365253D01*
X130274205Y-95350294D01*
X130289163Y-95365253D01*
G37*
G36*
X128773762Y-90526927D02*
G01*
X128776748Y-90566042D01*
X128770010Y-90573880D01*
X128730895Y-90576866D01*
X128723057Y-90570129D01*
X128720071Y-90531014D01*
X128726809Y-90523175D01*
X128765924Y-90520189D01*
X128773762Y-90526927D01*
G37*
G36*
X129780565Y-94707067D02*
G01*
X129765606Y-94722026D01*
X129750647Y-94707067D01*
X129765606Y-94692108D01*
X129780565Y-94707067D01*
G37*
G36*
X114492697Y-86389988D02*
G01*
X114477738Y-86404947D01*
X114462779Y-86389988D01*
X114477738Y-86375029D01*
X114492697Y-86389988D01*
G37*
G36*
X125651943Y-83996584D02*
G01*
X125636984Y-84011543D01*
X125622025Y-83996584D01*
X125636984Y-83981625D01*
X125651943Y-83996584D01*
G37*
G36*
X122181507Y-85103533D02*
G01*
X122166548Y-85118492D01*
X122151590Y-85103533D01*
X122166548Y-85088575D01*
X122181507Y-85103533D01*
G37*
G36*
X112757479Y-88424382D02*
G01*
X112742520Y-88439340D01*
X112727561Y-88424382D01*
X112742520Y-88409423D01*
X112757479Y-88424382D01*
G37*
G36*
X129062544Y-95395171D02*
G01*
X129047585Y-95410129D01*
X129032626Y-95395171D01*
X129047585Y-95380212D01*
X129062544Y-95395171D01*
G37*
G36*
X129541225Y-94722026D02*
G01*
X129539065Y-94737864D01*
X129521280Y-94741971D01*
X129517699Y-94737586D01*
X129521280Y-94702081D01*
X129530278Y-94697400D01*
X129541225Y-94722026D01*
G37*
G36*
X126340047Y-92134158D02*
G01*
X126325088Y-92149117D01*
X126310129Y-92134158D01*
X126325088Y-92119199D01*
X126340047Y-92134158D01*
G37*
G36*
X129840400Y-95425088D02*
G01*
X129825441Y-95440047D01*
X129810482Y-95425088D01*
X129825441Y-95410129D01*
X129840400Y-95425088D01*
G37*
G36*
X129092461Y-95305418D02*
G01*
X129077503Y-95320377D01*
X129062544Y-95305418D01*
X129077503Y-95290459D01*
X129092461Y-95305418D01*
G37*
G36*
X126895250Y-92988154D02*
G01*
X126923439Y-93016725D01*
X126929011Y-93027318D01*
X126926970Y-93046643D01*
X126921710Y-93045297D01*
X126893521Y-93016725D01*
X126887949Y-93006133D01*
X126889990Y-92986808D01*
X126895250Y-92988154D01*
G37*
G36*
X125492383Y-93565214D02*
G01*
X125497063Y-93574213D01*
X125472438Y-93585159D01*
X125456599Y-93583000D01*
X125452493Y-93565214D01*
X125456878Y-93561633D01*
X125492383Y-93565214D01*
G37*
G36*
X117803572Y-83123989D02*
G01*
X117808253Y-83132988D01*
X117783627Y-83143934D01*
X117767789Y-83141775D01*
X117763682Y-83123989D01*
X117768067Y-83120408D01*
X117803572Y-83123989D01*
G37*
G36*
X125030012Y-83503305D02*
G01*
X125062241Y-83527421D01*
X125113427Y-83577738D01*
X125122521Y-83587556D01*
X125160973Y-83633747D01*
X125168734Y-83652532D01*
X125166925Y-83652172D01*
X125134696Y-83628056D01*
X125083510Y-83577738D01*
X125074416Y-83567921D01*
X125035964Y-83521730D01*
X125028203Y-83502945D01*
X125030012Y-83503305D01*
G37*
G36*
X130099685Y-94702081D02*
G01*
X130104366Y-94711079D01*
X130079740Y-94722026D01*
X130063902Y-94719867D01*
X130059795Y-94702081D01*
X130064180Y-94698500D01*
X130099685Y-94702081D01*
G37*
G36*
X127883796Y-94311162D02*
G01*
X127889297Y-94322986D01*
X127878319Y-94367031D01*
X127858767Y-94389672D01*
X127842289Y-94367151D01*
X127838622Y-94339328D01*
X127854221Y-94306249D01*
X127883796Y-94311162D01*
G37*
G36*
X124096230Y-94557479D02*
G01*
X124081272Y-94572438D01*
X124066313Y-94557479D01*
X124081272Y-94542521D01*
X124096230Y-94557479D01*
G37*
G36*
X111919788Y-89411661D02*
G01*
X111904829Y-89426619D01*
X111889870Y-89411661D01*
X111904829Y-89396702D01*
X111919788Y-89411661D01*
G37*
G36*
X120194847Y-84216343D02*
G01*
X120185612Y-84229633D01*
X120160307Y-84250883D01*
X120156125Y-84250592D01*
X120149536Y-84233274D01*
X120181654Y-84203150D01*
X120198373Y-84195871D01*
X120194847Y-84216343D01*
G37*
G36*
X129660895Y-95305418D02*
G01*
X129645936Y-95320377D01*
X129630977Y-95305418D01*
X129645936Y-95290459D01*
X129660895Y-95305418D01*
G37*
G36*
X119518845Y-84744523D02*
G01*
X119503887Y-84759482D01*
X119488928Y-84744523D01*
X119503887Y-84729564D01*
X119518845Y-84744523D01*
G37*
G36*
X129511307Y-94796820D02*
G01*
X129496348Y-94811778D01*
X129481389Y-94796820D01*
X129496348Y-94781861D01*
X129511307Y-94796820D01*
G37*
G36*
X114253356Y-94467727D02*
G01*
X114238398Y-94482685D01*
X114223439Y-94467727D01*
X114238398Y-94452768D01*
X114253356Y-94467727D01*
G37*
G36*
X125223125Y-93445544D02*
G01*
X125227805Y-93454542D01*
X125203180Y-93465489D01*
X125187342Y-93463330D01*
X125183235Y-93445544D01*
X125187620Y-93441963D01*
X125223125Y-93445544D01*
G37*
G36*
X111740282Y-89621084D02*
G01*
X111725323Y-89636042D01*
X111710365Y-89621084D01*
X111725323Y-89606125D01*
X111740282Y-89621084D01*
G37*
G36*
X125263015Y-92897055D02*
G01*
X125260856Y-92912894D01*
X125243070Y-92917000D01*
X125239489Y-92912615D01*
X125243070Y-92877110D01*
X125252069Y-92872430D01*
X125263015Y-92897055D01*
G37*
G36*
X129810482Y-94796820D02*
G01*
X129795524Y-94811778D01*
X129780565Y-94796820D01*
X129795524Y-94781861D01*
X129810482Y-94796820D01*
G37*
G36*
X125390663Y-93521611D02*
G01*
X125394529Y-93525552D01*
X125408868Y-93547468D01*
X125373915Y-93538359D01*
X125345995Y-93523439D01*
X125337017Y-93501184D01*
X125351438Y-93497980D01*
X125390663Y-93521611D01*
G37*
G36*
X119249587Y-95622831D02*
G01*
X119107479Y-95613712D01*
X118965371Y-95604594D01*
X118956252Y-95462485D01*
X118947133Y-95320377D01*
X119249587Y-95320377D01*
X119249587Y-95622831D01*
G37*
G36*
X126506322Y-92419721D02*
G01*
X126534511Y-92448292D01*
X126540083Y-92458884D01*
X126538042Y-92478210D01*
X126532782Y-92476863D01*
X126504593Y-92448292D01*
X126499021Y-92437700D01*
X126501062Y-92418374D01*
X126506322Y-92419721D01*
G37*
G36*
X129571142Y-94856655D02*
G01*
X129556183Y-94871614D01*
X129541225Y-94856655D01*
X129556183Y-94841696D01*
X129571142Y-94856655D01*
G37*
G36*
X126046166Y-93799184D02*
G01*
X126100706Y-93824499D01*
X126121017Y-93841155D01*
X126115665Y-93853501D01*
X126095411Y-93849815D01*
X126040871Y-93824499D01*
X126020561Y-93807843D01*
X126025912Y-93795498D01*
X126046166Y-93799184D01*
G37*
G36*
X112804084Y-94125021D02*
G01*
X112832273Y-94153592D01*
X112837845Y-94164185D01*
X112835804Y-94183510D01*
X112830544Y-94182164D01*
X112802355Y-94153592D01*
X112796783Y-94143000D01*
X112798824Y-94123675D01*
X112804084Y-94125021D01*
G37*
G36*
X129870318Y-95365253D02*
G01*
X129855359Y-95380212D01*
X129840400Y-95365253D01*
X129855359Y-95350294D01*
X129870318Y-95365253D01*
G37*
G36*
X123049116Y-85701884D02*
G01*
X123034157Y-85716843D01*
X123019199Y-85701884D01*
X123034157Y-85686926D01*
X123049116Y-85701884D01*
G37*
G36*
X126310129Y-92074323D02*
G01*
X126295170Y-92089281D01*
X126280212Y-92074323D01*
X126295170Y-92059364D01*
X126310129Y-92074323D01*
G37*
G36*
X125399373Y-83803466D02*
G01*
X125427561Y-83832038D01*
X125433134Y-83842630D01*
X125431093Y-83861955D01*
X125425833Y-83860609D01*
X125397644Y-83832038D01*
X125392071Y-83821445D01*
X125394113Y-83802120D01*
X125399373Y-83803466D01*
G37*
G36*
X126270239Y-93894307D02*
G01*
X126274920Y-93903306D01*
X126250294Y-93914252D01*
X126234456Y-93912093D01*
X126230349Y-93894307D01*
X126234734Y-93890726D01*
X126270239Y-93894307D01*
G37*
G36*
X119937691Y-80795406D02*
G01*
X119922732Y-80810365D01*
X119907773Y-80795406D01*
X119922732Y-80780448D01*
X119937691Y-80795406D01*
G37*
G36*
X125352768Y-87796113D02*
G01*
X125337809Y-87811072D01*
X125322850Y-87796113D01*
X125337809Y-87781154D01*
X125352768Y-87796113D01*
G37*
G36*
X124410365Y-95649470D02*
G01*
X124126148Y-95649470D01*
X124126148Y-95350294D01*
X124410365Y-95350294D01*
X124410365Y-95649470D01*
G37*
G36*
X129960070Y-94303180D02*
G01*
X129957911Y-94319018D01*
X129940125Y-94323125D01*
X129936545Y-94318740D01*
X129940125Y-94283235D01*
X129949124Y-94278555D01*
X129960070Y-94303180D01*
G37*
G36*
X117813545Y-94677150D02*
G01*
X117798586Y-94692108D01*
X117783627Y-94677150D01*
X117798586Y-94662191D01*
X117813545Y-94677150D01*
G37*
G36*
X126340047Y-93929211D02*
G01*
X126325088Y-93944170D01*
X126310129Y-93929211D01*
X126325088Y-93914252D01*
X126340047Y-93929211D01*
G37*
G36*
X120256812Y-80640832D02*
G01*
X120261492Y-80649831D01*
X120236866Y-80660777D01*
X120221028Y-80658618D01*
X120216921Y-80640832D01*
X120221306Y-80637252D01*
X120256812Y-80640832D01*
G37*
G36*
X129750647Y-94796820D02*
G01*
X129735689Y-94811778D01*
X129720730Y-94796820D01*
X129735689Y-94781861D01*
X129750647Y-94796820D01*
G37*
G36*
X112607891Y-88603887D02*
G01*
X112592932Y-88618846D01*
X112577974Y-88603887D01*
X112592932Y-88588928D01*
X112607891Y-88603887D01*
G37*
G36*
X129960070Y-94856655D02*
G01*
X129945111Y-94871614D01*
X129930153Y-94856655D01*
X129945111Y-94841696D01*
X129960070Y-94856655D01*
G37*
G36*
X129561170Y-95360267D02*
G01*
X129565850Y-95369266D01*
X129541225Y-95380212D01*
X129525386Y-95378053D01*
X129521280Y-95360267D01*
X129525664Y-95356686D01*
X129561170Y-95360267D01*
G37*
G36*
X112637809Y-93779623D02*
G01*
X112622850Y-93794582D01*
X112607891Y-93779623D01*
X112622850Y-93764664D01*
X112637809Y-93779623D01*
G37*
G36*
X113984099Y-86988339D02*
G01*
X113969140Y-87003298D01*
X113954181Y-86988339D01*
X113969140Y-86973380D01*
X113984099Y-86988339D01*
G37*
G36*
X130348998Y-95365253D02*
G01*
X130334040Y-95380212D01*
X130319081Y-95365253D01*
X130334040Y-95350294D01*
X130348998Y-95365253D01*
G37*
G36*
X131579579Y-93773415D02*
G01*
X131605535Y-93794582D01*
X131604436Y-93798871D01*
X131568968Y-93817101D01*
X131499058Y-93824499D01*
X131484660Y-93824279D01*
X131423711Y-93814939D01*
X131411071Y-93794582D01*
X131448457Y-93773886D01*
X131517548Y-93764664D01*
X131579579Y-93773415D01*
G37*
G36*
X123557715Y-94647232D02*
G01*
X123542756Y-94662191D01*
X123527797Y-94647232D01*
X123542756Y-94632273D01*
X123557715Y-94647232D01*
G37*
G36*
X125831448Y-93719788D02*
G01*
X125816490Y-93734747D01*
X125801531Y-93719788D01*
X125816490Y-93704829D01*
X125831448Y-93719788D01*
G37*
G36*
X123378209Y-94647232D02*
G01*
X123363250Y-94662191D01*
X123348292Y-94647232D01*
X123363250Y-94632273D01*
X123378209Y-94647232D01*
G37*
G36*
X125148954Y-84290281D02*
G01*
X125162802Y-84301050D01*
X125130879Y-84308356D01*
X125100535Y-84306241D01*
X125091612Y-84292643D01*
X125102197Y-84286715D01*
X125148954Y-84290281D01*
G37*
G36*
X129122379Y-95455006D02*
G01*
X129107420Y-95469965D01*
X129092461Y-95455006D01*
X129107420Y-95440047D01*
X129122379Y-95455006D01*
G37*
G36*
X113116490Y-88005536D02*
G01*
X113101531Y-88020495D01*
X113086572Y-88005536D01*
X113101531Y-87990577D01*
X113116490Y-88005536D01*
G37*
G36*
X126280212Y-92014488D02*
G01*
X126265253Y-92029446D01*
X126250294Y-92014488D01*
X126265253Y-91999529D01*
X126280212Y-92014488D01*
G37*
G36*
X126745662Y-92778731D02*
G01*
X126773851Y-92807303D01*
X126779424Y-92817895D01*
X126777382Y-92837220D01*
X126772122Y-92835874D01*
X126743934Y-92807303D01*
X126738361Y-92796710D01*
X126740402Y-92777385D01*
X126745662Y-92778731D01*
G37*
G36*
X126596075Y-92569308D02*
G01*
X126624263Y-92597880D01*
X126629836Y-92608472D01*
X126627795Y-92627797D01*
X126622535Y-92626451D01*
X126594346Y-92597880D01*
X126588773Y-92587287D01*
X126590815Y-92567962D01*
X126596075Y-92569308D01*
G37*
G36*
X126856803Y-95290794D02*
G01*
X126940052Y-95301906D01*
X126969445Y-95327856D01*
X126969738Y-95333801D01*
X126975815Y-95393964D01*
X126986845Y-95477444D01*
X127003114Y-95589635D01*
X126699057Y-95589635D01*
X126699057Y-95290459D01*
X126833686Y-95290459D01*
X126856803Y-95290794D01*
G37*
G36*
X127812582Y-95273724D02*
G01*
X127832179Y-95321298D01*
X127835924Y-95410129D01*
X127835924Y-95559717D01*
X127536749Y-95559717D01*
X127536749Y-95428828D01*
X127537066Y-95392180D01*
X127544780Y-95327168D01*
X127571882Y-95295852D01*
X127630241Y-95279240D01*
X127675671Y-95270428D01*
X127764593Y-95259427D01*
X127812582Y-95273724D01*
G37*
G36*
X125911228Y-93744719D02*
G01*
X125915909Y-93753718D01*
X125891283Y-93764664D01*
X125875445Y-93762505D01*
X125871338Y-93744719D01*
X125875723Y-93741139D01*
X125911228Y-93744719D01*
G37*
G36*
X126356734Y-92180380D02*
G01*
X126384923Y-92208952D01*
X126390496Y-92219544D01*
X126388454Y-92238869D01*
X126383194Y-92237523D01*
X126355005Y-92208952D01*
X126349433Y-92198359D01*
X126351474Y-92179034D01*
X126356734Y-92180380D01*
G37*
G36*
X123737220Y-94660425D02*
G01*
X123736070Y-94669109D01*
X123707302Y-94692108D01*
X123700532Y-94691765D01*
X123677385Y-94678915D01*
X123678761Y-94674116D01*
X123707302Y-94647232D01*
X123718891Y-94642557D01*
X123737220Y-94660425D01*
G37*
G36*
X126728975Y-94078799D02*
G01*
X126714016Y-94093757D01*
X126699057Y-94078799D01*
X126714016Y-94063840D01*
X126728975Y-94078799D01*
G37*
G36*
X126244000Y-91767641D02*
G01*
X126217986Y-91812544D01*
X126211968Y-91822228D01*
X126180888Y-91868849D01*
X126164672Y-91869707D01*
X126147202Y-91828415D01*
X126139688Y-91802264D01*
X126148728Y-91798238D01*
X126168778Y-91803704D01*
X126214951Y-91782367D01*
X126236080Y-91765776D01*
X126244000Y-91767641D01*
G37*
G36*
X129720730Y-94856655D02*
G01*
X129705771Y-94871614D01*
X129690812Y-94856655D01*
X129705771Y-94841696D01*
X129720730Y-94856655D01*
G37*
G36*
X125519043Y-83893219D02*
G01*
X125547232Y-83921790D01*
X125552804Y-83932383D01*
X125550763Y-83951708D01*
X125545503Y-83950362D01*
X125517314Y-83921790D01*
X125511742Y-83911198D01*
X125513783Y-83891873D01*
X125519043Y-83893219D01*
G37*
G36*
X119638515Y-84654770D02*
G01*
X119623557Y-84669729D01*
X119608598Y-84654770D01*
X119623557Y-84639811D01*
X119638515Y-84654770D01*
G37*
G36*
X123527797Y-94318139D02*
G01*
X123512838Y-94333098D01*
X123497879Y-94318139D01*
X123512838Y-94303180D01*
X123527797Y-94318139D01*
G37*
G36*
X129481389Y-94856655D02*
G01*
X129466431Y-94871614D01*
X129451472Y-94856655D01*
X129466431Y-94841696D01*
X129481389Y-94856655D01*
G37*
G36*
X129182214Y-95305418D02*
G01*
X129167255Y-95320377D01*
X129152296Y-95305418D01*
X129167255Y-95290459D01*
X129182214Y-95305418D01*
G37*
G36*
X126190459Y-93869376D02*
G01*
X126175500Y-93884334D01*
X126160541Y-93869376D01*
X126175500Y-93854417D01*
X126190459Y-93869376D01*
G37*
G36*
X130019905Y-94707067D02*
G01*
X130004947Y-94722026D01*
X129989988Y-94707067D01*
X130004947Y-94692108D01*
X130019905Y-94707067D01*
G37*
G36*
X126130624Y-91745230D02*
G01*
X126115665Y-91760188D01*
X126100706Y-91745230D01*
X126115665Y-91730271D01*
X126130624Y-91745230D01*
G37*
G36*
X113026737Y-94198469D02*
G01*
X113011778Y-94213427D01*
X112996819Y-94198469D01*
X113011778Y-94183510D01*
X113026737Y-94198469D01*
G37*
G36*
X126130624Y-95619552D02*
G01*
X125831448Y-95619552D01*
X125831448Y-95320377D01*
X126130624Y-95320377D01*
X126130624Y-95619552D01*
G37*
G36*
X113625088Y-87407185D02*
G01*
X113610129Y-87422144D01*
X113595170Y-87407185D01*
X113610129Y-87392226D01*
X113625088Y-87407185D01*
G37*
G36*
X122492047Y-85155892D02*
G01*
X122555477Y-85178327D01*
X122588326Y-85197142D01*
X122570435Y-85205684D01*
X122544549Y-85203133D01*
X122480683Y-85178327D01*
X122468582Y-85169829D01*
X122459321Y-85153059D01*
X122492047Y-85155892D01*
G37*
G36*
X129800510Y-94851669D02*
G01*
X129805190Y-94860667D01*
X129780565Y-94871614D01*
X129764727Y-94869454D01*
X129760620Y-94851669D01*
X129765005Y-94848088D01*
X129800510Y-94851669D01*
G37*
G36*
X129591087Y-94791833D02*
G01*
X129595768Y-94800832D01*
X129571142Y-94811778D01*
X129555304Y-94809619D01*
X129551197Y-94791833D01*
X129555582Y-94788253D01*
X129591087Y-94791833D01*
G37*
G36*
X116736513Y-95499882D02*
G01*
X116437338Y-95499882D01*
X116437338Y-95200707D01*
X116736513Y-95200707D01*
X116736513Y-95499882D01*
G37*
G36*
X126805498Y-92868484D02*
G01*
X126833686Y-92897055D01*
X126839259Y-92907648D01*
X126837218Y-92926973D01*
X126831957Y-92925627D01*
X126803769Y-92897055D01*
X126798196Y-92886463D01*
X126800237Y-92867138D01*
X126805498Y-92868484D01*
G37*
G36*
X117574205Y-94677150D02*
G01*
X117559246Y-94692108D01*
X117544287Y-94677150D01*
X117559246Y-94662191D01*
X117574205Y-94677150D01*
G37*
G36*
X117574205Y-95559717D02*
G01*
X117275029Y-95559717D01*
X117275029Y-95260542D01*
X117574205Y-95260542D01*
X117574205Y-95559717D01*
G37*
G36*
X127586611Y-94372988D02*
G01*
X127591292Y-94381986D01*
X127566666Y-94392933D01*
X127550828Y-94390774D01*
X127546721Y-94372988D01*
X127551106Y-94369407D01*
X127586611Y-94372988D01*
G37*
G36*
X123927347Y-94416767D02*
G01*
X123901429Y-94464043D01*
X123899722Y-94466638D01*
X123860724Y-94520320D01*
X123837438Y-94542521D01*
X123835020Y-94528152D01*
X123855310Y-94486116D01*
X123888097Y-94437967D01*
X123919989Y-94405874D01*
X123923234Y-94404140D01*
X123927347Y-94416767D01*
G37*
G36*
X112218963Y-93600118D02*
G01*
X112204004Y-93615076D01*
X112189046Y-93600118D01*
X112204004Y-93585159D01*
X112218963Y-93600118D01*
G37*
G36*
X113295995Y-87796113D02*
G01*
X113281036Y-87811072D01*
X113266077Y-87796113D01*
X113281036Y-87781154D01*
X113295995Y-87796113D01*
G37*
G36*
X130039850Y-94851669D02*
G01*
X130044531Y-94860667D01*
X130019905Y-94871614D01*
X130004067Y-94869454D01*
X129999960Y-94851669D01*
X130004345Y-94848088D01*
X130039850Y-94851669D01*
G37*
G36*
X125562190Y-93600118D02*
G01*
X125547232Y-93615076D01*
X125532273Y-93600118D01*
X125547232Y-93585159D01*
X125562190Y-93600118D01*
G37*
G36*
X128673616Y-95559717D02*
G01*
X128374440Y-95559717D01*
X128374440Y-95260542D01*
X128673616Y-95260542D01*
X128673616Y-95559717D01*
G37*
G36*
X128179315Y-94308888D02*
G01*
X128194935Y-94349822D01*
X128190630Y-94371192D01*
X128165017Y-94377974D01*
X128156847Y-94371850D01*
X128135100Y-94331332D01*
X128135956Y-94324653D01*
X128165017Y-94303180D01*
X128179315Y-94308888D01*
G37*
G36*
X125622025Y-93630035D02*
G01*
X125607067Y-93644994D01*
X125592108Y-93630035D01*
X125607067Y-93615076D01*
X125622025Y-93630035D01*
G37*
G36*
X111590695Y-89800589D02*
G01*
X111575736Y-89815548D01*
X111560777Y-89800589D01*
X111575736Y-89785630D01*
X111590695Y-89800589D01*
G37*
G36*
X126419827Y-93954142D02*
G01*
X126424507Y-93963141D01*
X126399882Y-93974087D01*
X126384044Y-93971928D01*
X126379937Y-93954142D01*
X126384322Y-93950561D01*
X126419827Y-93954142D01*
G37*
G36*
X129032626Y-95455006D02*
G01*
X129017667Y-95469965D01*
X129002709Y-95455006D01*
X129017667Y-95440047D01*
X129032626Y-95455006D01*
G37*
G36*
X113176325Y-94228386D02*
G01*
X113161366Y-94243345D01*
X113146407Y-94228386D01*
X113161366Y-94213427D01*
X113176325Y-94228386D01*
G37*
G36*
X129900235Y-95290459D02*
G01*
X129898076Y-95306298D01*
X129880290Y-95310404D01*
X129876710Y-95306019D01*
X129880290Y-95270514D01*
X129889289Y-95265834D01*
X129900235Y-95290459D01*
G37*
G36*
X125687155Y-93649596D02*
G01*
X125741696Y-93674912D01*
X125762006Y-93691567D01*
X125756654Y-93703913D01*
X125736401Y-93700227D01*
X125681861Y-93674912D01*
X125661550Y-93658256D01*
X125666902Y-93645910D01*
X125687155Y-93649596D01*
G37*
G36*
X129810482Y-95305418D02*
G01*
X129795524Y-95320377D01*
X129780565Y-95305418D01*
X129795524Y-95290459D01*
X129810482Y-95305418D01*
G37*
G36*
X129780565Y-95365253D02*
G01*
X129765606Y-95380212D01*
X129750647Y-95365253D01*
X129765606Y-95350294D01*
X129780565Y-95365253D01*
G37*
G36*
X126579387Y-92523086D02*
G01*
X126564428Y-92538045D01*
X126549470Y-92523086D01*
X126564428Y-92508127D01*
X126579387Y-92523086D01*
G37*
G36*
X126655910Y-92659061D02*
G01*
X126684099Y-92687632D01*
X126689671Y-92698225D01*
X126687630Y-92717550D01*
X126682370Y-92716204D01*
X126654181Y-92687632D01*
X126648608Y-92677040D01*
X126650650Y-92657715D01*
X126655910Y-92659061D01*
G37*
G36*
X120984805Y-95649470D02*
G01*
X120685630Y-95649470D01*
X120685630Y-95350294D01*
X120984805Y-95350294D01*
X120984805Y-95649470D01*
G37*
G36*
X129421554Y-95305418D02*
G01*
X129406596Y-95320377D01*
X129391637Y-95305418D01*
X129406596Y-95290459D01*
X129421554Y-95305418D01*
G37*
G36*
X113475500Y-87586690D02*
G01*
X113460541Y-87601649D01*
X113445583Y-87586690D01*
X113460541Y-87571731D01*
X113475500Y-87586690D01*
G37*
G36*
X112954800Y-88195377D02*
G01*
X112950825Y-88201468D01*
X112921265Y-88229021D01*
X112907067Y-88216724D01*
X112909741Y-88209995D01*
X112941607Y-88182184D01*
X112958326Y-88174905D01*
X112954800Y-88195377D01*
G37*
G36*
X127835924Y-94078799D02*
G01*
X127820965Y-94093757D01*
X127806007Y-94078799D01*
X127820965Y-94063840D01*
X127835924Y-94078799D01*
G37*
G36*
X129361719Y-95440047D02*
G01*
X129359560Y-95455885D01*
X129341774Y-95459992D01*
X129338194Y-95455607D01*
X129341774Y-95420102D01*
X129350773Y-95415421D01*
X129361719Y-95440047D01*
G37*
G36*
X125121405Y-93401941D02*
G01*
X125125271Y-93405881D01*
X125139610Y-93427798D01*
X125104657Y-93418689D01*
X125076737Y-93403769D01*
X125067759Y-93381514D01*
X125082180Y-93378310D01*
X125121405Y-93401941D01*
G37*
G36*
X126898508Y-94133647D02*
G01*
X126903188Y-94142646D01*
X126878563Y-94153592D01*
X126862724Y-94151433D01*
X126858618Y-94133647D01*
X126863002Y-94130067D01*
X126898508Y-94133647D01*
G37*
G36*
X126659167Y-94043895D02*
G01*
X126663848Y-94052893D01*
X126639222Y-94063840D01*
X126623384Y-94061681D01*
X126619277Y-94043895D01*
X126623662Y-94040314D01*
X126659167Y-94043895D01*
G37*
G36*
X127865842Y-94138634D02*
G01*
X127850883Y-94153592D01*
X127835924Y-94138634D01*
X127850883Y-94123675D01*
X127865842Y-94138634D01*
G37*
G36*
X125801531Y-90967373D02*
G01*
X125786572Y-90982332D01*
X125771613Y-90967373D01*
X125786572Y-90952415D01*
X125801531Y-90967373D01*
G37*
G36*
X126070789Y-91625559D02*
G01*
X126055830Y-91640518D01*
X126040871Y-91625559D01*
X126055830Y-91610601D01*
X126070789Y-91625559D01*
G37*
G36*
X121691827Y-95356135D02*
G01*
X121830416Y-95365253D01*
X121833936Y-95507385D01*
X121837455Y-95649516D01*
X121553239Y-95649470D01*
X121553239Y-95347016D01*
X121691827Y-95356135D01*
G37*
G36*
X129271967Y-95455006D02*
G01*
X129257008Y-95469965D01*
X129242049Y-95455006D01*
X129257008Y-95440047D01*
X129271967Y-95455006D01*
G37*
G36*
X129750647Y-95425088D02*
G01*
X129735689Y-95440047D01*
X129720730Y-95425088D01*
X129735689Y-95410129D01*
X129750647Y-95425088D01*
G37*
G36*
X123677385Y-94198469D02*
G01*
X123662426Y-94213427D01*
X123647467Y-94198469D01*
X123662426Y-94183510D01*
X123677385Y-94198469D01*
G37*
G36*
X110094817Y-92403416D02*
G01*
X110079858Y-92418374D01*
X110064899Y-92403416D01*
X110079858Y-92388457D01*
X110094817Y-92403416D01*
G37*
G36*
X117980948Y-94747321D02*
G01*
X117971713Y-94760611D01*
X117946408Y-94781861D01*
X117942226Y-94781570D01*
X117935637Y-94764252D01*
X117967755Y-94734128D01*
X117984474Y-94726848D01*
X117980948Y-94747321D01*
G37*
D11*
%TO.C,D1*%
X125795000Y-67370000D02*
X125795000Y-66890000D01*
X125795000Y-65870000D02*
X125795000Y-66270000D01*
X126195000Y-66870000D02*
X125805000Y-66300000D01*
X125425000Y-66890000D02*
X126185000Y-66890000D01*
X125245000Y-66270000D02*
X126345000Y-66270000D01*
X125805000Y-66300000D02*
X125425000Y-66890000D01*
D12*
X125850000Y-65100000D02*
G75*
G03*
X125850000Y-65100000I-100000J0D01*
G01*
%TO.C,G\u002A\u002A\u002A*%
G36*
X185621244Y-85264081D02*
G01*
X183908221Y-85255994D01*
X182195197Y-85247906D01*
X182195197Y-85128723D01*
X182428039Y-85128723D01*
X182429257Y-85138436D01*
X182450267Y-85146504D01*
X182495822Y-85153067D01*
X182570673Y-85158265D01*
X182679573Y-85162238D01*
X182827273Y-85165126D01*
X183018526Y-85167067D01*
X183258082Y-85168203D01*
X183550696Y-85168672D01*
X183901117Y-85168615D01*
X185417118Y-85167526D01*
X185227746Y-84988750D01*
X185130133Y-84897239D01*
X185002176Y-84778205D01*
X184861181Y-84647713D01*
X184723789Y-84521203D01*
X184409204Y-84232432D01*
X184169629Y-84450822D01*
X184095472Y-84517342D01*
X184004340Y-84595760D01*
X183937329Y-84649360D01*
X183905249Y-84669212D01*
X183887088Y-84659291D01*
X183829759Y-84614745D01*
X183745309Y-84542594D01*
X183644572Y-84451869D01*
X183408699Y-84234527D01*
X182942712Y-84657784D01*
X182919902Y-84678506D01*
X182776542Y-84808890D01*
X182648111Y-84925943D01*
X182542462Y-85022492D01*
X182467447Y-85091360D01*
X182430920Y-85125373D01*
X182428039Y-85128723D01*
X182195197Y-85128723D01*
X182195197Y-84151809D01*
X182304680Y-84151809D01*
X182304708Y-84227144D01*
X182305153Y-84454369D01*
X182306083Y-84657560D01*
X182307427Y-84829009D01*
X182309114Y-84961013D01*
X182311071Y-85045865D01*
X182313228Y-85075862D01*
X182314158Y-85075529D01*
X182345361Y-85050620D01*
X182412992Y-84991528D01*
X182508795Y-84905831D01*
X182624514Y-84801102D01*
X182751895Y-84684917D01*
X182882682Y-84564853D01*
X183008620Y-84448484D01*
X183121454Y-84343386D01*
X183212928Y-84257134D01*
X183274787Y-84197305D01*
X183298776Y-84171472D01*
X183296040Y-84165018D01*
X183259424Y-84122466D01*
X183185589Y-84047034D01*
X183081069Y-83945139D01*
X182952396Y-83823196D01*
X182806104Y-83687623D01*
X182304680Y-83227756D01*
X182304680Y-84151809D01*
X182195197Y-84151809D01*
X182195197Y-83183374D01*
X182417534Y-83183374D01*
X183119666Y-83824630D01*
X183185087Y-83884347D01*
X183358383Y-84042214D01*
X183500721Y-84171472D01*
X183516080Y-84185420D01*
X183652071Y-84308448D01*
X183760246Y-84405780D01*
X183834499Y-84471897D01*
X183868719Y-84501282D01*
X183884675Y-84505287D01*
X183916950Y-84494268D01*
X183967582Y-84462335D01*
X184041083Y-84405805D01*
X184141963Y-84320992D01*
X184274734Y-84204214D01*
X184331487Y-84153079D01*
X184490204Y-84153079D01*
X184673822Y-84325123D01*
X184676392Y-84327531D01*
X184773175Y-84417714D01*
X184899486Y-84534760D01*
X185039247Y-84663797D01*
X185176379Y-84789955D01*
X185495320Y-85082743D01*
X185495320Y-84168963D01*
X185495169Y-83906912D01*
X185494440Y-83701036D01*
X185492715Y-83544978D01*
X185489577Y-83432384D01*
X185484608Y-83356896D01*
X185477391Y-83312160D01*
X185467508Y-83291820D01*
X185454541Y-83289520D01*
X185438074Y-83298904D01*
X185437378Y-83299406D01*
X185395482Y-83334107D01*
X185316083Y-83403521D01*
X185207444Y-83500286D01*
X185077834Y-83617042D01*
X184935516Y-83746429D01*
X184490204Y-84153079D01*
X184331487Y-84153079D01*
X184443908Y-84051787D01*
X184653996Y-83860025D01*
X185392351Y-83183374D01*
X184663978Y-83174993D01*
X184645557Y-83174786D01*
X184377715Y-83172682D01*
X184073027Y-83171650D01*
X183755361Y-83171691D01*
X183448586Y-83172806D01*
X183176570Y-83174993D01*
X182417534Y-83183374D01*
X182195197Y-83183374D01*
X182195197Y-83058251D01*
X185604803Y-83058251D01*
X185605736Y-83183374D01*
X185613024Y-84161166D01*
X185619892Y-85082743D01*
X185620524Y-85167526D01*
X185621244Y-85264081D01*
G37*
D11*
%TO.C,D2*%
X129470000Y-65542500D02*
X128990000Y-65542500D01*
X128370000Y-66092500D02*
X128370000Y-64992500D01*
X127970000Y-65542500D02*
X128370000Y-65542500D01*
X128990000Y-65912500D02*
X128990000Y-65152500D01*
X128400000Y-65532500D02*
X128990000Y-65912500D01*
X128970000Y-65142500D02*
X128400000Y-65532500D01*
D12*
X127300000Y-60532500D02*
G75*
G03*
X127300000Y-60532500I-100000J0D01*
G01*
%TD*%
M02*
